%TF.GenerationSoftware,KiCad,Pcbnew,8.0.8*%
%TF.CreationDate,2025-04-11T21:47:07+02:00*%
%TF.ProjectId,TannenfluegelquerV31,54616e6e-656e-4666-9c75-6567656c7175,0.1*%
%TF.SameCoordinates,Original*%
%TF.FileFunction,Paste,Bot*%
%TF.FilePolarity,Positive*%
%FSLAX46Y46*%
G04 Gerber Fmt 4.6, Leading zero omitted, Abs format (unit mm)*
G04 Created by KiCad (PCBNEW 8.0.8) date 2025-04-11 21:47:07*
%MOMM*%
%LPD*%
G01*
G04 APERTURE LIST*
G04 Aperture macros list*
%AMRoundRect*
0 Rectangle with rounded corners*
0 $1 Rounding radius*
0 $2 $3 $4 $5 $6 $7 $8 $9 X,Y pos of 4 corners*
0 Add a 4 corners polygon primitive as box body*
4,1,4,$2,$3,$4,$5,$6,$7,$8,$9,$2,$3,0*
0 Add four circle primitives for the rounded corners*
1,1,$1+$1,$2,$3*
1,1,$1+$1,$4,$5*
1,1,$1+$1,$6,$7*
1,1,$1+$1,$8,$9*
0 Add four rect primitives between the rounded corners*
20,1,$1+$1,$2,$3,$4,$5,0*
20,1,$1+$1,$4,$5,$6,$7,0*
20,1,$1+$1,$6,$7,$8,$9,0*
20,1,$1+$1,$8,$9,$2,$3,0*%
G04 Aperture macros list end*
%ADD10RoundRect,0.090000X-0.641769X0.391577X0.018231X-0.751577X0.641769X-0.391577X-0.018231X0.751577X0*%
%ADD11RoundRect,0.090000X-0.018231X-0.751577X0.641769X0.391577X0.018231X0.751577X-0.641769X-0.391577X0*%
%ADD12RoundRect,0.090000X-0.605199X0.446021X-0.047343X-0.750306X0.605199X-0.446021X0.047343X0.750306X0*%
%ADD13RoundRect,0.250000X-0.337500X-0.475000X0.337500X-0.475000X0.337500X0.475000X-0.337500X0.475000X0*%
%ADD14RoundRect,0.090000X0.047343X-0.750306X0.605199X0.446021X-0.047343X0.750306X-0.605199X-0.446021X0*%
G04 APERTURE END LIST*
D10*
%TO.C,D17*%
X131442116Y-152303238D03*
X134300000Y-150653238D03*
X136750000Y-154896762D03*
X133892116Y-156546762D03*
%TD*%
D11*
%TO.C,D32*%
X59203942Y-156246762D03*
X56346058Y-154596762D03*
X58796058Y-150353238D03*
X61653942Y-152003238D03*
%TD*%
D10*
%TO.C,D18*%
X124542116Y-139750000D03*
X127400000Y-138100000D03*
X129850000Y-142343524D03*
X126992116Y-143993524D03*
%TD*%
D12*
%TO.C,D23*%
X109409184Y-70094640D03*
X112400000Y-68700000D03*
X114470830Y-73140908D03*
X111480014Y-74535548D03*
%TD*%
D11*
%TO.C,D27*%
X84750000Y-88186762D03*
X81892116Y-86536762D03*
X84342116Y-82293238D03*
X87200000Y-83943238D03*
%TD*%
%TO.C,D31*%
X66507884Y-142993524D03*
X63650000Y-141343524D03*
X66100000Y-137100000D03*
X68957884Y-138750000D03*
%TD*%
%TO.C,D29*%
X69450000Y-116486762D03*
X66592116Y-114836762D03*
X69042116Y-110593238D03*
X71900000Y-112243238D03*
%TD*%
D10*
%TO.C,D20*%
X120942116Y-112003238D03*
X123800000Y-110353238D03*
X126250000Y-114596762D03*
X123392116Y-116246762D03*
%TD*%
%TO.C,D19*%
X116642116Y-125450000D03*
X119500000Y-123800000D03*
X121950000Y-128043524D03*
X119092116Y-129693524D03*
%TD*%
D11*
%TO.C,D30*%
X73350000Y-130543524D03*
X70492116Y-128893524D03*
X72942116Y-124650000D03*
X75800000Y-126300000D03*
%TD*%
D13*
%TO.C,C1*%
X90125000Y-106200000D03*
X92200000Y-106200000D03*
%TD*%
D14*
%TO.C,D25*%
X88300000Y-60900000D03*
X85309184Y-59505360D03*
X87380014Y-55064452D03*
X90370830Y-56459092D03*
%TD*%
%TO.C,D26*%
X81800000Y-74357774D03*
X78809184Y-72963134D03*
X80880014Y-68522226D03*
X83870830Y-69916866D03*
%TD*%
D11*
%TO.C,D28*%
X76900000Y-102686762D03*
X74042116Y-101036762D03*
X76492116Y-96793238D03*
X79350000Y-98443238D03*
%TD*%
D12*
%TO.C,D24*%
X102609184Y-56594640D03*
X105600000Y-55200000D03*
X107670830Y-59640908D03*
X104680014Y-61035548D03*
%TD*%
D10*
%TO.C,D21*%
X113242116Y-97650000D03*
X116100000Y-96000000D03*
X118550000Y-100243524D03*
X115692116Y-101893524D03*
%TD*%
%TO.C,D22*%
X105542116Y-83743238D03*
X108400000Y-82093238D03*
X110850000Y-86336762D03*
X107992116Y-87986762D03*
%TD*%
M02*
