%TF.GenerationSoftware,KiCad,Pcbnew,8.0.8*%
%TF.CreationDate,2025-04-11T21:47:07+02:00*%
%TF.ProjectId,TannenfluegelquerV31,54616e6e-656e-4666-9c75-6567656c7175,0.1*%
%TF.SameCoordinates,Original*%
%TF.FileFunction,Copper,L2,Bot*%
%TF.FilePolarity,Positive*%
%FSLAX46Y46*%
G04 Gerber Fmt 4.6, Leading zero omitted, Abs format (unit mm)*
G04 Created by KiCad (PCBNEW 8.0.8) date 2025-04-11 21:47:07*
%MOMM*%
%LPD*%
G01*
G04 APERTURE LIST*
G04 Aperture macros list*
%AMRoundRect*
0 Rectangle with rounded corners*
0 $1 Rounding radius*
0 $2 $3 $4 $5 $6 $7 $8 $9 X,Y pos of 4 corners*
0 Add a 4 corners polygon primitive as box body*
4,1,4,$2,$3,$4,$5,$6,$7,$8,$9,$2,$3,0*
0 Add four circle primitives for the rounded corners*
1,1,$1+$1,$2,$3*
1,1,$1+$1,$4,$5*
1,1,$1+$1,$6,$7*
1,1,$1+$1,$8,$9*
0 Add four rect primitives between the rounded corners*
20,1,$1+$1,$2,$3,$4,$5,0*
20,1,$1+$1,$4,$5,$6,$7,0*
20,1,$1+$1,$6,$7,$8,$9,0*
20,1,$1+$1,$8,$9,$2,$3,0*%
G04 Aperture macros list end*
%TA.AperFunction,ComponentPad*%
%ADD10R,2.500000X2.500000*%
%TD*%
%TA.AperFunction,SMDPad,CuDef*%
%ADD11RoundRect,0.090000X-0.641769X0.391577X0.018231X-0.751577X0.641769X-0.391577X-0.018231X0.751577X0*%
%TD*%
%TA.AperFunction,SMDPad,CuDef*%
%ADD12RoundRect,0.090000X-0.018231X-0.751577X0.641769X0.391577X0.018231X0.751577X-0.641769X-0.391577X0*%
%TD*%
%TA.AperFunction,SMDPad,CuDef*%
%ADD13RoundRect,0.090000X-0.605199X0.446021X-0.047343X-0.750306X0.605199X-0.446021X0.047343X0.750306X0*%
%TD*%
%TA.AperFunction,SMDPad,CuDef*%
%ADD14RoundRect,0.250000X-0.337500X-0.475000X0.337500X-0.475000X0.337500X0.475000X-0.337500X0.475000X0*%
%TD*%
%TA.AperFunction,SMDPad,CuDef*%
%ADD15RoundRect,0.090000X0.047343X-0.750306X0.605199X0.446021X-0.047343X0.750306X-0.605199X-0.446021X0*%
%TD*%
%TA.AperFunction,ViaPad*%
%ADD16C,2.000000*%
%TD*%
%TA.AperFunction,ViaPad*%
%ADD17C,0.600000*%
%TD*%
%TA.AperFunction,Conductor*%
%ADD18C,0.800000*%
%TD*%
%TA.AperFunction,Conductor*%
%ADD19C,0.200000*%
%TD*%
G04 APERTURE END LIST*
D10*
%TO.P,M1,1,Pin_1*%
%TO.N,unconnected-(M1-Pin_1-Pad1)*%
X99150000Y-128400000D03*
%TD*%
%TO.P,J3,1,Pin_1*%
%TO.N,VSS*%
X101400000Y-173900000D03*
%TD*%
%TO.P,M3,1,Pin_1*%
%TO.N,unconnected-(M3-Pin_1-Pad1)*%
X93650000Y-128400000D03*
%TD*%
%TO.P,M2,1,Pin_1*%
%TO.N,unconnected-(M2-Pin_1-Pad1)*%
X93600000Y-84500000D03*
%TD*%
%TO.P,J4,1,Pin_1*%
%TO.N,Net-(D32-DOUT)*%
X109400000Y-173900000D03*
%TD*%
%TO.P,J1,1,Pin_1*%
%TO.N,VDD*%
X91400000Y-173900000D03*
%TD*%
%TO.P,M4,1,Pin_1*%
%TO.N,unconnected-(M4-Pin_1-Pad1)*%
X99200000Y-84500000D03*
%TD*%
%TO.P,J2,1,Pin_1*%
%TO.N,Net-(D1-DIN)*%
X83400000Y-173900000D03*
%TD*%
D11*
%TO.P,D17,1,VDD*%
%TO.N,VDD*%
X131442116Y-152303238D03*
%TO.P,D17,2,DOUT*%
%TO.N,Net-(D17-DOUT)*%
X134300000Y-150653238D03*
%TO.P,D17,3,VSS*%
%TO.N,VSS*%
X136750000Y-154896762D03*
%TO.P,D17,4,DIN*%
%TO.N,Net-(D16-DOUT)*%
X133892116Y-156546762D03*
%TD*%
D12*
%TO.P,D32,1,VDD*%
%TO.N,VDD*%
X59203942Y-156246762D03*
%TO.P,D32,2,DOUT*%
%TO.N,Net-(D32-DOUT)*%
X56346058Y-154596762D03*
%TO.P,D32,3,VSS*%
%TO.N,VSS*%
X58796058Y-150353238D03*
%TO.P,D32,4,DIN*%
%TO.N,Net-(D31-DOUT)*%
X61653942Y-152003238D03*
%TD*%
D11*
%TO.P,D18,1,VDD*%
%TO.N,VDD*%
X124542116Y-139750000D03*
%TO.P,D18,2,DOUT*%
%TO.N,Net-(D18-DOUT)*%
X127400000Y-138100000D03*
%TO.P,D18,3,VSS*%
%TO.N,VSS*%
X129850000Y-142343524D03*
%TO.P,D18,4,DIN*%
%TO.N,Net-(D17-DOUT)*%
X126992116Y-143993524D03*
%TD*%
D13*
%TO.P,D23,1,VDD*%
%TO.N,VDD*%
X109409184Y-70094640D03*
%TO.P,D23,2,DOUT*%
%TO.N,Net-(D23-DOUT)*%
X112400000Y-68700000D03*
%TO.P,D23,3,VSS*%
%TO.N,VSS*%
X114470830Y-73140908D03*
%TO.P,D23,4,DIN*%
%TO.N,Net-(D22-DOUT)*%
X111480014Y-74535548D03*
%TD*%
D12*
%TO.P,D27,1,VDD*%
%TO.N,VDD*%
X84750000Y-88186762D03*
%TO.P,D27,2,DOUT*%
%TO.N,Net-(D27-DOUT)*%
X81892116Y-86536762D03*
%TO.P,D27,3,VSS*%
%TO.N,VSS*%
X84342116Y-82293238D03*
%TO.P,D27,4,DIN*%
%TO.N,Net-(D26-DOUT)*%
X87200000Y-83943238D03*
%TD*%
%TO.P,D31,1,VDD*%
%TO.N,VDD*%
X66507884Y-142993524D03*
%TO.P,D31,2,DOUT*%
%TO.N,Net-(D31-DOUT)*%
X63650000Y-141343524D03*
%TO.P,D31,3,VSS*%
%TO.N,VSS*%
X66100000Y-137100000D03*
%TO.P,D31,4,DIN*%
%TO.N,Net-(D30-DOUT)*%
X68957884Y-138750000D03*
%TD*%
%TO.P,D29,1,VDD*%
%TO.N,VDD*%
X69450000Y-116486762D03*
%TO.P,D29,2,DOUT*%
%TO.N,Net-(D29-DOUT)*%
X66592116Y-114836762D03*
%TO.P,D29,3,VSS*%
%TO.N,VSS*%
X69042116Y-110593238D03*
%TO.P,D29,4,DIN*%
%TO.N,Net-(D28-DOUT)*%
X71900000Y-112243238D03*
%TD*%
D11*
%TO.P,D20,1,VDD*%
%TO.N,VDD*%
X120942116Y-112003238D03*
%TO.P,D20,2,DOUT*%
%TO.N,Net-(D20-DOUT)*%
X123800000Y-110353238D03*
%TO.P,D20,3,VSS*%
%TO.N,VSS*%
X126250000Y-114596762D03*
%TO.P,D20,4,DIN*%
%TO.N,Net-(D19-DOUT)*%
X123392116Y-116246762D03*
%TD*%
%TO.P,D19,1,VDD*%
%TO.N,VDD*%
X116642116Y-125450000D03*
%TO.P,D19,2,DOUT*%
%TO.N,Net-(D19-DOUT)*%
X119500000Y-123800000D03*
%TO.P,D19,3,VSS*%
%TO.N,VSS*%
X121950000Y-128043524D03*
%TO.P,D19,4,DIN*%
%TO.N,Net-(D18-DOUT)*%
X119092116Y-129693524D03*
%TD*%
D12*
%TO.P,D30,1,VDD*%
%TO.N,VDD*%
X73350000Y-130543524D03*
%TO.P,D30,2,DOUT*%
%TO.N,Net-(D30-DOUT)*%
X70492116Y-128893524D03*
%TO.P,D30,3,VSS*%
%TO.N,VSS*%
X72942116Y-124650000D03*
%TO.P,D30,4,DIN*%
%TO.N,Net-(D29-DOUT)*%
X75800000Y-126300000D03*
%TD*%
D14*
%TO.P,C1,1*%
%TO.N,VDD*%
X90125000Y-106200000D03*
%TO.P,C1,2*%
%TO.N,VSS*%
X92200000Y-106200000D03*
%TD*%
D15*
%TO.P,D25,1,VDD*%
%TO.N,VDD*%
X88300000Y-60900000D03*
%TO.P,D25,2,DOUT*%
%TO.N,Net-(D25-DOUT)*%
X85309184Y-59505360D03*
%TO.P,D25,3,VSS*%
%TO.N,VSS*%
X87380014Y-55064452D03*
%TO.P,D25,4,DIN*%
%TO.N,Net-(D24-DOUT)*%
X90370830Y-56459092D03*
%TD*%
%TO.P,D26,1,VDD*%
%TO.N,VDD*%
X81800000Y-74357774D03*
%TO.P,D26,2,DOUT*%
%TO.N,Net-(D26-DOUT)*%
X78809184Y-72963134D03*
%TO.P,D26,3,VSS*%
%TO.N,VSS*%
X80880014Y-68522226D03*
%TO.P,D26,4,DIN*%
%TO.N,Net-(D25-DOUT)*%
X83870830Y-69916866D03*
%TD*%
D12*
%TO.P,D28,1,VDD*%
%TO.N,VDD*%
X76900000Y-102686762D03*
%TO.P,D28,2,DOUT*%
%TO.N,Net-(D28-DOUT)*%
X74042116Y-101036762D03*
%TO.P,D28,3,VSS*%
%TO.N,VSS*%
X76492116Y-96793238D03*
%TO.P,D28,4,DIN*%
%TO.N,Net-(D27-DOUT)*%
X79350000Y-98443238D03*
%TD*%
D13*
%TO.P,D24,1,VDD*%
%TO.N,VDD*%
X102609184Y-56594640D03*
%TO.P,D24,2,DOUT*%
%TO.N,Net-(D24-DOUT)*%
X105600000Y-55200000D03*
%TO.P,D24,3,VSS*%
%TO.N,VSS*%
X107670830Y-59640908D03*
%TO.P,D24,4,DIN*%
%TO.N,Net-(D23-DOUT)*%
X104680014Y-61035548D03*
%TD*%
D11*
%TO.P,D21,1,VDD*%
%TO.N,VDD*%
X113242116Y-97650000D03*
%TO.P,D21,2,DOUT*%
%TO.N,Net-(D21-DOUT)*%
X116100000Y-96000000D03*
%TO.P,D21,3,VSS*%
%TO.N,VSS*%
X118550000Y-100243524D03*
%TO.P,D21,4,DIN*%
%TO.N,Net-(D20-DOUT)*%
X115692116Y-101893524D03*
%TD*%
%TO.P,D22,1,VDD*%
%TO.N,VDD*%
X105542116Y-83743238D03*
%TO.P,D22,2,DOUT*%
%TO.N,Net-(D22-DOUT)*%
X108400000Y-82093238D03*
%TO.P,D22,3,VSS*%
%TO.N,VSS*%
X110850000Y-86336762D03*
%TO.P,D22,4,DIN*%
%TO.N,Net-(D21-DOUT)*%
X107992116Y-87986762D03*
%TD*%
D16*
%TO.N,VSS*%
X64000000Y-147700000D03*
X116900000Y-113900000D03*
X74400000Y-114200000D03*
X87700000Y-66100000D03*
X86950000Y-112350000D03*
X101400000Y-110800000D03*
%TO.N,VDD*%
X114200000Y-119400000D03*
X126992116Y-152300000D03*
X84750000Y-98400000D03*
X91400000Y-151200000D03*
X71700000Y-151200000D03*
X76900000Y-137000000D03*
X103300000Y-88000000D03*
D17*
%TO.N,Net-(D8-DOUT)*%
X88900000Y-53500000D03*
X92000000Y-56500000D03*
%TO.N,Net-(D16-DOUT)*%
X136600000Y-157100000D03*
%TO.N,Net-(D32-DOUT)*%
X88900000Y-159000000D03*
%TD*%
D18*
%TO.N,VSS*%
X116700000Y-132800000D02*
X120106620Y-132800000D01*
X107670830Y-59640908D02*
X106529922Y-58500000D01*
X111400000Y-70000000D02*
X111400000Y-70200000D01*
X87380014Y-58619986D02*
X87380014Y-55064452D01*
X86950000Y-112350000D02*
X89100000Y-110200000D01*
X76492116Y-101101266D02*
X74400000Y-103193382D01*
X66100000Y-138185496D02*
X66757252Y-138842748D01*
X113500000Y-105200000D02*
X116333623Y-105200000D01*
X116243431Y-98456569D02*
X118030385Y-100243524D01*
X115400000Y-131500000D02*
X116700000Y-132800000D01*
X88000000Y-70800000D02*
X88000000Y-66400000D01*
X92200000Y-106200000D02*
X92200000Y-108300000D01*
X66757252Y-138842748D02*
X68307059Y-140392555D01*
X103400000Y-58500000D02*
X102300000Y-59600000D01*
X66100000Y-137100000D02*
X66100000Y-138185496D01*
X118030385Y-100243524D02*
X118550000Y-100243524D01*
X120106620Y-132800000D02*
X128203310Y-140896690D01*
X68307059Y-140392555D02*
X70600000Y-140392555D01*
X76492116Y-99700000D02*
X76492116Y-101101266D01*
X105800000Y-90200000D02*
X109800000Y-94200000D01*
X116333623Y-105200000D02*
X124016811Y-112883189D01*
X104200000Y-65000000D02*
X107400000Y-65000000D01*
X117300000Y-114300000D02*
X116900000Y-113900000D01*
X86800000Y-59900000D02*
X87380014Y-58619986D01*
X124016811Y-112883189D02*
X125730385Y-114596762D01*
X83900000Y-86200000D02*
X84342116Y-84442116D01*
X64000000Y-143300000D02*
X66757252Y-140542748D01*
X124016811Y-112883189D02*
X122600000Y-114300000D01*
X76492116Y-99700000D02*
X77600000Y-99700000D01*
X102300000Y-59600000D02*
X102300000Y-63100000D01*
X82300000Y-100100000D02*
X82300000Y-89000000D01*
X86200000Y-72200000D02*
X88000000Y-70800000D01*
X82300000Y-89000000D02*
X83900000Y-86200000D01*
X116700000Y-122993380D02*
X120053310Y-126346690D01*
X76492116Y-96793238D02*
X76492116Y-99700000D01*
X81300000Y-101100000D02*
X82300000Y-100100000D01*
X124400000Y-146500000D02*
X128153382Y-146500000D01*
X101400000Y-110800000D02*
X101300000Y-110700000D01*
X116243431Y-98456569D02*
X114400000Y-100300000D01*
X83000000Y-72200000D02*
X86200000Y-72200000D01*
X74400000Y-103193382D02*
X74400000Y-114200000D01*
X111529922Y-70200000D02*
X112464961Y-71135039D01*
X108600000Y-84500000D02*
X105800000Y-87300000D01*
X71563382Y-114200000D02*
X74400000Y-114200000D01*
X62100000Y-154400000D02*
X64000000Y-152500000D01*
X124400000Y-143000000D02*
X124400000Y-146500000D01*
X72300000Y-129600000D02*
X72300000Y-126300000D01*
X113400000Y-95613139D02*
X116243431Y-98456569D01*
X69042116Y-111678734D02*
X71563382Y-114200000D01*
X112464961Y-71135039D02*
X114470830Y-73140908D01*
X122600000Y-114300000D02*
X117300000Y-114300000D01*
X101400000Y-173900000D02*
X101400000Y-160000000D01*
X120053310Y-126346690D02*
X121750144Y-128043524D01*
X125730385Y-114596762D02*
X126250000Y-114596762D01*
X110200000Y-67800000D02*
X110200000Y-68800000D01*
X110200000Y-68800000D02*
X111400000Y-70000000D01*
X110436762Y-86336762D02*
X110850000Y-86336762D01*
X111400000Y-70200000D02*
X111529922Y-70200000D01*
X109500000Y-72400000D02*
X106800000Y-75100000D01*
X109800000Y-94200000D02*
X112000000Y-94200000D01*
X113400000Y-95600000D02*
X112000000Y-94200000D01*
X84342116Y-84442116D02*
X84342116Y-82293238D01*
X80880014Y-68522226D02*
X80880014Y-70080014D01*
X70600000Y-140392555D02*
X70600000Y-131300144D01*
X106800000Y-75100000D02*
X106800000Y-82700000D01*
X128203310Y-140896690D02*
X129650144Y-142343524D01*
X116700000Y-114100000D02*
X116700000Y-122993380D01*
X113500000Y-100300000D02*
X113500000Y-105200000D01*
X64000000Y-152500000D02*
X64000000Y-143300000D01*
X85800000Y-61800000D02*
X86800000Y-59900000D01*
X60900000Y-154400000D02*
X62100000Y-154400000D01*
X102300000Y-63100000D02*
X104200000Y-65000000D01*
X136550144Y-154896762D02*
X136750000Y-154896762D01*
X115400000Y-128400000D02*
X115400000Y-131500000D01*
X89100000Y-110200000D02*
X90300000Y-110200000D01*
X79000000Y-101100000D02*
X81300000Y-101100000D01*
X101400000Y-160000000D02*
X101400000Y-110800000D01*
X72300000Y-126300000D02*
X72942116Y-125657884D01*
X128153382Y-146500000D02*
X136550144Y-154896762D01*
X111200000Y-72400000D02*
X109500000Y-72400000D01*
X106529922Y-58500000D02*
X103400000Y-58500000D01*
X69042116Y-110593238D02*
X69042116Y-111678734D01*
X106800000Y-82700000D02*
X108600000Y-84500000D01*
X58842116Y-150393238D02*
X58842116Y-152342116D01*
X85500000Y-63900000D02*
X85800000Y-61800000D01*
X105800000Y-87300000D02*
X105800000Y-90200000D01*
X70600000Y-131300144D02*
X72300000Y-129600000D01*
X116900000Y-113900000D02*
X116700000Y-114100000D01*
X113400000Y-95613139D02*
X113400000Y-95600000D01*
X121750144Y-128043524D02*
X121950000Y-128043524D01*
X92200000Y-108300000D02*
X90300000Y-110200000D01*
X58842116Y-152342116D02*
X60900000Y-154400000D01*
X128203310Y-140896690D02*
X126503310Y-140896690D01*
X107400000Y-65000000D02*
X110200000Y-67800000D01*
X108600000Y-84500000D02*
X110436762Y-86336762D01*
X118800000Y-127600000D02*
X116200000Y-127600000D01*
X126503310Y-140896690D02*
X124400000Y-143000000D01*
X129650144Y-142343524D02*
X129850000Y-142343524D01*
X120053310Y-126346690D02*
X118800000Y-127600000D01*
X80880014Y-70080014D02*
X83000000Y-72200000D01*
X77600000Y-99700000D02*
X79000000Y-101100000D01*
X88000000Y-66400000D02*
X85500000Y-63900000D01*
X112464961Y-71135039D02*
X111200000Y-72400000D01*
X116200000Y-127600000D02*
X115400000Y-128400000D01*
X66757252Y-140542748D02*
X66757252Y-138842748D01*
X72942116Y-125657884D02*
X72942116Y-124650000D01*
X114400000Y-100300000D02*
X113500000Y-100300000D01*
%TO.N,VDD*%
X112803238Y-138403238D02*
X112803238Y-121611122D01*
X120942116Y-112003238D02*
X114200000Y-112003238D01*
X84750000Y-98400000D02*
X84750000Y-88186762D01*
X90125000Y-103975000D02*
X91100000Y-103000000D01*
X89800000Y-77600000D02*
X86557774Y-74357774D01*
X86557774Y-74357774D02*
X81800000Y-74357774D01*
X102900000Y-67600000D02*
X100400000Y-65100000D01*
X71700000Y-149400000D02*
X68500000Y-146200000D01*
X89800000Y-62400000D02*
X88300000Y-60900000D01*
X104700000Y-67900000D02*
X105000000Y-67600000D01*
X124542116Y-139750000D02*
X118300000Y-139750000D01*
X114200000Y-119400000D02*
X114200000Y-112003238D01*
X112803238Y-112003238D02*
X108850000Y-108050000D01*
X114300000Y-139700000D02*
X112803238Y-138403238D01*
X92150000Y-117850000D02*
X91400000Y-117100000D01*
X93613604Y-110113604D02*
X93613604Y-103013604D01*
X105542116Y-83743238D02*
X104700000Y-82901122D01*
X84750000Y-100650000D02*
X84750000Y-98400000D01*
X79900000Y-136000000D02*
X79900000Y-126300000D01*
X68500000Y-146200000D02*
X66507884Y-144207884D01*
X99600000Y-108000000D02*
X101300000Y-106300000D01*
X112803238Y-121611122D02*
X112803238Y-120800000D01*
X112803238Y-120800000D02*
X112803238Y-120796762D01*
X79900000Y-119700000D02*
X76800000Y-116600000D01*
X101300000Y-106300000D02*
X107000000Y-106300000D01*
X114200000Y-112003238D02*
X112803238Y-112003238D01*
X82713238Y-102686762D02*
X84750000Y-100650000D01*
X108850000Y-108050000D02*
X107100000Y-106300000D01*
X92750000Y-117850000D02*
X99600000Y-111000000D01*
X74800000Y-134900000D02*
X73350000Y-134900000D01*
X77900000Y-138000000D02*
X79900000Y-136000000D01*
X84750000Y-88186762D02*
X85836762Y-87100000D01*
X109409184Y-70094640D02*
X106914544Y-67600000D01*
X73000000Y-146200000D02*
X77900000Y-141300000D01*
X114450000Y-139750000D02*
X114300000Y-139700000D01*
X113242116Y-97650000D02*
X108850000Y-97650000D01*
X112803238Y-120796762D02*
X114200000Y-119400000D01*
X103300000Y-92100000D02*
X103300000Y-85985354D01*
X108850000Y-107600000D02*
X108850000Y-97650000D01*
X76900000Y-116500000D02*
X76900000Y-102686762D01*
X108850000Y-108050000D02*
X108850000Y-107600000D01*
X91400000Y-173900000D02*
X91400000Y-119200000D01*
X91700000Y-103000000D02*
X91800000Y-102900000D01*
X116642116Y-125450000D02*
X112803238Y-121611122D01*
X77900000Y-141300000D02*
X77900000Y-138000000D01*
X104700000Y-82901122D02*
X104700000Y-67900000D01*
X105000000Y-67600000D02*
X102900000Y-67600000D01*
X68500000Y-146200000D02*
X73000000Y-146200000D01*
X131442116Y-152303238D02*
X120103238Y-152303238D01*
X76800000Y-116600000D02*
X75286762Y-116600000D01*
X100400000Y-58803824D02*
X102609184Y-56594640D01*
X120103238Y-152303238D02*
X118300000Y-150500000D01*
X92750000Y-117850000D02*
X92150000Y-117850000D01*
X118300000Y-150500000D02*
X118300000Y-139750000D01*
X87900000Y-87100000D02*
X89800000Y-85200000D01*
X108850000Y-97650000D02*
X103300000Y-92100000D01*
X99600000Y-111000000D02*
X99600000Y-108000000D01*
X118300000Y-139750000D02*
X114450000Y-139750000D01*
X89800000Y-63300000D02*
X89800000Y-62400000D01*
X90125000Y-106200000D02*
X90125000Y-103975000D01*
X106914544Y-67600000D02*
X105000000Y-67600000D01*
X103300000Y-85985354D02*
X105542116Y-83743238D01*
X79900000Y-126300000D02*
X79900000Y-119700000D01*
X71700000Y-154500000D02*
X71700000Y-149400000D01*
X77900000Y-138000000D02*
X74800000Y-134900000D01*
X91400000Y-117100000D02*
X91400000Y-112327208D01*
X93613604Y-103013604D02*
X93500000Y-102900000D01*
X85836762Y-87100000D02*
X87900000Y-87100000D01*
X76900000Y-102686762D02*
X82713238Y-102686762D01*
X71700000Y-154500000D02*
X69953238Y-156246762D01*
X91400000Y-119200000D02*
X92750000Y-117850000D01*
X107100000Y-106300000D02*
X107000000Y-106300000D01*
X69953238Y-156246762D02*
X59203942Y-156246762D01*
X73350000Y-134900000D02*
X73350000Y-130543524D01*
X91400000Y-112327208D02*
X93613604Y-110113604D01*
X91100000Y-103000000D02*
X91700000Y-103000000D01*
X66507884Y-144207884D02*
X66507884Y-142993524D01*
X89800000Y-85200000D02*
X89800000Y-77600000D01*
X91800000Y-102900000D02*
X93500000Y-102900000D01*
X76800000Y-116600000D02*
X76900000Y-116500000D01*
X100400000Y-65100000D02*
X100400000Y-58803824D01*
X89800000Y-77600000D02*
X89800000Y-63300000D01*
X75286762Y-116600000D02*
X69450000Y-116486762D01*
D19*
%TO.N,Net-(D17-DOUT)*%
X134300000Y-150653238D02*
X127640286Y-143993524D01*
X127640286Y-143993524D02*
X126992116Y-143993524D01*
%TO.N,Net-(D18-DOUT)*%
X119092116Y-129792116D02*
X119092116Y-129693524D01*
X127400000Y-138100000D02*
X119092116Y-129792116D01*
%TO.N,Net-(D19-DOUT)*%
X123392116Y-116246762D02*
X119790464Y-116246762D01*
X117900000Y-118137226D02*
X117900000Y-122200000D01*
X119790464Y-116246762D02*
X117900000Y-118137226D01*
X117900000Y-122200000D02*
X119500000Y-123800000D01*
%TO.N,Net-(D20-DOUT)*%
X123800000Y-110001408D02*
X123800000Y-110353238D01*
X115692116Y-101893524D02*
X123800000Y-110001408D01*
%TO.N,Net-(D21-DOUT)*%
X116100000Y-93749593D02*
X110337169Y-87986762D01*
X110337169Y-87986762D02*
X107992116Y-87986762D01*
X116100000Y-96000000D02*
X116100000Y-93749593D01*
%TO.N,Net-(D23-DOUT)*%
X112400000Y-66537098D02*
X112400000Y-68700000D01*
X107051804Y-61035548D02*
X112244311Y-66228055D01*
X112244311Y-66228055D02*
X112400000Y-66537098D01*
X104680014Y-61035548D02*
X107051804Y-61035548D01*
%TO.N,Net-(D25-DOUT)*%
X83870830Y-69916866D02*
X83870830Y-60943714D01*
X83870830Y-60943714D02*
X85309184Y-59505360D01*
%TO.N,Net-(D27-DOUT)*%
X79350000Y-98443238D02*
X79350000Y-89078878D01*
X79350000Y-89078878D02*
X81892116Y-86536762D01*
%TO.N,Net-(D22-DOUT)*%
X107954566Y-81647804D02*
X108400000Y-82093238D01*
X111480014Y-74535548D02*
X107954566Y-78060996D01*
X107954566Y-78060996D02*
X107954566Y-81647804D01*
%TO.N,Net-(D24-DOUT)*%
X98400000Y-56800000D02*
X100700000Y-54500000D01*
X98400000Y-77200000D02*
X98400000Y-56800000D01*
X104900000Y-54500000D02*
X105600000Y-55200000D01*
X95151472Y-110850000D02*
X97650000Y-110850000D01*
X101800000Y-80600000D02*
X98400000Y-77200000D01*
X91100000Y-57300000D02*
X91100000Y-98700000D01*
X98400000Y-89700000D02*
X101800000Y-86300000D01*
X100700000Y-54500000D02*
X104900000Y-54500000D01*
X98400000Y-110100000D02*
X98400000Y-89700000D01*
X94800000Y-102400000D02*
X94800000Y-110498528D01*
X90370830Y-56459092D02*
X91100000Y-57300000D01*
X91100000Y-98700000D02*
X94800000Y-102400000D01*
X101800000Y-86300000D02*
X101800000Y-80600000D01*
X94800000Y-110498528D02*
X95151472Y-110850000D01*
X97650000Y-110850000D02*
X98400000Y-110100000D01*
%TO.N,Net-(D28-DOUT)*%
X71900000Y-103178878D02*
X74042116Y-101036762D01*
X71900000Y-112243238D02*
X71900000Y-103178878D01*
%TO.N,Net-(D8-DOUT)*%
X92000000Y-56500000D02*
X89900000Y-53500000D01*
X89900000Y-53500000D02*
X88900000Y-53500000D01*
%TO.N,Net-(D16-DOUT)*%
X134445354Y-157100000D02*
X133892116Y-156546762D01*
X136600000Y-157100000D02*
X134445354Y-157100000D01*
%TO.N,Net-(D26-DOUT)*%
X87200000Y-79600000D02*
X85200000Y-77600000D01*
X81200000Y-77600000D02*
X78809184Y-75209184D01*
X78809184Y-75209184D02*
X78809184Y-72963134D01*
X87200000Y-83943238D02*
X87200000Y-79600000D01*
X85200000Y-77600000D02*
X81200000Y-77600000D01*
%TO.N,Net-(D29-DOUT)*%
X75800000Y-119051472D02*
X74577845Y-117829317D01*
X66592116Y-115992116D02*
X66592116Y-114836762D01*
X68429317Y-117829317D02*
X66592116Y-115992116D01*
X74577845Y-117829317D02*
X68429317Y-117829317D01*
X75800000Y-126300000D02*
X75800000Y-119051472D01*
%TO.N,Net-(D30-DOUT)*%
X68957884Y-138750000D02*
X68957884Y-130427756D01*
X68957884Y-130427756D02*
X70492116Y-128893524D01*
%TO.N,Net-(D31-DOUT)*%
X61700000Y-152043238D02*
X61700000Y-143293524D01*
X61700000Y-143293524D02*
X63650000Y-141343524D01*
%TO.N,Net-(D32-DOUT)*%
X56346058Y-154596762D02*
X56346058Y-156546058D01*
X87900000Y-158000000D02*
X88900000Y-159000000D01*
X57800000Y-158000000D02*
X87900000Y-158000000D01*
X56346058Y-156546058D02*
X57800000Y-158000000D01*
%TD*%
M02*
