%TF.GenerationSoftware,KiCad,Pcbnew,8.0.8*%
%TF.CreationDate,2025-04-11T21:47:07+02:00*%
%TF.ProjectId,TannenfluegelquerV31,54616e6e-656e-4666-9c75-6567656c7175,0.1*%
%TF.SameCoordinates,Original*%
%TF.FileFunction,Legend,Bot*%
%TF.FilePolarity,Positive*%
%FSLAX46Y46*%
G04 Gerber Fmt 4.6, Leading zero omitted, Abs format (unit mm)*
G04 Created by KiCad (PCBNEW 8.0.8) date 2025-04-11 21:47:07*
%MOMM*%
%LPD*%
G01*
G04 APERTURE LIST*
%ADD10C,0.150000*%
%ADD11C,0.120000*%
G04 APERTURE END LIST*
D10*
X131278227Y-156629011D02*
X132144252Y-156129011D01*
X132144252Y-156129011D02*
X132025204Y-155922815D01*
X132025204Y-155922815D02*
X131912536Y-155822906D01*
X131912536Y-155822906D02*
X131782439Y-155788047D01*
X131782439Y-155788047D02*
X131676151Y-155794427D01*
X131676151Y-155794427D02*
X131487384Y-155848425D01*
X131487384Y-155848425D02*
X131363666Y-155919854D01*
X131363666Y-155919854D02*
X131222518Y-156056331D01*
X131222518Y-156056331D02*
X131163849Y-156145190D01*
X131163849Y-156145190D02*
X131128990Y-156275287D01*
X131128990Y-156275287D02*
X131159179Y-156422815D01*
X131159179Y-156422815D02*
X131278227Y-156629011D01*
X130516322Y-155309354D02*
X130802036Y-155804225D01*
X130659179Y-155556789D02*
X131525204Y-155056789D01*
X131525204Y-155056789D02*
X131449105Y-155210697D01*
X131449105Y-155210697D02*
X131414246Y-155340794D01*
X131414246Y-155340794D02*
X131420626Y-155447082D01*
X131215680Y-154520678D02*
X130882347Y-153943328D01*
X130882347Y-153943328D02*
X130230607Y-154814482D01*
X131138459Y-150952699D02*
X130909888Y-150556802D01*
X131024174Y-150754750D02*
X130331353Y-151154750D01*
X130331353Y-151154750D02*
X130392232Y-151031624D01*
X130392232Y-151031624D02*
X130420120Y-150927546D01*
X130420120Y-150927546D02*
X130415016Y-150842516D01*
X63032116Y-154225807D02*
X62166091Y-153725807D01*
X62166091Y-153725807D02*
X62047043Y-153932003D01*
X62047043Y-153932003D02*
X62016854Y-154079531D01*
X62016854Y-154079531D02*
X62051714Y-154209628D01*
X62051714Y-154209628D02*
X62110383Y-154298487D01*
X62110383Y-154298487D02*
X62251530Y-154434964D01*
X62251530Y-154434964D02*
X62375248Y-154506393D01*
X62375248Y-154506393D02*
X62564015Y-154560391D01*
X62564015Y-154560391D02*
X62670303Y-154566771D01*
X62670303Y-154566771D02*
X62800401Y-154531912D01*
X62800401Y-154531912D02*
X62913069Y-154432003D01*
X62913069Y-154432003D02*
X63032116Y-154225807D01*
X61713710Y-154509354D02*
X61404186Y-155045464D01*
X61404186Y-155045464D02*
X61900767Y-154947266D01*
X61900767Y-154947266D02*
X61829339Y-155070983D01*
X61829339Y-155070983D02*
X61822959Y-155177272D01*
X61822959Y-155177272D02*
X61840389Y-155242320D01*
X61840389Y-155242320D02*
X61899058Y-155331179D01*
X61899058Y-155331179D02*
X62105254Y-155450226D01*
X62105254Y-155450226D02*
X62211542Y-155456606D01*
X62211542Y-155456606D02*
X62276591Y-155439176D01*
X62276591Y-155439176D02*
X62365450Y-155380507D01*
X62365450Y-155380507D02*
X62508307Y-155133071D01*
X62508307Y-155133071D02*
X62514686Y-155026783D01*
X62514686Y-155026783D02*
X62497257Y-154961734D01*
X61296188Y-155422998D02*
X61231140Y-155440428D01*
X61231140Y-155440428D02*
X61142281Y-155499097D01*
X61142281Y-155499097D02*
X61023234Y-155705293D01*
X61023234Y-155705293D02*
X61016854Y-155811582D01*
X61016854Y-155811582D02*
X61034284Y-155876630D01*
X61034284Y-155876630D02*
X61092953Y-155965489D01*
X61092953Y-155965489D02*
X61175431Y-156013108D01*
X61175431Y-156013108D02*
X61322959Y-156043297D01*
X61322959Y-156043297D02*
X62103545Y-155834140D01*
X62103545Y-155834140D02*
X61794021Y-156370251D01*
X58186170Y-157185005D02*
X57957598Y-157580902D01*
X58071884Y-157382954D02*
X58764704Y-157782954D01*
X58764704Y-157782954D02*
X58627635Y-157791794D01*
X58627635Y-157791794D02*
X58523556Y-157819681D01*
X58523556Y-157819681D02*
X58452470Y-157866617D01*
X124378227Y-144075773D02*
X125244252Y-143575773D01*
X125244252Y-143575773D02*
X125125204Y-143369577D01*
X125125204Y-143369577D02*
X125012536Y-143269668D01*
X125012536Y-143269668D02*
X124882439Y-143234809D01*
X124882439Y-143234809D02*
X124776151Y-143241189D01*
X124776151Y-143241189D02*
X124587384Y-143295187D01*
X124587384Y-143295187D02*
X124463666Y-143366616D01*
X124463666Y-143366616D02*
X124322518Y-143503093D01*
X124322518Y-143503093D02*
X124263849Y-143591952D01*
X124263849Y-143591952D02*
X124228990Y-143722049D01*
X124228990Y-143722049D02*
X124259179Y-143869577D01*
X124259179Y-143869577D02*
X124378227Y-144075773D01*
X123616322Y-142756116D02*
X123902036Y-143250987D01*
X123759179Y-143003551D02*
X124625204Y-142503551D01*
X124625204Y-142503551D02*
X124549105Y-142657459D01*
X124549105Y-142657459D02*
X124514246Y-142787556D01*
X124514246Y-142787556D02*
X124520626Y-142893844D01*
X123825479Y-141975530D02*
X123914337Y-142034199D01*
X123914337Y-142034199D02*
X123979386Y-142051628D01*
X123979386Y-142051628D02*
X124085674Y-142045249D01*
X124085674Y-142045249D02*
X124126914Y-142021439D01*
X124126914Y-142021439D02*
X124185583Y-141932581D01*
X124185583Y-141932581D02*
X124203013Y-141867532D01*
X124203013Y-141867532D02*
X124196633Y-141761244D01*
X124196633Y-141761244D02*
X124101395Y-141596287D01*
X124101395Y-141596287D02*
X124012536Y-141537618D01*
X124012536Y-141537618D02*
X123947488Y-141520188D01*
X123947488Y-141520188D02*
X123841199Y-141526568D01*
X123841199Y-141526568D02*
X123799960Y-141550377D01*
X123799960Y-141550377D02*
X123741291Y-141639235D01*
X123741291Y-141639235D02*
X123723861Y-141704284D01*
X123723861Y-141704284D02*
X123730241Y-141810572D01*
X123730241Y-141810572D02*
X123825479Y-141975530D01*
X123825479Y-141975530D02*
X123831859Y-142081818D01*
X123831859Y-142081818D02*
X123814429Y-142146867D01*
X123814429Y-142146867D02*
X123755760Y-142235725D01*
X123755760Y-142235725D02*
X123590803Y-142330963D01*
X123590803Y-142330963D02*
X123484515Y-142337343D01*
X123484515Y-142337343D02*
X123419466Y-142319913D01*
X123419466Y-142319913D02*
X123330607Y-142261244D01*
X123330607Y-142261244D02*
X123235369Y-142096287D01*
X123235369Y-142096287D02*
X123228990Y-141989999D01*
X123228990Y-141989999D02*
X123246419Y-141924950D01*
X123246419Y-141924950D02*
X123305088Y-141836091D01*
X123305088Y-141836091D02*
X123470046Y-141740853D01*
X123470046Y-141740853D02*
X123576334Y-141734474D01*
X123576334Y-141734474D02*
X123641383Y-141751903D01*
X123641383Y-141751903D02*
X123730241Y-141810572D01*
X124238459Y-138399461D02*
X124009888Y-138003564D01*
X124124174Y-138201512D02*
X123431353Y-138601512D01*
X123431353Y-138601512D02*
X123492232Y-138478386D01*
X123492232Y-138478386D02*
X123520120Y-138374308D01*
X123520120Y-138374308D02*
X123515016Y-138289278D01*
X108868903Y-74389669D02*
X109775211Y-73967051D01*
X109775211Y-73967051D02*
X109674587Y-73751263D01*
X109674587Y-73751263D02*
X109571056Y-73641915D01*
X109571056Y-73641915D02*
X109444491Y-73595850D01*
X109444491Y-73595850D02*
X109338052Y-73592941D01*
X109338052Y-73592941D02*
X109145297Y-73630283D01*
X109145297Y-73630283D02*
X109015824Y-73690657D01*
X109015824Y-73690657D02*
X108863319Y-73814313D01*
X108863319Y-73814313D02*
X108797129Y-73897720D01*
X108797129Y-73897720D02*
X108751063Y-74024284D01*
X108751063Y-74024284D02*
X108768279Y-74173881D01*
X108768279Y-74173881D02*
X108868903Y-74389669D01*
X109286402Y-73144150D02*
X109309435Y-73080868D01*
X109309435Y-73080868D02*
X109312343Y-72974428D01*
X109312343Y-72974428D02*
X109211720Y-72758640D01*
X109211720Y-72758640D02*
X109128313Y-72692450D01*
X109128313Y-72692450D02*
X109065031Y-72669417D01*
X109065031Y-72669417D02*
X108958591Y-72666509D01*
X108958591Y-72666509D02*
X108872276Y-72706758D01*
X108872276Y-72706758D02*
X108762928Y-72810290D01*
X108762928Y-72810290D02*
X108486534Y-73569676D01*
X108486534Y-73569676D02*
X108224913Y-73008629D01*
X108990348Y-72283908D02*
X108728727Y-71722860D01*
X108728727Y-71722860D02*
X108524340Y-72185960D01*
X108524340Y-72185960D02*
X108463966Y-72056487D01*
X108463966Y-72056487D02*
X108380559Y-71990297D01*
X108380559Y-71990297D02*
X108317277Y-71967264D01*
X108317277Y-71967264D02*
X108210837Y-71964356D01*
X108210837Y-71964356D02*
X107995050Y-72064980D01*
X107995050Y-72064980D02*
X107928859Y-72148386D01*
X107928859Y-72148386D02*
X107905826Y-72211669D01*
X107905826Y-72211669D02*
X107902918Y-72318108D01*
X107902918Y-72318108D02*
X108023666Y-72577053D01*
X108023666Y-72577053D02*
X108107073Y-72643244D01*
X108107073Y-72643244D02*
X108170355Y-72666277D01*
X109224390Y-68722775D02*
X109031193Y-68308463D01*
X109127792Y-68515619D02*
X108402745Y-68853714D01*
X108402745Y-68853714D02*
X108474124Y-68736363D01*
X108474124Y-68736363D02*
X108510977Y-68635111D01*
X108510977Y-68635111D02*
X108513303Y-68549959D01*
X88578174Y-86165807D02*
X87712149Y-85665807D01*
X87712149Y-85665807D02*
X87593101Y-85872003D01*
X87593101Y-85872003D02*
X87562912Y-86019531D01*
X87562912Y-86019531D02*
X87597772Y-86149628D01*
X87597772Y-86149628D02*
X87656441Y-86238487D01*
X87656441Y-86238487D02*
X87797588Y-86374964D01*
X87797588Y-86374964D02*
X87921306Y-86446393D01*
X87921306Y-86446393D02*
X88110073Y-86500391D01*
X88110073Y-86500391D02*
X88216361Y-86506771D01*
X88216361Y-86506771D02*
X88346459Y-86471912D01*
X88346459Y-86471912D02*
X88459127Y-86372003D01*
X88459127Y-86372003D02*
X88578174Y-86165807D01*
X87318437Y-86538212D02*
X87253388Y-86555642D01*
X87253388Y-86555642D02*
X87164530Y-86614311D01*
X87164530Y-86614311D02*
X87045482Y-86820507D01*
X87045482Y-86820507D02*
X87039102Y-86926795D01*
X87039102Y-86926795D02*
X87056532Y-86991844D01*
X87056532Y-86991844D02*
X87115201Y-87080703D01*
X87115201Y-87080703D02*
X87197680Y-87128322D01*
X87197680Y-87128322D02*
X87345207Y-87158511D01*
X87345207Y-87158511D02*
X88125793Y-86949354D01*
X88125793Y-86949354D02*
X87816269Y-87485464D01*
X86783577Y-87274140D02*
X86450244Y-87851490D01*
X86450244Y-87851490D02*
X87530555Y-87980336D01*
X83732228Y-89125005D02*
X83503656Y-89520902D01*
X83617942Y-89322954D02*
X84310762Y-89722954D01*
X84310762Y-89722954D02*
X84173693Y-89731794D01*
X84173693Y-89731794D02*
X84069614Y-89759681D01*
X84069614Y-89759681D02*
X83998528Y-89806617D01*
X70336058Y-140972569D02*
X69470033Y-140472569D01*
X69470033Y-140472569D02*
X69350985Y-140678765D01*
X69350985Y-140678765D02*
X69320796Y-140826293D01*
X69320796Y-140826293D02*
X69355656Y-140956390D01*
X69355656Y-140956390D02*
X69414325Y-141045249D01*
X69414325Y-141045249D02*
X69555472Y-141181726D01*
X69555472Y-141181726D02*
X69679190Y-141253155D01*
X69679190Y-141253155D02*
X69867957Y-141307153D01*
X69867957Y-141307153D02*
X69974245Y-141313533D01*
X69974245Y-141313533D02*
X70104343Y-141278674D01*
X70104343Y-141278674D02*
X70217011Y-141178765D01*
X70217011Y-141178765D02*
X70336058Y-140972569D01*
X69017652Y-141256116D02*
X68708128Y-141792226D01*
X68708128Y-141792226D02*
X69204709Y-141694028D01*
X69204709Y-141694028D02*
X69133281Y-141817745D01*
X69133281Y-141817745D02*
X69126901Y-141924034D01*
X69126901Y-141924034D02*
X69144331Y-141989082D01*
X69144331Y-141989082D02*
X69203000Y-142077941D01*
X69203000Y-142077941D02*
X69409196Y-142196988D01*
X69409196Y-142196988D02*
X69515484Y-142203368D01*
X69515484Y-142203368D02*
X69580533Y-142185938D01*
X69580533Y-142185938D02*
X69669392Y-142127269D01*
X69669392Y-142127269D02*
X69812249Y-141879833D01*
X69812249Y-141879833D02*
X69818628Y-141773545D01*
X69818628Y-141773545D02*
X69801199Y-141708496D01*
X69097963Y-143117013D02*
X69383677Y-142622141D01*
X69240820Y-142869577D02*
X68374795Y-142369577D01*
X68374795Y-142369577D02*
X68546132Y-142358527D01*
X68546132Y-142358527D02*
X68676229Y-142323667D01*
X68676229Y-142323667D02*
X68765088Y-142264998D01*
X65490112Y-143931767D02*
X65261540Y-144327664D01*
X65375826Y-144129716D02*
X66068646Y-144529716D01*
X66068646Y-144529716D02*
X65931577Y-144538556D01*
X65931577Y-144538556D02*
X65827498Y-144566443D01*
X65827498Y-144566443D02*
X65756412Y-144613379D01*
X73278174Y-114465807D02*
X72412149Y-113965807D01*
X72412149Y-113965807D02*
X72293101Y-114172003D01*
X72293101Y-114172003D02*
X72262912Y-114319531D01*
X72262912Y-114319531D02*
X72297772Y-114449628D01*
X72297772Y-114449628D02*
X72356441Y-114538487D01*
X72356441Y-114538487D02*
X72497588Y-114674964D01*
X72497588Y-114674964D02*
X72621306Y-114746393D01*
X72621306Y-114746393D02*
X72810073Y-114800391D01*
X72810073Y-114800391D02*
X72916361Y-114806771D01*
X72916361Y-114806771D02*
X73046459Y-114771912D01*
X73046459Y-114771912D02*
X73159127Y-114672003D01*
X73159127Y-114672003D02*
X73278174Y-114465807D01*
X72018437Y-114838212D02*
X71953388Y-114855642D01*
X71953388Y-114855642D02*
X71864530Y-114914311D01*
X71864530Y-114914311D02*
X71745482Y-115120507D01*
X71745482Y-115120507D02*
X71739102Y-115226795D01*
X71739102Y-115226795D02*
X71756532Y-115291844D01*
X71756532Y-115291844D02*
X71815201Y-115380703D01*
X71815201Y-115380703D02*
X71897680Y-115428322D01*
X71897680Y-115428322D02*
X72045207Y-115458511D01*
X72045207Y-115458511D02*
X72825793Y-115249354D01*
X72825793Y-115249354D02*
X72516269Y-115785464D01*
X72278174Y-116197858D02*
X72182936Y-116362815D01*
X72182936Y-116362815D02*
X72094078Y-116421484D01*
X72094078Y-116421484D02*
X72029029Y-116438914D01*
X72029029Y-116438914D02*
X71857692Y-116449964D01*
X71857692Y-116449964D02*
X71668925Y-116395965D01*
X71668925Y-116395965D02*
X71339011Y-116205489D01*
X71339011Y-116205489D02*
X71280342Y-116116630D01*
X71280342Y-116116630D02*
X71262912Y-116051582D01*
X71262912Y-116051582D02*
X71269292Y-115945293D01*
X71269292Y-115945293D02*
X71364530Y-115780336D01*
X71364530Y-115780336D02*
X71453388Y-115721667D01*
X71453388Y-115721667D02*
X71518437Y-115704237D01*
X71518437Y-115704237D02*
X71624725Y-115710617D01*
X71624725Y-115710617D02*
X71830922Y-115829665D01*
X71830922Y-115829665D02*
X71889591Y-115918523D01*
X71889591Y-115918523D02*
X71907020Y-115983572D01*
X71907020Y-115983572D02*
X71900641Y-116089860D01*
X71900641Y-116089860D02*
X71805403Y-116254817D01*
X71805403Y-116254817D02*
X71716544Y-116313486D01*
X71716544Y-116313486D02*
X71651495Y-116330916D01*
X71651495Y-116330916D02*
X71545207Y-116324536D01*
X68432228Y-117425005D02*
X68203656Y-117820902D01*
X68317942Y-117622954D02*
X69010762Y-118022954D01*
X69010762Y-118022954D02*
X68873693Y-118031794D01*
X68873693Y-118031794D02*
X68769614Y-118059681D01*
X68769614Y-118059681D02*
X68698528Y-118106617D01*
X120778227Y-116329011D02*
X121644252Y-115829011D01*
X121644252Y-115829011D02*
X121525204Y-115622815D01*
X121525204Y-115622815D02*
X121412536Y-115522906D01*
X121412536Y-115522906D02*
X121282439Y-115488047D01*
X121282439Y-115488047D02*
X121176151Y-115494427D01*
X121176151Y-115494427D02*
X120987384Y-115548425D01*
X120987384Y-115548425D02*
X120863666Y-115619854D01*
X120863666Y-115619854D02*
X120722518Y-115756331D01*
X120722518Y-115756331D02*
X120663849Y-115845190D01*
X120663849Y-115845190D02*
X120628990Y-115975287D01*
X120628990Y-115975287D02*
X120659179Y-116122815D01*
X120659179Y-116122815D02*
X120778227Y-116329011D01*
X121085583Y-115051844D02*
X121103013Y-114986795D01*
X121103013Y-114986795D02*
X121096633Y-114880507D01*
X121096633Y-114880507D02*
X120977585Y-114674311D01*
X120977585Y-114674311D02*
X120888727Y-114615642D01*
X120888727Y-114615642D02*
X120823678Y-114598212D01*
X120823678Y-114598212D02*
X120717390Y-114604592D01*
X120717390Y-114604592D02*
X120634911Y-114652211D01*
X120634911Y-114652211D02*
X120535003Y-114764879D01*
X120535003Y-114764879D02*
X120325846Y-115545465D01*
X120325846Y-115545465D02*
X120016322Y-115009354D01*
X120572823Y-113973243D02*
X120525204Y-113890764D01*
X120525204Y-113890764D02*
X120436346Y-113832095D01*
X120436346Y-113832095D02*
X120371297Y-113814665D01*
X120371297Y-113814665D02*
X120265009Y-113821045D01*
X120265009Y-113821045D02*
X120076242Y-113875044D01*
X120076242Y-113875044D02*
X119870046Y-113994091D01*
X119870046Y-113994091D02*
X119728898Y-114130569D01*
X119728898Y-114130569D02*
X119670229Y-114219427D01*
X119670229Y-114219427D02*
X119652799Y-114284476D01*
X119652799Y-114284476D02*
X119659179Y-114390764D01*
X119659179Y-114390764D02*
X119706798Y-114473243D01*
X119706798Y-114473243D02*
X119795656Y-114531912D01*
X119795656Y-114531912D02*
X119860705Y-114549341D01*
X119860705Y-114549341D02*
X119966993Y-114542962D01*
X119966993Y-114542962D02*
X120155760Y-114488963D01*
X120155760Y-114488963D02*
X120361957Y-114369915D01*
X120361957Y-114369915D02*
X120503104Y-114233438D01*
X120503104Y-114233438D02*
X120561773Y-114144580D01*
X120561773Y-114144580D02*
X120579203Y-114079531D01*
X120579203Y-114079531D02*
X120572823Y-113973243D01*
X120638459Y-110652699D02*
X120409888Y-110256802D01*
X120524174Y-110454750D02*
X119831353Y-110854750D01*
X119831353Y-110854750D02*
X119892232Y-110731624D01*
X119892232Y-110731624D02*
X119920120Y-110627546D01*
X119920120Y-110627546D02*
X119915016Y-110542516D01*
X116478227Y-129775773D02*
X117344252Y-129275773D01*
X117344252Y-129275773D02*
X117225204Y-129069577D01*
X117225204Y-129069577D02*
X117112536Y-128969668D01*
X117112536Y-128969668D02*
X116982439Y-128934809D01*
X116982439Y-128934809D02*
X116876151Y-128941189D01*
X116876151Y-128941189D02*
X116687384Y-128995187D01*
X116687384Y-128995187D02*
X116563666Y-129066616D01*
X116563666Y-129066616D02*
X116422518Y-129203093D01*
X116422518Y-129203093D02*
X116363849Y-129291952D01*
X116363849Y-129291952D02*
X116328990Y-129422049D01*
X116328990Y-129422049D02*
X116359179Y-129569577D01*
X116359179Y-129569577D02*
X116478227Y-129775773D01*
X115716322Y-128456116D02*
X116002036Y-128950987D01*
X115859179Y-128703551D02*
X116725204Y-128203551D01*
X116725204Y-128203551D02*
X116649105Y-128357459D01*
X116649105Y-128357459D02*
X116614246Y-128487556D01*
X116614246Y-128487556D02*
X116620626Y-128593844D01*
X115478227Y-128043722D02*
X115382988Y-127878765D01*
X115382988Y-127878765D02*
X115376609Y-127772477D01*
X115376609Y-127772477D02*
X115394038Y-127707428D01*
X115394038Y-127707428D02*
X115470137Y-127553521D01*
X115470137Y-127553521D02*
X115611285Y-127417044D01*
X115611285Y-127417044D02*
X115941199Y-127226568D01*
X115941199Y-127226568D02*
X116047488Y-127220188D01*
X116047488Y-127220188D02*
X116112536Y-127237618D01*
X116112536Y-127237618D02*
X116201395Y-127296287D01*
X116201395Y-127296287D02*
X116296633Y-127461244D01*
X116296633Y-127461244D02*
X116303013Y-127567532D01*
X116303013Y-127567532D02*
X116285583Y-127632581D01*
X116285583Y-127632581D02*
X116226914Y-127721439D01*
X116226914Y-127721439D02*
X116020717Y-127840487D01*
X116020717Y-127840487D02*
X115914429Y-127846867D01*
X115914429Y-127846867D02*
X115849380Y-127829437D01*
X115849380Y-127829437D02*
X115760522Y-127770768D01*
X115760522Y-127770768D02*
X115665284Y-127605810D01*
X115665284Y-127605810D02*
X115658904Y-127499522D01*
X115658904Y-127499522D02*
X115676334Y-127434474D01*
X115676334Y-127434474D02*
X115735003Y-127345615D01*
X116338459Y-124099461D02*
X116109888Y-123703564D01*
X116224174Y-123901512D02*
X115531353Y-124301512D01*
X115531353Y-124301512D02*
X115592232Y-124178386D01*
X115592232Y-124178386D02*
X115620120Y-124074308D01*
X115620120Y-124074308D02*
X115615016Y-123989278D01*
X77178174Y-128522569D02*
X76312149Y-128022569D01*
X76312149Y-128022569D02*
X76193101Y-128228765D01*
X76193101Y-128228765D02*
X76162912Y-128376293D01*
X76162912Y-128376293D02*
X76197772Y-128506390D01*
X76197772Y-128506390D02*
X76256441Y-128595249D01*
X76256441Y-128595249D02*
X76397588Y-128731726D01*
X76397588Y-128731726D02*
X76521306Y-128803155D01*
X76521306Y-128803155D02*
X76710073Y-128857153D01*
X76710073Y-128857153D02*
X76816361Y-128863533D01*
X76816361Y-128863533D02*
X76946459Y-128828674D01*
X76946459Y-128828674D02*
X77059127Y-128728765D01*
X77059127Y-128728765D02*
X77178174Y-128522569D01*
X75859768Y-128806116D02*
X75550244Y-129342226D01*
X75550244Y-129342226D02*
X76046825Y-129244028D01*
X76046825Y-129244028D02*
X75975397Y-129367745D01*
X75975397Y-129367745D02*
X75969017Y-129474034D01*
X75969017Y-129474034D02*
X75986447Y-129539082D01*
X75986447Y-129539082D02*
X76045116Y-129627941D01*
X76045116Y-129627941D02*
X76251312Y-129746988D01*
X76251312Y-129746988D02*
X76357600Y-129753368D01*
X76357600Y-129753368D02*
X76422649Y-129735938D01*
X76422649Y-129735938D02*
X76511508Y-129677269D01*
X76511508Y-129677269D02*
X76654365Y-129429833D01*
X76654365Y-129429833D02*
X76660744Y-129323545D01*
X76660744Y-129323545D02*
X76643315Y-129258496D01*
X75240720Y-129878337D02*
X75193101Y-129960816D01*
X75193101Y-129960816D02*
X75186721Y-130067104D01*
X75186721Y-130067104D02*
X75204151Y-130132153D01*
X75204151Y-130132153D02*
X75262820Y-130221011D01*
X75262820Y-130221011D02*
X75403968Y-130357489D01*
X75403968Y-130357489D02*
X75610165Y-130476536D01*
X75610165Y-130476536D02*
X75798931Y-130530535D01*
X75798931Y-130530535D02*
X75905219Y-130536915D01*
X75905219Y-130536915D02*
X75970268Y-130519485D01*
X75970268Y-130519485D02*
X76059127Y-130460816D01*
X76059127Y-130460816D02*
X76106746Y-130378337D01*
X76106746Y-130378337D02*
X76113125Y-130272049D01*
X76113125Y-130272049D02*
X76095696Y-130207001D01*
X76095696Y-130207001D02*
X76037027Y-130118142D01*
X76037027Y-130118142D02*
X75895879Y-129981665D01*
X75895879Y-129981665D02*
X75689682Y-129862617D01*
X75689682Y-129862617D02*
X75500916Y-129808618D01*
X75500916Y-129808618D02*
X75394627Y-129802239D01*
X75394627Y-129802239D02*
X75329579Y-129819668D01*
X75329579Y-129819668D02*
X75240720Y-129878337D01*
X72332228Y-131481767D02*
X72103656Y-131877664D01*
X72217942Y-131679716D02*
X72910762Y-132079716D01*
X72910762Y-132079716D02*
X72773693Y-132088556D01*
X72773693Y-132088556D02*
X72669614Y-132116443D01*
X72669614Y-132116443D02*
X72598528Y-132163379D01*
X91937469Y-58553088D02*
X91031161Y-58130469D01*
X91031161Y-58130469D02*
X90930538Y-58346257D01*
X90930538Y-58346257D02*
X90913321Y-58495854D01*
X90913321Y-58495854D02*
X90959387Y-58622419D01*
X90959387Y-58622419D02*
X91025577Y-58705825D01*
X91025577Y-58705825D02*
X91178083Y-58829482D01*
X91178083Y-58829482D02*
X91307555Y-58889856D01*
X91307555Y-58889856D02*
X91500310Y-58927197D01*
X91500310Y-58927197D02*
X91606750Y-58924289D01*
X91606750Y-58924289D02*
X91733314Y-58878223D01*
X91733314Y-58878223D02*
X91836845Y-58768875D01*
X91836845Y-58768875D02*
X91937469Y-58553088D01*
X90714983Y-59033869D02*
X90651700Y-59056902D01*
X90651700Y-59056902D02*
X90568293Y-59123092D01*
X90568293Y-59123092D02*
X90467670Y-59338880D01*
X90467670Y-59338880D02*
X90470578Y-59445320D01*
X90470578Y-59445320D02*
X90493611Y-59508602D01*
X90493611Y-59508602D02*
X90559801Y-59592009D01*
X90559801Y-59592009D02*
X90646116Y-59632258D01*
X90646116Y-59632258D02*
X90795714Y-59649474D01*
X90795714Y-59649474D02*
X91555100Y-59373080D01*
X91555100Y-59373080D02*
X91293479Y-59934128D01*
X90004802Y-60331503D02*
X90206049Y-59899928D01*
X90206049Y-59899928D02*
X90657749Y-60058017D01*
X90657749Y-60058017D02*
X90594467Y-60081050D01*
X90594467Y-60081050D02*
X90511060Y-60147240D01*
X90511060Y-60147240D02*
X90410437Y-60363028D01*
X90410437Y-60363028D02*
X90413345Y-60469467D01*
X90413345Y-60469467D02*
X90436378Y-60532749D01*
X90436378Y-60532749D02*
X90502568Y-60616156D01*
X90502568Y-60616156D02*
X90718355Y-60716780D01*
X90718355Y-60716780D02*
X90824795Y-60713872D01*
X90824795Y-60713872D02*
X90888077Y-60690839D01*
X90888077Y-60690839D02*
X90971484Y-60624648D01*
X90971484Y-60624648D02*
X91072108Y-60408861D01*
X91072108Y-60408861D02*
X91069200Y-60302421D01*
X91069200Y-60302421D02*
X91046167Y-60239139D01*
X87367873Y-61923377D02*
X87174676Y-62337689D01*
X87271275Y-62130533D02*
X87996321Y-62468627D01*
X87996321Y-62468627D02*
X87860543Y-62489380D01*
X87860543Y-62489380D02*
X87759292Y-62526233D01*
X87759292Y-62526233D02*
X87692566Y-62579185D01*
X85437469Y-72010862D02*
X84531161Y-71588243D01*
X84531161Y-71588243D02*
X84430538Y-71804031D01*
X84430538Y-71804031D02*
X84413321Y-71953628D01*
X84413321Y-71953628D02*
X84459387Y-72080193D01*
X84459387Y-72080193D02*
X84525577Y-72163599D01*
X84525577Y-72163599D02*
X84678083Y-72287256D01*
X84678083Y-72287256D02*
X84807555Y-72347630D01*
X84807555Y-72347630D02*
X85000310Y-72384971D01*
X85000310Y-72384971D02*
X85106750Y-72382063D01*
X85106750Y-72382063D02*
X85233314Y-72335997D01*
X85233314Y-72335997D02*
X85336845Y-72226649D01*
X85336845Y-72226649D02*
X85437469Y-72010862D01*
X84214983Y-72491643D02*
X84151700Y-72514676D01*
X84151700Y-72514676D02*
X84068293Y-72580866D01*
X84068293Y-72580866D02*
X83967670Y-72796654D01*
X83967670Y-72796654D02*
X83970578Y-72903094D01*
X83970578Y-72903094D02*
X83993611Y-72966376D01*
X83993611Y-72966376D02*
X84059801Y-73049783D01*
X84059801Y-73049783D02*
X84146116Y-73090032D01*
X84146116Y-73090032D02*
X84295714Y-73107248D01*
X84295714Y-73107248D02*
X85055100Y-72830854D01*
X85055100Y-72830854D02*
X84793479Y-73391902D01*
X83524927Y-73746119D02*
X83605426Y-73573489D01*
X83605426Y-73573489D02*
X83688833Y-73507299D01*
X83688833Y-73507299D02*
X83752115Y-73484266D01*
X83752115Y-73484266D02*
X83921837Y-73458325D01*
X83921837Y-73458325D02*
X84114592Y-73495666D01*
X84114592Y-73495666D02*
X84459852Y-73656664D01*
X84459852Y-73656664D02*
X84526042Y-73740070D01*
X84526042Y-73740070D02*
X84549075Y-73803353D01*
X84549075Y-73803353D02*
X84551983Y-73909792D01*
X84551983Y-73909792D02*
X84471484Y-74082422D01*
X84471484Y-74082422D02*
X84388077Y-74148613D01*
X84388077Y-74148613D02*
X84324795Y-74171646D01*
X84324795Y-74171646D02*
X84218355Y-74174554D01*
X84218355Y-74174554D02*
X84002568Y-74073930D01*
X84002568Y-74073930D02*
X83936378Y-73990523D01*
X83936378Y-73990523D02*
X83913345Y-73927241D01*
X83913345Y-73927241D02*
X83910437Y-73820802D01*
X83910437Y-73820802D02*
X83990935Y-73648172D01*
X83990935Y-73648172D02*
X84074342Y-73581981D01*
X84074342Y-73581981D02*
X84137624Y-73558948D01*
X84137624Y-73558948D02*
X84244064Y-73556040D01*
X80867873Y-75381151D02*
X80674676Y-75795463D01*
X80771275Y-75588307D02*
X81496321Y-75926401D01*
X81496321Y-75926401D02*
X81360543Y-75947154D01*
X81360543Y-75947154D02*
X81259292Y-75984007D01*
X81259292Y-75984007D02*
X81192566Y-76036959D01*
X80728174Y-100665807D02*
X79862149Y-100165807D01*
X79862149Y-100165807D02*
X79743101Y-100372003D01*
X79743101Y-100372003D02*
X79712912Y-100519531D01*
X79712912Y-100519531D02*
X79747772Y-100649628D01*
X79747772Y-100649628D02*
X79806441Y-100738487D01*
X79806441Y-100738487D02*
X79947588Y-100874964D01*
X79947588Y-100874964D02*
X80071306Y-100946393D01*
X80071306Y-100946393D02*
X80260073Y-101000391D01*
X80260073Y-101000391D02*
X80366361Y-101006771D01*
X80366361Y-101006771D02*
X80496459Y-100971912D01*
X80496459Y-100971912D02*
X80609127Y-100872003D01*
X80609127Y-100872003D02*
X80728174Y-100665807D01*
X79468437Y-101038212D02*
X79403388Y-101055642D01*
X79403388Y-101055642D02*
X79314530Y-101114311D01*
X79314530Y-101114311D02*
X79195482Y-101320507D01*
X79195482Y-101320507D02*
X79189102Y-101426795D01*
X79189102Y-101426795D02*
X79206532Y-101491844D01*
X79206532Y-101491844D02*
X79265201Y-101580703D01*
X79265201Y-101580703D02*
X79347680Y-101628322D01*
X79347680Y-101628322D02*
X79495207Y-101658511D01*
X79495207Y-101658511D02*
X80275793Y-101449354D01*
X80275793Y-101449354D02*
X79966269Y-101985464D01*
X79185683Y-102194622D02*
X79192063Y-102088334D01*
X79192063Y-102088334D02*
X79174633Y-102023285D01*
X79174633Y-102023285D02*
X79115964Y-101934427D01*
X79115964Y-101934427D02*
X79074725Y-101910617D01*
X79074725Y-101910617D02*
X78968437Y-101904237D01*
X78968437Y-101904237D02*
X78903388Y-101921667D01*
X78903388Y-101921667D02*
X78814530Y-101980336D01*
X78814530Y-101980336D02*
X78719292Y-102145293D01*
X78719292Y-102145293D02*
X78712912Y-102251582D01*
X78712912Y-102251582D02*
X78730342Y-102316630D01*
X78730342Y-102316630D02*
X78789011Y-102405489D01*
X78789011Y-102405489D02*
X78830250Y-102429298D01*
X78830250Y-102429298D02*
X78936538Y-102435678D01*
X78936538Y-102435678D02*
X79001587Y-102418248D01*
X79001587Y-102418248D02*
X79090445Y-102359579D01*
X79090445Y-102359579D02*
X79185683Y-102194622D01*
X79185683Y-102194622D02*
X79274542Y-102135953D01*
X79274542Y-102135953D02*
X79339591Y-102118523D01*
X79339591Y-102118523D02*
X79445879Y-102124903D01*
X79445879Y-102124903D02*
X79610836Y-102220141D01*
X79610836Y-102220141D02*
X79669505Y-102308999D01*
X79669505Y-102308999D02*
X79686935Y-102374048D01*
X79686935Y-102374048D02*
X79680555Y-102480336D01*
X79680555Y-102480336D02*
X79585317Y-102645293D01*
X79585317Y-102645293D02*
X79496459Y-102703962D01*
X79496459Y-102703962D02*
X79431410Y-102721392D01*
X79431410Y-102721392D02*
X79325122Y-102715013D01*
X79325122Y-102715013D02*
X79160165Y-102619774D01*
X79160165Y-102619774D02*
X79101495Y-102530916D01*
X79101495Y-102530916D02*
X79084066Y-102465867D01*
X79084066Y-102465867D02*
X79090445Y-102359579D01*
X75882228Y-103625005D02*
X75653656Y-104020902D01*
X75767942Y-103822954D02*
X76460762Y-104222954D01*
X76460762Y-104222954D02*
X76323693Y-104231794D01*
X76323693Y-104231794D02*
X76219614Y-104259681D01*
X76219614Y-104259681D02*
X76148528Y-104306617D01*
X102068903Y-60889669D02*
X102975211Y-60467051D01*
X102975211Y-60467051D02*
X102874587Y-60251263D01*
X102874587Y-60251263D02*
X102771056Y-60141915D01*
X102771056Y-60141915D02*
X102644491Y-60095850D01*
X102644491Y-60095850D02*
X102538052Y-60092941D01*
X102538052Y-60092941D02*
X102345297Y-60130283D01*
X102345297Y-60130283D02*
X102215824Y-60190657D01*
X102215824Y-60190657D02*
X102063319Y-60314313D01*
X102063319Y-60314313D02*
X101997129Y-60397720D01*
X101997129Y-60397720D02*
X101951063Y-60524284D01*
X101951063Y-60524284D02*
X101968279Y-60673881D01*
X101968279Y-60673881D02*
X102068903Y-60889669D01*
X102486402Y-59644150D02*
X102509435Y-59580868D01*
X102509435Y-59580868D02*
X102512343Y-59474428D01*
X102512343Y-59474428D02*
X102411720Y-59258640D01*
X102411720Y-59258640D02*
X102328313Y-59192450D01*
X102328313Y-59192450D02*
X102265031Y-59169417D01*
X102265031Y-59169417D02*
X102158591Y-59166509D01*
X102158591Y-59166509D02*
X102072276Y-59206758D01*
X102072276Y-59206758D02*
X101962928Y-59310290D01*
X101962928Y-59310290D02*
X101686534Y-60069676D01*
X101686534Y-60069676D02*
X101424913Y-59508629D01*
X101666874Y-58450048D02*
X101062669Y-58731793D01*
X102112758Y-58504838D02*
X101566018Y-59022496D01*
X101566018Y-59022496D02*
X101304397Y-58461448D01*
X102424390Y-55222775D02*
X102231193Y-54808463D01*
X102327792Y-55015619D02*
X101602745Y-55353714D01*
X101602745Y-55353714D02*
X101674124Y-55236363D01*
X101674124Y-55236363D02*
X101710977Y-55135111D01*
X101710977Y-55135111D02*
X101713303Y-55049959D01*
X113078227Y-101975773D02*
X113944252Y-101475773D01*
X113944252Y-101475773D02*
X113825204Y-101269577D01*
X113825204Y-101269577D02*
X113712536Y-101169668D01*
X113712536Y-101169668D02*
X113582439Y-101134809D01*
X113582439Y-101134809D02*
X113476151Y-101141189D01*
X113476151Y-101141189D02*
X113287384Y-101195187D01*
X113287384Y-101195187D02*
X113163666Y-101266616D01*
X113163666Y-101266616D02*
X113022518Y-101403093D01*
X113022518Y-101403093D02*
X112963849Y-101491952D01*
X112963849Y-101491952D02*
X112928990Y-101622049D01*
X112928990Y-101622049D02*
X112959179Y-101769577D01*
X112959179Y-101769577D02*
X113078227Y-101975773D01*
X113385583Y-100698606D02*
X113403013Y-100633557D01*
X113403013Y-100633557D02*
X113396633Y-100527269D01*
X113396633Y-100527269D02*
X113277585Y-100321073D01*
X113277585Y-100321073D02*
X113188727Y-100262404D01*
X113188727Y-100262404D02*
X113123678Y-100244974D01*
X113123678Y-100244974D02*
X113017390Y-100251354D01*
X113017390Y-100251354D02*
X112934911Y-100298973D01*
X112934911Y-100298973D02*
X112835003Y-100411641D01*
X112835003Y-100411641D02*
X112625846Y-101192227D01*
X112625846Y-101192227D02*
X112316322Y-100656116D01*
X111840131Y-99831329D02*
X112125846Y-100326201D01*
X111982988Y-100078765D02*
X112849014Y-99578765D01*
X112849014Y-99578765D02*
X112772915Y-99732672D01*
X112772915Y-99732672D02*
X112738055Y-99862770D01*
X112738055Y-99862770D02*
X112744435Y-99969058D01*
X112938459Y-96299461D02*
X112709888Y-95903564D01*
X112824174Y-96101512D02*
X112131353Y-96501512D01*
X112131353Y-96501512D02*
X112192232Y-96378386D01*
X112192232Y-96378386D02*
X112220120Y-96274308D01*
X112220120Y-96274308D02*
X112215016Y-96189278D01*
X105378227Y-88069011D02*
X106244252Y-87569011D01*
X106244252Y-87569011D02*
X106125204Y-87362815D01*
X106125204Y-87362815D02*
X106012536Y-87262906D01*
X106012536Y-87262906D02*
X105882439Y-87228047D01*
X105882439Y-87228047D02*
X105776151Y-87234427D01*
X105776151Y-87234427D02*
X105587384Y-87288425D01*
X105587384Y-87288425D02*
X105463666Y-87359854D01*
X105463666Y-87359854D02*
X105322518Y-87496331D01*
X105322518Y-87496331D02*
X105263849Y-87585190D01*
X105263849Y-87585190D02*
X105228990Y-87715287D01*
X105228990Y-87715287D02*
X105259179Y-87862815D01*
X105259179Y-87862815D02*
X105378227Y-88069011D01*
X105685583Y-86791844D02*
X105703013Y-86726795D01*
X105703013Y-86726795D02*
X105696633Y-86620507D01*
X105696633Y-86620507D02*
X105577585Y-86414311D01*
X105577585Y-86414311D02*
X105488727Y-86355642D01*
X105488727Y-86355642D02*
X105423678Y-86338212D01*
X105423678Y-86338212D02*
X105317390Y-86344592D01*
X105317390Y-86344592D02*
X105234911Y-86392211D01*
X105234911Y-86392211D02*
X105135003Y-86504879D01*
X105135003Y-86504879D02*
X104925846Y-87285465D01*
X104925846Y-87285465D02*
X104616322Y-86749354D01*
X105209392Y-85967058D02*
X105226822Y-85902009D01*
X105226822Y-85902009D02*
X105220442Y-85795721D01*
X105220442Y-85795721D02*
X105101395Y-85589525D01*
X105101395Y-85589525D02*
X105012536Y-85530856D01*
X105012536Y-85530856D02*
X104947488Y-85513426D01*
X104947488Y-85513426D02*
X104841199Y-85519806D01*
X104841199Y-85519806D02*
X104758721Y-85567425D01*
X104758721Y-85567425D02*
X104658812Y-85680092D01*
X104658812Y-85680092D02*
X104449655Y-86460678D01*
X104449655Y-86460678D02*
X104140131Y-85924567D01*
X105238459Y-82392699D02*
X105009888Y-81996802D01*
X105124174Y-82194750D02*
X104431353Y-82594750D01*
X104431353Y-82594750D02*
X104492232Y-82471624D01*
X104492232Y-82471624D02*
X104520120Y-82367546D01*
X104520120Y-82367546D02*
X104515016Y-82282516D01*
D11*
%TO.C,D17*%
X131966635Y-151711731D02*
X133525481Y-150811731D01*
X133464488Y-158006089D02*
X129964488Y-151943911D01*
X133464488Y-158006089D02*
X137837916Y-155481089D01*
X134666635Y-156388269D02*
X136225481Y-155488269D01*
X134727628Y-149193911D02*
X129964488Y-151943911D01*
X137837916Y-155481089D02*
X138002628Y-154866377D01*
X138002628Y-154866377D02*
X134727628Y-149193911D01*
%TO.C,D32*%
X54868430Y-154956089D02*
X59631570Y-157706089D01*
X58143430Y-149283623D02*
X54868430Y-154956089D01*
X58429423Y-156088269D02*
X56870577Y-155188269D01*
X58758142Y-149118911D02*
X58143430Y-149283623D01*
X61129423Y-151411731D02*
X59570577Y-150511731D01*
X63131570Y-151643911D02*
X58758142Y-149118911D01*
X63131570Y-151643911D02*
X59631570Y-157706089D01*
%TO.C,D18*%
X125066635Y-139158493D02*
X126625481Y-138258493D01*
X126564488Y-145452851D02*
X123064488Y-139390673D01*
X126564488Y-145452851D02*
X130937916Y-142927851D01*
X127766635Y-143835031D02*
X129325481Y-142935031D01*
X127827628Y-136640673D02*
X123064488Y-139390673D01*
X130937916Y-142927851D02*
X131102628Y-142313139D01*
X131102628Y-142313139D02*
X127827628Y-136640673D01*
%TO.C,D23*%
X109983261Y-69551099D02*
X111614615Y-68790387D01*
X110926825Y-75952051D02*
X107968497Y-69607897D01*
X110926825Y-75952051D02*
X115503679Y-73817829D01*
X112265399Y-74445161D02*
X113896753Y-73684449D01*
X112953189Y-67283497D02*
X107968497Y-69607897D01*
X115503679Y-73817829D02*
X115721339Y-73219813D01*
X115721339Y-73219813D02*
X112953189Y-67283497D01*
%TO.C,D27*%
X80414488Y-86896089D02*
X85177628Y-89646089D01*
X83689488Y-81223623D02*
X80414488Y-86896089D01*
X83975481Y-88028269D02*
X82416635Y-87128269D01*
X84304200Y-81058911D02*
X83689488Y-81223623D01*
X86675481Y-83351731D02*
X85116635Y-82451731D01*
X88677628Y-83583911D02*
X84304200Y-81058911D01*
X88677628Y-83583911D02*
X85177628Y-89646089D01*
%TO.C,D31*%
X62172372Y-141702851D02*
X66935512Y-144452851D01*
X65447372Y-136030385D02*
X62172372Y-141702851D01*
X65733365Y-142835031D02*
X64174519Y-141935031D01*
X66062084Y-135865673D02*
X65447372Y-136030385D01*
X68433365Y-138158493D02*
X66874519Y-137258493D01*
X70435512Y-138390673D02*
X66062084Y-135865673D01*
X70435512Y-138390673D02*
X66935512Y-144452851D01*
%TO.C,D29*%
X65114488Y-115196089D02*
X69877628Y-117946089D01*
X68389488Y-109523623D02*
X65114488Y-115196089D01*
X68675481Y-116328269D02*
X67116635Y-115428269D01*
X69004200Y-109358911D02*
X68389488Y-109523623D01*
X71375481Y-111651731D02*
X69816635Y-110751731D01*
X73377628Y-111883911D02*
X69004200Y-109358911D01*
X73377628Y-111883911D02*
X69877628Y-117946089D01*
%TO.C,D20*%
X121466635Y-111411731D02*
X123025481Y-110511731D01*
X122964488Y-117706089D02*
X119464488Y-111643911D01*
X122964488Y-117706089D02*
X127337916Y-115181089D01*
X124166635Y-116088269D02*
X125725481Y-115188269D01*
X124227628Y-108893911D02*
X119464488Y-111643911D01*
X127337916Y-115181089D02*
X127502628Y-114566377D01*
X127502628Y-114566377D02*
X124227628Y-108893911D01*
%TO.C,D19*%
X117166635Y-124858493D02*
X118725481Y-123958493D01*
X118664488Y-131152851D02*
X115164488Y-125090673D01*
X118664488Y-131152851D02*
X123037916Y-128627851D01*
X119866635Y-129535031D02*
X121425481Y-128635031D01*
X119927628Y-122340673D02*
X115164488Y-125090673D01*
X123037916Y-128627851D02*
X123202628Y-128013139D01*
X123202628Y-128013139D02*
X119927628Y-122340673D01*
%TO.C,D30*%
X69014488Y-129252851D02*
X73777628Y-132002851D01*
X72289488Y-123580385D02*
X69014488Y-129252851D01*
X72575481Y-130385031D02*
X71016635Y-129485031D01*
X72904200Y-123415673D02*
X72289488Y-123580385D01*
X75275481Y-125708493D02*
X73716635Y-124808493D01*
X77277628Y-125940673D02*
X72904200Y-123415673D01*
X77277628Y-125940673D02*
X73777628Y-132002851D01*
%TO.C,C1*%
X91423752Y-105465000D02*
X90901248Y-105465000D01*
X91423752Y-106935000D02*
X90901248Y-106935000D01*
%TO.C,D25*%
X83868497Y-59992103D02*
X88853189Y-62316503D01*
X86636646Y-54055787D02*
X83868497Y-59992103D01*
X87234663Y-53838127D02*
X86636646Y-54055787D01*
X87514615Y-60809613D02*
X85883261Y-60048901D01*
X89796753Y-55915551D02*
X88165399Y-55154839D01*
X91811517Y-55972349D02*
X87234663Y-53838127D01*
X91811517Y-55972349D02*
X88853189Y-62316503D01*
%TO.C,D26*%
X77368497Y-73449877D02*
X82353189Y-75774277D01*
X80136646Y-67513561D02*
X77368497Y-73449877D01*
X80734663Y-67295901D02*
X80136646Y-67513561D01*
X81014615Y-74267387D02*
X79383261Y-73506675D01*
X83296753Y-69373325D02*
X81665399Y-68612613D01*
X85311517Y-69430123D02*
X80734663Y-67295901D01*
X85311517Y-69430123D02*
X82353189Y-75774277D01*
%TO.C,D28*%
X72564488Y-101396089D02*
X77327628Y-104146089D01*
X75839488Y-95723623D02*
X72564488Y-101396089D01*
X76125481Y-102528269D02*
X74566635Y-101628269D01*
X76454200Y-95558911D02*
X75839488Y-95723623D01*
X78825481Y-97851731D02*
X77266635Y-96951731D01*
X80827628Y-98083911D02*
X76454200Y-95558911D01*
X80827628Y-98083911D02*
X77327628Y-104146089D01*
%TO.C,D24*%
X103183261Y-56051099D02*
X104814615Y-55290387D01*
X104126825Y-62452051D02*
X101168497Y-56107897D01*
X104126825Y-62452051D02*
X108703679Y-60317829D01*
X105465399Y-60945161D02*
X107096753Y-60184449D01*
X106153189Y-53783497D02*
X101168497Y-56107897D01*
X108703679Y-60317829D02*
X108921339Y-59719813D01*
X108921339Y-59719813D02*
X106153189Y-53783497D01*
%TO.C,D21*%
X113766635Y-97058493D02*
X115325481Y-96158493D01*
X115264488Y-103352851D02*
X111764488Y-97290673D01*
X115264488Y-103352851D02*
X119637916Y-100827851D01*
X116466635Y-101735031D02*
X118025481Y-100835031D01*
X116527628Y-94540673D02*
X111764488Y-97290673D01*
X119637916Y-100827851D02*
X119802628Y-100213139D01*
X119802628Y-100213139D02*
X116527628Y-94540673D01*
%TO.C,D22*%
X106066635Y-83151731D02*
X107625481Y-82251731D01*
X107564488Y-89446089D02*
X104064488Y-83383911D01*
X107564488Y-89446089D02*
X111937916Y-86921089D01*
X108766635Y-87828269D02*
X110325481Y-86928269D01*
X108827628Y-80633911D02*
X104064488Y-83383911D01*
X111937916Y-86921089D02*
X112102628Y-86306377D01*
X112102628Y-86306377D02*
X108827628Y-80633911D01*
%TD*%
M02*
