%TF.GenerationSoftware,KiCad,Pcbnew,8.0.8*%
%TF.CreationDate,2025-04-10T22:59:29+02:00*%
%TF.ProjectId,TannenfluegellaengsV31,54616e6e-656e-4666-9c75-6567656c6c61,0.1*%
%TF.SameCoordinates,Original*%
%TF.FileFunction,Paste,Top*%
%TF.FilePolarity,Positive*%
%FSLAX46Y46*%
G04 Gerber Fmt 4.6, Leading zero omitted, Abs format (unit mm)*
G04 Created by KiCad (PCBNEW 8.0.8) date 2025-04-10 22:59:29*
%MOMM*%
%LPD*%
G01*
G04 APERTURE LIST*
G04 Aperture macros list*
%AMRoundRect*
0 Rectangle with rounded corners*
0 $1 Rounding radius*
0 $2 $3 $4 $5 $6 $7 $8 $9 X,Y pos of 4 corners*
0 Add a 4 corners polygon primitive as box body*
4,1,4,$2,$3,$4,$5,$6,$7,$8,$9,$2,$3,0*
0 Add four circle primitives for the rounded corners*
1,1,$1+$1,$2,$3*
1,1,$1+$1,$4,$5*
1,1,$1+$1,$6,$7*
1,1,$1+$1,$8,$9*
0 Add four rect primitives between the rounded corners*
20,1,$1+$1,$2,$3,$4,$5,0*
20,1,$1+$1,$4,$5,$6,$7,0*
20,1,$1+$1,$6,$7,$8,$9,0*
20,1,$1+$1,$8,$9,$2,$3,0*%
G04 Aperture macros list end*
%ADD10RoundRect,0.090000X0.018231X0.751577X-0.641769X-0.391577X-0.018231X-0.751577X0.641769X0.391577X0*%
%ADD11RoundRect,0.090000X0.641769X-0.391577X-0.018231X0.751577X-0.641769X0.391577X0.018231X-0.751577X0*%
%ADD12RoundRect,0.090000X-0.047343X0.750306X-0.605199X-0.446021X0.047343X-0.750306X0.605199X0.446021X0*%
%ADD13RoundRect,0.090000X0.605199X-0.446021X0.047343X0.750306X-0.605199X0.446021X-0.047343X-0.750306X0*%
%ADD14RoundRect,0.090000X0.660000X0.360000X-0.660000X0.360000X-0.660000X-0.360000X0.660000X-0.360000X0*%
%ADD15RoundRect,0.250000X0.337500X0.475000X-0.337500X0.475000X-0.337500X-0.475000X0.337500X-0.475000X0*%
G04 APERTURE END LIST*
D10*
%TO.C,D2*%
X69050000Y-138756476D03*
X66192116Y-137106476D03*
X63742116Y-141350000D03*
X66600000Y-143000000D03*
%TD*%
D11*
%TO.C,D15*%
X126992116Y-144006762D03*
X129850000Y-142356762D03*
X127400000Y-138113238D03*
X124542116Y-139763238D03*
%TD*%
D10*
%TO.C,D6*%
X87207884Y-83893238D03*
X84350000Y-82243238D03*
X81900000Y-86486762D03*
X84757884Y-88136762D03*
%TD*%
D11*
%TO.C,D16*%
X133892116Y-156546762D03*
X136750000Y-154896762D03*
X134300000Y-150653238D03*
X131442116Y-152303238D03*
%TD*%
%TO.C,D13*%
X123350000Y-116246762D03*
X126207884Y-114596762D03*
X123757884Y-110353238D03*
X120900000Y-112003238D03*
%TD*%
D12*
%TO.C,D7*%
X83861644Y-69853734D03*
X80870828Y-68459093D03*
X78800000Y-72900000D03*
X81790816Y-74294641D03*
%TD*%
D10*
%TO.C,D4*%
X71907884Y-112203238D03*
X69050000Y-110553238D03*
X66600000Y-114796762D03*
X69457884Y-116446762D03*
%TD*%
D11*
%TO.C,D14*%
X119092116Y-129646762D03*
X121950000Y-127996762D03*
X119500000Y-123753238D03*
X116642116Y-125403238D03*
%TD*%
D12*
%TO.C,D8*%
X90361646Y-56476866D03*
X87370830Y-55082226D03*
X85300000Y-59523134D03*
X88290816Y-60917774D03*
%TD*%
D10*
%TO.C,D5*%
X79407884Y-98363238D03*
X76550000Y-96713238D03*
X74100000Y-100956762D03*
X76957884Y-102606762D03*
%TD*%
D11*
%TO.C,D11*%
X107992116Y-87946762D03*
X110850000Y-86296762D03*
X108400000Y-82053238D03*
X105542116Y-83703238D03*
%TD*%
D13*
%TO.C,D10*%
X111480014Y-74577774D03*
X114470830Y-73183134D03*
X112400000Y-68742226D03*
X109409184Y-70136866D03*
%TD*%
D14*
%TO.C,D33*%
X98800000Y-45500000D03*
X98800000Y-42200000D03*
X93900000Y-42200000D03*
X93900000Y-45500000D03*
%TD*%
D13*
%TO.C,D9*%
X104680014Y-61027774D03*
X107670830Y-59633134D03*
X105600000Y-55192226D03*
X102609184Y-56586866D03*
%TD*%
D15*
%TO.C,C2*%
X93337500Y-51600000D03*
X91262500Y-51600000D03*
%TD*%
D10*
%TO.C,D3*%
X75807884Y-126306476D03*
X72950000Y-124656476D03*
X70500000Y-128900000D03*
X73357884Y-130550000D03*
%TD*%
D11*
%TO.C,D12*%
X115692116Y-101906762D03*
X118550000Y-100256762D03*
X116100000Y-96013238D03*
X113242116Y-97663238D03*
%TD*%
D10*
%TO.C,D1*%
X61653942Y-152003237D03*
X58796059Y-150353238D03*
X56346058Y-154596763D03*
X59203941Y-156246762D03*
%TD*%
M02*
