M48
; DRILL file {KiCad 8.0.8} date 2025-04-10T22:59:37+0200
; FORMAT={-:-/ absolute / inch / decimal}
; #@! TF.CreationDate,2025-04-10T22:59:37+02:00
; #@! TF.GenerationSoftware,Kicad,Pcbnew,8.0.8
; #@! TF.FileFunction,Plated,1,2,PTH
FMAT,2
INCH
; #@! TA.AperFunction,Plated,PTH,ViaDrill
T1C0.0118
; #@! TA.AperFunction,Plated,PTH,ViaDrill
T2C0.0315
; #@! TA.AperFunction,Plated,PTH,ComponentDrill
T3C0.0394
%
G90
G05
T1
X3.5Y-2.1063
X3.622Y-2.2244
X3.6535Y-2.189
X3.7638Y-1.5984
X3.7874Y-1.7913
X3.8346Y-1.7362
X3.9134Y-1.7283
X4.0984Y-2.1496
X4.0984Y-4.1417
X5.378Y-6.185
T2
X2.5197Y-5.815
X2.8228Y-5.9528
X2.9291Y-4.4961
X3.0276Y-5.3937
X3.2638Y-4.2638
X3.3366Y-3.874
X3.4528Y-2.6024
X3.5984Y-5.9528
X3.9921Y-4.3622
X4.0669Y-3.4646
X4.4961Y-4.7008
X4.6024Y-4.4843
X4.9997Y-5.9961
T3
X3.2835Y-6.8465
X3.5984Y-6.8465
X3.685Y-3.3268
X3.687Y-5.0551
X3.9035Y-5.0551
X3.9055Y-3.3268
X3.9921Y-6.8465
X4.3071Y-6.8465
M30
