%TF.GenerationSoftware,KiCad,Pcbnew,8.0.8*%
%TF.CreationDate,2025-04-10T22:59:29+02:00*%
%TF.ProjectId,TannenfluegellaengsV31,54616e6e-656e-4666-9c75-6567656c6c61,0.1*%
%TF.SameCoordinates,Original*%
%TF.FileFunction,Legend,Top*%
%TF.FilePolarity,Positive*%
%FSLAX46Y46*%
G04 Gerber Fmt 4.6, Leading zero omitted, Abs format (unit mm)*
G04 Created by KiCad (PCBNEW 8.0.8) date 2025-04-10 22:59:29*
%MOMM*%
%LPD*%
G01*
G04 APERTURE LIST*
%ADD10C,0.100000*%
%ADD11C,0.150000*%
%ADD12C,0.120000*%
%ADD13C,0.000000*%
G04 APERTURE END LIST*
D10*
X90953884Y-116491466D02*
X91715789Y-116491466D01*
X92191979Y-116491466D02*
X92953884Y-116491466D01*
X93430074Y-116205752D02*
X94191979Y-116491466D01*
X94191979Y-116491466D02*
X93430074Y-116777180D01*
X100108646Y-155172419D02*
X100775312Y-156172419D01*
X100775312Y-155172419D02*
X100108646Y-156172419D01*
X101156265Y-156172419D02*
X101156265Y-155505752D01*
X101156265Y-155600990D02*
X101203884Y-155553371D01*
X101203884Y-155553371D02*
X101299122Y-155505752D01*
X101299122Y-155505752D02*
X101441979Y-155505752D01*
X101441979Y-155505752D02*
X101537217Y-155553371D01*
X101537217Y-155553371D02*
X101584836Y-155648609D01*
X101584836Y-155648609D02*
X101584836Y-156172419D01*
X101584836Y-155648609D02*
X101632455Y-155553371D01*
X101632455Y-155553371D02*
X101727693Y-155505752D01*
X101727693Y-155505752D02*
X101870550Y-155505752D01*
X101870550Y-155505752D02*
X101965789Y-155553371D01*
X101965789Y-155553371D02*
X102013408Y-155648609D01*
X102013408Y-155648609D02*
X102013408Y-156172419D01*
X102918169Y-156172419D02*
X102918169Y-155648609D01*
X102918169Y-155648609D02*
X102870550Y-155553371D01*
X102870550Y-155553371D02*
X102775312Y-155505752D01*
X102775312Y-155505752D02*
X102584836Y-155505752D01*
X102584836Y-155505752D02*
X102489598Y-155553371D01*
X102918169Y-156124800D02*
X102822931Y-156172419D01*
X102822931Y-156172419D02*
X102584836Y-156172419D01*
X102584836Y-156172419D02*
X102489598Y-156124800D01*
X102489598Y-156124800D02*
X102441979Y-156029561D01*
X102441979Y-156029561D02*
X102441979Y-155934323D01*
X102441979Y-155934323D02*
X102489598Y-155839085D01*
X102489598Y-155839085D02*
X102584836Y-155791466D01*
X102584836Y-155791466D02*
X102822931Y-155791466D01*
X102822931Y-155791466D02*
X102918169Y-155743847D01*
X103346741Y-156124800D02*
X103441979Y-156172419D01*
X103441979Y-156172419D02*
X103632455Y-156172419D01*
X103632455Y-156172419D02*
X103727693Y-156124800D01*
X103727693Y-156124800D02*
X103775312Y-156029561D01*
X103775312Y-156029561D02*
X103775312Y-155981942D01*
X103775312Y-155981942D02*
X103727693Y-155886704D01*
X103727693Y-155886704D02*
X103632455Y-155839085D01*
X103632455Y-155839085D02*
X103489598Y-155839085D01*
X103489598Y-155839085D02*
X103394360Y-155791466D01*
X103394360Y-155791466D02*
X103346741Y-155696228D01*
X103346741Y-155696228D02*
X103346741Y-155648609D01*
X103346741Y-155648609D02*
X103394360Y-155553371D01*
X103394360Y-155553371D02*
X103489598Y-155505752D01*
X103489598Y-155505752D02*
X103632455Y-155505752D01*
X103632455Y-155505752D02*
X103727693Y-155553371D01*
X104061027Y-155172419D02*
X104632455Y-155172419D01*
X104346741Y-156172419D02*
X104346741Y-155172419D01*
X104965789Y-156172419D02*
X104965789Y-155505752D01*
X104965789Y-155696228D02*
X105013408Y-155600990D01*
X105013408Y-155600990D02*
X105061027Y-155553371D01*
X105061027Y-155553371D02*
X105156265Y-155505752D01*
X105156265Y-155505752D02*
X105251503Y-155505752D01*
X105965789Y-156124800D02*
X105870551Y-156172419D01*
X105870551Y-156172419D02*
X105680075Y-156172419D01*
X105680075Y-156172419D02*
X105584837Y-156124800D01*
X105584837Y-156124800D02*
X105537218Y-156029561D01*
X105537218Y-156029561D02*
X105537218Y-155648609D01*
X105537218Y-155648609D02*
X105584837Y-155553371D01*
X105584837Y-155553371D02*
X105680075Y-155505752D01*
X105680075Y-155505752D02*
X105870551Y-155505752D01*
X105870551Y-155505752D02*
X105965789Y-155553371D01*
X105965789Y-155553371D02*
X106013408Y-155648609D01*
X106013408Y-155648609D02*
X106013408Y-155743847D01*
X106013408Y-155743847D02*
X105537218Y-155839085D01*
X106822932Y-156124800D02*
X106727694Y-156172419D01*
X106727694Y-156172419D02*
X106537218Y-156172419D01*
X106537218Y-156172419D02*
X106441980Y-156124800D01*
X106441980Y-156124800D02*
X106394361Y-156029561D01*
X106394361Y-156029561D02*
X106394361Y-155648609D01*
X106394361Y-155648609D02*
X106441980Y-155553371D01*
X106441980Y-155553371D02*
X106537218Y-155505752D01*
X106537218Y-155505752D02*
X106727694Y-155505752D01*
X106727694Y-155505752D02*
X106822932Y-155553371D01*
X106822932Y-155553371D02*
X106870551Y-155648609D01*
X106870551Y-155648609D02*
X106870551Y-155743847D01*
X106870551Y-155743847D02*
X106394361Y-155839085D01*
X107918171Y-155172419D02*
X108251504Y-156172419D01*
X108251504Y-156172419D02*
X108584837Y-155172419D01*
X108822933Y-155172419D02*
X109441980Y-155172419D01*
X109441980Y-155172419D02*
X109108647Y-155553371D01*
X109108647Y-155553371D02*
X109251504Y-155553371D01*
X109251504Y-155553371D02*
X109346742Y-155600990D01*
X109346742Y-155600990D02*
X109394361Y-155648609D01*
X109394361Y-155648609D02*
X109441980Y-155743847D01*
X109441980Y-155743847D02*
X109441980Y-155981942D01*
X109441980Y-155981942D02*
X109394361Y-156077180D01*
X109394361Y-156077180D02*
X109346742Y-156124800D01*
X109346742Y-156124800D02*
X109251504Y-156172419D01*
X109251504Y-156172419D02*
X108965790Y-156172419D01*
X108965790Y-156172419D02*
X108870552Y-156124800D01*
X108870552Y-156124800D02*
X108822933Y-156077180D01*
X109870552Y-156077180D02*
X109918171Y-156124800D01*
X109918171Y-156124800D02*
X109870552Y-156172419D01*
X109870552Y-156172419D02*
X109822933Y-156124800D01*
X109822933Y-156124800D02*
X109870552Y-156077180D01*
X109870552Y-156077180D02*
X109870552Y-156172419D01*
X110870551Y-156172419D02*
X110299123Y-156172419D01*
X110584837Y-156172419D02*
X110584837Y-155172419D01*
X110584837Y-155172419D02*
X110489599Y-155315276D01*
X110489599Y-155315276D02*
X110394361Y-155410514D01*
X110394361Y-155410514D02*
X110299123Y-155458133D01*
D11*
X98340476Y-126524819D02*
X98340476Y-125524819D01*
X98340476Y-125524819D02*
X98673809Y-126239104D01*
X98673809Y-126239104D02*
X99007142Y-125524819D01*
X99007142Y-125524819D02*
X99007142Y-126524819D01*
X100007142Y-126524819D02*
X99435714Y-126524819D01*
X99721428Y-126524819D02*
X99721428Y-125524819D01*
X99721428Y-125524819D02*
X99626190Y-125667676D01*
X99626190Y-125667676D02*
X99530952Y-125762914D01*
X99530952Y-125762914D02*
X99435714Y-125810533D01*
X69451984Y-142669856D02*
X68585959Y-142169856D01*
X68585959Y-142169856D02*
X68705006Y-141963659D01*
X68705006Y-141963659D02*
X68817674Y-141863751D01*
X68817674Y-141863751D02*
X68947772Y-141828891D01*
X68947772Y-141828891D02*
X69054060Y-141835271D01*
X69054060Y-141835271D02*
X69242827Y-141889270D01*
X69242827Y-141889270D02*
X69366545Y-141960698D01*
X69366545Y-141960698D02*
X69507692Y-142097176D01*
X69507692Y-142097176D02*
X69566361Y-142186034D01*
X69566361Y-142186034D02*
X69601221Y-142316132D01*
X69601221Y-142316132D02*
X69571032Y-142463659D01*
X69571032Y-142463659D02*
X69451984Y-142669856D01*
X69144628Y-141392689D02*
X69127198Y-141327640D01*
X69127198Y-141327640D02*
X69133578Y-141221352D01*
X69133578Y-141221352D02*
X69252625Y-141015155D01*
X69252625Y-141015155D02*
X69341484Y-140956486D01*
X69341484Y-140956486D02*
X69406532Y-140939056D01*
X69406532Y-140939056D02*
X69512821Y-140945436D01*
X69512821Y-140945436D02*
X69595299Y-140993055D01*
X69595299Y-140993055D02*
X69695208Y-141105723D01*
X69695208Y-141105723D02*
X69904365Y-141886309D01*
X69904365Y-141886309D02*
X70213889Y-141350198D01*
X69353656Y-137405937D02*
X69582227Y-137010040D01*
X69467941Y-137207988D02*
X70160762Y-137607988D01*
X70160762Y-137607988D02*
X70099883Y-137484862D01*
X70099883Y-137484862D02*
X70071995Y-137380784D01*
X70071995Y-137380784D02*
X70077099Y-137295754D01*
X100383333Y-170462295D02*
X100383333Y-171033723D01*
X100383333Y-171033723D02*
X100345238Y-171148009D01*
X100345238Y-171148009D02*
X100269047Y-171224200D01*
X100269047Y-171224200D02*
X100154762Y-171262295D01*
X100154762Y-171262295D02*
X100078571Y-171262295D01*
X100688095Y-170462295D02*
X101183333Y-170462295D01*
X101183333Y-170462295D02*
X100916667Y-170767057D01*
X100916667Y-170767057D02*
X101030952Y-170767057D01*
X101030952Y-170767057D02*
X101107143Y-170805152D01*
X101107143Y-170805152D02*
X101145238Y-170843247D01*
X101145238Y-170843247D02*
X101183333Y-170919438D01*
X101183333Y-170919438D02*
X101183333Y-171109914D01*
X101183333Y-171109914D02*
X101145238Y-171186104D01*
X101145238Y-171186104D02*
X101107143Y-171224200D01*
X101107143Y-171224200D02*
X101030952Y-171262295D01*
X101030952Y-171262295D02*
X100802381Y-171262295D01*
X100802381Y-171262295D02*
X100726190Y-171224200D01*
X100726190Y-171224200D02*
X100688095Y-171186104D01*
X92840476Y-126524819D02*
X92840476Y-125524819D01*
X92840476Y-125524819D02*
X93173809Y-126239104D01*
X93173809Y-126239104D02*
X93507142Y-125524819D01*
X93507142Y-125524819D02*
X93507142Y-126524819D01*
X93888095Y-125524819D02*
X94507142Y-125524819D01*
X94507142Y-125524819D02*
X94173809Y-125905771D01*
X94173809Y-125905771D02*
X94316666Y-125905771D01*
X94316666Y-125905771D02*
X94411904Y-125953390D01*
X94411904Y-125953390D02*
X94459523Y-126001009D01*
X94459523Y-126001009D02*
X94507142Y-126096247D01*
X94507142Y-126096247D02*
X94507142Y-126334342D01*
X94507142Y-126334342D02*
X94459523Y-126429580D01*
X94459523Y-126429580D02*
X94411904Y-126477200D01*
X94411904Y-126477200D02*
X94316666Y-126524819D01*
X94316666Y-126524819D02*
X94030952Y-126524819D01*
X94030952Y-126524819D02*
X93935714Y-126477200D01*
X93935714Y-126477200D02*
X93888095Y-126429580D01*
X123163941Y-141985807D02*
X124029966Y-141485807D01*
X124029966Y-141485807D02*
X124149014Y-141692003D01*
X124149014Y-141692003D02*
X124179203Y-141839531D01*
X124179203Y-141839531D02*
X124144343Y-141969628D01*
X124144343Y-141969628D02*
X124085674Y-142058487D01*
X124085674Y-142058487D02*
X123944527Y-142194964D01*
X123944527Y-142194964D02*
X123820809Y-142266393D01*
X123820809Y-142266393D02*
X123632042Y-142320391D01*
X123632042Y-142320391D02*
X123525754Y-142326771D01*
X123525754Y-142326771D02*
X123395656Y-142291912D01*
X123395656Y-142291912D02*
X123282988Y-142192003D01*
X123282988Y-142192003D02*
X123163941Y-141985807D01*
X123925846Y-143305464D02*
X123640131Y-142810593D01*
X123782988Y-143058029D02*
X124649014Y-142558029D01*
X124649014Y-142558029D02*
X124477677Y-142546979D01*
X124477677Y-142546979D02*
X124347579Y-142512119D01*
X124347579Y-142512119D02*
X124258721Y-142453450D01*
X125244252Y-143589011D02*
X125006157Y-143176618D01*
X125006157Y-143176618D02*
X124569954Y-143373474D01*
X124569954Y-143373474D02*
X124635003Y-143390904D01*
X124635003Y-143390904D02*
X124723861Y-143449573D01*
X124723861Y-143449573D02*
X124842909Y-143655770D01*
X124842909Y-143655770D02*
X124849289Y-143762058D01*
X124849289Y-143762058D02*
X124831859Y-143827107D01*
X124831859Y-143827107D02*
X124773190Y-143915965D01*
X124773190Y-143915965D02*
X124566993Y-144035013D01*
X124566993Y-144035013D02*
X124460705Y-144041392D01*
X124460705Y-144041392D02*
X124395656Y-144023962D01*
X124395656Y-144023962D02*
X124306798Y-143965293D01*
X124306798Y-143965293D02*
X124187750Y-143759097D01*
X124187750Y-143759097D02*
X124181371Y-143652809D01*
X124181371Y-143652809D02*
X124198800Y-143587760D01*
X128009887Y-144945005D02*
X128238459Y-145340902D01*
X128124173Y-145142954D02*
X127431353Y-145542954D01*
X127431353Y-145542954D02*
X127568422Y-145551794D01*
X127568422Y-145551794D02*
X127672501Y-145579681D01*
X127672501Y-145579681D02*
X127743587Y-145626617D01*
X87609868Y-87806618D02*
X86743843Y-87306618D01*
X86743843Y-87306618D02*
X86862890Y-87100421D01*
X86862890Y-87100421D02*
X86975558Y-87000513D01*
X86975558Y-87000513D02*
X87105656Y-86965653D01*
X87105656Y-86965653D02*
X87211944Y-86972033D01*
X87211944Y-86972033D02*
X87400711Y-87026032D01*
X87400711Y-87026032D02*
X87524429Y-87097460D01*
X87524429Y-87097460D02*
X87665576Y-87233938D01*
X87665576Y-87233938D02*
X87724245Y-87322796D01*
X87724245Y-87322796D02*
X87759105Y-87452894D01*
X87759105Y-87452894D02*
X87728916Y-87600421D01*
X87728916Y-87600421D02*
X87609868Y-87806618D01*
X87458128Y-86069439D02*
X87362890Y-86234396D01*
X87362890Y-86234396D02*
X87356510Y-86340684D01*
X87356510Y-86340684D02*
X87373940Y-86405733D01*
X87373940Y-86405733D02*
X87450039Y-86559640D01*
X87450039Y-86559640D02*
X87591187Y-86696117D01*
X87591187Y-86696117D02*
X87921101Y-86886594D01*
X87921101Y-86886594D02*
X88027389Y-86892973D01*
X88027389Y-86892973D02*
X88092438Y-86875544D01*
X88092438Y-86875544D02*
X88181297Y-86816875D01*
X88181297Y-86816875D02*
X88276535Y-86651917D01*
X88276535Y-86651917D02*
X88282914Y-86545629D01*
X88282914Y-86545629D02*
X88265485Y-86480580D01*
X88265485Y-86480580D02*
X88206816Y-86391722D01*
X88206816Y-86391722D02*
X88000619Y-86272674D01*
X88000619Y-86272674D02*
X87894331Y-86266295D01*
X87894331Y-86266295D02*
X87829282Y-86283724D01*
X87829282Y-86283724D02*
X87740424Y-86342393D01*
X87740424Y-86342393D02*
X87645186Y-86507351D01*
X87645186Y-86507351D02*
X87638806Y-86613639D01*
X87638806Y-86613639D02*
X87656236Y-86678688D01*
X87656236Y-86678688D02*
X87714905Y-86767546D01*
X87511540Y-82542699D02*
X87740111Y-82146802D01*
X87625825Y-82344750D02*
X88318646Y-82744750D01*
X88318646Y-82744750D02*
X88257767Y-82621624D01*
X88257767Y-82621624D02*
X88229879Y-82517546D01*
X88229879Y-82517546D02*
X88234983Y-82432516D01*
X92790476Y-82624819D02*
X92790476Y-81624819D01*
X92790476Y-81624819D02*
X93123809Y-82339104D01*
X93123809Y-82339104D02*
X93457142Y-81624819D01*
X93457142Y-81624819D02*
X93457142Y-82624819D01*
X93885714Y-81720057D02*
X93933333Y-81672438D01*
X93933333Y-81672438D02*
X94028571Y-81624819D01*
X94028571Y-81624819D02*
X94266666Y-81624819D01*
X94266666Y-81624819D02*
X94361904Y-81672438D01*
X94361904Y-81672438D02*
X94409523Y-81720057D01*
X94409523Y-81720057D02*
X94457142Y-81815295D01*
X94457142Y-81815295D02*
X94457142Y-81910533D01*
X94457142Y-81910533D02*
X94409523Y-82053390D01*
X94409523Y-82053390D02*
X93838095Y-82624819D01*
X93838095Y-82624819D02*
X94457142Y-82624819D01*
X130063941Y-154525807D02*
X130929966Y-154025807D01*
X130929966Y-154025807D02*
X131049014Y-154232003D01*
X131049014Y-154232003D02*
X131079203Y-154379531D01*
X131079203Y-154379531D02*
X131044343Y-154509628D01*
X131044343Y-154509628D02*
X130985674Y-154598487D01*
X130985674Y-154598487D02*
X130844527Y-154734964D01*
X130844527Y-154734964D02*
X130720809Y-154806393D01*
X130720809Y-154806393D02*
X130532042Y-154860391D01*
X130532042Y-154860391D02*
X130425754Y-154866771D01*
X130425754Y-154866771D02*
X130295656Y-154831912D01*
X130295656Y-154831912D02*
X130182988Y-154732003D01*
X130182988Y-154732003D02*
X130063941Y-154525807D01*
X130825846Y-155845464D02*
X130540131Y-155350593D01*
X130682988Y-155598029D02*
X131549014Y-155098029D01*
X131549014Y-155098029D02*
X131377677Y-155086979D01*
X131377677Y-155086979D02*
X131247579Y-155052119D01*
X131247579Y-155052119D02*
X131158721Y-154993450D01*
X132120442Y-156087772D02*
X132025204Y-155922815D01*
X132025204Y-155922815D02*
X131936346Y-155864146D01*
X131936346Y-155864146D02*
X131871297Y-155846716D01*
X131871297Y-155846716D02*
X131699960Y-155835666D01*
X131699960Y-155835666D02*
X131511193Y-155889665D01*
X131511193Y-155889665D02*
X131181279Y-156080141D01*
X131181279Y-156080141D02*
X131122610Y-156168999D01*
X131122610Y-156168999D02*
X131105180Y-156234048D01*
X131105180Y-156234048D02*
X131111560Y-156340336D01*
X131111560Y-156340336D02*
X131206798Y-156505293D01*
X131206798Y-156505293D02*
X131295656Y-156563962D01*
X131295656Y-156563962D02*
X131360705Y-156581392D01*
X131360705Y-156581392D02*
X131466993Y-156575013D01*
X131466993Y-156575013D02*
X131673190Y-156455965D01*
X131673190Y-156455965D02*
X131731859Y-156367107D01*
X131731859Y-156367107D02*
X131749289Y-156302058D01*
X131749289Y-156302058D02*
X131742909Y-156195770D01*
X131742909Y-156195770D02*
X131647671Y-156030812D01*
X131647671Y-156030812D02*
X131558812Y-155972143D01*
X131558812Y-155972143D02*
X131493764Y-155954713D01*
X131493764Y-155954713D02*
X131387475Y-155961093D01*
X134909887Y-157485005D02*
X135138459Y-157880902D01*
X135024173Y-157682954D02*
X134331353Y-158082954D01*
X134331353Y-158082954D02*
X134468422Y-158091794D01*
X134468422Y-158091794D02*
X134572501Y-158119681D01*
X134572501Y-158119681D02*
X134643587Y-158166617D01*
X119521825Y-114225807D02*
X120387850Y-113725807D01*
X120387850Y-113725807D02*
X120506898Y-113932003D01*
X120506898Y-113932003D02*
X120537087Y-114079531D01*
X120537087Y-114079531D02*
X120502227Y-114209628D01*
X120502227Y-114209628D02*
X120443558Y-114298487D01*
X120443558Y-114298487D02*
X120302411Y-114434964D01*
X120302411Y-114434964D02*
X120178693Y-114506393D01*
X120178693Y-114506393D02*
X119989926Y-114560391D01*
X119989926Y-114560391D02*
X119883638Y-114566771D01*
X119883638Y-114566771D02*
X119753540Y-114531912D01*
X119753540Y-114531912D02*
X119640872Y-114432003D01*
X119640872Y-114432003D02*
X119521825Y-114225807D01*
X120283730Y-115545464D02*
X119998015Y-115050593D01*
X120140872Y-115298029D02*
X121006898Y-114798029D01*
X121006898Y-114798029D02*
X120835561Y-114786979D01*
X120835561Y-114786979D02*
X120705463Y-114752119D01*
X120705463Y-114752119D02*
X120616605Y-114693450D01*
X121316422Y-115334140D02*
X121625945Y-115870251D01*
X121625945Y-115870251D02*
X121129364Y-115772052D01*
X121129364Y-115772052D02*
X121200793Y-115895770D01*
X121200793Y-115895770D02*
X121207173Y-116002058D01*
X121207173Y-116002058D02*
X121189743Y-116067107D01*
X121189743Y-116067107D02*
X121131074Y-116155965D01*
X121131074Y-116155965D02*
X120924877Y-116275013D01*
X120924877Y-116275013D02*
X120818589Y-116281392D01*
X120818589Y-116281392D02*
X120753540Y-116263962D01*
X120753540Y-116263962D02*
X120664682Y-116205293D01*
X120664682Y-116205293D02*
X120521825Y-115957858D01*
X120521825Y-115957858D02*
X120515445Y-115851569D01*
X120515445Y-115851569D02*
X120532875Y-115786521D01*
X124367771Y-117185005D02*
X124596343Y-117580902D01*
X124482057Y-117382954D02*
X123789237Y-117782954D01*
X123789237Y-117782954D02*
X123926306Y-117791794D01*
X123926306Y-117791794D02*
X124030385Y-117819681D01*
X124030385Y-117819681D02*
X124101471Y-117866617D01*
X84603172Y-73717185D02*
X83696864Y-73294567D01*
X83696864Y-73294567D02*
X83797488Y-73078780D01*
X83797488Y-73078780D02*
X83901019Y-72969432D01*
X83901019Y-72969432D02*
X84027584Y-72923366D01*
X84027584Y-72923366D02*
X84134023Y-72920458D01*
X84134023Y-72920458D02*
X84326778Y-72957799D01*
X84326778Y-72957799D02*
X84456251Y-73018173D01*
X84456251Y-73018173D02*
X84608756Y-73141829D01*
X84608756Y-73141829D02*
X84674946Y-73225236D01*
X84674946Y-73225236D02*
X84721012Y-73351801D01*
X84721012Y-73351801D02*
X84703796Y-73501398D01*
X84703796Y-73501398D02*
X84603172Y-73717185D01*
X84079233Y-72474574D02*
X84360979Y-71870369D01*
X84360979Y-71870369D02*
X85086165Y-72681405D01*
X84046438Y-68481867D02*
X84239635Y-68067555D01*
X84143036Y-68274711D02*
X84868083Y-68612806D01*
X84868083Y-68612806D02*
X84796704Y-68495455D01*
X84796704Y-68495455D02*
X84759851Y-68394203D01*
X84759851Y-68394203D02*
X84757525Y-68309051D01*
X72309868Y-116116618D02*
X71443843Y-115616618D01*
X71443843Y-115616618D02*
X71562890Y-115410421D01*
X71562890Y-115410421D02*
X71675558Y-115310513D01*
X71675558Y-115310513D02*
X71805656Y-115275653D01*
X71805656Y-115275653D02*
X71911944Y-115282033D01*
X71911944Y-115282033D02*
X72100711Y-115336032D01*
X72100711Y-115336032D02*
X72224429Y-115407460D01*
X72224429Y-115407460D02*
X72365576Y-115543938D01*
X72365576Y-115543938D02*
X72424245Y-115632796D01*
X72424245Y-115632796D02*
X72459105Y-115762894D01*
X72459105Y-115762894D02*
X72428916Y-115910421D01*
X72428916Y-115910421D02*
X72309868Y-116116618D01*
X72446803Y-114546105D02*
X73024154Y-114879439D01*
X71997841Y-114561826D02*
X72497383Y-115125165D01*
X72497383Y-115125165D02*
X72806907Y-114589054D01*
X72211540Y-110852699D02*
X72440111Y-110456802D01*
X72325825Y-110654750D02*
X73018646Y-111054750D01*
X73018646Y-111054750D02*
X72957767Y-110931624D01*
X72957767Y-110931624D02*
X72929879Y-110827546D01*
X72929879Y-110827546D02*
X72934983Y-110742516D01*
X115263941Y-127625807D02*
X116129966Y-127125807D01*
X116129966Y-127125807D02*
X116249014Y-127332003D01*
X116249014Y-127332003D02*
X116279203Y-127479531D01*
X116279203Y-127479531D02*
X116244343Y-127609628D01*
X116244343Y-127609628D02*
X116185674Y-127698487D01*
X116185674Y-127698487D02*
X116044527Y-127834964D01*
X116044527Y-127834964D02*
X115920809Y-127906393D01*
X115920809Y-127906393D02*
X115732042Y-127960391D01*
X115732042Y-127960391D02*
X115625754Y-127966771D01*
X115625754Y-127966771D02*
X115495656Y-127931912D01*
X115495656Y-127931912D02*
X115382988Y-127832003D01*
X115382988Y-127832003D02*
X115263941Y-127625807D01*
X116025846Y-128945464D02*
X115740131Y-128450593D01*
X115882988Y-128698029D02*
X116749014Y-128198029D01*
X116749014Y-128198029D02*
X116577677Y-128186979D01*
X116577677Y-128186979D02*
X116447579Y-128152119D01*
X116447579Y-128152119D02*
X116358721Y-128093450D01*
X117031767Y-129354439D02*
X116454417Y-129687772D01*
X117242634Y-128957766D02*
X116504997Y-129108712D01*
X116504997Y-129108712D02*
X116814521Y-129644823D01*
X120109887Y-130585005D02*
X120338459Y-130980902D01*
X120224173Y-130782954D02*
X119531353Y-131182954D01*
X119531353Y-131182954D02*
X119668422Y-131191794D01*
X119668422Y-131191794D02*
X119772501Y-131219681D01*
X119772501Y-131219681D02*
X119843587Y-131266617D01*
X107383333Y-170462295D02*
X107383333Y-171033723D01*
X107383333Y-171033723D02*
X107345238Y-171148009D01*
X107345238Y-171148009D02*
X107269047Y-171224200D01*
X107269047Y-171224200D02*
X107154762Y-171262295D01*
X107154762Y-171262295D02*
X107078571Y-171262295D01*
X108107143Y-170728961D02*
X108107143Y-171262295D01*
X107916667Y-170424200D02*
X107726190Y-170995628D01*
X107726190Y-170995628D02*
X108221429Y-170995628D01*
X91103173Y-60340319D02*
X90196865Y-59917701D01*
X90196865Y-59917701D02*
X90297489Y-59701914D01*
X90297489Y-59701914D02*
X90401020Y-59592566D01*
X90401020Y-59592566D02*
X90527585Y-59546500D01*
X90527585Y-59546500D02*
X90634024Y-59543592D01*
X90634024Y-59543592D02*
X90826779Y-59580933D01*
X90826779Y-59580933D02*
X90956252Y-59641307D01*
X90956252Y-59641307D02*
X91108757Y-59764963D01*
X91108757Y-59764963D02*
X91174947Y-59848370D01*
X91174947Y-59848370D02*
X91221013Y-59974935D01*
X91221013Y-59974935D02*
X91203797Y-60124532D01*
X91203797Y-60124532D02*
X91103173Y-60340319D01*
X91068275Y-59063043D02*
X90984868Y-59129233D01*
X90984868Y-59129233D02*
X90921586Y-59152266D01*
X90921586Y-59152266D02*
X90815147Y-59155174D01*
X90815147Y-59155174D02*
X90771989Y-59135050D01*
X90771989Y-59135050D02*
X90705799Y-59051643D01*
X90705799Y-59051643D02*
X90682766Y-58988360D01*
X90682766Y-58988360D02*
X90679858Y-58881921D01*
X90679858Y-58881921D02*
X90760356Y-58709291D01*
X90760356Y-58709291D02*
X90843763Y-58643100D01*
X90843763Y-58643100D02*
X90907046Y-58620068D01*
X90907046Y-58620068D02*
X91013485Y-58617159D01*
X91013485Y-58617159D02*
X91056643Y-58637284D01*
X91056643Y-58637284D02*
X91122833Y-58720691D01*
X91122833Y-58720691D02*
X91145866Y-58783973D01*
X91145866Y-58783973D02*
X91148774Y-58890413D01*
X91148774Y-58890413D02*
X91068275Y-59063043D01*
X91068275Y-59063043D02*
X91071184Y-59169483D01*
X91071184Y-59169483D02*
X91094216Y-59232765D01*
X91094216Y-59232765D02*
X91160407Y-59316172D01*
X91160407Y-59316172D02*
X91333037Y-59396670D01*
X91333037Y-59396670D02*
X91439476Y-59393762D01*
X91439476Y-59393762D02*
X91502759Y-59370729D01*
X91502759Y-59370729D02*
X91586166Y-59304539D01*
X91586166Y-59304539D02*
X91666664Y-59131909D01*
X91666664Y-59131909D02*
X91663756Y-59025469D01*
X91663756Y-59025469D02*
X91640723Y-58962187D01*
X91640723Y-58962187D02*
X91574533Y-58878780D01*
X91574533Y-58878780D02*
X91401903Y-58798281D01*
X91401903Y-58798281D02*
X91295463Y-58801190D01*
X91295463Y-58801190D02*
X91232181Y-58824222D01*
X91232181Y-58824222D02*
X91148774Y-58890413D01*
X90546439Y-55105001D02*
X90739636Y-54690689D01*
X90643037Y-54897845D02*
X91368084Y-55235940D01*
X91368084Y-55235940D02*
X91296705Y-55118589D01*
X91296705Y-55118589D02*
X91259852Y-55017337D01*
X91259852Y-55017337D02*
X91257526Y-54932185D01*
X79809868Y-102276618D02*
X78943843Y-101776618D01*
X78943843Y-101776618D02*
X79062890Y-101570421D01*
X79062890Y-101570421D02*
X79175558Y-101470513D01*
X79175558Y-101470513D02*
X79305656Y-101435653D01*
X79305656Y-101435653D02*
X79411944Y-101442033D01*
X79411944Y-101442033D02*
X79600711Y-101496032D01*
X79600711Y-101496032D02*
X79724429Y-101567460D01*
X79724429Y-101567460D02*
X79865576Y-101703938D01*
X79865576Y-101703938D02*
X79924245Y-101792796D01*
X79924245Y-101792796D02*
X79959105Y-101922894D01*
X79959105Y-101922894D02*
X79928916Y-102070421D01*
X79928916Y-102070421D02*
X79809868Y-102276618D01*
X79681938Y-100498199D02*
X79443843Y-100910592D01*
X79443843Y-100910592D02*
X79832426Y-101189927D01*
X79832426Y-101189927D02*
X79814996Y-101124878D01*
X79814996Y-101124878D02*
X79821376Y-101018590D01*
X79821376Y-101018590D02*
X79940424Y-100812393D01*
X79940424Y-100812393D02*
X80029282Y-100753724D01*
X80029282Y-100753724D02*
X80094331Y-100736295D01*
X80094331Y-100736295D02*
X80200619Y-100742674D01*
X80200619Y-100742674D02*
X80406816Y-100861722D01*
X80406816Y-100861722D02*
X80465485Y-100950580D01*
X80465485Y-100950580D02*
X80482914Y-101015629D01*
X80482914Y-101015629D02*
X80476535Y-101121917D01*
X80476535Y-101121917D02*
X80357487Y-101328114D01*
X80357487Y-101328114D02*
X80268629Y-101386783D01*
X80268629Y-101386783D02*
X80203580Y-101404213D01*
X79711540Y-97012699D02*
X79940111Y-96616802D01*
X79825825Y-96814750D02*
X80518646Y-97214750D01*
X80518646Y-97214750D02*
X80457767Y-97091624D01*
X80457767Y-97091624D02*
X80429879Y-96987546D01*
X80429879Y-96987546D02*
X80434983Y-96902516D01*
X104163941Y-85925807D02*
X105029966Y-85425807D01*
X105029966Y-85425807D02*
X105149014Y-85632003D01*
X105149014Y-85632003D02*
X105179203Y-85779531D01*
X105179203Y-85779531D02*
X105144343Y-85909628D01*
X105144343Y-85909628D02*
X105085674Y-85998487D01*
X105085674Y-85998487D02*
X104944527Y-86134964D01*
X104944527Y-86134964D02*
X104820809Y-86206393D01*
X104820809Y-86206393D02*
X104632042Y-86260391D01*
X104632042Y-86260391D02*
X104525754Y-86266771D01*
X104525754Y-86266771D02*
X104395656Y-86231912D01*
X104395656Y-86231912D02*
X104282988Y-86132003D01*
X104282988Y-86132003D02*
X104163941Y-85925807D01*
X104925846Y-87245464D02*
X104640131Y-86750593D01*
X104782988Y-86998029D02*
X105649014Y-86498029D01*
X105649014Y-86498029D02*
X105477677Y-86486979D01*
X105477677Y-86486979D02*
X105347579Y-86452119D01*
X105347579Y-86452119D02*
X105258721Y-86393450D01*
X105402036Y-88070251D02*
X105116322Y-87575379D01*
X105259179Y-87822815D02*
X106125204Y-87322815D01*
X106125204Y-87322815D02*
X105953867Y-87311765D01*
X105953867Y-87311765D02*
X105823770Y-87276905D01*
X105823770Y-87276905D02*
X105734911Y-87218236D01*
X109009887Y-88885005D02*
X109238459Y-89280902D01*
X109124173Y-89082954D02*
X108431353Y-89482954D01*
X108431353Y-89482954D02*
X108568422Y-89491794D01*
X108568422Y-89491794D02*
X108672501Y-89519681D01*
X108672501Y-89519681D02*
X108743587Y-89566617D01*
X107842544Y-72230862D02*
X108748852Y-71808243D01*
X108748852Y-71808243D02*
X108849475Y-72024031D01*
X108849475Y-72024031D02*
X108866692Y-72173628D01*
X108866692Y-72173628D02*
X108820626Y-72300193D01*
X108820626Y-72300193D02*
X108754436Y-72383599D01*
X108754436Y-72383599D02*
X108601930Y-72507256D01*
X108601930Y-72507256D02*
X108472458Y-72567630D01*
X108472458Y-72567630D02*
X108279703Y-72604971D01*
X108279703Y-72604971D02*
X108173263Y-72602063D01*
X108173263Y-72602063D02*
X108046699Y-72555997D01*
X108046699Y-72555997D02*
X107943168Y-72446649D01*
X107943168Y-72446649D02*
X107842544Y-72230862D01*
X108486534Y-73611902D02*
X108245038Y-73094012D01*
X108365786Y-73352957D02*
X109272094Y-72930339D01*
X109272094Y-72930339D02*
X109102372Y-72904398D01*
X109102372Y-72904398D02*
X108975807Y-72858332D01*
X108975807Y-72858332D02*
X108892400Y-72792142D01*
X109654462Y-73750332D02*
X109694712Y-73836647D01*
X109694712Y-73836647D02*
X109691804Y-73943086D01*
X109691804Y-73943086D02*
X109668771Y-74006369D01*
X109668771Y-74006369D02*
X109602581Y-74089775D01*
X109602581Y-74089775D02*
X109450075Y-74213432D01*
X109450075Y-74213432D02*
X109234288Y-74314055D01*
X109234288Y-74314055D02*
X109041533Y-74351396D01*
X109041533Y-74351396D02*
X108935093Y-74348488D01*
X108935093Y-74348488D02*
X108871811Y-74325455D01*
X108871811Y-74325455D02*
X108788404Y-74259265D01*
X108788404Y-74259265D02*
X108748155Y-74172950D01*
X108748155Y-74172950D02*
X108751063Y-74066510D01*
X108751063Y-74066510D02*
X108774096Y-74003228D01*
X108774096Y-74003228D02*
X108840286Y-73919821D01*
X108840286Y-73919821D02*
X108992791Y-73796165D01*
X108992791Y-73796165D02*
X109208579Y-73695541D01*
X109208579Y-73695541D02*
X109401334Y-73658200D01*
X109401334Y-73658200D02*
X109507773Y-73661108D01*
X109507773Y-73661108D02*
X109571056Y-73684141D01*
X109571056Y-73684141D02*
X109654462Y-73750332D01*
X112412140Y-75601151D02*
X112605337Y-76015463D01*
X112508738Y-75808307D02*
X111783692Y-76146401D01*
X111783692Y-76146401D02*
X111919470Y-76167154D01*
X111919470Y-76167154D02*
X112020721Y-76204007D01*
X112020721Y-76204007D02*
X112087447Y-76256959D01*
X97085714Y-48054819D02*
X97085714Y-47054819D01*
X97085714Y-47054819D02*
X97323809Y-47054819D01*
X97323809Y-47054819D02*
X97466666Y-47102438D01*
X97466666Y-47102438D02*
X97561904Y-47197676D01*
X97561904Y-47197676D02*
X97609523Y-47292914D01*
X97609523Y-47292914D02*
X97657142Y-47483390D01*
X97657142Y-47483390D02*
X97657142Y-47626247D01*
X97657142Y-47626247D02*
X97609523Y-47816723D01*
X97609523Y-47816723D02*
X97561904Y-47911961D01*
X97561904Y-47911961D02*
X97466666Y-48007200D01*
X97466666Y-48007200D02*
X97323809Y-48054819D01*
X97323809Y-48054819D02*
X97085714Y-48054819D01*
X97990476Y-47054819D02*
X98609523Y-47054819D01*
X98609523Y-47054819D02*
X98276190Y-47435771D01*
X98276190Y-47435771D02*
X98419047Y-47435771D01*
X98419047Y-47435771D02*
X98514285Y-47483390D01*
X98514285Y-47483390D02*
X98561904Y-47531009D01*
X98561904Y-47531009D02*
X98609523Y-47626247D01*
X98609523Y-47626247D02*
X98609523Y-47864342D01*
X98609523Y-47864342D02*
X98561904Y-47959580D01*
X98561904Y-47959580D02*
X98514285Y-48007200D01*
X98514285Y-48007200D02*
X98419047Y-48054819D01*
X98419047Y-48054819D02*
X98133333Y-48054819D01*
X98133333Y-48054819D02*
X98038095Y-48007200D01*
X98038095Y-48007200D02*
X97990476Y-47959580D01*
X98942857Y-47054819D02*
X99561904Y-47054819D01*
X99561904Y-47054819D02*
X99228571Y-47435771D01*
X99228571Y-47435771D02*
X99371428Y-47435771D01*
X99371428Y-47435771D02*
X99466666Y-47483390D01*
X99466666Y-47483390D02*
X99514285Y-47531009D01*
X99514285Y-47531009D02*
X99561904Y-47626247D01*
X99561904Y-47626247D02*
X99561904Y-47864342D01*
X99561904Y-47864342D02*
X99514285Y-47959580D01*
X99514285Y-47959580D02*
X99466666Y-48007200D01*
X99466666Y-48007200D02*
X99371428Y-48054819D01*
X99371428Y-48054819D02*
X99085714Y-48054819D01*
X99085714Y-48054819D02*
X98990476Y-48007200D01*
X98990476Y-48007200D02*
X98942857Y-47959580D01*
X100578571Y-45812295D02*
X100121428Y-45812295D01*
X100350000Y-45812295D02*
X100350000Y-45012295D01*
X100350000Y-45012295D02*
X100273809Y-45126580D01*
X100273809Y-45126580D02*
X100197619Y-45202771D01*
X100197619Y-45202771D02*
X100121428Y-45240866D01*
X101243791Y-59112437D02*
X102150099Y-58689819D01*
X102150099Y-58689819D02*
X102250722Y-58905607D01*
X102250722Y-58905607D02*
X102267939Y-59055204D01*
X102267939Y-59055204D02*
X102221873Y-59181768D01*
X102221873Y-59181768D02*
X102155683Y-59265175D01*
X102155683Y-59265175D02*
X102003177Y-59388831D01*
X102003177Y-59388831D02*
X101873705Y-59449205D01*
X101873705Y-59449205D02*
X101680950Y-59486547D01*
X101680950Y-59486547D02*
X101574510Y-59483638D01*
X101574510Y-59483638D02*
X101447946Y-59437573D01*
X101447946Y-59437573D02*
X101344415Y-59328225D01*
X101344415Y-59328225D02*
X101243791Y-59112437D01*
X101686534Y-60061903D02*
X101767033Y-60234533D01*
X101767033Y-60234533D02*
X101850440Y-60300723D01*
X101850440Y-60300723D02*
X101913722Y-60323756D01*
X101913722Y-60323756D02*
X102083444Y-60349697D01*
X102083444Y-60349697D02*
X102276198Y-60312356D01*
X102276198Y-60312356D02*
X102621459Y-60151358D01*
X102621459Y-60151358D02*
X102687649Y-60067951D01*
X102687649Y-60067951D02*
X102710682Y-60004669D01*
X102710682Y-60004669D02*
X102713590Y-59898229D01*
X102713590Y-59898229D02*
X102633091Y-59725599D01*
X102633091Y-59725599D02*
X102549684Y-59659409D01*
X102549684Y-59659409D02*
X102486402Y-59636376D01*
X102486402Y-59636376D02*
X102379962Y-59633468D01*
X102379962Y-59633468D02*
X102164175Y-59734091D01*
X102164175Y-59734091D02*
X102097985Y-59817498D01*
X102097985Y-59817498D02*
X102074952Y-59880780D01*
X102074952Y-59880780D02*
X102072044Y-59987220D01*
X102072044Y-59987220D02*
X102152542Y-60159850D01*
X102152542Y-60159850D02*
X102235949Y-60226041D01*
X102235949Y-60226041D02*
X102299231Y-60249073D01*
X102299231Y-60249073D02*
X102405671Y-60251982D01*
X105612140Y-62051151D02*
X105805337Y-62465463D01*
X105708738Y-62258307D02*
X104983692Y-62596401D01*
X104983692Y-62596401D02*
X105119470Y-62617154D01*
X105119470Y-62617154D02*
X105220721Y-62654007D01*
X105220721Y-62654007D02*
X105287447Y-62706959D01*
X92133333Y-170462295D02*
X92133333Y-171033723D01*
X92133333Y-171033723D02*
X92095238Y-171148009D01*
X92095238Y-171148009D02*
X92019047Y-171224200D01*
X92019047Y-171224200D02*
X91904762Y-171262295D01*
X91904762Y-171262295D02*
X91828571Y-171262295D01*
X92933333Y-171262295D02*
X92476190Y-171262295D01*
X92704762Y-171262295D02*
X92704762Y-170462295D01*
X92704762Y-170462295D02*
X92628571Y-170576580D01*
X92628571Y-170576580D02*
X92552381Y-170652771D01*
X92552381Y-170652771D02*
X92476190Y-170690866D01*
X76209868Y-130219856D02*
X75343843Y-129719856D01*
X75343843Y-129719856D02*
X75462890Y-129513659D01*
X75462890Y-129513659D02*
X75575558Y-129413751D01*
X75575558Y-129413751D02*
X75705656Y-129378891D01*
X75705656Y-129378891D02*
X75811944Y-129385271D01*
X75811944Y-129385271D02*
X76000711Y-129439270D01*
X76000711Y-129439270D02*
X76124429Y-129510698D01*
X76124429Y-129510698D02*
X76265576Y-129647176D01*
X76265576Y-129647176D02*
X76324245Y-129736034D01*
X76324245Y-129736034D02*
X76359105Y-129866132D01*
X76359105Y-129866132D02*
X76328916Y-130013659D01*
X76328916Y-130013659D02*
X76209868Y-130219856D01*
X75796224Y-128936309D02*
X76105747Y-128400198D01*
X76105747Y-128400198D02*
X76268995Y-128879349D01*
X76268995Y-128879349D02*
X76340424Y-128755631D01*
X76340424Y-128755631D02*
X76429282Y-128696962D01*
X76429282Y-128696962D02*
X76494331Y-128679533D01*
X76494331Y-128679533D02*
X76600619Y-128685912D01*
X76600619Y-128685912D02*
X76806816Y-128804960D01*
X76806816Y-128804960D02*
X76865485Y-128893818D01*
X76865485Y-128893818D02*
X76882914Y-128958867D01*
X76882914Y-128958867D02*
X76876535Y-129065155D01*
X76876535Y-129065155D02*
X76733677Y-129312591D01*
X76733677Y-129312591D02*
X76644819Y-129371260D01*
X76644819Y-129371260D02*
X76579770Y-129388690D01*
X76111540Y-124955937D02*
X76340111Y-124560040D01*
X76225825Y-124757988D02*
X76918646Y-125157988D01*
X76918646Y-125157988D02*
X76857767Y-125034862D01*
X76857767Y-125034862D02*
X76829879Y-124930784D01*
X76829879Y-124930784D02*
X76834983Y-124845754D01*
X111863941Y-99885807D02*
X112729966Y-99385807D01*
X112729966Y-99385807D02*
X112849014Y-99592003D01*
X112849014Y-99592003D02*
X112879203Y-99739531D01*
X112879203Y-99739531D02*
X112844343Y-99869628D01*
X112844343Y-99869628D02*
X112785674Y-99958487D01*
X112785674Y-99958487D02*
X112644527Y-100094964D01*
X112644527Y-100094964D02*
X112520809Y-100166393D01*
X112520809Y-100166393D02*
X112332042Y-100220391D01*
X112332042Y-100220391D02*
X112225754Y-100226771D01*
X112225754Y-100226771D02*
X112095656Y-100191912D01*
X112095656Y-100191912D02*
X111982988Y-100092003D01*
X111982988Y-100092003D02*
X111863941Y-99885807D01*
X112625846Y-101205464D02*
X112340131Y-100710593D01*
X112482988Y-100958029D02*
X113349014Y-100458029D01*
X113349014Y-100458029D02*
X113177677Y-100446979D01*
X113177677Y-100446979D02*
X113047579Y-100412119D01*
X113047579Y-100412119D02*
X112958721Y-100353450D01*
X113599869Y-101082998D02*
X113664917Y-101100428D01*
X113664917Y-101100428D02*
X113753776Y-101159097D01*
X113753776Y-101159097D02*
X113872823Y-101365293D01*
X113872823Y-101365293D02*
X113879203Y-101471582D01*
X113879203Y-101471582D02*
X113861773Y-101536630D01*
X113861773Y-101536630D02*
X113803104Y-101625489D01*
X113803104Y-101625489D02*
X113720626Y-101673108D01*
X113720626Y-101673108D02*
X113573098Y-101703297D01*
X113573098Y-101703297D02*
X112792512Y-101494140D01*
X112792512Y-101494140D02*
X113102036Y-102030251D01*
X116709887Y-102845005D02*
X116938459Y-103240902D01*
X116824173Y-103042954D02*
X116131353Y-103442954D01*
X116131353Y-103442954D02*
X116268422Y-103451794D01*
X116268422Y-103451794D02*
X116372501Y-103479681D01*
X116372501Y-103479681D02*
X116443587Y-103526617D01*
X98390476Y-82624819D02*
X98390476Y-81624819D01*
X98390476Y-81624819D02*
X98723809Y-82339104D01*
X98723809Y-82339104D02*
X99057142Y-81624819D01*
X99057142Y-81624819D02*
X99057142Y-82624819D01*
X99961904Y-81958152D02*
X99961904Y-82624819D01*
X99723809Y-81577200D02*
X99485714Y-82291485D01*
X99485714Y-82291485D02*
X100104761Y-82291485D01*
X84383333Y-170462295D02*
X84383333Y-171033723D01*
X84383333Y-171033723D02*
X84345238Y-171148009D01*
X84345238Y-171148009D02*
X84269047Y-171224200D01*
X84269047Y-171224200D02*
X84154762Y-171262295D01*
X84154762Y-171262295D02*
X84078571Y-171262295D01*
X84726190Y-170538485D02*
X84764286Y-170500390D01*
X84764286Y-170500390D02*
X84840476Y-170462295D01*
X84840476Y-170462295D02*
X85030952Y-170462295D01*
X85030952Y-170462295D02*
X85107143Y-170500390D01*
X85107143Y-170500390D02*
X85145238Y-170538485D01*
X85145238Y-170538485D02*
X85183333Y-170614676D01*
X85183333Y-170614676D02*
X85183333Y-170690866D01*
X85183333Y-170690866D02*
X85145238Y-170805152D01*
X85145238Y-170805152D02*
X84688095Y-171262295D01*
X84688095Y-171262295D02*
X85183333Y-171262295D01*
X62055925Y-155916618D02*
X61189900Y-155416618D01*
X61189900Y-155416618D02*
X61308947Y-155210421D01*
X61308947Y-155210421D02*
X61421615Y-155110513D01*
X61421615Y-155110513D02*
X61551713Y-155075653D01*
X61551713Y-155075653D02*
X61658001Y-155082033D01*
X61658001Y-155082033D02*
X61846768Y-155136032D01*
X61846768Y-155136032D02*
X61970486Y-155207460D01*
X61970486Y-155207460D02*
X62111633Y-155343938D01*
X62111633Y-155343938D02*
X62170302Y-155432796D01*
X62170302Y-155432796D02*
X62205162Y-155562894D01*
X62205162Y-155562894D02*
X62174973Y-155710421D01*
X62174973Y-155710421D02*
X62055925Y-155916618D01*
X62817830Y-154596960D02*
X62532115Y-155091832D01*
X62674973Y-154844396D02*
X61808947Y-154344396D01*
X61808947Y-154344396D02*
X61885046Y-154498303D01*
X61885046Y-154498303D02*
X61919906Y-154628401D01*
X61919906Y-154628401D02*
X61913526Y-154734689D01*
X61957599Y-150652700D02*
X62186170Y-150256803D01*
X62071884Y-150454751D02*
X62764705Y-150854751D01*
X62764705Y-150854751D02*
X62703826Y-150731625D01*
X62703826Y-150731625D02*
X62675938Y-150627547D01*
X62675938Y-150627547D02*
X62681042Y-150542517D01*
D12*
%TO.C,M1*%
X97650000Y-126900000D02*
X100650000Y-126900000D01*
X97650000Y-129900000D02*
X97650000Y-126900000D01*
X97650000Y-129900000D02*
X100650000Y-129900000D01*
D10*
X100650000Y-126900000D02*
X100650000Y-129900000D01*
D12*
%TO.C,D2*%
X62489488Y-141319615D02*
X62654200Y-141934327D01*
X62654200Y-141934327D02*
X67027628Y-144459327D01*
X64266635Y-141941507D02*
X65825481Y-142841507D01*
X65764488Y-135647149D02*
X62489488Y-141319615D01*
X66966635Y-137264969D02*
X68525481Y-138164969D01*
X70527628Y-138397149D02*
X65764488Y-135647149D01*
X70527628Y-138397149D02*
X67027628Y-144459327D01*
%TO.C,J3*%
X99900000Y-172400000D02*
X102900000Y-172400000D01*
X99900000Y-175400000D02*
X99900000Y-172400000D01*
X99900000Y-175400000D02*
X102900000Y-175400000D01*
D10*
X102900000Y-172400000D02*
X102900000Y-175400000D01*
D12*
%TO.C,M3*%
X92150000Y-126900000D02*
X95150000Y-126900000D01*
X92150000Y-129900000D02*
X92150000Y-126900000D01*
X92150000Y-129900000D02*
X95150000Y-129900000D01*
D10*
X95150000Y-126900000D02*
X95150000Y-129900000D01*
D12*
%TO.C,D15*%
X126564488Y-145466089D02*
X123064488Y-139403911D01*
X126564488Y-145466089D02*
X131327628Y-142716089D01*
X126625481Y-138271731D02*
X125066635Y-139171731D01*
X127437916Y-136878911D02*
X123064488Y-139403911D01*
X128052628Y-137043623D02*
X127437916Y-136878911D01*
X129325481Y-142948269D02*
X127766635Y-143848269D01*
X131327628Y-142716089D02*
X128052628Y-137043623D01*
%TO.C,D6*%
X80647372Y-86456377D02*
X80812084Y-87071089D01*
X80812084Y-87071089D02*
X85185512Y-89596089D01*
X82424519Y-87078269D02*
X83983365Y-87978269D01*
X83922372Y-80783911D02*
X80647372Y-86456377D01*
X85124519Y-82401731D02*
X86683365Y-83301731D01*
X88685512Y-83533911D02*
X83922372Y-80783911D01*
X88685512Y-83533911D02*
X85185512Y-89596089D01*
%TO.C,M2*%
X92100000Y-83000000D02*
X95100000Y-83000000D01*
X92100000Y-86000000D02*
X92100000Y-83000000D01*
X92100000Y-86000000D02*
X95100000Y-86000000D01*
D10*
X95100000Y-83000000D02*
X95100000Y-86000000D01*
D12*
%TO.C,D16*%
X133464488Y-158006089D02*
X129964488Y-151943911D01*
X133464488Y-158006089D02*
X138227628Y-155256089D01*
X133525481Y-150811731D02*
X131966635Y-151711731D01*
X134337916Y-149418911D02*
X129964488Y-151943911D01*
X134952628Y-149583623D02*
X134337916Y-149418911D01*
X136225481Y-155488269D02*
X134666635Y-156388269D01*
X138227628Y-155256089D02*
X134952628Y-149583623D01*
%TO.C,D13*%
X122922372Y-117706089D02*
X119422372Y-111643911D01*
X122922372Y-117706089D02*
X127685512Y-114956089D01*
X122983365Y-110511731D02*
X121424519Y-111411731D01*
X123795800Y-109118911D02*
X119422372Y-111643911D01*
X124410512Y-109283623D02*
X123795800Y-109118911D01*
X125683365Y-115188269D02*
X124124519Y-116088269D01*
X127685512Y-114956089D02*
X124410512Y-109283623D01*
%TO.C,D7*%
X77549490Y-72978905D02*
X77767152Y-73576922D01*
X77767152Y-73576922D02*
X82344004Y-75711145D01*
X79374075Y-73443542D02*
X81005430Y-74204254D01*
X80317640Y-67042589D02*
X77549490Y-72978905D01*
X81656214Y-68549480D02*
X83287569Y-69310192D01*
X85302332Y-69366990D02*
X80317640Y-67042589D01*
X85302332Y-69366990D02*
X82344004Y-75711145D01*
%TO.C,D4*%
X65347372Y-114766377D02*
X65512084Y-115381089D01*
X65512084Y-115381089D02*
X69885512Y-117906089D01*
X67124519Y-115388269D02*
X68683365Y-116288269D01*
X68622372Y-109093911D02*
X65347372Y-114766377D01*
X69824519Y-110711731D02*
X71383365Y-111611731D01*
X73385512Y-111843911D02*
X68622372Y-109093911D01*
X73385512Y-111843911D02*
X69885512Y-117906089D01*
%TO.C,D14*%
X118664488Y-131106089D02*
X115164488Y-125043911D01*
X118664488Y-131106089D02*
X123427628Y-128356089D01*
X118725481Y-123911731D02*
X117166635Y-124811731D01*
X119537916Y-122518911D02*
X115164488Y-125043911D01*
X120152628Y-122683623D02*
X119537916Y-122518911D01*
X121425481Y-128588269D02*
X119866635Y-129488269D01*
X123427628Y-128356089D02*
X120152628Y-122683623D01*
%TO.C,J4*%
X107900000Y-172400000D02*
X110900000Y-172400000D01*
X107900000Y-175400000D02*
X107900000Y-172400000D01*
X107900000Y-175400000D02*
X110900000Y-175400000D01*
D10*
X110900000Y-172400000D02*
X110900000Y-175400000D01*
D12*
%TO.C,D8*%
X84049491Y-59602039D02*
X84267151Y-60200055D01*
X84267151Y-60200055D02*
X88844005Y-62334277D01*
X85874077Y-60066675D02*
X87505431Y-60827387D01*
X86817641Y-53665723D02*
X84049491Y-59602039D01*
X88156215Y-55172613D02*
X89787569Y-55933325D01*
X91802333Y-55990123D02*
X86817641Y-53665723D01*
X91802333Y-55990123D02*
X88844005Y-62334277D01*
%TO.C,D5*%
X72847372Y-100926377D02*
X73012084Y-101541089D01*
X73012084Y-101541089D02*
X77385512Y-104066089D01*
X74624519Y-101548269D02*
X76183365Y-102448269D01*
X76122372Y-95253911D02*
X72847372Y-100926377D01*
X77324519Y-96871731D02*
X78883365Y-97771731D01*
X80885512Y-98003911D02*
X76122372Y-95253911D01*
X80885512Y-98003911D02*
X77385512Y-104066089D01*
%TO.C,D11*%
X107564488Y-89406089D02*
X104064488Y-83343911D01*
X107564488Y-89406089D02*
X112327628Y-86656089D01*
X107625481Y-82211731D02*
X106066635Y-83111731D01*
X108437916Y-80818911D02*
X104064488Y-83343911D01*
X109052628Y-80983623D02*
X108437916Y-80818911D01*
X110325481Y-86888269D02*
X108766635Y-87788269D01*
X112327628Y-86656089D02*
X109052628Y-80983623D01*
%TO.C,D10*%
X110926825Y-75994277D02*
X107968497Y-69650123D01*
X110926825Y-75994277D02*
X115911517Y-73669877D01*
X111614615Y-68832613D02*
X109983261Y-69593325D01*
X112545351Y-67515901D02*
X107968497Y-69650123D01*
X113143368Y-67733561D02*
X112545351Y-67515901D01*
X113896753Y-73726675D02*
X112265399Y-74487387D01*
X115911517Y-73669877D02*
X113143368Y-67733561D01*
%TO.C,D33*%
X92850000Y-41550000D02*
X92850000Y-46600000D01*
X93300000Y-41100000D02*
X92850000Y-41550000D01*
X93650000Y-42950000D02*
X93650000Y-44750000D01*
X99050000Y-42950000D02*
X99050000Y-44750000D01*
X99850000Y-41100000D02*
X93300000Y-41100000D01*
X99850000Y-46600000D02*
X92850000Y-46600000D01*
X99850000Y-46600000D02*
X99850000Y-41100000D01*
%TO.C,D9*%
X104126825Y-62444277D02*
X101168497Y-56100123D01*
X104126825Y-62444277D02*
X109111517Y-60119877D01*
X104814615Y-55282613D02*
X103183261Y-56043325D01*
X105745351Y-53965901D02*
X101168497Y-56100123D01*
X106343368Y-54183561D02*
X105745351Y-53965901D01*
X107096753Y-60176675D02*
X105465399Y-60937387D01*
X109111517Y-60119877D02*
X106343368Y-54183561D01*
%TO.C,J1*%
X89900000Y-172400000D02*
X92900000Y-172400000D01*
X89900000Y-175400000D02*
X89900000Y-172400000D01*
X89900000Y-175400000D02*
X92900000Y-175400000D01*
D10*
X92900000Y-172400000D02*
X92900000Y-175400000D01*
D12*
%TO.C,C2*%
X92561252Y-50865000D02*
X92038748Y-50865000D01*
X92561252Y-52335000D02*
X92038748Y-52335000D01*
%TO.C,D3*%
X69247372Y-128869615D02*
X69412084Y-129484327D01*
X69412084Y-129484327D02*
X73785512Y-132009327D01*
X71024519Y-129491507D02*
X72583365Y-130391507D01*
X72522372Y-123197149D02*
X69247372Y-128869615D01*
X73724519Y-124814969D02*
X75283365Y-125714969D01*
X77285512Y-125947149D02*
X72522372Y-123197149D01*
X77285512Y-125947149D02*
X73785512Y-132009327D01*
%TO.C,D12*%
X115264488Y-103366089D02*
X111764488Y-97303911D01*
X115264488Y-103366089D02*
X120027628Y-100616089D01*
X115325481Y-96171731D02*
X113766635Y-97071731D01*
X116137916Y-94778911D02*
X111764488Y-97303911D01*
X116752628Y-94943623D02*
X116137916Y-94778911D01*
X118025481Y-100848269D02*
X116466635Y-101748269D01*
X120027628Y-100616089D02*
X116752628Y-94943623D01*
%TO.C,M4*%
X97700000Y-83000000D02*
X100700000Y-83000000D01*
X97700000Y-86000000D02*
X97700000Y-83000000D01*
X97700000Y-86000000D02*
X100700000Y-86000000D01*
D10*
X100700000Y-83000000D02*
X100700000Y-86000000D01*
D12*
%TO.C,J2*%
X81900000Y-172400000D02*
X84900000Y-172400000D01*
X81900000Y-175400000D02*
X81900000Y-172400000D01*
X81900000Y-175400000D02*
X84900000Y-175400000D01*
D10*
X84900000Y-172400000D02*
X84900000Y-175400000D01*
D13*
%TO.C,G\u002A\u002A\u002A*%
G36*
X102979812Y-142452490D02*
G01*
X102962719Y-142469583D01*
X102945626Y-142452490D01*
X102962719Y-142435397D01*
X102979812Y-142452490D01*
G37*
G36*
X111150202Y-153494482D02*
G01*
X111133109Y-153511575D01*
X111116017Y-153494482D01*
X111133109Y-153477389D01*
X111150202Y-153494482D01*
G37*
G36*
X111568557Y-149483690D02*
G01*
X111577524Y-149511844D01*
X111549105Y-149560114D01*
X111517699Y-149573708D01*
X111469242Y-149561816D01*
X111457874Y-149511844D01*
X111475176Y-149455736D01*
X111517699Y-149449981D01*
X111568557Y-149483690D01*
G37*
G36*
X111745116Y-149455455D02*
G01*
X111759377Y-149503298D01*
X111751089Y-149565982D01*
X111714267Y-149580216D01*
X111671954Y-149556618D01*
X111669157Y-149503298D01*
X111690618Y-149443179D01*
X111714267Y-149426380D01*
X111745116Y-149455455D01*
G37*
G36*
X98847537Y-148569442D02*
G01*
X98867556Y-148680494D01*
X98865204Y-148741364D01*
X98841017Y-148745277D01*
X98834080Y-148739104D01*
X98819122Y-148691850D01*
X98812425Y-148604648D01*
X98812586Y-148574585D01*
X98816020Y-148434994D01*
X98847537Y-148569442D01*
G37*
G36*
X106073621Y-141759545D02*
G01*
X105936878Y-141787830D01*
X105819483Y-141806569D01*
X105710389Y-141815541D01*
X105697578Y-141815681D01*
X105633202Y-141812766D01*
X105631221Y-141801413D01*
X105663392Y-141785868D01*
X105737512Y-141768738D01*
X105847028Y-141758967D01*
X105902692Y-141758017D01*
X106073621Y-141759545D01*
G37*
G36*
X112287596Y-145647291D02*
G01*
X112328327Y-145755308D01*
X112333120Y-145777511D01*
X112339353Y-145860764D01*
X112313527Y-145884215D01*
X112256749Y-145847852D01*
X112192581Y-145779025D01*
X112136854Y-145708449D01*
X112122741Y-145668054D01*
X112146186Y-145637143D01*
X112162348Y-145624855D01*
X112231624Y-145603229D01*
X112287596Y-145647291D01*
G37*
G36*
X112636017Y-145458035D02*
G01*
X112670738Y-145519304D01*
X112680709Y-145618163D01*
X112671463Y-145692357D01*
X112639041Y-145833901D01*
X112610730Y-145907996D01*
X112584077Y-145915250D01*
X112556630Y-145856270D01*
X112525938Y-145731663D01*
X112525285Y-145728558D01*
X112504120Y-145600376D01*
X112506719Y-145521966D01*
X112522414Y-145489258D01*
X112584068Y-145444603D01*
X112636017Y-145458035D01*
G37*
G36*
X108270150Y-149644825D02*
G01*
X108287409Y-149692395D01*
X108298477Y-149785567D01*
X108305639Y-149935707D01*
X108305650Y-149936046D01*
X108307722Y-150105953D01*
X108299408Y-150215212D01*
X108278789Y-150271024D01*
X108243945Y-150280588D01*
X108217076Y-150268162D01*
X108194162Y-150222115D01*
X108181174Y-150130877D01*
X108177331Y-150012634D01*
X108181851Y-149885572D01*
X108193955Y-149767876D01*
X108212861Y-149677732D01*
X108237789Y-149633326D01*
X108244415Y-149631494D01*
X108270150Y-149644825D01*
G37*
G36*
X113220083Y-145324668D02*
G01*
X113231062Y-145373885D01*
X113187393Y-145448968D01*
X113098433Y-145537442D01*
X113002288Y-145640704D01*
X112912849Y-145770747D01*
X112878159Y-145836634D01*
X112814084Y-145963997D01*
X112765929Y-146033848D01*
X112736301Y-146044582D01*
X112727807Y-145994594D01*
X112735538Y-145924440D01*
X112776466Y-145768191D01*
X112843944Y-145615136D01*
X112928489Y-145479295D01*
X113020622Y-145374687D01*
X113110861Y-145315330D01*
X113153107Y-145306999D01*
X113220083Y-145324668D01*
G37*
G36*
X107251297Y-149666826D02*
G01*
X107277541Y-149763803D01*
X107287199Y-149916816D01*
X107287214Y-149924093D01*
X107287214Y-150157041D01*
X107398318Y-150167754D01*
X107483379Y-150190629D01*
X107509422Y-150229745D01*
X107479583Y-150263879D01*
X107405980Y-150286028D01*
X107312480Y-150294226D01*
X107222954Y-150286508D01*
X107161269Y-150260906D01*
X107158840Y-150258625D01*
X107136173Y-150201542D01*
X107121936Y-150098541D01*
X107116213Y-149971426D01*
X107119091Y-149842007D01*
X107130652Y-149732088D01*
X107150983Y-149663478D01*
X107156495Y-149656238D01*
X107210327Y-149629699D01*
X107251297Y-149666826D01*
G37*
G36*
X110915717Y-149638932D02*
G01*
X110953032Y-149699418D01*
X110970162Y-149821381D01*
X110971244Y-149923284D01*
X110967017Y-150144280D01*
X111092796Y-150154890D01*
X111179581Y-150170718D01*
X111214988Y-150205013D01*
X111218574Y-150231808D01*
X111208796Y-150272249D01*
X111168146Y-150291329D01*
X111079644Y-150295698D01*
X111056192Y-150295417D01*
X110950504Y-150290354D01*
X110870878Y-150280671D01*
X110851077Y-150275476D01*
X110827650Y-150233609D01*
X110812567Y-150143189D01*
X110805648Y-150023498D01*
X110806708Y-149893820D01*
X110815565Y-149773440D01*
X110832037Y-149681639D01*
X110855941Y-149637702D01*
X110857124Y-149637184D01*
X110915717Y-149638932D01*
G37*
G36*
X114088904Y-145225348D02*
G01*
X114117524Y-145245465D01*
X114153399Y-145293323D01*
X114158547Y-145309689D01*
X114128193Y-145338688D01*
X114049693Y-145373950D01*
X113941888Y-145408051D01*
X113861084Y-145426863D01*
X113751273Y-145466731D01*
X113611897Y-145543184D01*
X113461360Y-145644087D01*
X113318065Y-145757304D01*
X113220048Y-145849592D01*
X113123058Y-145939517D01*
X113048819Y-145985813D01*
X113004913Y-145984833D01*
X112996232Y-145957169D01*
X113018340Y-145919401D01*
X113077835Y-145844950D01*
X113164475Y-145746185D01*
X113226986Y-145678531D01*
X113383758Y-145529761D01*
X113548903Y-145403663D01*
X113712206Y-145305205D01*
X113863451Y-145239354D01*
X113992423Y-145211080D01*
X114088904Y-145225348D01*
G37*
G36*
X112374057Y-149605680D02*
G01*
X112389607Y-149611217D01*
X112468616Y-149658626D01*
X112484476Y-149706182D01*
X112440257Y-149739181D01*
X112361674Y-149745085D01*
X112256126Y-149755280D01*
X112197260Y-149809322D01*
X112176612Y-149915788D01*
X112176298Y-149932867D01*
X112192841Y-150061697D01*
X112245467Y-150133484D01*
X112336093Y-150150410D01*
X112364073Y-150146484D01*
X112456425Y-150143518D01*
X112505473Y-150169711D01*
X112501868Y-150215289D01*
X112465042Y-150252024D01*
X112349144Y-150298371D01*
X112225656Y-150285165D01*
X112114286Y-150215538D01*
X112093349Y-150192936D01*
X112022054Y-150064061D01*
X112003036Y-149923372D01*
X112033398Y-149788952D01*
X112110243Y-149678882D01*
X112183716Y-149628974D01*
X112284866Y-149595184D01*
X112374057Y-149605680D01*
G37*
G36*
X105477235Y-141827502D02*
G01*
X105507467Y-141838752D01*
X105474076Y-141852818D01*
X105389906Y-141868466D01*
X105215323Y-141899623D01*
X105004728Y-141942806D01*
X104771842Y-141994634D01*
X104530384Y-142051728D01*
X104294075Y-142110708D01*
X104076633Y-142168195D01*
X103891780Y-142220809D01*
X103753235Y-142265170D01*
X103704669Y-142283594D01*
X103594080Y-142323976D01*
X103540995Y-142328536D01*
X103543294Y-142299597D01*
X103586613Y-142270829D01*
X103670836Y-142238265D01*
X103707694Y-142227388D01*
X103820008Y-142195919D01*
X103918821Y-142166558D01*
X103937013Y-142160809D01*
X104127816Y-142103072D01*
X104342325Y-142044641D01*
X104568473Y-141988127D01*
X104794193Y-141936142D01*
X105007420Y-141891296D01*
X105196086Y-141856200D01*
X105348126Y-141833466D01*
X105451472Y-141825706D01*
X105477235Y-141827502D01*
G37*
G36*
X109047780Y-141770248D02*
G01*
X109191734Y-141779382D01*
X109327385Y-141792764D01*
X109473600Y-141812997D01*
X109649243Y-141842686D01*
X109868237Y-141883489D01*
X110054904Y-141923068D01*
X110276915Y-141976247D01*
X110516534Y-142038185D01*
X110756022Y-142104037D01*
X110977642Y-142168963D01*
X111163655Y-142228118D01*
X111270513Y-142266321D01*
X111378814Y-142304197D01*
X111468070Y-142328288D01*
X111501267Y-142332840D01*
X111551610Y-142349123D01*
X111560431Y-142367026D01*
X111554573Y-142387099D01*
X111530284Y-142393781D01*
X111477489Y-142384886D01*
X111386114Y-142358222D01*
X111246084Y-142311601D01*
X111144853Y-142276720D01*
X110702328Y-142139209D01*
X110200089Y-142012894D01*
X109635477Y-141897174D01*
X109005836Y-141791445D01*
X108996501Y-141790026D01*
X108774294Y-141756292D01*
X109047780Y-141770248D01*
G37*
G36*
X109428756Y-149636984D02*
G01*
X109481256Y-149655990D01*
X109492194Y-149682773D01*
X109462516Y-149725961D01*
X109406730Y-149745493D01*
X109317265Y-149768593D01*
X109287504Y-149801829D01*
X109321011Y-149838551D01*
X109349885Y-149851585D01*
X109422616Y-149899330D01*
X109435218Y-149953923D01*
X109387307Y-149999507D01*
X109353741Y-150011021D01*
X109288188Y-150047013D01*
X109280296Y-150095826D01*
X109326040Y-150140790D01*
X109390054Y-150161445D01*
X109465525Y-150189826D01*
X109492194Y-150230080D01*
X109462529Y-150265575D01*
X109389574Y-150287820D01*
X109297384Y-150295349D01*
X109210019Y-150286692D01*
X109151535Y-150260384D01*
X109144476Y-150251292D01*
X109133304Y-150195284D01*
X109128618Y-150090865D01*
X109131077Y-149957748D01*
X109133244Y-149916218D01*
X109150337Y-149631494D01*
X109321266Y-149631494D01*
X109428756Y-149636984D01*
G37*
G36*
X107590874Y-141668084D02*
G01*
X107841745Y-141670285D01*
X108076004Y-141674505D01*
X108283237Y-141680738D01*
X108453027Y-141688977D01*
X108574960Y-141699218D01*
X108637551Y-141711017D01*
X108681144Y-141730822D01*
X108677476Y-141739422D01*
X108619709Y-141737562D01*
X108501007Y-141725991D01*
X108500808Y-141725969D01*
X108381441Y-141717561D01*
X108206811Y-141711002D01*
X107990003Y-141706288D01*
X107744101Y-141703414D01*
X107482189Y-141702375D01*
X107217350Y-141703166D01*
X106962669Y-141705783D01*
X106731230Y-141710220D01*
X106536116Y-141716474D01*
X106390412Y-141724539D01*
X106364200Y-141726748D01*
X106239576Y-141737664D01*
X106177001Y-141740561D01*
X106170533Y-141734592D01*
X106214227Y-141718910D01*
X106244550Y-141709687D01*
X106320070Y-141697596D01*
X106451887Y-141687563D01*
X106629584Y-141679583D01*
X106842747Y-141673652D01*
X107080960Y-141669762D01*
X107333807Y-141667908D01*
X107590874Y-141668084D01*
G37*
G36*
X104650974Y-149656200D02*
G01*
X104720661Y-149702905D01*
X104789673Y-149773323D01*
X104819907Y-149849773D01*
X104825842Y-149944834D01*
X104815040Y-150060101D01*
X104773123Y-150145282D01*
X104725914Y-150198189D01*
X104624171Y-150268032D01*
X104509872Y-150299523D01*
X104405994Y-150289020D01*
X104354078Y-150257093D01*
X104331891Y-150199309D01*
X104317724Y-150085149D01*
X104313828Y-149960655D01*
X104475860Y-149960655D01*
X104480938Y-150101548D01*
X104506501Y-150151907D01*
X104560763Y-150155100D01*
X104618747Y-150112480D01*
X104646537Y-150037808D01*
X104647434Y-149936319D01*
X104624951Y-149838514D01*
X104582600Y-149774892D01*
X104579635Y-149772909D01*
X104529297Y-149752810D01*
X104496695Y-149772497D01*
X104479620Y-149839326D01*
X104475860Y-149960655D01*
X104313828Y-149960655D01*
X104313056Y-149935986D01*
X104315715Y-149790785D01*
X104325271Y-149700634D01*
X104344092Y-149652361D01*
X104367130Y-149635152D01*
X104509197Y-149615162D01*
X104650974Y-149656200D01*
G37*
G36*
X105214370Y-149654628D02*
G01*
X105254252Y-149727902D01*
X105298368Y-149838308D01*
X105340574Y-149965667D01*
X105374726Y-150089802D01*
X105394678Y-150190533D01*
X105394677Y-150246733D01*
X105356284Y-150289137D01*
X105304548Y-150271533D01*
X105249674Y-150198101D01*
X105242751Y-150184488D01*
X105182905Y-150112227D01*
X105113220Y-150096041D01*
X105052258Y-150136873D01*
X105032729Y-150173804D01*
X104989234Y-150243801D01*
X104936018Y-150277636D01*
X104892200Y-150265646D01*
X104882891Y-150249548D01*
X104884630Y-150190504D01*
X104909284Y-150089462D01*
X104949649Y-149965806D01*
X104975270Y-149899283D01*
X105110723Y-149899283D01*
X105115415Y-149919606D01*
X105133513Y-149922073D01*
X105161652Y-149909565D01*
X105156304Y-149899283D01*
X105115733Y-149895191D01*
X105110723Y-149899283D01*
X104975270Y-149899283D01*
X104998520Y-149838918D01*
X105048692Y-149728181D01*
X105092961Y-149652977D01*
X105111669Y-149634089D01*
X105170741Y-149617720D01*
X105214370Y-149654628D01*
G37*
G36*
X108569688Y-149632777D02*
G01*
X108641488Y-149708515D01*
X108680876Y-149768237D01*
X108737657Y-149854768D01*
X108782941Y-149910571D01*
X108799684Y-149922073D01*
X108816081Y-149891780D01*
X108825019Y-149816343D01*
X108825572Y-149788988D01*
X108838220Y-149685152D01*
X108878506Y-149635743D01*
X108882664Y-149633994D01*
X108933652Y-149629443D01*
X108967662Y-149667248D01*
X108987362Y-149755099D01*
X108995422Y-149900690D01*
X108995978Y-149960619D01*
X108987710Y-150133965D01*
X108961988Y-150241226D01*
X108918678Y-150282456D01*
X108857647Y-150257713D01*
X108778762Y-150167052D01*
X108719712Y-150075909D01*
X108637551Y-149939166D01*
X108627046Y-150084300D01*
X108603133Y-150203364D01*
X108553546Y-150263149D01*
X108497451Y-150277260D01*
X108470039Y-150243415D01*
X108458405Y-150176472D01*
X108451781Y-150065376D01*
X108450156Y-149934164D01*
X108453522Y-149806871D01*
X108461868Y-149707530D01*
X108470280Y-149668476D01*
X108511439Y-149618872D01*
X108569688Y-149632777D01*
G37*
G36*
X111816069Y-149635978D02*
G01*
X111820166Y-149637507D01*
X111847131Y-149669743D01*
X111862471Y-149747693D01*
X111868005Y-149881656D01*
X111868103Y-149908638D01*
X111864629Y-150049094D01*
X111851574Y-150139971D01*
X111824984Y-150199831D01*
X111799731Y-150229745D01*
X111697313Y-150288173D01*
X111574511Y-150295951D01*
X111455784Y-150254041D01*
X111405041Y-150214206D01*
X111359411Y-150159529D01*
X111333947Y-150096416D01*
X111323072Y-150003533D01*
X111321131Y-149893099D01*
X111326039Y-149752065D01*
X111341875Y-149669746D01*
X111368244Y-149637823D01*
X111432076Y-149641283D01*
X111473439Y-149707780D01*
X111491357Y-149835444D01*
X111492060Y-149874836D01*
X111498023Y-150022237D01*
X111518230Y-150112132D01*
X111556152Y-150154535D01*
X111591437Y-150161373D01*
X111663577Y-150141611D01*
X111708000Y-150076811D01*
X111728674Y-149958701D01*
X111731360Y-149869655D01*
X111734554Y-149736406D01*
X111746936Y-149660365D01*
X111772707Y-149630550D01*
X111816069Y-149635978D01*
G37*
G36*
X105805310Y-149604731D02*
G01*
X105883094Y-149652256D01*
X105902692Y-149702715D01*
X105886056Y-149750817D01*
X105828638Y-149761523D01*
X105750887Y-149746680D01*
X105703669Y-149763357D01*
X105688555Y-149793877D01*
X105696473Y-149843684D01*
X105717484Y-149853702D01*
X105781912Y-149876554D01*
X105862205Y-149932381D01*
X105936378Y-150002092D01*
X105982450Y-150066594D01*
X105988157Y-150088782D01*
X105957736Y-150176885D01*
X105879576Y-150245361D01*
X105773326Y-150286121D01*
X105658638Y-150291072D01*
X105569381Y-150261192D01*
X105518606Y-150205931D01*
X105515063Y-150143444D01*
X105542351Y-150110954D01*
X105594119Y-150110916D01*
X105640380Y-150131425D01*
X105722357Y-150154198D01*
X105769967Y-150146738D01*
X105810857Y-150125255D01*
X105800891Y-150099784D01*
X105754648Y-150064425D01*
X105618998Y-149963581D01*
X105534322Y-149888487D01*
X105492988Y-149829683D01*
X105487363Y-149777710D01*
X105497826Y-149746145D01*
X105575377Y-149647446D01*
X105684988Y-149597131D01*
X105805310Y-149604731D01*
G37*
G36*
X107012864Y-149638276D02*
G01*
X107007515Y-149696480D01*
X106971407Y-149768884D01*
X106928264Y-149819516D01*
X106867079Y-149884277D01*
X106849686Y-149937067D01*
X106877554Y-149998419D01*
X106947135Y-150083156D01*
X107015664Y-150181709D01*
X107034385Y-150253329D01*
X107009902Y-150288720D01*
X106948818Y-150278588D01*
X106857736Y-150213639D01*
X106855741Y-150211798D01*
X106759013Y-150122154D01*
X106729686Y-150210135D01*
X106695123Y-150282405D01*
X106654037Y-150291097D01*
X106610337Y-150257093D01*
X106584869Y-150196261D01*
X106570627Y-150090655D01*
X106567155Y-149961913D01*
X106573998Y-149831672D01*
X106590700Y-149721570D01*
X106616805Y-149653242D01*
X106623198Y-149646425D01*
X106671679Y-149619423D01*
X106705935Y-149647360D01*
X106708139Y-149650785D01*
X106736308Y-149720490D01*
X106739719Y-149745637D01*
X106761515Y-149758497D01*
X106822834Y-149721214D01*
X106845423Y-149702905D01*
X106919491Y-149646670D01*
X106973713Y-149616196D01*
X106982166Y-149614401D01*
X107012864Y-149638276D01*
G37*
G36*
X110499525Y-149595229D02*
G01*
X110582076Y-149631814D01*
X110632121Y-149677287D01*
X110637416Y-149695362D01*
X110610482Y-149749582D01*
X110540650Y-149763966D01*
X110483580Y-149750497D01*
X110402709Y-149749062D01*
X110339980Y-149799037D01*
X110302506Y-149884359D01*
X110297400Y-149988963D01*
X110330947Y-150095249D01*
X110388640Y-150155084D01*
X110451520Y-150154698D01*
X110500729Y-150097871D01*
X110512638Y-150058816D01*
X110546110Y-149978402D01*
X110598389Y-149956259D01*
X110658062Y-149984518D01*
X110686292Y-150055984D01*
X110677785Y-150150691D01*
X110661388Y-150193851D01*
X110593620Y-150264553D01*
X110490273Y-150296090D01*
X110372791Y-150287021D01*
X110262617Y-150235905D01*
X110244883Y-150221842D01*
X110174805Y-150136297D01*
X110139025Y-150018820D01*
X110134018Y-149981693D01*
X110127469Y-149880277D01*
X110144191Y-149811039D01*
X110195509Y-149742945D01*
X110236520Y-149700789D01*
X110316736Y-149630483D01*
X110385398Y-149587031D01*
X110409565Y-149580216D01*
X110499525Y-149595229D01*
G37*
G36*
X107859694Y-149621069D02*
G01*
X107964935Y-149639634D01*
X108020117Y-149672387D01*
X108020573Y-149709683D01*
X107961637Y-149741878D01*
X107922471Y-149750809D01*
X107842536Y-149777887D01*
X107810209Y-149814535D01*
X107831445Y-149847214D01*
X107874599Y-149859612D01*
X107945745Y-149891239D01*
X107964302Y-149943270D01*
X107928534Y-149992805D01*
X107886026Y-150010451D01*
X107819126Y-150046847D01*
X107810209Y-150096021D01*
X107855673Y-150141062D01*
X107918130Y-150161110D01*
X107986695Y-150180779D01*
X108011775Y-150203888D01*
X108011723Y-150204105D01*
X108005144Y-150260592D01*
X108005115Y-150263930D01*
X107975873Y-150288521D01*
X107904443Y-150298929D01*
X107815267Y-150296305D01*
X107732786Y-150281796D01*
X107681443Y-150256553D01*
X107676246Y-150248468D01*
X107661374Y-150172205D01*
X107652648Y-150053669D01*
X107650356Y-149918710D01*
X107654785Y-149793174D01*
X107666223Y-149702910D01*
X107670018Y-149689441D01*
X107694888Y-149641716D01*
X107739599Y-149620785D01*
X107825108Y-149619094D01*
X107859694Y-149621069D01*
G37*
G36*
X113076726Y-149641405D02*
G01*
X113083522Y-149651541D01*
X113075774Y-149696130D01*
X113029531Y-149765519D01*
X113000075Y-149798458D01*
X112935451Y-149872316D01*
X112897695Y-149929360D01*
X112893675Y-149942944D01*
X112916444Y-149986502D01*
X112973316Y-150053075D01*
X112996232Y-150075909D01*
X113063601Y-150157463D01*
X113096034Y-150231816D01*
X113089513Y-150283495D01*
X113053906Y-150298116D01*
X113003921Y-150275079D01*
X112933154Y-150217450D01*
X112908617Y-150193064D01*
X112808210Y-150088012D01*
X112791118Y-150181697D01*
X112761852Y-150258924D01*
X112718764Y-150292715D01*
X112676752Y-150272159D01*
X112673770Y-150267656D01*
X112655340Y-150202586D01*
X112644197Y-150093539D01*
X112640337Y-149962606D01*
X112643755Y-149831878D01*
X112654447Y-149723444D01*
X112672407Y-149659394D01*
X112673900Y-149657193D01*
X112723998Y-149622500D01*
X112768029Y-149650792D01*
X112796374Y-149731767D01*
X112808444Y-149769954D01*
X112834486Y-149767880D01*
X112890079Y-149721940D01*
X112907241Y-149706128D01*
X112988971Y-149637783D01*
X113040829Y-149617644D01*
X113076726Y-149641405D01*
G37*
G36*
X109684739Y-150488238D02*
G01*
X110158807Y-150489295D01*
X110609782Y-150490918D01*
X111027250Y-150493081D01*
X111400797Y-150495759D01*
X111720010Y-150498927D01*
X111816380Y-150500138D01*
X112178054Y-150505175D01*
X112477257Y-150509884D01*
X112719883Y-150514566D01*
X112911829Y-150519520D01*
X113058990Y-150525047D01*
X113167264Y-150531447D01*
X113242545Y-150539019D01*
X113290731Y-150548065D01*
X113317717Y-150558883D01*
X113329399Y-150571775D01*
X113331042Y-150577228D01*
X113312591Y-150632865D01*
X113280208Y-150651753D01*
X113235926Y-150654868D01*
X113128223Y-150657965D01*
X112962049Y-150661027D01*
X112742355Y-150664032D01*
X112474092Y-150666961D01*
X112162209Y-150669794D01*
X111811657Y-150672510D01*
X111427386Y-150675090D01*
X111014348Y-150677513D01*
X110577492Y-150679761D01*
X110121768Y-150681812D01*
X109652128Y-150683647D01*
X109173522Y-150685246D01*
X108690900Y-150686588D01*
X108209212Y-150687654D01*
X107733409Y-150688425D01*
X107268441Y-150688878D01*
X106819260Y-150688996D01*
X106390814Y-150688758D01*
X105988055Y-150688143D01*
X105615934Y-150687132D01*
X105279399Y-150685705D01*
X105111804Y-150684739D01*
X104716715Y-150682014D01*
X104384501Y-150679194D01*
X104109664Y-150676081D01*
X103886707Y-150672475D01*
X103710133Y-150668178D01*
X103574445Y-150662992D01*
X103474146Y-150656718D01*
X103403738Y-150649157D01*
X103357725Y-150640110D01*
X103330610Y-150629380D01*
X103319251Y-150619967D01*
X103292547Y-150571542D01*
X103321111Y-150537102D01*
X103323868Y-150535334D01*
X103369972Y-150527036D01*
X103475004Y-150519430D01*
X103629521Y-150512837D01*
X103824078Y-150507579D01*
X104049233Y-150503975D01*
X104295544Y-150502345D01*
X104295963Y-150502344D01*
X104487155Y-150501874D01*
X104738523Y-150501147D01*
X105041875Y-150500191D01*
X105389017Y-150499035D01*
X105771754Y-150497708D01*
X106181892Y-150496238D01*
X106611238Y-150494654D01*
X107051598Y-150492986D01*
X107494779Y-150491261D01*
X107765815Y-150490182D01*
X108228116Y-150488719D01*
X108708980Y-150487924D01*
X109197992Y-150487773D01*
X109684739Y-150488238D01*
G37*
G36*
X98890653Y-148845796D02*
G01*
X98919236Y-148900915D01*
X98960788Y-149000509D01*
X98997823Y-149098827D01*
X99079325Y-149316961D01*
X99151860Y-149493183D01*
X99226388Y-149650981D01*
X99313865Y-149813847D01*
X99403864Y-149969207D01*
X99577442Y-150238812D01*
X99783990Y-150520503D01*
X100011351Y-150800167D01*
X100247368Y-151063694D01*
X100479886Y-151296970D01*
X100696748Y-151485884D01*
X100737392Y-151517267D01*
X100841528Y-151597461D01*
X100932554Y-151670588D01*
X100979947Y-151711185D01*
X101038072Y-151758965D01*
X101129528Y-151828212D01*
X101240073Y-151908840D01*
X101355467Y-151990763D01*
X101461467Y-152063896D01*
X101543835Y-152118152D01*
X101588327Y-152143446D01*
X101591285Y-152144146D01*
X101628293Y-152161173D01*
X101704941Y-152205516D01*
X101791194Y-152259088D01*
X102142262Y-152463267D01*
X102548044Y-152664849D01*
X102994940Y-152858386D01*
X103469354Y-153038432D01*
X103957685Y-153199539D01*
X104446336Y-153336260D01*
X104535263Y-153358342D01*
X104737324Y-153406747D01*
X104916750Y-153447691D01*
X105089702Y-153484385D01*
X105272340Y-153520039D01*
X105480827Y-153557863D01*
X105731321Y-153601066D01*
X105902692Y-153629932D01*
X106176178Y-153675739D01*
X105930349Y-153679121D01*
X105806892Y-153676347D01*
X105711972Y-153665875D01*
X105664638Y-153649903D01*
X105663392Y-153648318D01*
X105615756Y-153620869D01*
X105567364Y-153614326D01*
X105496028Y-153606876D01*
X105369253Y-153585787D01*
X105198112Y-153553257D01*
X104993676Y-153511487D01*
X104767018Y-153462676D01*
X104529211Y-153409023D01*
X104501077Y-153402510D01*
X104334350Y-153360114D01*
X104132834Y-153303192D01*
X103912419Y-153236820D01*
X103688996Y-153166070D01*
X103478457Y-153096016D01*
X103296691Y-153031734D01*
X103159589Y-152978296D01*
X103125474Y-152963268D01*
X103035659Y-152923479D01*
X102974096Y-152899455D01*
X102961216Y-152896232D01*
X102914868Y-152881464D01*
X102819813Y-152841046D01*
X102688038Y-152780808D01*
X102531532Y-152706579D01*
X102362282Y-152624187D01*
X102192273Y-152539462D01*
X102033495Y-152458233D01*
X101897934Y-152386329D01*
X101804946Y-152333967D01*
X101343688Y-152037529D01*
X100900101Y-151706706D01*
X100484360Y-151350761D01*
X100106637Y-150978959D01*
X99777106Y-150600564D01*
X99531025Y-150263367D01*
X99403108Y-150057917D01*
X99278229Y-149836434D01*
X99161628Y-149610327D01*
X99058543Y-149391003D01*
X98974214Y-149189872D01*
X98913882Y-149018341D01*
X98882784Y-148887819D01*
X98879728Y-148845222D01*
X98890653Y-148845796D01*
G37*
G36*
X103457585Y-142338262D02*
G01*
X103443532Y-142354716D01*
X103376078Y-142389909D01*
X103265928Y-142438804D01*
X103123786Y-142496365D01*
X103111270Y-142501226D01*
X102964108Y-142561684D01*
X102787543Y-142639665D01*
X102593616Y-142729257D01*
X102394368Y-142824548D01*
X102201841Y-142919627D01*
X102028076Y-143008582D01*
X101885116Y-143085502D01*
X101785002Y-143144475D01*
X101749126Y-143169941D01*
X101683882Y-143214952D01*
X101594254Y-143265860D01*
X101586512Y-143269823D01*
X101486726Y-143329562D01*
X101347871Y-143425262D01*
X101182007Y-143547492D01*
X101001195Y-143686824D01*
X100817497Y-143833827D01*
X100642973Y-143979071D01*
X100489685Y-144113128D01*
X100395844Y-144200720D01*
X99986025Y-144632202D01*
X99640082Y-145069792D01*
X99353532Y-145520906D01*
X99121891Y-145992961D01*
X98940675Y-146493375D01*
X98879873Y-146708614D01*
X98846553Y-146829545D01*
X98825396Y-146887986D01*
X98814241Y-146888304D01*
X98811035Y-146847784D01*
X98826344Y-146702009D01*
X98869627Y-146539204D01*
X98915906Y-146427046D01*
X98941795Y-146351212D01*
X98945895Y-146318195D01*
X98961784Y-146240433D01*
X99004624Y-146118801D01*
X99067181Y-145968640D01*
X99142219Y-145805291D01*
X99222501Y-145644094D01*
X99300792Y-145500389D01*
X99369855Y-145389518D01*
X99406011Y-145342722D01*
X99443416Y-145275066D01*
X99439457Y-145232235D01*
X99430148Y-145205521D01*
X99440277Y-145211460D01*
X99471264Y-145198000D01*
X99526529Y-145139424D01*
X99592473Y-145050727D01*
X99674741Y-144934571D01*
X99757555Y-144825633D01*
X99807966Y-144764829D01*
X99863445Y-144698400D01*
X99891238Y-144656829D01*
X99892004Y-144652076D01*
X99896595Y-144645272D01*
X99923071Y-144624575D01*
X99982661Y-144565533D01*
X100062776Y-144480653D01*
X100067524Y-144475488D01*
X100325282Y-144208871D01*
X100598410Y-143951702D01*
X100870195Y-143718875D01*
X101123926Y-143525284D01*
X101167968Y-143494676D01*
X101246115Y-143439508D01*
X101297330Y-143400003D01*
X101304711Y-143393010D01*
X101345767Y-143361151D01*
X101427856Y-143307303D01*
X101534557Y-143241252D01*
X101649447Y-143172785D01*
X101756101Y-143111687D01*
X101838098Y-143067744D01*
X101879015Y-143050742D01*
X101879123Y-143050741D01*
X101922697Y-143030264D01*
X101925752Y-143025036D01*
X101962434Y-142995585D01*
X102049752Y-142944471D01*
X102175771Y-142877586D01*
X102328553Y-142800821D01*
X102496161Y-142720067D01*
X102666658Y-142641214D01*
X102828108Y-142570153D01*
X102945626Y-142521729D01*
X103091004Y-142463845D01*
X103218978Y-142411970D01*
X103311860Y-142373321D01*
X103343937Y-142359225D01*
X103417648Y-142337297D01*
X103457585Y-142338262D01*
G37*
G36*
X116001878Y-148888418D02*
G01*
X115990869Y-148978740D01*
X115974587Y-149025161D01*
X115945261Y-149095423D01*
X115910068Y-149195375D01*
X115901768Y-149221265D01*
X115821103Y-149433296D01*
X115704408Y-149678999D01*
X115561551Y-149941366D01*
X115402398Y-150203392D01*
X115236815Y-150448071D01*
X115074669Y-150658396D01*
X115053575Y-150683238D01*
X114815349Y-150944746D01*
X114547942Y-151212281D01*
X114268232Y-151470284D01*
X113993097Y-151703197D01*
X113739415Y-151895462D01*
X113735834Y-151897975D01*
X113623047Y-151977271D01*
X113524348Y-152047119D01*
X113460096Y-152093107D01*
X113457739Y-152094823D01*
X113357430Y-152161937D01*
X113218496Y-152246520D01*
X113051754Y-152342822D01*
X112868023Y-152445096D01*
X112678121Y-152547590D01*
X112492866Y-152644557D01*
X112323077Y-152730248D01*
X112179570Y-152798913D01*
X112073165Y-152844803D01*
X112014680Y-152862169D01*
X112013781Y-152862189D01*
X111970488Y-152876529D01*
X111888899Y-152912951D01*
X111833917Y-152939845D01*
X111703639Y-152998491D01*
X111564957Y-153050883D01*
X111526245Y-153063249D01*
X111417497Y-153097303D01*
X111326878Y-153128388D01*
X111304038Y-153137169D01*
X111207700Y-153171831D01*
X111067578Y-153216086D01*
X110897679Y-153266154D01*
X110712008Y-153318255D01*
X110524572Y-153368610D01*
X110349377Y-153413439D01*
X110200430Y-153448963D01*
X110091736Y-153471400D01*
X110043298Y-153477389D01*
X109940604Y-153490331D01*
X109878392Y-153508491D01*
X109806539Y-153528973D01*
X109690885Y-153553778D01*
X109555349Y-153577819D01*
X109543473Y-153579696D01*
X109410920Y-153603247D01*
X109299676Y-153628077D01*
X109231714Y-153649211D01*
X109227719Y-153651152D01*
X109163095Y-153667440D01*
X109055828Y-153677794D01*
X108954233Y-153679963D01*
X108881863Y-153677966D01*
X108848898Y-153673069D01*
X108860604Y-153663697D01*
X108922250Y-153648272D01*
X109039102Y-153625220D01*
X109216428Y-153592964D01*
X109287080Y-153580393D01*
X109832583Y-153477111D01*
X110323881Y-153369146D01*
X110775141Y-153252079D01*
X111200527Y-153121489D01*
X111614207Y-152972957D01*
X112030345Y-152802063D01*
X112463109Y-152604387D01*
X112551817Y-152561775D01*
X112736415Y-152466987D01*
X112945979Y-152350454D01*
X113166284Y-152220952D01*
X113383108Y-152087259D01*
X113582226Y-151958152D01*
X113749414Y-151842407D01*
X113870450Y-151748803D01*
X113873437Y-151746241D01*
X113943221Y-151688119D01*
X114039453Y-151610297D01*
X114095644Y-151565655D01*
X114229788Y-151450976D01*
X114393418Y-151297488D01*
X114572833Y-151119384D01*
X114754332Y-150930857D01*
X114924211Y-150746102D01*
X115068770Y-150579312D01*
X115163769Y-150459193D01*
X115476604Y-149984782D01*
X115740265Y-149476408D01*
X115960799Y-148922391D01*
X115963837Y-148913594D01*
X115987902Y-148850845D01*
X115998737Y-148849688D01*
X116001878Y-148888418D01*
G37*
G36*
X114464894Y-145534576D02*
G01*
X114582315Y-145548311D01*
X114642228Y-145572721D01*
X114643812Y-145574240D01*
X114665097Y-145625507D01*
X114633467Y-145666750D01*
X114564366Y-145689295D01*
X114473237Y-145684467D01*
X114455549Y-145679982D01*
X114248222Y-145648189D01*
X114044118Y-145675237D01*
X113837041Y-145763227D01*
X113620798Y-145914257D01*
X113528946Y-145994071D01*
X113393894Y-146125988D01*
X113280085Y-146259461D01*
X113174362Y-146412509D01*
X113063567Y-146603148D01*
X113007177Y-146708614D01*
X112785039Y-147159260D01*
X112613922Y-147568052D01*
X112492956Y-147937649D01*
X112421268Y-148270712D01*
X112397982Y-148566150D01*
X112399232Y-148712209D01*
X112405845Y-148807096D01*
X112422113Y-148868003D01*
X112452327Y-148912120D01*
X112494029Y-148950852D01*
X112568291Y-149003878D01*
X112625196Y-149010527D01*
X112658184Y-148997020D01*
X112700237Y-148963108D01*
X112713502Y-148908516D01*
X112704219Y-148813388D01*
X112701928Y-148663712D01*
X112735405Y-148563218D01*
X112836229Y-148427393D01*
X112979396Y-148309112D01*
X113143132Y-148222175D01*
X113305665Y-148180381D01*
X113342264Y-148178601D01*
X113418963Y-148196082D01*
X113440006Y-148237597D01*
X113404875Y-148286747D01*
X113346636Y-148316895D01*
X113206455Y-148375930D01*
X113108911Y-148441852D01*
X113029128Y-148532347D01*
X113014352Y-148553162D01*
X112944036Y-148696246D01*
X112932212Y-148824907D01*
X112972040Y-148929122D01*
X113056682Y-148998870D01*
X113179299Y-149024130D01*
X113319075Y-148999692D01*
X113449230Y-148923590D01*
X113541382Y-148803574D01*
X113588272Y-148656802D01*
X113582640Y-148500432D01*
X113560269Y-148429655D01*
X113528757Y-148344972D01*
X113528309Y-148293972D01*
X113561001Y-148248419D01*
X113574603Y-148234565D01*
X113615321Y-148199718D01*
X113660438Y-148184090D01*
X113729316Y-148186125D01*
X113841318Y-148204268D01*
X113874737Y-148210467D01*
X114064196Y-148233695D01*
X114272036Y-148239527D01*
X114473268Y-148228686D01*
X114642903Y-148201896D01*
X114696972Y-148186654D01*
X114771948Y-148165748D01*
X114802688Y-148175528D01*
X114808076Y-148211408D01*
X114774846Y-148270159D01*
X114677841Y-148334243D01*
X114649239Y-148348290D01*
X114545836Y-148389730D01*
X114445765Y-148409000D01*
X114320205Y-148410244D01*
X114247557Y-148406016D01*
X114103555Y-148393866D01*
X113967646Y-148378889D01*
X113877316Y-148365658D01*
X113749920Y-148342236D01*
X113804476Y-148451595D01*
X113847052Y-148607329D01*
X113828037Y-148765566D01*
X113752753Y-148914761D01*
X113626520Y-149043368D01*
X113495326Y-149122331D01*
X113302938Y-149188360D01*
X113126493Y-149194998D01*
X112949097Y-149142825D01*
X112945369Y-149141161D01*
X112853715Y-149104874D01*
X112792312Y-149099845D01*
X112731384Y-149124600D01*
X112721662Y-149130091D01*
X112601068Y-149163052D01*
X112465382Y-149144335D01*
X112338122Y-149078693D01*
X112299170Y-149044759D01*
X112224136Y-148936619D01*
X112161412Y-148785844D01*
X112119741Y-148618077D01*
X112107403Y-148482302D01*
X112126313Y-148267048D01*
X112179719Y-148009142D01*
X112262640Y-147721750D01*
X112370092Y-147418042D01*
X112497092Y-147111185D01*
X112638657Y-146814347D01*
X112789802Y-146540696D01*
X112916620Y-146343951D01*
X113084572Y-146141694D01*
X113296849Y-145943259D01*
X113531090Y-145767546D01*
X113747240Y-145641973D01*
X113864046Y-145588250D01*
X113962118Y-145555432D01*
X114066509Y-145538341D01*
X114202271Y-145531803D01*
X114284862Y-145530899D01*
X114464894Y-145534576D01*
G37*
G36*
X112883173Y-141976010D02*
G01*
X112999040Y-142009008D01*
X113089637Y-142045566D01*
X113178079Y-142098003D01*
X113277459Y-142176166D01*
X113400869Y-142289899D01*
X113493210Y-142380619D01*
X113727088Y-142611790D01*
X113923452Y-142801258D01*
X114091357Y-142957378D01*
X114239861Y-143088503D01*
X114378022Y-143202988D01*
X114425665Y-143240716D01*
X114541117Y-143331669D01*
X114646606Y-143415756D01*
X114721528Y-143476538D01*
X114728220Y-143482098D01*
X114791809Y-143528174D01*
X114899030Y-143598639D01*
X115034389Y-143683546D01*
X115168726Y-143764842D01*
X115310743Y-143850525D01*
X115433493Y-143926904D01*
X115523571Y-143985484D01*
X115566978Y-144017199D01*
X115621497Y-144063665D01*
X115703469Y-144128503D01*
X115731091Y-144149571D01*
X115834703Y-144232991D01*
X115945245Y-144330228D01*
X116050307Y-144429255D01*
X116137477Y-144518043D01*
X116194348Y-144584564D01*
X116209691Y-144613451D01*
X116233224Y-144664135D01*
X116255348Y-144686991D01*
X116307322Y-144752698D01*
X116368036Y-144862077D01*
X116426876Y-144993226D01*
X116473226Y-145124243D01*
X116481293Y-145153163D01*
X116515073Y-145383781D01*
X116488763Y-145584756D01*
X116451875Y-145675858D01*
X116375011Y-145788970D01*
X116263833Y-145911248D01*
X116140552Y-146021004D01*
X116027378Y-146096550D01*
X116014856Y-146102596D01*
X115967540Y-146134591D01*
X115945625Y-146184372D01*
X115948745Y-146264833D01*
X115976536Y-146388869D01*
X116003974Y-146486407D01*
X116043122Y-146632500D01*
X116078815Y-146794493D01*
X116114233Y-146988628D01*
X116152557Y-147231147D01*
X116161276Y-147289772D01*
X116186996Y-147491772D01*
X116196987Y-147661975D01*
X116191995Y-147834943D01*
X116176768Y-148007672D01*
X116146976Y-148260003D01*
X116114983Y-148471002D01*
X116082196Y-148633364D01*
X116050018Y-148739783D01*
X116028832Y-148776851D01*
X116011069Y-148775345D01*
X116016836Y-148711898D01*
X116020958Y-148691387D01*
X116044923Y-148579114D01*
X116072779Y-148449282D01*
X116079536Y-148417901D01*
X116093657Y-148324052D01*
X116107842Y-148181018D01*
X116120476Y-148007966D01*
X116129940Y-147824062D01*
X116130212Y-147817212D01*
X116136017Y-147601137D01*
X116132908Y-147426219D01*
X116118993Y-147265608D01*
X116092378Y-147092449D01*
X116071156Y-146979661D01*
X116033888Y-146801930D01*
X115993292Y-146628341D01*
X115954962Y-146481904D01*
X115931206Y-146404137D01*
X115896338Y-146295121D01*
X115873321Y-146209114D01*
X115867834Y-146175211D01*
X115894452Y-146135261D01*
X115964197Y-146073113D01*
X116060796Y-146003030D01*
X116252494Y-145846740D01*
X116378858Y-145673943D01*
X116440854Y-145481334D01*
X116439450Y-145265608D01*
X116375613Y-145023458D01*
X116359590Y-144981842D01*
X116240021Y-144757784D01*
X116058412Y-144529479D01*
X115813302Y-144295508D01*
X115503229Y-144054454D01*
X115184119Y-143840793D01*
X114949964Y-143691589D01*
X114753179Y-143561888D01*
X114582170Y-143442403D01*
X114425342Y-143323849D01*
X114271101Y-143196938D01*
X114107852Y-143052383D01*
X113924001Y-142880898D01*
X113707954Y-142673195D01*
X113621568Y-142589233D01*
X113405700Y-142384767D01*
X113229151Y-142229894D01*
X113093320Y-142125785D01*
X113011595Y-142078370D01*
X112858054Y-142011920D01*
X112543235Y-142090105D01*
X112350756Y-142141239D01*
X112203828Y-142190386D01*
X112080592Y-142246967D01*
X111959186Y-142320404D01*
X111877140Y-142377182D01*
X111784489Y-142437496D01*
X111721491Y-142459087D01*
X111666464Y-142448395D01*
X111654932Y-142443154D01*
X111606316Y-142417191D01*
X111615140Y-142406653D01*
X111682232Y-142403525D01*
X111801751Y-142367127D01*
X111882460Y-142301510D01*
X111923112Y-142263904D01*
X111973630Y-142229742D01*
X112043400Y-142195361D01*
X112141811Y-142157099D01*
X112278249Y-142111295D01*
X112462100Y-142054286D01*
X112692992Y-141985299D01*
X112786811Y-141967379D01*
X112883173Y-141976010D01*
G37*
G36*
X114405321Y-146184298D02*
G01*
X114635998Y-146289144D01*
X114854799Y-146438682D01*
X115046830Y-146622268D01*
X115197195Y-146829258D01*
X115227305Y-146884952D01*
X115310770Y-147071174D01*
X115368340Y-147253548D01*
X115402886Y-147449183D01*
X115417278Y-147675186D01*
X115414387Y-147948666D01*
X115412812Y-147990579D01*
X115377803Y-148416478D01*
X115305166Y-148804718D01*
X115189033Y-149178189D01*
X115023534Y-149559780D01*
X114996469Y-149614401D01*
X114720349Y-150089708D01*
X114382884Y-150541864D01*
X113987866Y-150968487D01*
X113539090Y-151367198D01*
X113040350Y-151735616D01*
X112495440Y-152071361D01*
X111908154Y-152372053D01*
X111282285Y-152635311D01*
X110621628Y-152858755D01*
X109929977Y-153040005D01*
X109356118Y-153153156D01*
X109016206Y-153203825D01*
X108644521Y-153247340D01*
X108258141Y-153282514D01*
X107874146Y-153308161D01*
X107509613Y-153323094D01*
X107181621Y-153326127D01*
X106962450Y-153319484D01*
X106568067Y-153288807D01*
X106119907Y-153236937D01*
X105628740Y-153165241D01*
X105270256Y-153104902D01*
X105009594Y-153050577D01*
X104705226Y-152973657D01*
X104375737Y-152879738D01*
X104039711Y-152774415D01*
X103715732Y-152663282D01*
X103422386Y-152551933D01*
X103390892Y-152539136D01*
X102779430Y-152262006D01*
X102206585Y-151948429D01*
X101678293Y-151602516D01*
X101200488Y-151228379D01*
X100779105Y-150830127D01*
X100543701Y-150566809D01*
X100443056Y-150441071D01*
X100336628Y-150299991D01*
X100232669Y-150155530D01*
X100139432Y-150019651D01*
X100065169Y-149904318D01*
X100018134Y-149821492D01*
X100005653Y-149786874D01*
X100018249Y-149751804D01*
X100057358Y-149770229D01*
X100124960Y-149844040D01*
X100223036Y-149975126D01*
X100263745Y-150033177D01*
X100410923Y-150224855D01*
X100600656Y-150440766D01*
X100818794Y-150666938D01*
X101051190Y-150889400D01*
X101283697Y-151094180D01*
X101502166Y-151267306D01*
X101544647Y-151298127D01*
X101784859Y-151454690D01*
X102075950Y-151621070D01*
X102402544Y-151790206D01*
X102749263Y-151955040D01*
X103100730Y-152108511D01*
X103441568Y-152243560D01*
X103756401Y-152353127D01*
X103988291Y-152419999D01*
X104080513Y-152443977D01*
X104203993Y-152476927D01*
X104278870Y-152497226D01*
X104599400Y-152575617D01*
X104970797Y-152650801D01*
X105375559Y-152719721D01*
X105796182Y-152779318D01*
X106090714Y-152813853D01*
X106315925Y-152833023D01*
X106584142Y-152848025D01*
X106881276Y-152858761D01*
X107193238Y-152865134D01*
X107505937Y-152867047D01*
X107805285Y-152864404D01*
X108077192Y-152857107D01*
X108307569Y-152845059D01*
X108466622Y-152830217D01*
X109268216Y-152706070D01*
X110018424Y-152541345D01*
X110721660Y-152334973D01*
X111150202Y-152180122D01*
X111425611Y-152066236D01*
X111717986Y-151934056D01*
X112001119Y-151795956D01*
X112248803Y-151664306D01*
X112278332Y-151647567D01*
X112406816Y-151574062D01*
X112529041Y-151504143D01*
X112617517Y-151453534D01*
X112884087Y-151285408D01*
X113173716Y-151075041D01*
X113469376Y-150835583D01*
X113754039Y-150580179D01*
X113777117Y-150558219D01*
X114070781Y-150246998D01*
X114339920Y-149902146D01*
X114576019Y-149537422D01*
X114770563Y-149166589D01*
X114915037Y-148803406D01*
X114962259Y-148642998D01*
X115026972Y-148322784D01*
X115060461Y-147994384D01*
X115063177Y-147672333D01*
X115035573Y-147371162D01*
X114978100Y-147105407D01*
X114908807Y-146923710D01*
X114772156Y-146707808D01*
X114601778Y-146542136D01*
X114405990Y-146430650D01*
X114193111Y-146377303D01*
X113971456Y-146386051D01*
X113847600Y-146419191D01*
X113661565Y-146512933D01*
X113532812Y-146643704D01*
X113459869Y-146813569D01*
X113440646Y-146989706D01*
X113448179Y-147113290D01*
X113478575Y-147204010D01*
X113543537Y-147296457D01*
X113545007Y-147298243D01*
X113681064Y-147418831D01*
X113835275Y-147477857D01*
X113998507Y-147472277D01*
X114035724Y-147461747D01*
X114158031Y-147395271D01*
X114231522Y-147302038D01*
X114254060Y-147196787D01*
X114223502Y-147094259D01*
X114137710Y-147009193D01*
X114104099Y-146990797D01*
X114016227Y-146939888D01*
X113993010Y-146903187D01*
X114034735Y-146882908D01*
X114089636Y-146879543D01*
X114202417Y-146909770D01*
X114303297Y-146979314D01*
X114374621Y-147053445D01*
X114406045Y-147126699D01*
X114411716Y-147232718D01*
X114411633Y-147236914D01*
X114376692Y-147396920D01*
X114283198Y-147527132D01*
X114137314Y-147619813D01*
X114093631Y-147636129D01*
X113886606Y-147672313D01*
X113689250Y-147648314D01*
X113511030Y-147571946D01*
X113361410Y-147451023D01*
X113249856Y-147293358D01*
X113185834Y-147106764D01*
X113178809Y-146899055D01*
X113180868Y-146882664D01*
X113242925Y-146668357D01*
X113360700Y-146479688D01*
X113523933Y-146324352D01*
X113722367Y-146210048D01*
X113945744Y-146144472D01*
X114177663Y-146134791D01*
X114405321Y-146184298D01*
G37*
G36*
X112825895Y-142515896D02*
G01*
X112959304Y-142595109D01*
X113110416Y-142728608D01*
X113200210Y-142822434D01*
X113445136Y-143084155D01*
X113659977Y-143301199D01*
X113856269Y-143483136D01*
X114045547Y-143639532D01*
X114239348Y-143779955D01*
X114449206Y-143913974D01*
X114671333Y-144042611D01*
X115001556Y-144234376D01*
X115273022Y-144408913D01*
X115491675Y-144571092D01*
X115663459Y-144725780D01*
X115794321Y-144877845D01*
X115890204Y-145032156D01*
X115897507Y-145046698D01*
X115961032Y-145243189D01*
X115960051Y-145434302D01*
X115898420Y-145613478D01*
X115779995Y-145774154D01*
X115608631Y-145909771D01*
X115388185Y-146013767D01*
X115315436Y-146037130D01*
X115143127Y-146070627D01*
X114930054Y-146087720D01*
X114701840Y-146088366D01*
X114484105Y-146072521D01*
X114302472Y-146040139D01*
X114297764Y-146038889D01*
X114140754Y-145987631D01*
X114049624Y-145935502D01*
X114021804Y-145883971D01*
X114048716Y-145859073D01*
X114107812Y-145856407D01*
X114166634Y-145875936D01*
X114177349Y-145884148D01*
X114224568Y-145902763D01*
X114321170Y-145925431D01*
X114448663Y-145947997D01*
X114486680Y-145953633D01*
X114731985Y-145972301D01*
X114970288Y-145960775D01*
X115188802Y-145921916D01*
X115374739Y-145858586D01*
X115515311Y-145773646D01*
X115574996Y-145710079D01*
X115628136Y-145586572D01*
X115614740Y-145465993D01*
X115536636Y-145350539D01*
X115395655Y-145242410D01*
X115193627Y-145143803D01*
X115064469Y-145096827D01*
X114961434Y-145076620D01*
X114804678Y-145063018D01*
X114608515Y-145055832D01*
X114387258Y-145054877D01*
X114155220Y-145059965D01*
X113926714Y-145070908D01*
X113716052Y-145087521D01*
X113537548Y-145109615D01*
X113491925Y-145117374D01*
X113329593Y-145147195D01*
X113169890Y-145176305D01*
X113041009Y-145199570D01*
X113013325Y-145204508D01*
X112869536Y-145234172D01*
X112671187Y-145281181D01*
X112429047Y-145342717D01*
X112153888Y-145415963D01*
X111856480Y-145498100D01*
X111547593Y-145586312D01*
X111492579Y-145602333D01*
X111166143Y-145697225D01*
X110896973Y-145774239D01*
X110676927Y-145835407D01*
X110497862Y-145882763D01*
X110351636Y-145918339D01*
X110230107Y-145944169D01*
X110125134Y-145962286D01*
X110028573Y-145974722D01*
X109983081Y-145979247D01*
X109801488Y-145988270D01*
X109669033Y-145974098D01*
X109569287Y-145932920D01*
X109489281Y-145864689D01*
X109430329Y-145781745D01*
X109404955Y-145688309D01*
X109414447Y-145573689D01*
X109416129Y-145568291D01*
X109713116Y-145568291D01*
X109742960Y-145649861D01*
X109811962Y-145694967D01*
X109929412Y-145710127D01*
X110083600Y-145703603D01*
X110216032Y-145689108D01*
X110327828Y-145669925D01*
X110395745Y-145650084D01*
X110397570Y-145649148D01*
X110479480Y-145623557D01*
X110564780Y-145614671D01*
X110644564Y-145604355D01*
X110688695Y-145580485D01*
X110734236Y-145557202D01*
X110816774Y-145546394D01*
X110825438Y-145546299D01*
X110909874Y-145537088D01*
X110960289Y-145514658D01*
X110962181Y-145512113D01*
X111007639Y-145488994D01*
X111090481Y-145478061D01*
X111100941Y-145477928D01*
X111179221Y-145469205D01*
X111217743Y-145447801D01*
X111218574Y-145443742D01*
X111191804Y-145411588D01*
X111178084Y-145409556D01*
X111123609Y-145418043D01*
X111023088Y-145440252D01*
X110896271Y-145471303D01*
X110762904Y-145506318D01*
X110642736Y-145540418D01*
X110618190Y-145547882D01*
X110512646Y-145571148D01*
X110370474Y-145590505D01*
X110214329Y-145604243D01*
X110066869Y-145610656D01*
X109950750Y-145608035D01*
X109906141Y-145601566D01*
X109817816Y-145546124D01*
X109768282Y-145468683D01*
X109737373Y-145401904D01*
X111256045Y-145401904D01*
X111291972Y-145408933D01*
X111306887Y-145409033D01*
X111390589Y-145390685D01*
X111423688Y-145373809D01*
X111442986Y-145353419D01*
X111403315Y-145355620D01*
X111372410Y-145362048D01*
X111283856Y-145385559D01*
X111256045Y-145401904D01*
X109737373Y-145401904D01*
X109736002Y-145398943D01*
X109721016Y-145388066D01*
X109714113Y-145431885D01*
X109713140Y-145443742D01*
X109713116Y-145568291D01*
X109416129Y-145568291D01*
X109460092Y-145427194D01*
X109543176Y-145238130D01*
X109571789Y-145179220D01*
X109574790Y-145174137D01*
X110474632Y-145174137D01*
X110517693Y-145237137D01*
X110615881Y-145291944D01*
X110721474Y-145330578D01*
X110794863Y-145330534D01*
X110859886Y-145289906D01*
X111697174Y-145289906D01*
X111714267Y-145306999D01*
X111731360Y-145289906D01*
X111714267Y-145272813D01*
X111697174Y-145289906D01*
X110859886Y-145289906D01*
X110862487Y-145288281D01*
X110898437Y-145254200D01*
X110926918Y-145215837D01*
X111879498Y-145215837D01*
X111884191Y-145236160D01*
X111902288Y-145238628D01*
X111930427Y-145226119D01*
X111925079Y-145215837D01*
X111884508Y-145211746D01*
X111879498Y-145215837D01*
X110926918Y-145215837D01*
X110954910Y-145178133D01*
X110965854Y-145116344D01*
X110965255Y-145114661D01*
X110947194Y-145050895D01*
X110945088Y-145032089D01*
X110915568Y-145004696D01*
X110841558Y-144971973D01*
X110807907Y-144960972D01*
X110670267Y-144943462D01*
X110560763Y-144976379D01*
X110491269Y-145055090D01*
X110479440Y-145089119D01*
X110474632Y-145174137D01*
X109574790Y-145174137D01*
X109627548Y-145084792D01*
X109885330Y-145084792D01*
X109902423Y-145101885D01*
X109919516Y-145084792D01*
X109902423Y-145067699D01*
X109885330Y-145084792D01*
X109627548Y-145084792D01*
X109698000Y-144965482D01*
X109710966Y-144948049D01*
X109953702Y-144948049D01*
X109970794Y-144965142D01*
X109987887Y-144948049D01*
X109970794Y-144930956D01*
X109953702Y-144948049D01*
X109710966Y-144948049D01*
X109774531Y-144862584D01*
X110022073Y-144862584D01*
X110034581Y-144890723D01*
X110044864Y-144885375D01*
X110048955Y-144844804D01*
X110044864Y-144839794D01*
X110024540Y-144844487D01*
X110022073Y-144862584D01*
X109774531Y-144862584D01*
X109850808Y-144760027D01*
X110090445Y-144760027D01*
X110102953Y-144788166D01*
X110113235Y-144782818D01*
X110115795Y-144757433D01*
X111778123Y-144757433D01*
X111834388Y-144829825D01*
X111838454Y-144833013D01*
X111951539Y-144888982D01*
X112055649Y-144879069D01*
X112084746Y-144857379D01*
X112782054Y-144857379D01*
X112833673Y-144956595D01*
X112855110Y-144980707D01*
X112881632Y-144993631D01*
X112928026Y-144995583D01*
X113009078Y-144986775D01*
X113139574Y-144967420D01*
X113177705Y-144961566D01*
X113333796Y-144935924D01*
X113429615Y-144912297D01*
X113472660Y-144883674D01*
X113470858Y-144850790D01*
X114808076Y-144850790D01*
X114839259Y-144885798D01*
X114919179Y-144899173D01*
X115020378Y-144909933D01*
X115098655Y-144930822D01*
X115187935Y-144951691D01*
X115237912Y-144919261D01*
X115244332Y-144904151D01*
X115230986Y-144850416D01*
X115176796Y-144785089D01*
X115102294Y-144726704D01*
X115028015Y-144693792D01*
X115008889Y-144691656D01*
X114923985Y-144714799D01*
X114848766Y-144770426D01*
X114809360Y-144837832D01*
X114808076Y-144850790D01*
X113470858Y-144850790D01*
X113470433Y-144843040D01*
X113430433Y-144783384D01*
X113403633Y-144750312D01*
X113332890Y-144673081D01*
X113268080Y-144635660D01*
X113178498Y-144623939D01*
X113127217Y-144623284D01*
X112967730Y-144641261D01*
X112853112Y-144690729D01*
X112789256Y-144764999D01*
X112782054Y-144857379D01*
X112084746Y-144857379D01*
X112126307Y-144826398D01*
X112165438Y-144747995D01*
X112140168Y-144678926D01*
X112054458Y-144627555D01*
X112028331Y-144619578D01*
X111914441Y-144608858D01*
X111828126Y-144635736D01*
X111779361Y-144688999D01*
X111778123Y-144757433D01*
X110115795Y-144757433D01*
X110117326Y-144742247D01*
X110113235Y-144737237D01*
X110092912Y-144741929D01*
X110090445Y-144760027D01*
X109850808Y-144760027D01*
X109877536Y-144724090D01*
X109905509Y-144691656D01*
X110158816Y-144691656D01*
X110171324Y-144719795D01*
X110181607Y-144714446D01*
X110185698Y-144673876D01*
X110181607Y-144668865D01*
X110161283Y-144673558D01*
X110158816Y-144691656D01*
X109905509Y-144691656D01*
X110020339Y-144558513D01*
X114090175Y-144558513D01*
X114119154Y-144628878D01*
X114191049Y-144674004D01*
X114283298Y-144688332D01*
X114373338Y-144666301D01*
X114412498Y-144637935D01*
X114456086Y-144574988D01*
X114466218Y-144537820D01*
X114436876Y-144465768D01*
X114400592Y-144435263D01*
X114910633Y-144435263D01*
X114927726Y-144452356D01*
X114944819Y-144435263D01*
X114927726Y-144418170D01*
X114910633Y-144435263D01*
X114400592Y-144435263D01*
X114366766Y-144406825D01*
X114286993Y-144383984D01*
X114197534Y-144410300D01*
X114123524Y-144474260D01*
X114090317Y-144553381D01*
X114090175Y-144558513D01*
X110020339Y-144558513D01*
X110067670Y-144503634D01*
X110295559Y-144503634D01*
X110312652Y-144520727D01*
X110329745Y-144503634D01*
X110312652Y-144486541D01*
X110295559Y-144503634D01*
X110067670Y-144503634D01*
X110104286Y-144461179D01*
X110134713Y-144429565D01*
X110375326Y-144429565D01*
X110380018Y-144449889D01*
X110398116Y-144452356D01*
X110426255Y-144439848D01*
X110420907Y-144429565D01*
X110380336Y-144425474D01*
X110375326Y-144429565D01*
X110134713Y-144429565D01*
X110303737Y-144253949D01*
X110649348Y-144253949D01*
X110655593Y-144292274D01*
X110707517Y-144425730D01*
X110807135Y-144512615D01*
X110936653Y-144553869D01*
X111108506Y-144558343D01*
X111250595Y-144510055D01*
X111324415Y-144448570D01*
X111377525Y-144342315D01*
X111379167Y-144223632D01*
X111368825Y-144195822D01*
X113004591Y-144195822D01*
X113041735Y-144267699D01*
X113062690Y-144286752D01*
X113176580Y-144342679D01*
X113292686Y-144336102D01*
X113352366Y-144304807D01*
X113400477Y-144242058D01*
X113393050Y-144177683D01*
X113341777Y-144122480D01*
X113258351Y-144087246D01*
X113154468Y-144082782D01*
X113119219Y-144089513D01*
X113031498Y-144132661D01*
X113004591Y-144195822D01*
X111368825Y-144195822D01*
X111337218Y-144110828D01*
X111259557Y-144022213D01*
X111154063Y-143976097D01*
X111119901Y-143973289D01*
X111021482Y-143965515D01*
X110960363Y-143953968D01*
X110888815Y-143961887D01*
X110795607Y-144023064D01*
X110761494Y-144052981D01*
X110685153Y-144128860D01*
X110651465Y-144187502D01*
X110649348Y-144253949D01*
X110303737Y-144253949D01*
X110372134Y-144182884D01*
X110674968Y-143895337D01*
X110795593Y-143789636D01*
X111957706Y-143789636D01*
X111996011Y-143884556D01*
X112069222Y-143972092D01*
X112152347Y-144026276D01*
X112242625Y-144062610D01*
X112302925Y-144070545D01*
X112365553Y-144049886D01*
X112415759Y-144024680D01*
X112529067Y-143937161D01*
X112580475Y-143829514D01*
X112567833Y-143711424D01*
X112507303Y-143612588D01*
X112403405Y-143538666D01*
X112277916Y-143517175D01*
X112148988Y-143544908D01*
X112034769Y-143618659D01*
X111966456Y-143708125D01*
X111957706Y-143789636D01*
X110795593Y-143789636D01*
X111006673Y-143604672D01*
X111267653Y-143392887D01*
X112926327Y-143392887D01*
X112958149Y-143486344D01*
X113001463Y-143533877D01*
X113106374Y-143590890D01*
X113210021Y-143579697D01*
X113311142Y-143500462D01*
X113317957Y-143492532D01*
X113382294Y-143408715D01*
X113400477Y-143349521D01*
X113373710Y-143290259D01*
X113330384Y-143237250D01*
X113258853Y-143175944D01*
X113185118Y-143167359D01*
X113168001Y-143170934D01*
X113036146Y-143224518D01*
X112953957Y-143302057D01*
X112926327Y-143392887D01*
X111267653Y-143392887D01*
X111331199Y-143341319D01*
X111628803Y-143341319D01*
X111645895Y-143358412D01*
X111662988Y-143341319D01*
X111645895Y-143324226D01*
X111628803Y-143341319D01*
X111331199Y-143341319D01*
X111361136Y-143317025D01*
X111422617Y-143270398D01*
X111702110Y-143270398D01*
X111710170Y-143288236D01*
X111729342Y-143290041D01*
X111775699Y-143265212D01*
X111782396Y-143256247D01*
X111776894Y-143236820D01*
X111750228Y-143242811D01*
X111702110Y-143270398D01*
X111422617Y-143270398D01*
X111531945Y-143187484D01*
X111833917Y-143187484D01*
X111846425Y-143215622D01*
X111856707Y-143210274D01*
X111860799Y-143169704D01*
X111856707Y-143164693D01*
X111836384Y-143169386D01*
X111833917Y-143187484D01*
X111531945Y-143187484D01*
X111634256Y-143109891D01*
X111747942Y-143027950D01*
X112050427Y-143027950D01*
X112055119Y-143048273D01*
X112073217Y-143050741D01*
X112101356Y-143038233D01*
X112096008Y-143027950D01*
X112055437Y-143023859D01*
X112050427Y-143027950D01*
X111747942Y-143027950D01*
X111842801Y-142959579D01*
X112152984Y-142959579D01*
X112157676Y-142979902D01*
X112175774Y-142982369D01*
X112203913Y-142969861D01*
X112198565Y-142959579D01*
X112157994Y-142955487D01*
X112152984Y-142959579D01*
X111842801Y-142959579D01*
X111846514Y-142956903D01*
X111933370Y-142896905D01*
X112278332Y-142896905D01*
X112295424Y-142913998D01*
X112312517Y-142896905D01*
X112295424Y-142879812D01*
X112278332Y-142896905D01*
X111933370Y-142896905D01*
X112032348Y-142828533D01*
X112415074Y-142828533D01*
X112432167Y-142845626D01*
X112449260Y-142828533D01*
X112432167Y-142811440D01*
X112415074Y-142828533D01*
X112032348Y-142828533D01*
X112049862Y-142816435D01*
X112234924Y-142694520D01*
X112392325Y-142597193D01*
X112512690Y-142530486D01*
X112577830Y-142502672D01*
X112701601Y-142486555D01*
X112825895Y-142515896D01*
G37*
G36*
X107607380Y-142131239D02*
G01*
X107862812Y-142136556D01*
X108085084Y-142144846D01*
X108259700Y-142156111D01*
X108315897Y-142161795D01*
X108616414Y-142198190D01*
X108865164Y-142230572D01*
X109078414Y-142261713D01*
X109272429Y-142294388D01*
X109463477Y-142331371D01*
X109667824Y-142375433D01*
X109901737Y-142429350D01*
X109945155Y-142439587D01*
X110130017Y-142486297D01*
X110334622Y-142543034D01*
X110547473Y-142606058D01*
X110757073Y-142671627D01*
X110951926Y-142736002D01*
X111120534Y-142795442D01*
X111251400Y-142846205D01*
X111333027Y-142884551D01*
X111350815Y-142896933D01*
X111390004Y-142949136D01*
X111368053Y-142972077D01*
X111285601Y-142965791D01*
X111143283Y-142930315D01*
X110969336Y-142875083D01*
X110453577Y-142725889D01*
X109880106Y-142606943D01*
X109252774Y-142518753D01*
X108575432Y-142461828D01*
X107851935Y-142436677D01*
X107640782Y-142435397D01*
X106825880Y-142464668D01*
X106027850Y-142551565D01*
X105251384Y-142694716D01*
X104501175Y-142892748D01*
X103781915Y-143144287D01*
X103098296Y-143447962D01*
X102455010Y-143802400D01*
X102039704Y-144074026D01*
X101565092Y-144434591D01*
X101137647Y-144817148D01*
X100761084Y-145217085D01*
X100439114Y-145629794D01*
X100175452Y-146050667D01*
X99973809Y-146475094D01*
X99874461Y-146761850D01*
X99777552Y-147187504D01*
X99737822Y-147603100D01*
X99754610Y-148001976D01*
X99827255Y-148377475D01*
X99955097Y-148722937D01*
X100093359Y-148968244D01*
X100343369Y-149283968D01*
X100639630Y-149553241D01*
X100975003Y-149772321D01*
X101342348Y-149937465D01*
X101734527Y-150044933D01*
X102144401Y-150090982D01*
X102238394Y-150092496D01*
X102632575Y-150060985D01*
X103001706Y-149969334D01*
X103340738Y-149819916D01*
X103644620Y-149615100D01*
X103908302Y-149357258D01*
X103972205Y-149278524D01*
X104087017Y-149115460D01*
X104195203Y-148936250D01*
X104286029Y-148760735D01*
X104348759Y-148608754D01*
X104365248Y-148552110D01*
X104385821Y-148464113D01*
X104094316Y-148479413D01*
X103919114Y-148483622D01*
X103789088Y-148473273D01*
X103682179Y-148446204D01*
X103656251Y-148436480D01*
X103541884Y-148380959D01*
X103447518Y-148317130D01*
X103387141Y-148256406D01*
X103374738Y-148210198D01*
X103376019Y-148207817D01*
X103426020Y-148182019D01*
X103503858Y-148183326D01*
X103575569Y-148209595D01*
X103590128Y-148221333D01*
X103646655Y-148243686D01*
X103764638Y-148257562D01*
X103946931Y-148263248D01*
X104006619Y-148263418D01*
X104182225Y-148262491D01*
X104310119Y-148254149D01*
X104398186Y-148229002D01*
X104454311Y-148177659D01*
X104486379Y-148090731D01*
X104502277Y-147958826D01*
X104509889Y-147772555D01*
X104512932Y-147660480D01*
X104514508Y-147414290D01*
X104506231Y-147184484D01*
X104489262Y-146981600D01*
X104464760Y-146816177D01*
X104455569Y-146781222D01*
X104744690Y-146781222D01*
X104757892Y-146869538D01*
X104778495Y-146949768D01*
X104805359Y-147070496D01*
X104822921Y-147226906D01*
X104832151Y-147430749D01*
X104834191Y-147623082D01*
X104834388Y-148110229D01*
X105043776Y-148110989D01*
X105185958Y-148119087D01*
X105282901Y-148145547D01*
X105338628Y-148180181D01*
X105424092Y-148248614D01*
X105289142Y-148368358D01*
X105148456Y-148510108D01*
X105065022Y-148638199D01*
X105032247Y-148763438D01*
X105031181Y-148791252D01*
X105054746Y-148920342D01*
X105118890Y-149001508D01*
X105212912Y-149032048D01*
X105326106Y-149009257D01*
X105447770Y-148930430D01*
X105476219Y-148903697D01*
X105587802Y-148754027D01*
X105637937Y-148595017D01*
X105624850Y-148436521D01*
X105578806Y-148333858D01*
X105534459Y-148255688D01*
X105527016Y-148215055D01*
X105553863Y-148193701D01*
X105558465Y-148191873D01*
X105628915Y-148184021D01*
X105722525Y-148194297D01*
X105723637Y-148194533D01*
X105982016Y-148234428D01*
X106188112Y-148232666D01*
X106333213Y-148194251D01*
X106425253Y-148159065D01*
X106482672Y-148157805D01*
X106517250Y-148177949D01*
X106557985Y-148224676D01*
X106560647Y-148276929D01*
X106521163Y-148348251D01*
X106435462Y-148452186D01*
X106434456Y-148453325D01*
X106307825Y-148615040D01*
X106231760Y-148753961D01*
X106207058Y-148865532D01*
X106234518Y-148945199D01*
X106314939Y-148988408D01*
X106339937Y-148992583D01*
X106432177Y-148971003D01*
X106538789Y-148890642D01*
X106653645Y-148757942D01*
X106770617Y-148579347D01*
X106822687Y-148485006D01*
X106902203Y-148341877D01*
X106987996Y-148200818D01*
X107062961Y-148089802D01*
X107070534Y-148079674D01*
X107134155Y-147988012D01*
X107175584Y-147913115D01*
X107184657Y-147883106D01*
X107154700Y-147849446D01*
X107074799Y-147837581D01*
X106959913Y-147847800D01*
X106837999Y-147876406D01*
X106735636Y-147900404D01*
X106686871Y-147891707D01*
X106683907Y-147847708D01*
X106690798Y-147827200D01*
X106745043Y-147769808D01*
X106851125Y-147720172D01*
X106992554Y-147683628D01*
X107152839Y-147665507D01*
X107193895Y-147664481D01*
X107311625Y-147661785D01*
X107385313Y-147647791D01*
X107439287Y-147610863D01*
X107497877Y-147539364D01*
X107521035Y-147508015D01*
X107581081Y-147422364D01*
X107617713Y-147362094D01*
X107623592Y-147343427D01*
X107586623Y-147332786D01*
X107501137Y-147314112D01*
X107389772Y-147292239D01*
X107282812Y-147270315D01*
X107125391Y-147235661D01*
X106933437Y-147191898D01*
X106722875Y-147142647D01*
X106552221Y-147101845D01*
X106333114Y-147049366D01*
X106115066Y-146997948D01*
X105915512Y-146951646D01*
X105751887Y-146914513D01*
X105663392Y-146895153D01*
X105516840Y-146863904D01*
X105380582Y-146834586D01*
X105280862Y-146812852D01*
X105270256Y-146810502D01*
X105064883Y-146766362D01*
X104917706Y-146738688D01*
X104820856Y-146726347D01*
X104766460Y-146728208D01*
X104750834Y-146735761D01*
X104744690Y-146781222D01*
X104455569Y-146781222D01*
X104433886Y-146698754D01*
X104400811Y-146642144D01*
X104354858Y-146623737D01*
X104248117Y-146592050D01*
X104086552Y-146548594D01*
X103876128Y-146494882D01*
X103622809Y-146432425D01*
X103332559Y-146362736D01*
X103011342Y-146287327D01*
X102894348Y-146260241D01*
X102764894Y-146239603D01*
X102586088Y-146224018D01*
X102376850Y-146214830D01*
X102227630Y-146212921D01*
X102025460Y-146214626D01*
X101873211Y-146221162D01*
X101752486Y-146234657D01*
X101644889Y-146257242D01*
X101532021Y-146291045D01*
X101520953Y-146294718D01*
X101234307Y-146423142D01*
X100993584Y-146600467D01*
X100801934Y-146823730D01*
X100662508Y-147089969D01*
X100655140Y-147109192D01*
X100603521Y-147314484D01*
X100586906Y-147543921D01*
X100604460Y-147772850D01*
X100655346Y-147976619D01*
X100687046Y-148049929D01*
X100815308Y-148243304D01*
X100989671Y-148424081D01*
X101188399Y-148571146D01*
X101269386Y-148615578D01*
X101379358Y-148664117D01*
X101480932Y-148692398D01*
X101600285Y-148705491D01*
X101749126Y-148708479D01*
X101911712Y-148704528D01*
X102031255Y-148689644D01*
X102132784Y-148659279D01*
X102209741Y-148624806D01*
X102401053Y-148503617D01*
X102567469Y-148346484D01*
X102699000Y-148167174D01*
X102785660Y-147979455D01*
X102817458Y-147797092D01*
X102817414Y-147787258D01*
X102784970Y-147585939D01*
X102701154Y-147411697D01*
X102576584Y-147270022D01*
X102421873Y-147166406D01*
X102247638Y-147106339D01*
X102064493Y-147095312D01*
X101883053Y-147138816D01*
X101733308Y-147226505D01*
X101646192Y-147323997D01*
X101584796Y-147447226D01*
X101560530Y-147569265D01*
X101565907Y-147621502D01*
X101573288Y-147682740D01*
X101543947Y-147697448D01*
X101522927Y-147694543D01*
X101467196Y-147653628D01*
X101444506Y-147568857D01*
X101454318Y-147455932D01*
X101496090Y-147330551D01*
X101538144Y-147252907D01*
X101673946Y-147098322D01*
X101850715Y-146997980D01*
X102069189Y-146951520D01*
X102160080Y-146947914D01*
X102360383Y-146964423D01*
X102526927Y-147020660D01*
X102685605Y-147126688D01*
X102739212Y-147173014D01*
X102883798Y-147328291D01*
X102972804Y-147490824D01*
X103015037Y-147680812D01*
X103021595Y-147820763D01*
X103001793Y-148052934D01*
X102936994Y-148252816D01*
X102819102Y-148440352D01*
X102726510Y-148547803D01*
X102511796Y-148733676D01*
X102269439Y-148859576D01*
X101994530Y-148927480D01*
X101750149Y-148941408D01*
X101439853Y-148907558D01*
X101153754Y-148818757D01*
X100897319Y-148681584D01*
X100676012Y-148502616D01*
X100495297Y-148288430D01*
X100360639Y-148045603D01*
X100277503Y-147780712D01*
X100251352Y-147500336D01*
X100287653Y-147211050D01*
X100293347Y-147187998D01*
X100402221Y-146890052D01*
X100565227Y-146633523D01*
X100781726Y-146418909D01*
X101051074Y-146246706D01*
X101372632Y-146117413D01*
X101745757Y-146031526D01*
X101793853Y-146024177D01*
X101960011Y-146009373D01*
X102156731Y-146009795D01*
X102389853Y-146026141D01*
X102665221Y-146059108D01*
X102988674Y-146109396D01*
X103366054Y-146177702D01*
X103799090Y-146263878D01*
X103974636Y-146298092D01*
X104126076Y-146323956D01*
X104241032Y-146339642D01*
X104307122Y-146343316D01*
X104317598Y-146340588D01*
X104318087Y-146295114D01*
X104287037Y-146206502D01*
X104231474Y-146088073D01*
X104158427Y-145953143D01*
X104074920Y-145815033D01*
X103987983Y-145687060D01*
X103939012Y-145623045D01*
X103841105Y-145497754D01*
X103786550Y-145414851D01*
X103772338Y-145366471D01*
X103795463Y-145344746D01*
X103831272Y-145341185D01*
X103891583Y-145369298D01*
X103977407Y-145446820D01*
X104080820Y-145563520D01*
X104193895Y-145709170D01*
X104308710Y-145873541D01*
X104417338Y-146046403D01*
X104511855Y-146217526D01*
X104514997Y-146223728D01*
X104574867Y-146335634D01*
X104628909Y-146405825D01*
X104697187Y-146448887D01*
X104799767Y-146479409D01*
X104894213Y-146499406D01*
X105204020Y-146562299D01*
X105464160Y-146615932D01*
X105692096Y-146664028D01*
X105905289Y-146710309D01*
X106121201Y-146758497D01*
X106293550Y-146797701D01*
X106585558Y-146863136D01*
X106866142Y-146923383D01*
X107126125Y-146976666D01*
X107356333Y-147021210D01*
X107547589Y-147055241D01*
X107690717Y-147076981D01*
X107776540Y-147084657D01*
X107776716Y-147084657D01*
X107785266Y-147082268D01*
X108176043Y-147082268D01*
X108207122Y-147101304D01*
X108288188Y-147120161D01*
X108389704Y-147133451D01*
X108530785Y-147146784D01*
X108667474Y-147159854D01*
X108740108Y-147166895D01*
X108881976Y-147173493D01*
X109063978Y-147171835D01*
X109261945Y-147163162D01*
X109451707Y-147148718D01*
X109609097Y-147129746D01*
X109666802Y-147119233D01*
X109891860Y-147057656D01*
X110098183Y-146977169D01*
X110272926Y-146884420D01*
X110403242Y-146786057D01*
X110468935Y-146704040D01*
X110490342Y-146615974D01*
X110485271Y-146549341D01*
X110430654Y-146463340D01*
X110322973Y-146405648D01*
X110170697Y-146374764D01*
X109982289Y-146369184D01*
X109766218Y-146387406D01*
X109530949Y-146427928D01*
X109284948Y-146489246D01*
X109036683Y-146569858D01*
X108794619Y-146668262D01*
X108567222Y-146782955D01*
X108362960Y-146912434D01*
X108338426Y-146930364D01*
X108251499Y-146999885D01*
X108192571Y-147056332D01*
X108176043Y-147082268D01*
X107785266Y-147082268D01*
X107883682Y-147054769D01*
X108016913Y-146966901D01*
X108034556Y-146952472D01*
X108348397Y-146723416D01*
X108693431Y-146529324D01*
X109057378Y-146374239D01*
X109427957Y-146262203D01*
X109792887Y-146197260D01*
X110139888Y-146183452D01*
X110321714Y-146199551D01*
X110511448Y-146237027D01*
X110647760Y-146292118D01*
X110744916Y-146372796D01*
X110809892Y-146472347D01*
X110852748Y-146569896D01*
X110861568Y-146646092D01*
X110840435Y-146736340D01*
X110840358Y-146736582D01*
X110750048Y-146907578D01*
X110594440Y-147059535D01*
X110374044Y-147191969D01*
X110346838Y-147204874D01*
X110103819Y-147304699D01*
X109857624Y-147377359D01*
X109596403Y-147424199D01*
X109308306Y-147446567D01*
X108981483Y-147445809D01*
X108604086Y-147423271D01*
X108501781Y-147414511D01*
X108259427Y-147394933D01*
X108073634Y-147384729D01*
X107947919Y-147384010D01*
X107885802Y-147392886D01*
X107882007Y-147395198D01*
X107834798Y-147445951D01*
X107776953Y-147522828D01*
X107721332Y-147606385D01*
X107680793Y-147677177D01*
X107668194Y-147715761D01*
X107669063Y-147717201D01*
X107716064Y-147730722D01*
X107807612Y-147737417D01*
X107920212Y-147737172D01*
X108030371Y-147729873D01*
X108099126Y-147719290D01*
X108174918Y-147707771D01*
X108205325Y-147725660D01*
X108210229Y-147767400D01*
X108178562Y-147840541D01*
X108089624Y-147894291D01*
X107952509Y-147925703D01*
X107776310Y-147931829D01*
X107714536Y-147928081D01*
X107475236Y-147908518D01*
X107309814Y-148127217D01*
X107174568Y-148320398D01*
X107068594Y-148501146D01*
X106996464Y-148659686D01*
X106962748Y-148786241D01*
X106967190Y-148859923D01*
X107019573Y-148940582D01*
X107095140Y-148963421D01*
X107187779Y-148932392D01*
X107291375Y-148851450D01*
X107399817Y-148724550D01*
X107506991Y-148555646D01*
X107543028Y-148487422D01*
X107633203Y-148332484D01*
X107715235Y-148243581D01*
X107791137Y-148219139D01*
X107850738Y-148246523D01*
X107869376Y-148275552D01*
X107865188Y-148323409D01*
X107834429Y-148402968D01*
X107773353Y-148527101D01*
X107763633Y-148545943D01*
X107688493Y-148697309D01*
X107646409Y-148803321D01*
X107635314Y-148877286D01*
X107653140Y-148932510D01*
X107696066Y-148980719D01*
X107788700Y-149025761D01*
X107891968Y-149006059D01*
X108003081Y-148923909D01*
X108119248Y-148781607D01*
X108237681Y-148581450D01*
X108277170Y-148502292D01*
X108358494Y-148343801D01*
X108423600Y-148244928D01*
X108477641Y-148200346D01*
X108525768Y-148204727D01*
X108547921Y-148222295D01*
X108579024Y-148273898D01*
X108578856Y-148344714D01*
X108544838Y-148446389D01*
X108474392Y-148590570D01*
X108460644Y-148616359D01*
X108389785Y-148761609D01*
X108360370Y-148863857D01*
X108372323Y-148934422D01*
X108425570Y-148984624D01*
X108458085Y-149001389D01*
X108568575Y-149016783D01*
X108683329Y-148966843D01*
X108799601Y-148854247D01*
X108914641Y-148681670D01*
X109025703Y-148451791D01*
X109028099Y-148446066D01*
X109097264Y-148308828D01*
X109164149Y-148229924D01*
X109224941Y-148212231D01*
X109275829Y-148258626D01*
X109276031Y-148258986D01*
X109300905Y-148287899D01*
X109341433Y-148290143D01*
X109416623Y-148264328D01*
X109461664Y-148245405D01*
X109576165Y-148205059D01*
X109683011Y-148181289D01*
X109717236Y-148178601D01*
X109806092Y-148200039D01*
X109890172Y-148252396D01*
X109944944Y-148317739D01*
X109953702Y-148351466D01*
X109938889Y-148396350D01*
X109899287Y-148485677D01*
X109842147Y-148603495D01*
X109813553Y-148659793D01*
X109753015Y-148786733D01*
X109710341Y-148894642D01*
X109691801Y-148966748D01*
X109692830Y-148982621D01*
X109740376Y-149027727D01*
X109819197Y-149026699D01*
X109913304Y-148982803D01*
X109985146Y-148922852D01*
X110081336Y-148803329D01*
X110115242Y-148701721D01*
X110088337Y-148611246D01*
X110060440Y-148576187D01*
X110033906Y-148539879D01*
X110432302Y-148539879D01*
X110454795Y-148578522D01*
X110525998Y-148585325D01*
X110651493Y-148560587D01*
X110679141Y-148553124D01*
X110775839Y-148511769D01*
X110848941Y-148454810D01*
X110886203Y-148395916D01*
X110875377Y-148348753D01*
X110867643Y-148342735D01*
X110793393Y-148328113D01*
X110692235Y-148347282D01*
X110585369Y-148390642D01*
X110493992Y-148448593D01*
X110439303Y-148511536D01*
X110432302Y-148539879D01*
X110033906Y-148539879D01*
X109999448Y-148492728D01*
X109990627Y-148437677D01*
X110028831Y-148420481D01*
X110108917Y-148450587D01*
X110123939Y-148459589D01*
X110176252Y-148480151D01*
X110227898Y-148461081D01*
X110285858Y-148411795D01*
X110449204Y-148281043D01*
X110608167Y-148206289D01*
X110781511Y-148179197D01*
X110810445Y-148178728D01*
X110942073Y-148186662D01*
X111029489Y-148214653D01*
X111075385Y-148248304D01*
X111139234Y-148342100D01*
X111143385Y-148439662D01*
X111095732Y-148534490D01*
X111004174Y-148620086D01*
X110876607Y-148689951D01*
X110720929Y-148737586D01*
X110545035Y-148756491D01*
X110461076Y-148753869D01*
X110368243Y-148750225D01*
X110323144Y-148765163D01*
X110305581Y-148809536D01*
X110301554Y-148839588D01*
X110316425Y-148938493D01*
X110388419Y-149001663D01*
X110518422Y-149029734D01*
X110569045Y-149031406D01*
X110768550Y-149001735D01*
X110954674Y-148909900D01*
X111132912Y-148753029D01*
X111160404Y-148722461D01*
X111269739Y-148584873D01*
X111372970Y-148426290D01*
X111475546Y-148236325D01*
X111582915Y-148004594D01*
X111700526Y-147720709D01*
X111743960Y-147610087D01*
X111845873Y-147342424D01*
X111923050Y-147125897D01*
X111978612Y-146949204D01*
X112015679Y-146801041D01*
X112037370Y-146670107D01*
X112046808Y-146545096D01*
X112047674Y-146509953D01*
X112047357Y-146388380D01*
X112035243Y-146309954D01*
X112001482Y-146249481D01*
X111936221Y-146181764D01*
X111909611Y-146156813D01*
X111819697Y-146079478D01*
X111744663Y-146040131D01*
X111653326Y-146026236D01*
X111581471Y-146024899D01*
X111453877Y-146032558D01*
X111363740Y-146061472D01*
X111291850Y-146111482D01*
X111186533Y-146232960D01*
X111137778Y-146365950D01*
X111149570Y-146497185D01*
X111165140Y-146533517D01*
X111260157Y-146659300D01*
X111378736Y-146728930D01*
X111508394Y-146739577D01*
X111636648Y-146688410D01*
X111683607Y-146651073D01*
X111748007Y-146596130D01*
X111780005Y-146586768D01*
X111793987Y-146618569D01*
X111780565Y-146703415D01*
X111723734Y-146793810D01*
X111641244Y-146864738D01*
X111607696Y-146881069D01*
X111428405Y-146916407D01*
X111252718Y-146892413D01*
X111096103Y-146814747D01*
X110974026Y-146689069D01*
X110944025Y-146638160D01*
X110885219Y-146461407D01*
X110893595Y-146295280D01*
X110968551Y-146141458D01*
X111109487Y-146001618D01*
X111192538Y-145944769D01*
X111306104Y-145884067D01*
X111414628Y-145853587D01*
X111552830Y-145843996D01*
X111567937Y-145843839D01*
X111764863Y-145859941D01*
X111919933Y-145916589D01*
X112051185Y-146021359D01*
X112087503Y-146061984D01*
X112183820Y-146194414D01*
X112242362Y-146327141D01*
X112268908Y-146480924D01*
X112269236Y-146676519D01*
X112267507Y-146708614D01*
X112237307Y-146948621D01*
X112176126Y-147221610D01*
X112089455Y-147513761D01*
X111982786Y-147811258D01*
X111861608Y-148100279D01*
X111731412Y-148367008D01*
X111597689Y-148597625D01*
X111465931Y-148778310D01*
X111428757Y-148819517D01*
X111245413Y-148978969D01*
X111044045Y-149099774D01*
X110835707Y-149179543D01*
X110631453Y-149215891D01*
X110442340Y-149206431D01*
X110279420Y-149148776D01*
X110194524Y-149085981D01*
X110130681Y-149030405D01*
X110091886Y-149019981D01*
X110057016Y-149049434D01*
X110055491Y-149051262D01*
X109936103Y-149145342D01*
X109784117Y-149192866D01*
X109667305Y-149193102D01*
X109540442Y-149156861D01*
X109466374Y-149087189D01*
X109444490Y-148980908D01*
X109474176Y-148834842D01*
X109554821Y-148645814D01*
X109559926Y-148635677D01*
X109626338Y-148502628D01*
X109663245Y-148418875D01*
X109672645Y-148373034D01*
X109656537Y-148353722D01*
X109616918Y-148349553D01*
X109610147Y-148349529D01*
X109479669Y-148375729D01*
X109356232Y-148456953D01*
X109235861Y-148597135D01*
X109114579Y-148800211D01*
X109074788Y-148879408D01*
X108942200Y-149152894D01*
X108789875Y-149163648D01*
X108607801Y-149175190D01*
X108480425Y-149178858D01*
X108394405Y-149173513D01*
X108336400Y-149158016D01*
X108293069Y-149131229D01*
X108280189Y-149120146D01*
X108234323Y-149082968D01*
X108193067Y-149073413D01*
X108132981Y-149092454D01*
X108054391Y-149129518D01*
X107895107Y-149189444D01*
X107760079Y-149196062D01*
X107630065Y-149148814D01*
X107576545Y-149115654D01*
X107446106Y-149027136D01*
X107303091Y-149098562D01*
X107141084Y-149160119D01*
X107007124Y-149164564D01*
X106890115Y-149110843D01*
X106826208Y-149053215D01*
X106716078Y-148936444D01*
X106611686Y-149040836D01*
X106483922Y-149129060D01*
X106338122Y-149168132D01*
X106194020Y-149156156D01*
X106072985Y-149092647D01*
X105995055Y-148985068D01*
X105979616Y-148850976D01*
X106026680Y-148691620D01*
X106069034Y-148610666D01*
X106115083Y-148521616D01*
X106136933Y-148457546D01*
X106135098Y-148439495D01*
X106089509Y-148425194D01*
X106005501Y-148418077D01*
X105989487Y-148417901D01*
X105865469Y-148417901D01*
X105861149Y-148602383D01*
X105832427Y-148805400D01*
X105754184Y-148963566D01*
X105622345Y-149082112D01*
X105432839Y-149166270D01*
X105418843Y-149170551D01*
X105247084Y-149194461D01*
X105085572Y-149167636D01*
X104948254Y-149096778D01*
X104849076Y-148988591D01*
X104805830Y-148875873D01*
X104807862Y-148727697D01*
X104857368Y-148570415D01*
X104943672Y-148430879D01*
X105008000Y-148367379D01*
X105116420Y-148281916D01*
X104996770Y-148282624D01*
X104900399Y-148294580D01*
X104828904Y-148322641D01*
X104825842Y-148324977D01*
X104792034Y-148375170D01*
X104746447Y-148472785D01*
X104697174Y-148599823D01*
X104680335Y-148648567D01*
X104514716Y-149039824D01*
X104292359Y-149393687D01*
X104053922Y-149669186D01*
X103805709Y-149890145D01*
X103541604Y-150065666D01*
X103241317Y-150208150D01*
X103066951Y-150272345D01*
X102932007Y-150315966D01*
X102816014Y-150346236D01*
X102699572Y-150366011D01*
X102563278Y-150378145D01*
X102387732Y-150385492D01*
X102279004Y-150388267D01*
X102027179Y-150390183D01*
X101830766Y-150382576D01*
X101677375Y-150364718D01*
X101598826Y-150348274D01*
X101250603Y-150246578D01*
X100946296Y-150125152D01*
X100662057Y-149973336D01*
X100450068Y-149834775D01*
X100098155Y-149552001D01*
X99807731Y-149239683D01*
X99579186Y-148898966D01*
X99412914Y-148530997D01*
X99309307Y-148136922D01*
X99268756Y-147717887D01*
X99291654Y-147275039D01*
X99378392Y-146809522D01*
X99394183Y-146748134D01*
X99554503Y-146272406D01*
X99778978Y-145805031D01*
X100063542Y-145349840D01*
X100404130Y-144910664D01*
X100796674Y-144491337D01*
X101237108Y-144095688D01*
X101721366Y-143727551D01*
X102245383Y-143390757D01*
X102805090Y-143089137D01*
X103396423Y-142826524D01*
X103663527Y-142725059D01*
X103824418Y-142669865D01*
X104017659Y-142607909D01*
X104224507Y-142544763D01*
X104426219Y-142485995D01*
X104604052Y-142437174D01*
X104739263Y-142403871D01*
X104757470Y-142399987D01*
X104876713Y-142375179D01*
X105025070Y-142343950D01*
X105133513Y-142320923D01*
X105389696Y-142272747D01*
X105712936Y-142223171D01*
X106101939Y-142172392D01*
X106190160Y-142161795D01*
X106340152Y-142149267D01*
X106543956Y-142139713D01*
X106787076Y-142133134D01*
X107055017Y-142129528D01*
X107333283Y-142128896D01*
X107607380Y-142131239D01*
G37*
D12*
%TO.C,D1*%
X55093431Y-154566378D02*
X55258142Y-155181089D01*
X55258142Y-155181089D02*
X59631569Y-157706090D01*
X56870577Y-155188269D02*
X58429423Y-156088269D01*
X58368431Y-148893910D02*
X55093431Y-154566378D01*
X59570577Y-150511731D02*
X61129423Y-151411731D01*
X63131570Y-151643911D02*
X58368431Y-148893910D01*
X63131570Y-151643911D02*
X59631569Y-157706090D01*
%TD*%
M02*
