%TF.GenerationSoftware,KiCad,Pcbnew,9.0.6*%
%TF.CreationDate,2026-02-15T00:21:57+01:00*%
%TF.ProjectId,TannenbasisV4,54616e6e-656e-4626-9173-697356342e6b,0.1*%
%TF.SameCoordinates,Original*%
%TF.FileFunction,Paste,Top*%
%TF.FilePolarity,Positive*%
%FSLAX46Y46*%
G04 Gerber Fmt 4.6, Leading zero omitted, Abs format (unit mm)*
G04 Created by KiCad (PCBNEW 9.0.6) date 2026-02-15 00:21:57*
%MOMM*%
%LPD*%
G01*
G04 APERTURE LIST*
G04 Aperture macros list*
%AMRoundRect*
0 Rectangle with rounded corners*
0 $1 Rounding radius*
0 $2 $3 $4 $5 $6 $7 $8 $9 X,Y pos of 4 corners*
0 Add a 4 corners polygon primitive as box body*
4,1,4,$2,$3,$4,$5,$6,$7,$8,$9,$2,$3,0*
0 Add four circle primitives for the rounded corners*
1,1,$1+$1,$2,$3*
1,1,$1+$1,$4,$5*
1,1,$1+$1,$6,$7*
1,1,$1+$1,$8,$9*
0 Add four rect primitives between the rounded corners*
20,1,$1+$1,$2,$3,$4,$5,0*
20,1,$1+$1,$4,$5,$6,$7,0*
20,1,$1+$1,$6,$7,$8,$9,0*
20,1,$1+$1,$8,$9,$2,$3,0*%
G04 Aperture macros list end*
%ADD10R,1.120000X2.440000*%
%ADD11RoundRect,0.250000X-0.450000X0.350000X-0.450000X-0.350000X0.450000X-0.350000X0.450000X0.350000X0*%
%ADD12R,0.900000X0.900000*%
%ADD13R,2.000000X0.900000*%
%ADD14R,0.935000X2.000000*%
%ADD15R,0.900000X2.000000*%
%ADD16R,0.895000X2.000000*%
%ADD17RoundRect,0.250000X0.350000X0.450000X-0.350000X0.450000X-0.350000X-0.450000X0.350000X-0.450000X0*%
%ADD18RoundRect,0.250000X0.475000X-0.337500X0.475000X0.337500X-0.475000X0.337500X-0.475000X-0.337500X0*%
%ADD19RoundRect,0.250000X-0.337500X-0.475000X0.337500X-0.475000X0.337500X0.475000X-0.337500X0.475000X0*%
%ADD20RoundRect,0.250000X0.450000X-0.350000X0.450000X0.350000X-0.450000X0.350000X-0.450000X-0.350000X0*%
%ADD21RoundRect,0.250000X-0.475000X0.337500X-0.475000X-0.337500X0.475000X-0.337500X0.475000X0.337500X0*%
%ADD22RoundRect,0.250000X-0.412500X-1.100000X0.412500X-1.100000X0.412500X1.100000X-0.412500X1.100000X0*%
%ADD23RoundRect,0.250000X0.412500X1.100000X-0.412500X1.100000X-0.412500X-1.100000X0.412500X-1.100000X0*%
%ADD24R,4.950000X4.595000*%
%ADD25R,4.975000X4.595000*%
%ADD26RoundRect,0.250000X1.100000X-0.412500X1.100000X0.412500X-1.100000X0.412500X-1.100000X-0.412500X0*%
%ADD27RoundRect,0.375000X-0.625000X-0.375000X0.625000X-0.375000X0.625000X0.375000X-0.625000X0.375000X0*%
%ADD28RoundRect,0.500000X-0.500000X-1.400000X0.500000X-1.400000X0.500000X1.400000X-0.500000X1.400000X0*%
%ADD29RoundRect,0.250001X-0.679999X0.704999X-0.679999X-0.704999X0.679999X-0.704999X0.679999X0.704999X0*%
%ADD30RoundRect,0.175000X-0.175000X1.250000X-0.175000X-1.250000X0.175000X-1.250000X0.175000X1.250000X0*%
G04 APERTURE END LIST*
D10*
%TO.C,SW2*%
X166600000Y-90010000D03*
X166600000Y-81400000D03*
%TD*%
D11*
%TO.C,R2*%
X140300000Y-75900000D03*
X140300000Y-77900000D03*
%TD*%
D12*
%TO.C,U5*%
X176600000Y-85400000D03*
X176600000Y-86800000D03*
X176600000Y-88200000D03*
X178000000Y-85400000D03*
X178000000Y-86800000D03*
X178000000Y-88200000D03*
X179400000Y-85400000D03*
X179400000Y-86800000D03*
X179400000Y-88200000D03*
D13*
X170500000Y-79080000D03*
X170500000Y-80350000D03*
X170500000Y-81620000D03*
X170500000Y-82890000D03*
X170500000Y-84160000D03*
X170500000Y-85430000D03*
X170500000Y-86700000D03*
X170500000Y-87970000D03*
X170500000Y-89240000D03*
X170500000Y-90510000D03*
X170500000Y-91780000D03*
X170500000Y-93050000D03*
X170500000Y-94320000D03*
X170500000Y-95590000D03*
D14*
X172532500Y-97090000D03*
D15*
X173785000Y-97090000D03*
D16*
X175052500Y-97090000D03*
D15*
X176325000Y-97090000D03*
X177595000Y-97090000D03*
X178865000Y-97090000D03*
X180135000Y-97090000D03*
X181405000Y-97090000D03*
X182675000Y-97090000D03*
X183945000Y-97090000D03*
X185215000Y-97090000D03*
X186485000Y-97090000D03*
D13*
X188500000Y-95590000D03*
X188500000Y-94320000D03*
X188500000Y-93050000D03*
X188500000Y-91780000D03*
X188500000Y-90510000D03*
X188500000Y-89240000D03*
X188500000Y-87970000D03*
X188500000Y-86700000D03*
X188500000Y-85430000D03*
X188500000Y-84160000D03*
X188500000Y-82890000D03*
X188500000Y-81620000D03*
X188500000Y-80350000D03*
X188500000Y-79080000D03*
%TD*%
D17*
%TO.C,R9*%
X167200000Y-78800000D03*
X165200000Y-78800000D03*
%TD*%
D11*
%TO.C,R18*%
X162900000Y-82400000D03*
X162900000Y-84400000D03*
%TD*%
D18*
%TO.C,C3*%
X139200000Y-92475000D03*
X139200000Y-90400000D03*
%TD*%
D19*
%TO.C,C1*%
X140325000Y-80300000D03*
X142400000Y-80300000D03*
%TD*%
D17*
%TO.C,R10*%
X154400000Y-93000000D03*
X152400000Y-93000000D03*
%TD*%
D20*
%TO.C,R15*%
X160800000Y-84400000D03*
X160800000Y-82400000D03*
%TD*%
D21*
%TO.C,C8*%
X148700000Y-85462500D03*
X148700000Y-87537500D03*
%TD*%
D22*
%TO.C,C9*%
X133375000Y-83000000D03*
X136500000Y-83000000D03*
%TD*%
%TO.C,C11*%
X133375000Y-78100000D03*
X136500000Y-78100000D03*
%TD*%
D17*
%TO.C,R12*%
X168400000Y-130300000D03*
X166400000Y-130300000D03*
%TD*%
D23*
%TO.C,C10*%
X126625000Y-102800000D03*
X123500000Y-102800000D03*
%TD*%
D10*
%TO.C,SW4*%
X169800000Y-100345000D03*
X169800000Y-108955000D03*
%TD*%
D22*
%TO.C,C5*%
X133400000Y-91800000D03*
X136525000Y-91800000D03*
%TD*%
D24*
%TO.C,L1*%
X134900000Y-97095000D03*
D25*
X134887500Y-104690000D03*
%TD*%
D26*
%TO.C,C6*%
X124300000Y-95525000D03*
X124300000Y-92400000D03*
%TD*%
D27*
%TO.C,U2*%
X139350000Y-83000000D03*
X139350000Y-85300000D03*
D28*
X145650000Y-85300000D03*
D27*
X139350000Y-87600000D03*
%TD*%
D22*
%TO.C,C7*%
X133375000Y-87900000D03*
X136500000Y-87900000D03*
%TD*%
D20*
%TO.C,R8*%
X125600000Y-99600000D03*
X125600000Y-97600000D03*
%TD*%
D29*
%TO.C,U1*%
X128465000Y-84330000D03*
X126245000Y-84330000D03*
X128465000Y-86610000D03*
X126245000Y-86610000D03*
D30*
X129260000Y-81320000D03*
X127990000Y-81320000D03*
X126720000Y-81320000D03*
X125450000Y-81320000D03*
X125450000Y-89620000D03*
X126720000Y-89620000D03*
X127990000Y-89620000D03*
X129260000Y-89620000D03*
%TD*%
D19*
%TO.C,C2*%
X151725000Y-80200000D03*
X153800000Y-80200000D03*
%TD*%
D20*
%TO.C,R1*%
X142600000Y-77900000D03*
X142600000Y-75900000D03*
%TD*%
D11*
%TO.C,R13*%
X171600000Y-129100000D03*
X171600000Y-131100000D03*
%TD*%
D20*
%TO.C,R7*%
X127900000Y-99600000D03*
X127900000Y-97600000D03*
%TD*%
M02*
