%TF.GenerationSoftware,KiCad,Pcbnew,9.0.6*%
%TF.CreationDate,2026-02-15T00:21:57+01:00*%
%TF.ProjectId,TannenbasisV4,54616e6e-656e-4626-9173-697356342e6b,0.1*%
%TF.SameCoordinates,Original*%
%TF.FileFunction,Legend,Top*%
%TF.FilePolarity,Positive*%
%FSLAX46Y46*%
G04 Gerber Fmt 4.6, Leading zero omitted, Abs format (unit mm)*
G04 Created by KiCad (PCBNEW 9.0.6) date 2026-02-15 00:21:57*
%MOMM*%
%LPD*%
G01*
G04 APERTURE LIST*
%ADD10C,0.150000*%
%ADD11C,0.120000*%
%ADD12C,0.100000*%
G04 APERTURE END LIST*
D10*
X177799999Y-125816033D02*
X177566666Y-125482700D01*
X177399999Y-125816033D02*
X177399999Y-125116033D01*
X177399999Y-125116033D02*
X177666666Y-125116033D01*
X177666666Y-125116033D02*
X177733333Y-125149366D01*
X177733333Y-125149366D02*
X177766666Y-125182700D01*
X177766666Y-125182700D02*
X177799999Y-125249366D01*
X177799999Y-125249366D02*
X177799999Y-125349366D01*
X177799999Y-125349366D02*
X177766666Y-125416033D01*
X177766666Y-125416033D02*
X177733333Y-125449366D01*
X177733333Y-125449366D02*
X177666666Y-125482700D01*
X177666666Y-125482700D02*
X177399999Y-125482700D01*
X178033333Y-125816033D02*
X178399999Y-125349366D01*
X178033333Y-125349366D02*
X178399999Y-125816033D01*
X178666666Y-125816033D02*
X178666666Y-125116033D01*
X178666666Y-125116033D02*
X178833333Y-125116033D01*
X178833333Y-125116033D02*
X178933333Y-125149366D01*
X178933333Y-125149366D02*
X179000000Y-125216033D01*
X179000000Y-125216033D02*
X179033333Y-125282700D01*
X179033333Y-125282700D02*
X179066666Y-125416033D01*
X179066666Y-125416033D02*
X179066666Y-125516033D01*
X179066666Y-125516033D02*
X179033333Y-125649366D01*
X179033333Y-125649366D02*
X179000000Y-125716033D01*
X179000000Y-125716033D02*
X178933333Y-125782700D01*
X178933333Y-125782700D02*
X178833333Y-125816033D01*
X178833333Y-125816033D02*
X178666666Y-125816033D01*
X179500000Y-125116033D02*
X179566666Y-125116033D01*
X179566666Y-125116033D02*
X179633333Y-125149366D01*
X179633333Y-125149366D02*
X179666666Y-125182700D01*
X179666666Y-125182700D02*
X179700000Y-125249366D01*
X179700000Y-125249366D02*
X179733333Y-125382700D01*
X179733333Y-125382700D02*
X179733333Y-125549366D01*
X179733333Y-125549366D02*
X179700000Y-125682700D01*
X179700000Y-125682700D02*
X179666666Y-125749366D01*
X179666666Y-125749366D02*
X179633333Y-125782700D01*
X179633333Y-125782700D02*
X179566666Y-125816033D01*
X179566666Y-125816033D02*
X179500000Y-125816033D01*
X179500000Y-125816033D02*
X179433333Y-125782700D01*
X179433333Y-125782700D02*
X179400000Y-125749366D01*
X179400000Y-125749366D02*
X179366666Y-125682700D01*
X179366666Y-125682700D02*
X179333333Y-125549366D01*
X179333333Y-125549366D02*
X179333333Y-125382700D01*
X179333333Y-125382700D02*
X179366666Y-125249366D01*
X179366666Y-125249366D02*
X179400000Y-125182700D01*
X179400000Y-125182700D02*
X179433333Y-125149366D01*
X179433333Y-125149366D02*
X179500000Y-125116033D01*
X177516666Y-120716033D02*
X177516666Y-120016033D01*
X177983333Y-120016033D02*
X178116666Y-120016033D01*
X178116666Y-120016033D02*
X178183333Y-120049366D01*
X178183333Y-120049366D02*
X178249999Y-120116033D01*
X178249999Y-120116033D02*
X178283333Y-120249366D01*
X178283333Y-120249366D02*
X178283333Y-120482700D01*
X178283333Y-120482700D02*
X178249999Y-120616033D01*
X178249999Y-120616033D02*
X178183333Y-120682700D01*
X178183333Y-120682700D02*
X178116666Y-120716033D01*
X178116666Y-120716033D02*
X177983333Y-120716033D01*
X177983333Y-120716033D02*
X177916666Y-120682700D01*
X177916666Y-120682700D02*
X177849999Y-120616033D01*
X177849999Y-120616033D02*
X177816666Y-120482700D01*
X177816666Y-120482700D02*
X177816666Y-120249366D01*
X177816666Y-120249366D02*
X177849999Y-120116033D01*
X177849999Y-120116033D02*
X177916666Y-120049366D01*
X177916666Y-120049366D02*
X177983333Y-120016033D01*
X178949999Y-120716033D02*
X178549999Y-120716033D01*
X178749999Y-120716033D02*
X178749999Y-120016033D01*
X178749999Y-120016033D02*
X178683332Y-120116033D01*
X178683332Y-120116033D02*
X178616666Y-120182700D01*
X178616666Y-120182700D02*
X178549999Y-120216033D01*
X179549999Y-120249366D02*
X179549999Y-120716033D01*
X179383333Y-119982700D02*
X179216666Y-120482700D01*
X179216666Y-120482700D02*
X179649999Y-120482700D01*
X133350000Y-127516033D02*
X133350000Y-126816033D01*
X133650000Y-126649366D02*
X133716667Y-126616033D01*
X133716667Y-126616033D02*
X133816667Y-126616033D01*
X133816667Y-126616033D02*
X133883333Y-126649366D01*
X133883333Y-126649366D02*
X133916667Y-126716033D01*
X133916667Y-126716033D02*
X133916667Y-126782700D01*
X133916667Y-126782700D02*
X133883333Y-126849366D01*
X133883333Y-126849366D02*
X133650000Y-127082700D01*
X133650000Y-127082700D02*
X133916667Y-127082700D01*
X134616666Y-127449366D02*
X134583333Y-127482700D01*
X134583333Y-127482700D02*
X134483333Y-127516033D01*
X134483333Y-127516033D02*
X134416666Y-127516033D01*
X134416666Y-127516033D02*
X134316666Y-127482700D01*
X134316666Y-127482700D02*
X134250000Y-127416033D01*
X134250000Y-127416033D02*
X134216666Y-127349366D01*
X134216666Y-127349366D02*
X134183333Y-127216033D01*
X134183333Y-127216033D02*
X134183333Y-127116033D01*
X134183333Y-127116033D02*
X134216666Y-126982700D01*
X134216666Y-126982700D02*
X134250000Y-126916033D01*
X134250000Y-126916033D02*
X134316666Y-126849366D01*
X134316666Y-126849366D02*
X134416666Y-126816033D01*
X134416666Y-126816033D02*
X134483333Y-126816033D01*
X134483333Y-126816033D02*
X134583333Y-126849366D01*
X134583333Y-126849366D02*
X134616666Y-126882700D01*
X134916666Y-127249366D02*
X135450000Y-127249366D01*
X136083333Y-127482700D02*
X136016667Y-127516033D01*
X136016667Y-127516033D02*
X135883333Y-127516033D01*
X135883333Y-127516033D02*
X135816667Y-127482700D01*
X135816667Y-127482700D02*
X135783333Y-127449366D01*
X135783333Y-127449366D02*
X135750000Y-127382700D01*
X135750000Y-127382700D02*
X135750000Y-127182700D01*
X135750000Y-127182700D02*
X135783333Y-127116033D01*
X135783333Y-127116033D02*
X135816667Y-127082700D01*
X135816667Y-127082700D02*
X135883333Y-127049366D01*
X135883333Y-127049366D02*
X136016667Y-127049366D01*
X136016667Y-127049366D02*
X136083333Y-127082700D01*
X177516666Y-118116033D02*
X177516666Y-117416033D01*
X177983333Y-117416033D02*
X178116666Y-117416033D01*
X178116666Y-117416033D02*
X178183333Y-117449366D01*
X178183333Y-117449366D02*
X178249999Y-117516033D01*
X178249999Y-117516033D02*
X178283333Y-117649366D01*
X178283333Y-117649366D02*
X178283333Y-117882700D01*
X178283333Y-117882700D02*
X178249999Y-118016033D01*
X178249999Y-118016033D02*
X178183333Y-118082700D01*
X178183333Y-118082700D02*
X178116666Y-118116033D01*
X178116666Y-118116033D02*
X177983333Y-118116033D01*
X177983333Y-118116033D02*
X177916666Y-118082700D01*
X177916666Y-118082700D02*
X177849999Y-118016033D01*
X177849999Y-118016033D02*
X177816666Y-117882700D01*
X177816666Y-117882700D02*
X177816666Y-117649366D01*
X177816666Y-117649366D02*
X177849999Y-117516033D01*
X177849999Y-117516033D02*
X177916666Y-117449366D01*
X177916666Y-117449366D02*
X177983333Y-117416033D01*
X178949999Y-118116033D02*
X178549999Y-118116033D01*
X178749999Y-118116033D02*
X178749999Y-117416033D01*
X178749999Y-117416033D02*
X178683332Y-117516033D01*
X178683332Y-117516033D02*
X178616666Y-117582700D01*
X178616666Y-117582700D02*
X178549999Y-117616033D01*
X179183333Y-117416033D02*
X179616666Y-117416033D01*
X179616666Y-117416033D02*
X179383333Y-117682700D01*
X179383333Y-117682700D02*
X179483333Y-117682700D01*
X179483333Y-117682700D02*
X179549999Y-117716033D01*
X179549999Y-117716033D02*
X179583333Y-117749366D01*
X179583333Y-117749366D02*
X179616666Y-117816033D01*
X179616666Y-117816033D02*
X179616666Y-117982700D01*
X179616666Y-117982700D02*
X179583333Y-118049366D01*
X179583333Y-118049366D02*
X179549999Y-118082700D01*
X179549999Y-118082700D02*
X179483333Y-118116033D01*
X179483333Y-118116033D02*
X179283333Y-118116033D01*
X179283333Y-118116033D02*
X179216666Y-118082700D01*
X179216666Y-118082700D02*
X179183333Y-118049366D01*
X187166666Y-103016033D02*
X187166666Y-102316033D01*
X187633333Y-102316033D02*
X187766666Y-102316033D01*
X187766666Y-102316033D02*
X187833333Y-102349366D01*
X187833333Y-102349366D02*
X187899999Y-102416033D01*
X187899999Y-102416033D02*
X187933333Y-102549366D01*
X187933333Y-102549366D02*
X187933333Y-102782700D01*
X187933333Y-102782700D02*
X187899999Y-102916033D01*
X187899999Y-102916033D02*
X187833333Y-102982700D01*
X187833333Y-102982700D02*
X187766666Y-103016033D01*
X187766666Y-103016033D02*
X187633333Y-103016033D01*
X187633333Y-103016033D02*
X187566666Y-102982700D01*
X187566666Y-102982700D02*
X187499999Y-102916033D01*
X187499999Y-102916033D02*
X187466666Y-102782700D01*
X187466666Y-102782700D02*
X187466666Y-102549366D01*
X187466666Y-102549366D02*
X187499999Y-102416033D01*
X187499999Y-102416033D02*
X187566666Y-102349366D01*
X187566666Y-102349366D02*
X187633333Y-102316033D01*
X188166666Y-102316033D02*
X188599999Y-102316033D01*
X188599999Y-102316033D02*
X188366666Y-102582700D01*
X188366666Y-102582700D02*
X188466666Y-102582700D01*
X188466666Y-102582700D02*
X188533332Y-102616033D01*
X188533332Y-102616033D02*
X188566666Y-102649366D01*
X188566666Y-102649366D02*
X188599999Y-102716033D01*
X188599999Y-102716033D02*
X188599999Y-102882700D01*
X188599999Y-102882700D02*
X188566666Y-102949366D01*
X188566666Y-102949366D02*
X188533332Y-102982700D01*
X188533332Y-102982700D02*
X188466666Y-103016033D01*
X188466666Y-103016033D02*
X188266666Y-103016033D01*
X188266666Y-103016033D02*
X188199999Y-102982700D01*
X188199999Y-102982700D02*
X188166666Y-102949366D01*
X189233333Y-102316033D02*
X188899999Y-102316033D01*
X188899999Y-102316033D02*
X188866666Y-102649366D01*
X188866666Y-102649366D02*
X188899999Y-102616033D01*
X188899999Y-102616033D02*
X188966666Y-102582700D01*
X188966666Y-102582700D02*
X189133333Y-102582700D01*
X189133333Y-102582700D02*
X189199999Y-102616033D01*
X189199999Y-102616033D02*
X189233333Y-102649366D01*
X189233333Y-102649366D02*
X189266666Y-102716033D01*
X189266666Y-102716033D02*
X189266666Y-102882700D01*
X189266666Y-102882700D02*
X189233333Y-102949366D01*
X189233333Y-102949366D02*
X189199999Y-102982700D01*
X189199999Y-102982700D02*
X189133333Y-103016033D01*
X189133333Y-103016033D02*
X188966666Y-103016033D01*
X188966666Y-103016033D02*
X188899999Y-102982700D01*
X188899999Y-102982700D02*
X188866666Y-102949366D01*
X187283333Y-130116033D02*
X187716666Y-130116033D01*
X187716666Y-130116033D02*
X187483333Y-130382700D01*
X187483333Y-130382700D02*
X187583333Y-130382700D01*
X187583333Y-130382700D02*
X187649999Y-130416033D01*
X187649999Y-130416033D02*
X187683333Y-130449366D01*
X187683333Y-130449366D02*
X187716666Y-130516033D01*
X187716666Y-130516033D02*
X187716666Y-130682700D01*
X187716666Y-130682700D02*
X187683333Y-130749366D01*
X187683333Y-130749366D02*
X187649999Y-130782700D01*
X187649999Y-130782700D02*
X187583333Y-130816033D01*
X187583333Y-130816033D02*
X187383333Y-130816033D01*
X187383333Y-130816033D02*
X187316666Y-130782700D01*
X187316666Y-130782700D02*
X187283333Y-130749366D01*
X187916666Y-130116033D02*
X188150000Y-130816033D01*
X188150000Y-130816033D02*
X188383333Y-130116033D01*
X188550000Y-130116033D02*
X188983333Y-130116033D01*
X188983333Y-130116033D02*
X188750000Y-130382700D01*
X188750000Y-130382700D02*
X188850000Y-130382700D01*
X188850000Y-130382700D02*
X188916666Y-130416033D01*
X188916666Y-130416033D02*
X188950000Y-130449366D01*
X188950000Y-130449366D02*
X188983333Y-130516033D01*
X188983333Y-130516033D02*
X188983333Y-130682700D01*
X188983333Y-130682700D02*
X188950000Y-130749366D01*
X188950000Y-130749366D02*
X188916666Y-130782700D01*
X188916666Y-130782700D02*
X188850000Y-130816033D01*
X188850000Y-130816033D02*
X188650000Y-130816033D01*
X188650000Y-130816033D02*
X188583333Y-130782700D01*
X188583333Y-130782700D02*
X188550000Y-130749366D01*
X177649999Y-133149366D02*
X178183333Y-133149366D01*
X177916666Y-133416033D02*
X177916666Y-132882700D01*
X178850000Y-132716033D02*
X178516666Y-132716033D01*
X178516666Y-132716033D02*
X178483333Y-133049366D01*
X178483333Y-133049366D02*
X178516666Y-133016033D01*
X178516666Y-133016033D02*
X178583333Y-132982700D01*
X178583333Y-132982700D02*
X178750000Y-132982700D01*
X178750000Y-132982700D02*
X178816666Y-133016033D01*
X178816666Y-133016033D02*
X178850000Y-133049366D01*
X178850000Y-133049366D02*
X178883333Y-133116033D01*
X178883333Y-133116033D02*
X178883333Y-133282700D01*
X178883333Y-133282700D02*
X178850000Y-133349366D01*
X178850000Y-133349366D02*
X178816666Y-133382700D01*
X178816666Y-133382700D02*
X178750000Y-133416033D01*
X178750000Y-133416033D02*
X178583333Y-133416033D01*
X178583333Y-133416033D02*
X178516666Y-133382700D01*
X178516666Y-133382700D02*
X178483333Y-133349366D01*
X179083333Y-132716033D02*
X179316667Y-133416033D01*
X179316667Y-133416033D02*
X179550000Y-132716033D01*
X177516666Y-113016033D02*
X177516666Y-112316033D01*
X177983333Y-112316033D02*
X178116666Y-112316033D01*
X178116666Y-112316033D02*
X178183333Y-112349366D01*
X178183333Y-112349366D02*
X178249999Y-112416033D01*
X178249999Y-112416033D02*
X178283333Y-112549366D01*
X178283333Y-112549366D02*
X178283333Y-112782700D01*
X178283333Y-112782700D02*
X178249999Y-112916033D01*
X178249999Y-112916033D02*
X178183333Y-112982700D01*
X178183333Y-112982700D02*
X178116666Y-113016033D01*
X178116666Y-113016033D02*
X177983333Y-113016033D01*
X177983333Y-113016033D02*
X177916666Y-112982700D01*
X177916666Y-112982700D02*
X177849999Y-112916033D01*
X177849999Y-112916033D02*
X177816666Y-112782700D01*
X177816666Y-112782700D02*
X177816666Y-112549366D01*
X177816666Y-112549366D02*
X177849999Y-112416033D01*
X177849999Y-112416033D02*
X177916666Y-112349366D01*
X177916666Y-112349366D02*
X177983333Y-112316033D01*
X178949999Y-113016033D02*
X178549999Y-113016033D01*
X178749999Y-113016033D02*
X178749999Y-112316033D01*
X178749999Y-112316033D02*
X178683332Y-112416033D01*
X178683332Y-112416033D02*
X178616666Y-112482700D01*
X178616666Y-112482700D02*
X178549999Y-112516033D01*
X179616666Y-113016033D02*
X179216666Y-113016033D01*
X179416666Y-113016033D02*
X179416666Y-112316033D01*
X179416666Y-112316033D02*
X179349999Y-112416033D01*
X179349999Y-112416033D02*
X179283333Y-112482700D01*
X179283333Y-112482700D02*
X179216666Y-112516033D01*
X187116666Y-123216033D02*
X187116666Y-122516033D01*
X187583333Y-122516033D02*
X187716666Y-122516033D01*
X187716666Y-122516033D02*
X187783333Y-122549366D01*
X187783333Y-122549366D02*
X187849999Y-122616033D01*
X187849999Y-122616033D02*
X187883333Y-122749366D01*
X187883333Y-122749366D02*
X187883333Y-122982700D01*
X187883333Y-122982700D02*
X187849999Y-123116033D01*
X187849999Y-123116033D02*
X187783333Y-123182700D01*
X187783333Y-123182700D02*
X187716666Y-123216033D01*
X187716666Y-123216033D02*
X187583333Y-123216033D01*
X187583333Y-123216033D02*
X187516666Y-123182700D01*
X187516666Y-123182700D02*
X187449999Y-123116033D01*
X187449999Y-123116033D02*
X187416666Y-122982700D01*
X187416666Y-122982700D02*
X187416666Y-122749366D01*
X187416666Y-122749366D02*
X187449999Y-122616033D01*
X187449999Y-122616033D02*
X187516666Y-122549366D01*
X187516666Y-122549366D02*
X187583333Y-122516033D01*
X188483332Y-122749366D02*
X188483332Y-123216033D01*
X188316666Y-122482700D02*
X188149999Y-122982700D01*
X188149999Y-122982700D02*
X188583332Y-122982700D01*
X189149999Y-122749366D02*
X189149999Y-123216033D01*
X188983333Y-122482700D02*
X188816666Y-122982700D01*
X188816666Y-122982700D02*
X189249999Y-122982700D01*
X187116666Y-113016033D02*
X187116666Y-112316033D01*
X187583333Y-112316033D02*
X187716666Y-112316033D01*
X187716666Y-112316033D02*
X187783333Y-112349366D01*
X187783333Y-112349366D02*
X187849999Y-112416033D01*
X187849999Y-112416033D02*
X187883333Y-112549366D01*
X187883333Y-112549366D02*
X187883333Y-112782700D01*
X187883333Y-112782700D02*
X187849999Y-112916033D01*
X187849999Y-112916033D02*
X187783333Y-112982700D01*
X187783333Y-112982700D02*
X187716666Y-113016033D01*
X187716666Y-113016033D02*
X187583333Y-113016033D01*
X187583333Y-113016033D02*
X187516666Y-112982700D01*
X187516666Y-112982700D02*
X187449999Y-112916033D01*
X187449999Y-112916033D02*
X187416666Y-112782700D01*
X187416666Y-112782700D02*
X187416666Y-112549366D01*
X187416666Y-112549366D02*
X187449999Y-112416033D01*
X187449999Y-112416033D02*
X187516666Y-112349366D01*
X187516666Y-112349366D02*
X187583333Y-112316033D01*
X188483332Y-112549366D02*
X188483332Y-113016033D01*
X188316666Y-112282700D02*
X188149999Y-112782700D01*
X188149999Y-112782700D02*
X188583332Y-112782700D01*
X188983333Y-112316033D02*
X189049999Y-112316033D01*
X189049999Y-112316033D02*
X189116666Y-112349366D01*
X189116666Y-112349366D02*
X189149999Y-112382700D01*
X189149999Y-112382700D02*
X189183333Y-112449366D01*
X189183333Y-112449366D02*
X189216666Y-112582700D01*
X189216666Y-112582700D02*
X189216666Y-112749366D01*
X189216666Y-112749366D02*
X189183333Y-112882700D01*
X189183333Y-112882700D02*
X189149999Y-112949366D01*
X189149999Y-112949366D02*
X189116666Y-112982700D01*
X189116666Y-112982700D02*
X189049999Y-113016033D01*
X189049999Y-113016033D02*
X188983333Y-113016033D01*
X188983333Y-113016033D02*
X188916666Y-112982700D01*
X188916666Y-112982700D02*
X188883333Y-112949366D01*
X188883333Y-112949366D02*
X188849999Y-112882700D01*
X188849999Y-112882700D02*
X188816666Y-112749366D01*
X188816666Y-112749366D02*
X188816666Y-112582700D01*
X188816666Y-112582700D02*
X188849999Y-112449366D01*
X188849999Y-112449366D02*
X188883333Y-112382700D01*
X188883333Y-112382700D02*
X188916666Y-112349366D01*
X188916666Y-112349366D02*
X188983333Y-112316033D01*
X187116666Y-115616033D02*
X187116666Y-114916033D01*
X187583333Y-114916033D02*
X187716666Y-114916033D01*
X187716666Y-114916033D02*
X187783333Y-114949366D01*
X187783333Y-114949366D02*
X187849999Y-115016033D01*
X187849999Y-115016033D02*
X187883333Y-115149366D01*
X187883333Y-115149366D02*
X187883333Y-115382700D01*
X187883333Y-115382700D02*
X187849999Y-115516033D01*
X187849999Y-115516033D02*
X187783333Y-115582700D01*
X187783333Y-115582700D02*
X187716666Y-115616033D01*
X187716666Y-115616033D02*
X187583333Y-115616033D01*
X187583333Y-115616033D02*
X187516666Y-115582700D01*
X187516666Y-115582700D02*
X187449999Y-115516033D01*
X187449999Y-115516033D02*
X187416666Y-115382700D01*
X187416666Y-115382700D02*
X187416666Y-115149366D01*
X187416666Y-115149366D02*
X187449999Y-115016033D01*
X187449999Y-115016033D02*
X187516666Y-114949366D01*
X187516666Y-114949366D02*
X187583333Y-114916033D01*
X188483332Y-115149366D02*
X188483332Y-115616033D01*
X188316666Y-114882700D02*
X188149999Y-115382700D01*
X188149999Y-115382700D02*
X188583332Y-115382700D01*
X189216666Y-115616033D02*
X188816666Y-115616033D01*
X189016666Y-115616033D02*
X189016666Y-114916033D01*
X189016666Y-114916033D02*
X188949999Y-115016033D01*
X188949999Y-115016033D02*
X188883333Y-115082700D01*
X188883333Y-115082700D02*
X188816666Y-115116033D01*
X187116666Y-118116033D02*
X187116666Y-117416033D01*
X187583333Y-117416033D02*
X187716666Y-117416033D01*
X187716666Y-117416033D02*
X187783333Y-117449366D01*
X187783333Y-117449366D02*
X187849999Y-117516033D01*
X187849999Y-117516033D02*
X187883333Y-117649366D01*
X187883333Y-117649366D02*
X187883333Y-117882700D01*
X187883333Y-117882700D02*
X187849999Y-118016033D01*
X187849999Y-118016033D02*
X187783333Y-118082700D01*
X187783333Y-118082700D02*
X187716666Y-118116033D01*
X187716666Y-118116033D02*
X187583333Y-118116033D01*
X187583333Y-118116033D02*
X187516666Y-118082700D01*
X187516666Y-118082700D02*
X187449999Y-118016033D01*
X187449999Y-118016033D02*
X187416666Y-117882700D01*
X187416666Y-117882700D02*
X187416666Y-117649366D01*
X187416666Y-117649366D02*
X187449999Y-117516033D01*
X187449999Y-117516033D02*
X187516666Y-117449366D01*
X187516666Y-117449366D02*
X187583333Y-117416033D01*
X188483332Y-117649366D02*
X188483332Y-118116033D01*
X188316666Y-117382700D02*
X188149999Y-117882700D01*
X188149999Y-117882700D02*
X188583332Y-117882700D01*
X188816666Y-117482700D02*
X188849999Y-117449366D01*
X188849999Y-117449366D02*
X188916666Y-117416033D01*
X188916666Y-117416033D02*
X189083333Y-117416033D01*
X189083333Y-117416033D02*
X189149999Y-117449366D01*
X189149999Y-117449366D02*
X189183333Y-117482700D01*
X189183333Y-117482700D02*
X189216666Y-117549366D01*
X189216666Y-117549366D02*
X189216666Y-117616033D01*
X189216666Y-117616033D02*
X189183333Y-117716033D01*
X189183333Y-117716033D02*
X188783333Y-118116033D01*
X188783333Y-118116033D02*
X189216666Y-118116033D01*
X187700000Y-135249366D02*
X187633333Y-135216033D01*
X187633333Y-135216033D02*
X187533333Y-135216033D01*
X187533333Y-135216033D02*
X187433333Y-135249366D01*
X187433333Y-135249366D02*
X187366667Y-135316033D01*
X187366667Y-135316033D02*
X187333333Y-135382700D01*
X187333333Y-135382700D02*
X187300000Y-135516033D01*
X187300000Y-135516033D02*
X187300000Y-135616033D01*
X187300000Y-135616033D02*
X187333333Y-135749366D01*
X187333333Y-135749366D02*
X187366667Y-135816033D01*
X187366667Y-135816033D02*
X187433333Y-135882700D01*
X187433333Y-135882700D02*
X187533333Y-135916033D01*
X187533333Y-135916033D02*
X187600000Y-135916033D01*
X187600000Y-135916033D02*
X187700000Y-135882700D01*
X187700000Y-135882700D02*
X187733333Y-135849366D01*
X187733333Y-135849366D02*
X187733333Y-135616033D01*
X187733333Y-135616033D02*
X187600000Y-135616033D01*
X188033333Y-135449366D02*
X188033333Y-135916033D01*
X188033333Y-135516033D02*
X188066667Y-135482700D01*
X188066667Y-135482700D02*
X188133333Y-135449366D01*
X188133333Y-135449366D02*
X188233333Y-135449366D01*
X188233333Y-135449366D02*
X188300000Y-135482700D01*
X188300000Y-135482700D02*
X188333333Y-135549366D01*
X188333333Y-135549366D02*
X188333333Y-135916033D01*
X188966666Y-135916033D02*
X188966666Y-135216033D01*
X188966666Y-135882700D02*
X188900000Y-135916033D01*
X188900000Y-135916033D02*
X188766666Y-135916033D01*
X188766666Y-135916033D02*
X188700000Y-135882700D01*
X188700000Y-135882700D02*
X188666666Y-135849366D01*
X188666666Y-135849366D02*
X188633333Y-135782700D01*
X188633333Y-135782700D02*
X188633333Y-135582700D01*
X188633333Y-135582700D02*
X188666666Y-135516033D01*
X188666666Y-135516033D02*
X188700000Y-135482700D01*
X188700000Y-135482700D02*
X188766666Y-135449366D01*
X188766666Y-135449366D02*
X188900000Y-135449366D01*
X188900000Y-135449366D02*
X188966666Y-135482700D01*
X177516666Y-115616033D02*
X177516666Y-114916033D01*
X177983333Y-114916033D02*
X178116666Y-114916033D01*
X178116666Y-114916033D02*
X178183333Y-114949366D01*
X178183333Y-114949366D02*
X178249999Y-115016033D01*
X178249999Y-115016033D02*
X178283333Y-115149366D01*
X178283333Y-115149366D02*
X178283333Y-115382700D01*
X178283333Y-115382700D02*
X178249999Y-115516033D01*
X178249999Y-115516033D02*
X178183333Y-115582700D01*
X178183333Y-115582700D02*
X178116666Y-115616033D01*
X178116666Y-115616033D02*
X177983333Y-115616033D01*
X177983333Y-115616033D02*
X177916666Y-115582700D01*
X177916666Y-115582700D02*
X177849999Y-115516033D01*
X177849999Y-115516033D02*
X177816666Y-115382700D01*
X177816666Y-115382700D02*
X177816666Y-115149366D01*
X177816666Y-115149366D02*
X177849999Y-115016033D01*
X177849999Y-115016033D02*
X177916666Y-114949366D01*
X177916666Y-114949366D02*
X177983333Y-114916033D01*
X178949999Y-115616033D02*
X178549999Y-115616033D01*
X178749999Y-115616033D02*
X178749999Y-114916033D01*
X178749999Y-114916033D02*
X178683332Y-115016033D01*
X178683332Y-115016033D02*
X178616666Y-115082700D01*
X178616666Y-115082700D02*
X178549999Y-115116033D01*
X179216666Y-114982700D02*
X179249999Y-114949366D01*
X179249999Y-114949366D02*
X179316666Y-114916033D01*
X179316666Y-114916033D02*
X179483333Y-114916033D01*
X179483333Y-114916033D02*
X179549999Y-114949366D01*
X179549999Y-114949366D02*
X179583333Y-114982700D01*
X179583333Y-114982700D02*
X179616666Y-115049366D01*
X179616666Y-115049366D02*
X179616666Y-115116033D01*
X179616666Y-115116033D02*
X179583333Y-115216033D01*
X179583333Y-115216033D02*
X179183333Y-115616033D01*
X179183333Y-115616033D02*
X179616666Y-115616033D01*
X187116666Y-108016033D02*
X187116666Y-107316033D01*
X187583333Y-107316033D02*
X187716666Y-107316033D01*
X187716666Y-107316033D02*
X187783333Y-107349366D01*
X187783333Y-107349366D02*
X187849999Y-107416033D01*
X187849999Y-107416033D02*
X187883333Y-107549366D01*
X187883333Y-107549366D02*
X187883333Y-107782700D01*
X187883333Y-107782700D02*
X187849999Y-107916033D01*
X187849999Y-107916033D02*
X187783333Y-107982700D01*
X187783333Y-107982700D02*
X187716666Y-108016033D01*
X187716666Y-108016033D02*
X187583333Y-108016033D01*
X187583333Y-108016033D02*
X187516666Y-107982700D01*
X187516666Y-107982700D02*
X187449999Y-107916033D01*
X187449999Y-107916033D02*
X187416666Y-107782700D01*
X187416666Y-107782700D02*
X187416666Y-107549366D01*
X187416666Y-107549366D02*
X187449999Y-107416033D01*
X187449999Y-107416033D02*
X187516666Y-107349366D01*
X187516666Y-107349366D02*
X187583333Y-107316033D01*
X188116666Y-107316033D02*
X188549999Y-107316033D01*
X188549999Y-107316033D02*
X188316666Y-107582700D01*
X188316666Y-107582700D02*
X188416666Y-107582700D01*
X188416666Y-107582700D02*
X188483332Y-107616033D01*
X188483332Y-107616033D02*
X188516666Y-107649366D01*
X188516666Y-107649366D02*
X188549999Y-107716033D01*
X188549999Y-107716033D02*
X188549999Y-107882700D01*
X188549999Y-107882700D02*
X188516666Y-107949366D01*
X188516666Y-107949366D02*
X188483332Y-107982700D01*
X188483332Y-107982700D02*
X188416666Y-108016033D01*
X188416666Y-108016033D02*
X188216666Y-108016033D01*
X188216666Y-108016033D02*
X188149999Y-107982700D01*
X188149999Y-107982700D02*
X188116666Y-107949366D01*
X188783333Y-107316033D02*
X189249999Y-107316033D01*
X189249999Y-107316033D02*
X188949999Y-108016033D01*
X128733333Y-127516033D02*
X128733333Y-126816033D01*
X129033333Y-126649366D02*
X129100000Y-126616033D01*
X129100000Y-126616033D02*
X129200000Y-126616033D01*
X129200000Y-126616033D02*
X129266666Y-126649366D01*
X129266666Y-126649366D02*
X129300000Y-126716033D01*
X129300000Y-126716033D02*
X129300000Y-126782700D01*
X129300000Y-126782700D02*
X129266666Y-126849366D01*
X129266666Y-126849366D02*
X129033333Y-127082700D01*
X129033333Y-127082700D02*
X129300000Y-127082700D01*
X129999999Y-127449366D02*
X129966666Y-127482700D01*
X129966666Y-127482700D02*
X129866666Y-127516033D01*
X129866666Y-127516033D02*
X129799999Y-127516033D01*
X129799999Y-127516033D02*
X129699999Y-127482700D01*
X129699999Y-127482700D02*
X129633333Y-127416033D01*
X129633333Y-127416033D02*
X129599999Y-127349366D01*
X129599999Y-127349366D02*
X129566666Y-127216033D01*
X129566666Y-127216033D02*
X129566666Y-127116033D01*
X129566666Y-127116033D02*
X129599999Y-126982700D01*
X129599999Y-126982700D02*
X129633333Y-126916033D01*
X129633333Y-126916033D02*
X129699999Y-126849366D01*
X129699999Y-126849366D02*
X129799999Y-126816033D01*
X129799999Y-126816033D02*
X129866666Y-126816033D01*
X129866666Y-126816033D02*
X129966666Y-126849366D01*
X129966666Y-126849366D02*
X129999999Y-126882700D01*
X130299999Y-127249366D02*
X130833333Y-127249366D01*
X131166666Y-127516033D02*
X131166666Y-126816033D01*
X131166666Y-127082700D02*
X131233333Y-127049366D01*
X131233333Y-127049366D02*
X131366666Y-127049366D01*
X131366666Y-127049366D02*
X131433333Y-127082700D01*
X131433333Y-127082700D02*
X131466666Y-127116033D01*
X131466666Y-127116033D02*
X131500000Y-127182700D01*
X131500000Y-127182700D02*
X131500000Y-127382700D01*
X131500000Y-127382700D02*
X131466666Y-127449366D01*
X131466666Y-127449366D02*
X131433333Y-127482700D01*
X131433333Y-127482700D02*
X131366666Y-127516033D01*
X131366666Y-127516033D02*
X131233333Y-127516033D01*
X131233333Y-127516033D02*
X131166666Y-127482700D01*
X177516666Y-130816033D02*
X177516666Y-130116033D01*
X177983333Y-130116033D02*
X178116666Y-130116033D01*
X178116666Y-130116033D02*
X178183333Y-130149366D01*
X178183333Y-130149366D02*
X178249999Y-130216033D01*
X178249999Y-130216033D02*
X178283333Y-130349366D01*
X178283333Y-130349366D02*
X178283333Y-130582700D01*
X178283333Y-130582700D02*
X178249999Y-130716033D01*
X178249999Y-130716033D02*
X178183333Y-130782700D01*
X178183333Y-130782700D02*
X178116666Y-130816033D01*
X178116666Y-130816033D02*
X177983333Y-130816033D01*
X177983333Y-130816033D02*
X177916666Y-130782700D01*
X177916666Y-130782700D02*
X177849999Y-130716033D01*
X177849999Y-130716033D02*
X177816666Y-130582700D01*
X177816666Y-130582700D02*
X177816666Y-130349366D01*
X177816666Y-130349366D02*
X177849999Y-130216033D01*
X177849999Y-130216033D02*
X177916666Y-130149366D01*
X177916666Y-130149366D02*
X177983333Y-130116033D01*
X178949999Y-130816033D02*
X178549999Y-130816033D01*
X178749999Y-130816033D02*
X178749999Y-130116033D01*
X178749999Y-130116033D02*
X178683332Y-130216033D01*
X178683332Y-130216033D02*
X178616666Y-130282700D01*
X178616666Y-130282700D02*
X178549999Y-130316033D01*
X179349999Y-130416033D02*
X179283333Y-130382700D01*
X179283333Y-130382700D02*
X179249999Y-130349366D01*
X179249999Y-130349366D02*
X179216666Y-130282700D01*
X179216666Y-130282700D02*
X179216666Y-130249366D01*
X179216666Y-130249366D02*
X179249999Y-130182700D01*
X179249999Y-130182700D02*
X179283333Y-130149366D01*
X179283333Y-130149366D02*
X179349999Y-130116033D01*
X179349999Y-130116033D02*
X179483333Y-130116033D01*
X179483333Y-130116033D02*
X179549999Y-130149366D01*
X179549999Y-130149366D02*
X179583333Y-130182700D01*
X179583333Y-130182700D02*
X179616666Y-130249366D01*
X179616666Y-130249366D02*
X179616666Y-130282700D01*
X179616666Y-130282700D02*
X179583333Y-130349366D01*
X179583333Y-130349366D02*
X179549999Y-130382700D01*
X179549999Y-130382700D02*
X179483333Y-130416033D01*
X179483333Y-130416033D02*
X179349999Y-130416033D01*
X179349999Y-130416033D02*
X179283333Y-130449366D01*
X179283333Y-130449366D02*
X179249999Y-130482700D01*
X179249999Y-130482700D02*
X179216666Y-130549366D01*
X179216666Y-130549366D02*
X179216666Y-130682700D01*
X179216666Y-130682700D02*
X179249999Y-130749366D01*
X179249999Y-130749366D02*
X179283333Y-130782700D01*
X179283333Y-130782700D02*
X179349999Y-130816033D01*
X179349999Y-130816033D02*
X179483333Y-130816033D01*
X179483333Y-130816033D02*
X179549999Y-130782700D01*
X179549999Y-130782700D02*
X179583333Y-130749366D01*
X179583333Y-130749366D02*
X179616666Y-130682700D01*
X179616666Y-130682700D02*
X179616666Y-130549366D01*
X179616666Y-130549366D02*
X179583333Y-130482700D01*
X179583333Y-130482700D02*
X179549999Y-130449366D01*
X179549999Y-130449366D02*
X179483333Y-130416033D01*
X124133333Y-127516033D02*
X124133333Y-126816033D01*
X124433333Y-126649366D02*
X124500000Y-126616033D01*
X124500000Y-126616033D02*
X124600000Y-126616033D01*
X124600000Y-126616033D02*
X124666666Y-126649366D01*
X124666666Y-126649366D02*
X124700000Y-126716033D01*
X124700000Y-126716033D02*
X124700000Y-126782700D01*
X124700000Y-126782700D02*
X124666666Y-126849366D01*
X124666666Y-126849366D02*
X124433333Y-127082700D01*
X124433333Y-127082700D02*
X124700000Y-127082700D01*
X125399999Y-127449366D02*
X125366666Y-127482700D01*
X125366666Y-127482700D02*
X125266666Y-127516033D01*
X125266666Y-127516033D02*
X125199999Y-127516033D01*
X125199999Y-127516033D02*
X125099999Y-127482700D01*
X125099999Y-127482700D02*
X125033333Y-127416033D01*
X125033333Y-127416033D02*
X124999999Y-127349366D01*
X124999999Y-127349366D02*
X124966666Y-127216033D01*
X124966666Y-127216033D02*
X124966666Y-127116033D01*
X124966666Y-127116033D02*
X124999999Y-126982700D01*
X124999999Y-126982700D02*
X125033333Y-126916033D01*
X125033333Y-126916033D02*
X125099999Y-126849366D01*
X125099999Y-126849366D02*
X125199999Y-126816033D01*
X125199999Y-126816033D02*
X125266666Y-126816033D01*
X125266666Y-126816033D02*
X125366666Y-126849366D01*
X125366666Y-126849366D02*
X125399999Y-126882700D01*
X125699999Y-127249366D02*
X126233333Y-127249366D01*
X126866666Y-127516033D02*
X126866666Y-127149366D01*
X126866666Y-127149366D02*
X126833333Y-127082700D01*
X126833333Y-127082700D02*
X126766666Y-127049366D01*
X126766666Y-127049366D02*
X126633333Y-127049366D01*
X126633333Y-127049366D02*
X126566666Y-127082700D01*
X126866666Y-127482700D02*
X126800000Y-127516033D01*
X126800000Y-127516033D02*
X126633333Y-127516033D01*
X126633333Y-127516033D02*
X126566666Y-127482700D01*
X126566666Y-127482700D02*
X126533333Y-127416033D01*
X126533333Y-127416033D02*
X126533333Y-127349366D01*
X126533333Y-127349366D02*
X126566666Y-127282700D01*
X126566666Y-127282700D02*
X126633333Y-127249366D01*
X126633333Y-127249366D02*
X126800000Y-127249366D01*
X126800000Y-127249366D02*
X126866666Y-127216033D01*
X177850000Y-108016033D02*
X177850000Y-107316033D01*
X178316667Y-107316033D02*
X178450000Y-107316033D01*
X178450000Y-107316033D02*
X178516667Y-107349366D01*
X178516667Y-107349366D02*
X178583333Y-107416033D01*
X178583333Y-107416033D02*
X178616667Y-107549366D01*
X178616667Y-107549366D02*
X178616667Y-107782700D01*
X178616667Y-107782700D02*
X178583333Y-107916033D01*
X178583333Y-107916033D02*
X178516667Y-107982700D01*
X178516667Y-107982700D02*
X178450000Y-108016033D01*
X178450000Y-108016033D02*
X178316667Y-108016033D01*
X178316667Y-108016033D02*
X178250000Y-107982700D01*
X178250000Y-107982700D02*
X178183333Y-107916033D01*
X178183333Y-107916033D02*
X178150000Y-107782700D01*
X178150000Y-107782700D02*
X178150000Y-107549366D01*
X178150000Y-107549366D02*
X178183333Y-107416033D01*
X178183333Y-107416033D02*
X178250000Y-107349366D01*
X178250000Y-107349366D02*
X178316667Y-107316033D01*
X179216666Y-107316033D02*
X179083333Y-107316033D01*
X179083333Y-107316033D02*
X179016666Y-107349366D01*
X179016666Y-107349366D02*
X178983333Y-107382700D01*
X178983333Y-107382700D02*
X178916666Y-107482700D01*
X178916666Y-107482700D02*
X178883333Y-107616033D01*
X178883333Y-107616033D02*
X178883333Y-107882700D01*
X178883333Y-107882700D02*
X178916666Y-107949366D01*
X178916666Y-107949366D02*
X178950000Y-107982700D01*
X178950000Y-107982700D02*
X179016666Y-108016033D01*
X179016666Y-108016033D02*
X179150000Y-108016033D01*
X179150000Y-108016033D02*
X179216666Y-107982700D01*
X179216666Y-107982700D02*
X179250000Y-107949366D01*
X179250000Y-107949366D02*
X179283333Y-107882700D01*
X179283333Y-107882700D02*
X179283333Y-107716033D01*
X179283333Y-107716033D02*
X179250000Y-107649366D01*
X179250000Y-107649366D02*
X179216666Y-107616033D01*
X179216666Y-107616033D02*
X179150000Y-107582700D01*
X179150000Y-107582700D02*
X179016666Y-107582700D01*
X179016666Y-107582700D02*
X178950000Y-107616033D01*
X178950000Y-107616033D02*
X178916666Y-107649366D01*
X178916666Y-107649366D02*
X178883333Y-107716033D01*
X187116666Y-128316033D02*
X187116666Y-127616033D01*
X187583333Y-127616033D02*
X187716666Y-127616033D01*
X187716666Y-127616033D02*
X187783333Y-127649366D01*
X187783333Y-127649366D02*
X187849999Y-127716033D01*
X187849999Y-127716033D02*
X187883333Y-127849366D01*
X187883333Y-127849366D02*
X187883333Y-128082700D01*
X187883333Y-128082700D02*
X187849999Y-128216033D01*
X187849999Y-128216033D02*
X187783333Y-128282700D01*
X187783333Y-128282700D02*
X187716666Y-128316033D01*
X187716666Y-128316033D02*
X187583333Y-128316033D01*
X187583333Y-128316033D02*
X187516666Y-128282700D01*
X187516666Y-128282700D02*
X187449999Y-128216033D01*
X187449999Y-128216033D02*
X187416666Y-128082700D01*
X187416666Y-128082700D02*
X187416666Y-127849366D01*
X187416666Y-127849366D02*
X187449999Y-127716033D01*
X187449999Y-127716033D02*
X187516666Y-127649366D01*
X187516666Y-127649366D02*
X187583333Y-127616033D01*
X188483332Y-127849366D02*
X188483332Y-128316033D01*
X188316666Y-127582700D02*
X188149999Y-128082700D01*
X188149999Y-128082700D02*
X188583332Y-128082700D01*
X189149999Y-127616033D02*
X189016666Y-127616033D01*
X189016666Y-127616033D02*
X188949999Y-127649366D01*
X188949999Y-127649366D02*
X188916666Y-127682700D01*
X188916666Y-127682700D02*
X188849999Y-127782700D01*
X188849999Y-127782700D02*
X188816666Y-127916033D01*
X188816666Y-127916033D02*
X188816666Y-128182700D01*
X188816666Y-128182700D02*
X188849999Y-128249366D01*
X188849999Y-128249366D02*
X188883333Y-128282700D01*
X188883333Y-128282700D02*
X188949999Y-128316033D01*
X188949999Y-128316033D02*
X189083333Y-128316033D01*
X189083333Y-128316033D02*
X189149999Y-128282700D01*
X189149999Y-128282700D02*
X189183333Y-128249366D01*
X189183333Y-128249366D02*
X189216666Y-128182700D01*
X189216666Y-128182700D02*
X189216666Y-128016033D01*
X189216666Y-128016033D02*
X189183333Y-127949366D01*
X189183333Y-127949366D02*
X189149999Y-127916033D01*
X189149999Y-127916033D02*
X189083333Y-127882700D01*
X189083333Y-127882700D02*
X188949999Y-127882700D01*
X188949999Y-127882700D02*
X188883333Y-127916033D01*
X188883333Y-127916033D02*
X188849999Y-127949366D01*
X188849999Y-127949366D02*
X188816666Y-128016033D01*
X186633333Y-132716033D02*
X186633333Y-133282700D01*
X186633333Y-133282700D02*
X186666667Y-133349366D01*
X186666667Y-133349366D02*
X186700000Y-133382700D01*
X186700000Y-133382700D02*
X186766667Y-133416033D01*
X186766667Y-133416033D02*
X186900000Y-133416033D01*
X186900000Y-133416033D02*
X186966667Y-133382700D01*
X186966667Y-133382700D02*
X187000000Y-133349366D01*
X187000000Y-133349366D02*
X187033333Y-133282700D01*
X187033333Y-133282700D02*
X187033333Y-132716033D01*
X187333333Y-133382700D02*
X187433333Y-133416033D01*
X187433333Y-133416033D02*
X187600000Y-133416033D01*
X187600000Y-133416033D02*
X187666666Y-133382700D01*
X187666666Y-133382700D02*
X187700000Y-133349366D01*
X187700000Y-133349366D02*
X187733333Y-133282700D01*
X187733333Y-133282700D02*
X187733333Y-133216033D01*
X187733333Y-133216033D02*
X187700000Y-133149366D01*
X187700000Y-133149366D02*
X187666666Y-133116033D01*
X187666666Y-133116033D02*
X187600000Y-133082700D01*
X187600000Y-133082700D02*
X187466666Y-133049366D01*
X187466666Y-133049366D02*
X187400000Y-133016033D01*
X187400000Y-133016033D02*
X187366666Y-132982700D01*
X187366666Y-132982700D02*
X187333333Y-132916033D01*
X187333333Y-132916033D02*
X187333333Y-132849366D01*
X187333333Y-132849366D02*
X187366666Y-132782700D01*
X187366666Y-132782700D02*
X187400000Y-132749366D01*
X187400000Y-132749366D02*
X187466666Y-132716033D01*
X187466666Y-132716033D02*
X187633333Y-132716033D01*
X187633333Y-132716033D02*
X187733333Y-132749366D01*
X188266667Y-133049366D02*
X188366667Y-133082700D01*
X188366667Y-133082700D02*
X188400000Y-133116033D01*
X188400000Y-133116033D02*
X188433333Y-133182700D01*
X188433333Y-133182700D02*
X188433333Y-133282700D01*
X188433333Y-133282700D02*
X188400000Y-133349366D01*
X188400000Y-133349366D02*
X188366667Y-133382700D01*
X188366667Y-133382700D02*
X188300000Y-133416033D01*
X188300000Y-133416033D02*
X188033333Y-133416033D01*
X188033333Y-133416033D02*
X188033333Y-132716033D01*
X188033333Y-132716033D02*
X188266667Y-132716033D01*
X188266667Y-132716033D02*
X188333333Y-132749366D01*
X188333333Y-132749366D02*
X188366667Y-132782700D01*
X188366667Y-132782700D02*
X188400000Y-132849366D01*
X188400000Y-132849366D02*
X188400000Y-132916033D01*
X188400000Y-132916033D02*
X188366667Y-132982700D01*
X188366667Y-132982700D02*
X188333333Y-133016033D01*
X188333333Y-133016033D02*
X188266667Y-133049366D01*
X188266667Y-133049366D02*
X188033333Y-133049366D01*
X189066667Y-132716033D02*
X188733333Y-132716033D01*
X188733333Y-132716033D02*
X188700000Y-133049366D01*
X188700000Y-133049366D02*
X188733333Y-133016033D01*
X188733333Y-133016033D02*
X188800000Y-132982700D01*
X188800000Y-132982700D02*
X188966667Y-132982700D01*
X188966667Y-132982700D02*
X189033333Y-133016033D01*
X189033333Y-133016033D02*
X189066667Y-133049366D01*
X189066667Y-133049366D02*
X189100000Y-133116033D01*
X189100000Y-133116033D02*
X189100000Y-133282700D01*
X189100000Y-133282700D02*
X189066667Y-133349366D01*
X189066667Y-133349366D02*
X189033333Y-133382700D01*
X189033333Y-133382700D02*
X188966667Y-133416033D01*
X188966667Y-133416033D02*
X188800000Y-133416033D01*
X188800000Y-133416033D02*
X188733333Y-133382700D01*
X188733333Y-133382700D02*
X188700000Y-133349366D01*
X189300000Y-132716033D02*
X189533334Y-133416033D01*
X189533334Y-133416033D02*
X189766667Y-132716033D01*
X177850000Y-110516033D02*
X177850000Y-109816033D01*
X178316667Y-109816033D02*
X178450000Y-109816033D01*
X178450000Y-109816033D02*
X178516667Y-109849366D01*
X178516667Y-109849366D02*
X178583333Y-109916033D01*
X178583333Y-109916033D02*
X178616667Y-110049366D01*
X178616667Y-110049366D02*
X178616667Y-110282700D01*
X178616667Y-110282700D02*
X178583333Y-110416033D01*
X178583333Y-110416033D02*
X178516667Y-110482700D01*
X178516667Y-110482700D02*
X178450000Y-110516033D01*
X178450000Y-110516033D02*
X178316667Y-110516033D01*
X178316667Y-110516033D02*
X178250000Y-110482700D01*
X178250000Y-110482700D02*
X178183333Y-110416033D01*
X178183333Y-110416033D02*
X178150000Y-110282700D01*
X178150000Y-110282700D02*
X178150000Y-110049366D01*
X178150000Y-110049366D02*
X178183333Y-109916033D01*
X178183333Y-109916033D02*
X178250000Y-109849366D01*
X178250000Y-109849366D02*
X178316667Y-109816033D01*
X178850000Y-109816033D02*
X179316666Y-109816033D01*
X179316666Y-109816033D02*
X179016666Y-110516033D01*
X187116666Y-125816033D02*
X187116666Y-125116033D01*
X187583333Y-125116033D02*
X187716666Y-125116033D01*
X187716666Y-125116033D02*
X187783333Y-125149366D01*
X187783333Y-125149366D02*
X187849999Y-125216033D01*
X187849999Y-125216033D02*
X187883333Y-125349366D01*
X187883333Y-125349366D02*
X187883333Y-125582700D01*
X187883333Y-125582700D02*
X187849999Y-125716033D01*
X187849999Y-125716033D02*
X187783333Y-125782700D01*
X187783333Y-125782700D02*
X187716666Y-125816033D01*
X187716666Y-125816033D02*
X187583333Y-125816033D01*
X187583333Y-125816033D02*
X187516666Y-125782700D01*
X187516666Y-125782700D02*
X187449999Y-125716033D01*
X187449999Y-125716033D02*
X187416666Y-125582700D01*
X187416666Y-125582700D02*
X187416666Y-125349366D01*
X187416666Y-125349366D02*
X187449999Y-125216033D01*
X187449999Y-125216033D02*
X187516666Y-125149366D01*
X187516666Y-125149366D02*
X187583333Y-125116033D01*
X188483332Y-125349366D02*
X188483332Y-125816033D01*
X188316666Y-125082700D02*
X188149999Y-125582700D01*
X188149999Y-125582700D02*
X188583332Y-125582700D01*
X189183333Y-125116033D02*
X188849999Y-125116033D01*
X188849999Y-125116033D02*
X188816666Y-125449366D01*
X188816666Y-125449366D02*
X188849999Y-125416033D01*
X188849999Y-125416033D02*
X188916666Y-125382700D01*
X188916666Y-125382700D02*
X189083333Y-125382700D01*
X189083333Y-125382700D02*
X189149999Y-125416033D01*
X189149999Y-125416033D02*
X189183333Y-125449366D01*
X189183333Y-125449366D02*
X189216666Y-125516033D01*
X189216666Y-125516033D02*
X189216666Y-125682700D01*
X189216666Y-125682700D02*
X189183333Y-125749366D01*
X189183333Y-125749366D02*
X189149999Y-125782700D01*
X189149999Y-125782700D02*
X189083333Y-125816033D01*
X189083333Y-125816033D02*
X188916666Y-125816033D01*
X188916666Y-125816033D02*
X188849999Y-125782700D01*
X188849999Y-125782700D02*
X188816666Y-125749366D01*
X187116666Y-105416033D02*
X187116666Y-104716033D01*
X187583333Y-104716033D02*
X187716666Y-104716033D01*
X187716666Y-104716033D02*
X187783333Y-104749366D01*
X187783333Y-104749366D02*
X187849999Y-104816033D01*
X187849999Y-104816033D02*
X187883333Y-104949366D01*
X187883333Y-104949366D02*
X187883333Y-105182700D01*
X187883333Y-105182700D02*
X187849999Y-105316033D01*
X187849999Y-105316033D02*
X187783333Y-105382700D01*
X187783333Y-105382700D02*
X187716666Y-105416033D01*
X187716666Y-105416033D02*
X187583333Y-105416033D01*
X187583333Y-105416033D02*
X187516666Y-105382700D01*
X187516666Y-105382700D02*
X187449999Y-105316033D01*
X187449999Y-105316033D02*
X187416666Y-105182700D01*
X187416666Y-105182700D02*
X187416666Y-104949366D01*
X187416666Y-104949366D02*
X187449999Y-104816033D01*
X187449999Y-104816033D02*
X187516666Y-104749366D01*
X187516666Y-104749366D02*
X187583333Y-104716033D01*
X188116666Y-104716033D02*
X188549999Y-104716033D01*
X188549999Y-104716033D02*
X188316666Y-104982700D01*
X188316666Y-104982700D02*
X188416666Y-104982700D01*
X188416666Y-104982700D02*
X188483332Y-105016033D01*
X188483332Y-105016033D02*
X188516666Y-105049366D01*
X188516666Y-105049366D02*
X188549999Y-105116033D01*
X188549999Y-105116033D02*
X188549999Y-105282700D01*
X188549999Y-105282700D02*
X188516666Y-105349366D01*
X188516666Y-105349366D02*
X188483332Y-105382700D01*
X188483332Y-105382700D02*
X188416666Y-105416033D01*
X188416666Y-105416033D02*
X188216666Y-105416033D01*
X188216666Y-105416033D02*
X188149999Y-105382700D01*
X188149999Y-105382700D02*
X188116666Y-105349366D01*
X189149999Y-104716033D02*
X189016666Y-104716033D01*
X189016666Y-104716033D02*
X188949999Y-104749366D01*
X188949999Y-104749366D02*
X188916666Y-104782700D01*
X188916666Y-104782700D02*
X188849999Y-104882700D01*
X188849999Y-104882700D02*
X188816666Y-105016033D01*
X188816666Y-105016033D02*
X188816666Y-105282700D01*
X188816666Y-105282700D02*
X188849999Y-105349366D01*
X188849999Y-105349366D02*
X188883333Y-105382700D01*
X188883333Y-105382700D02*
X188949999Y-105416033D01*
X188949999Y-105416033D02*
X189083333Y-105416033D01*
X189083333Y-105416033D02*
X189149999Y-105382700D01*
X189149999Y-105382700D02*
X189183333Y-105349366D01*
X189183333Y-105349366D02*
X189216666Y-105282700D01*
X189216666Y-105282700D02*
X189216666Y-105116033D01*
X189216666Y-105116033D02*
X189183333Y-105049366D01*
X189183333Y-105049366D02*
X189149999Y-105016033D01*
X189149999Y-105016033D02*
X189083333Y-104982700D01*
X189083333Y-104982700D02*
X188949999Y-104982700D01*
X188949999Y-104982700D02*
X188883333Y-105016033D01*
X188883333Y-105016033D02*
X188849999Y-105049366D01*
X188849999Y-105049366D02*
X188816666Y-105116033D01*
X177516666Y-128316033D02*
X177516666Y-127616033D01*
X177983333Y-127616033D02*
X178116666Y-127616033D01*
X178116666Y-127616033D02*
X178183333Y-127649366D01*
X178183333Y-127649366D02*
X178249999Y-127716033D01*
X178249999Y-127716033D02*
X178283333Y-127849366D01*
X178283333Y-127849366D02*
X178283333Y-128082700D01*
X178283333Y-128082700D02*
X178249999Y-128216033D01*
X178249999Y-128216033D02*
X178183333Y-128282700D01*
X178183333Y-128282700D02*
X178116666Y-128316033D01*
X178116666Y-128316033D02*
X177983333Y-128316033D01*
X177983333Y-128316033D02*
X177916666Y-128282700D01*
X177916666Y-128282700D02*
X177849999Y-128216033D01*
X177849999Y-128216033D02*
X177816666Y-128082700D01*
X177816666Y-128082700D02*
X177816666Y-127849366D01*
X177816666Y-127849366D02*
X177849999Y-127716033D01*
X177849999Y-127716033D02*
X177916666Y-127649366D01*
X177916666Y-127649366D02*
X177983333Y-127616033D01*
X178949999Y-128316033D02*
X178549999Y-128316033D01*
X178749999Y-128316033D02*
X178749999Y-127616033D01*
X178749999Y-127616033D02*
X178683332Y-127716033D01*
X178683332Y-127716033D02*
X178616666Y-127782700D01*
X178616666Y-127782700D02*
X178549999Y-127816033D01*
X179183333Y-127616033D02*
X179649999Y-127616033D01*
X179649999Y-127616033D02*
X179349999Y-128316033D01*
X178100000Y-135249366D02*
X178033333Y-135216033D01*
X178033333Y-135216033D02*
X177933333Y-135216033D01*
X177933333Y-135216033D02*
X177833333Y-135249366D01*
X177833333Y-135249366D02*
X177766667Y-135316033D01*
X177766667Y-135316033D02*
X177733333Y-135382700D01*
X177733333Y-135382700D02*
X177700000Y-135516033D01*
X177700000Y-135516033D02*
X177700000Y-135616033D01*
X177700000Y-135616033D02*
X177733333Y-135749366D01*
X177733333Y-135749366D02*
X177766667Y-135816033D01*
X177766667Y-135816033D02*
X177833333Y-135882700D01*
X177833333Y-135882700D02*
X177933333Y-135916033D01*
X177933333Y-135916033D02*
X178000000Y-135916033D01*
X178000000Y-135916033D02*
X178100000Y-135882700D01*
X178100000Y-135882700D02*
X178133333Y-135849366D01*
X178133333Y-135849366D02*
X178133333Y-135616033D01*
X178133333Y-135616033D02*
X178000000Y-135616033D01*
X178433333Y-135449366D02*
X178433333Y-135916033D01*
X178433333Y-135516033D02*
X178466667Y-135482700D01*
X178466667Y-135482700D02*
X178533333Y-135449366D01*
X178533333Y-135449366D02*
X178633333Y-135449366D01*
X178633333Y-135449366D02*
X178700000Y-135482700D01*
X178700000Y-135482700D02*
X178733333Y-135549366D01*
X178733333Y-135549366D02*
X178733333Y-135916033D01*
X179366666Y-135916033D02*
X179366666Y-135216033D01*
X179366666Y-135882700D02*
X179300000Y-135916033D01*
X179300000Y-135916033D02*
X179166666Y-135916033D01*
X179166666Y-135916033D02*
X179100000Y-135882700D01*
X179100000Y-135882700D02*
X179066666Y-135849366D01*
X179066666Y-135849366D02*
X179033333Y-135782700D01*
X179033333Y-135782700D02*
X179033333Y-135582700D01*
X179033333Y-135582700D02*
X179066666Y-135516033D01*
X179066666Y-135516033D02*
X179100000Y-135482700D01*
X179100000Y-135482700D02*
X179166666Y-135449366D01*
X179166666Y-135449366D02*
X179300000Y-135449366D01*
X179300000Y-135449366D02*
X179366666Y-135482700D01*
X177850000Y-105416033D02*
X177850000Y-104716033D01*
X178316667Y-104716033D02*
X178450000Y-104716033D01*
X178450000Y-104716033D02*
X178516667Y-104749366D01*
X178516667Y-104749366D02*
X178583333Y-104816033D01*
X178583333Y-104816033D02*
X178616667Y-104949366D01*
X178616667Y-104949366D02*
X178616667Y-105182700D01*
X178616667Y-105182700D02*
X178583333Y-105316033D01*
X178583333Y-105316033D02*
X178516667Y-105382700D01*
X178516667Y-105382700D02*
X178450000Y-105416033D01*
X178450000Y-105416033D02*
X178316667Y-105416033D01*
X178316667Y-105416033D02*
X178250000Y-105382700D01*
X178250000Y-105382700D02*
X178183333Y-105316033D01*
X178183333Y-105316033D02*
X178150000Y-105182700D01*
X178150000Y-105182700D02*
X178150000Y-104949366D01*
X178150000Y-104949366D02*
X178183333Y-104816033D01*
X178183333Y-104816033D02*
X178250000Y-104749366D01*
X178250000Y-104749366D02*
X178316667Y-104716033D01*
X178850000Y-104716033D02*
X179283333Y-104716033D01*
X179283333Y-104716033D02*
X179050000Y-104982700D01*
X179050000Y-104982700D02*
X179150000Y-104982700D01*
X179150000Y-104982700D02*
X179216666Y-105016033D01*
X179216666Y-105016033D02*
X179250000Y-105049366D01*
X179250000Y-105049366D02*
X179283333Y-105116033D01*
X179283333Y-105116033D02*
X179283333Y-105282700D01*
X179283333Y-105282700D02*
X179250000Y-105349366D01*
X179250000Y-105349366D02*
X179216666Y-105382700D01*
X179216666Y-105382700D02*
X179150000Y-105416033D01*
X179150000Y-105416033D02*
X178950000Y-105416033D01*
X178950000Y-105416033D02*
X178883333Y-105382700D01*
X178883333Y-105382700D02*
X178850000Y-105349366D01*
X187116666Y-110516033D02*
X187116666Y-109816033D01*
X187583333Y-109816033D02*
X187716666Y-109816033D01*
X187716666Y-109816033D02*
X187783333Y-109849366D01*
X187783333Y-109849366D02*
X187849999Y-109916033D01*
X187849999Y-109916033D02*
X187883333Y-110049366D01*
X187883333Y-110049366D02*
X187883333Y-110282700D01*
X187883333Y-110282700D02*
X187849999Y-110416033D01*
X187849999Y-110416033D02*
X187783333Y-110482700D01*
X187783333Y-110482700D02*
X187716666Y-110516033D01*
X187716666Y-110516033D02*
X187583333Y-110516033D01*
X187583333Y-110516033D02*
X187516666Y-110482700D01*
X187516666Y-110482700D02*
X187449999Y-110416033D01*
X187449999Y-110416033D02*
X187416666Y-110282700D01*
X187416666Y-110282700D02*
X187416666Y-110049366D01*
X187416666Y-110049366D02*
X187449999Y-109916033D01*
X187449999Y-109916033D02*
X187516666Y-109849366D01*
X187516666Y-109849366D02*
X187583333Y-109816033D01*
X188116666Y-109816033D02*
X188549999Y-109816033D01*
X188549999Y-109816033D02*
X188316666Y-110082700D01*
X188316666Y-110082700D02*
X188416666Y-110082700D01*
X188416666Y-110082700D02*
X188483332Y-110116033D01*
X188483332Y-110116033D02*
X188516666Y-110149366D01*
X188516666Y-110149366D02*
X188549999Y-110216033D01*
X188549999Y-110216033D02*
X188549999Y-110382700D01*
X188549999Y-110382700D02*
X188516666Y-110449366D01*
X188516666Y-110449366D02*
X188483332Y-110482700D01*
X188483332Y-110482700D02*
X188416666Y-110516033D01*
X188416666Y-110516033D02*
X188216666Y-110516033D01*
X188216666Y-110516033D02*
X188149999Y-110482700D01*
X188149999Y-110482700D02*
X188116666Y-110449366D01*
X188883333Y-110516033D02*
X189016666Y-110516033D01*
X189016666Y-110516033D02*
X189083333Y-110482700D01*
X189083333Y-110482700D02*
X189116666Y-110449366D01*
X189116666Y-110449366D02*
X189183333Y-110349366D01*
X189183333Y-110349366D02*
X189216666Y-110216033D01*
X189216666Y-110216033D02*
X189216666Y-109949366D01*
X189216666Y-109949366D02*
X189183333Y-109882700D01*
X189183333Y-109882700D02*
X189149999Y-109849366D01*
X189149999Y-109849366D02*
X189083333Y-109816033D01*
X189083333Y-109816033D02*
X188949999Y-109816033D01*
X188949999Y-109816033D02*
X188883333Y-109849366D01*
X188883333Y-109849366D02*
X188849999Y-109882700D01*
X188849999Y-109882700D02*
X188816666Y-109949366D01*
X188816666Y-109949366D02*
X188816666Y-110116033D01*
X188816666Y-110116033D02*
X188849999Y-110182700D01*
X188849999Y-110182700D02*
X188883333Y-110216033D01*
X188883333Y-110216033D02*
X188949999Y-110249366D01*
X188949999Y-110249366D02*
X189083333Y-110249366D01*
X189083333Y-110249366D02*
X189149999Y-110216033D01*
X189149999Y-110216033D02*
X189183333Y-110182700D01*
X189183333Y-110182700D02*
X189216666Y-110116033D01*
X187116666Y-120716033D02*
X187116666Y-120016033D01*
X187583333Y-120016033D02*
X187716666Y-120016033D01*
X187716666Y-120016033D02*
X187783333Y-120049366D01*
X187783333Y-120049366D02*
X187849999Y-120116033D01*
X187849999Y-120116033D02*
X187883333Y-120249366D01*
X187883333Y-120249366D02*
X187883333Y-120482700D01*
X187883333Y-120482700D02*
X187849999Y-120616033D01*
X187849999Y-120616033D02*
X187783333Y-120682700D01*
X187783333Y-120682700D02*
X187716666Y-120716033D01*
X187716666Y-120716033D02*
X187583333Y-120716033D01*
X187583333Y-120716033D02*
X187516666Y-120682700D01*
X187516666Y-120682700D02*
X187449999Y-120616033D01*
X187449999Y-120616033D02*
X187416666Y-120482700D01*
X187416666Y-120482700D02*
X187416666Y-120249366D01*
X187416666Y-120249366D02*
X187449999Y-120116033D01*
X187449999Y-120116033D02*
X187516666Y-120049366D01*
X187516666Y-120049366D02*
X187583333Y-120016033D01*
X188483332Y-120249366D02*
X188483332Y-120716033D01*
X188316666Y-119982700D02*
X188149999Y-120482700D01*
X188149999Y-120482700D02*
X188583332Y-120482700D01*
X188783333Y-120016033D02*
X189216666Y-120016033D01*
X189216666Y-120016033D02*
X188983333Y-120282700D01*
X188983333Y-120282700D02*
X189083333Y-120282700D01*
X189083333Y-120282700D02*
X189149999Y-120316033D01*
X189149999Y-120316033D02*
X189183333Y-120349366D01*
X189183333Y-120349366D02*
X189216666Y-120416033D01*
X189216666Y-120416033D02*
X189216666Y-120582700D01*
X189216666Y-120582700D02*
X189183333Y-120649366D01*
X189183333Y-120649366D02*
X189149999Y-120682700D01*
X189149999Y-120682700D02*
X189083333Y-120716033D01*
X189083333Y-120716033D02*
X188883333Y-120716033D01*
X188883333Y-120716033D02*
X188816666Y-120682700D01*
X188816666Y-120682700D02*
X188783333Y-120649366D01*
X177383333Y-122516033D02*
X177783333Y-122516033D01*
X177583333Y-123216033D02*
X177583333Y-122516033D01*
X177950000Y-123216033D02*
X178316666Y-122749366D01*
X177950000Y-122749366D02*
X178316666Y-123216033D01*
X178583333Y-123216033D02*
X178583333Y-122516033D01*
X178583333Y-122516033D02*
X178750000Y-122516033D01*
X178750000Y-122516033D02*
X178850000Y-122549366D01*
X178850000Y-122549366D02*
X178916667Y-122616033D01*
X178916667Y-122616033D02*
X178950000Y-122682700D01*
X178950000Y-122682700D02*
X178983333Y-122816033D01*
X178983333Y-122816033D02*
X178983333Y-122916033D01*
X178983333Y-122916033D02*
X178950000Y-123049366D01*
X178950000Y-123049366D02*
X178916667Y-123116033D01*
X178916667Y-123116033D02*
X178850000Y-123182700D01*
X178850000Y-123182700D02*
X178750000Y-123216033D01*
X178750000Y-123216033D02*
X178583333Y-123216033D01*
X179416667Y-122516033D02*
X179483333Y-122516033D01*
X179483333Y-122516033D02*
X179550000Y-122549366D01*
X179550000Y-122549366D02*
X179583333Y-122582700D01*
X179583333Y-122582700D02*
X179616667Y-122649366D01*
X179616667Y-122649366D02*
X179650000Y-122782700D01*
X179650000Y-122782700D02*
X179650000Y-122949366D01*
X179650000Y-122949366D02*
X179616667Y-123082700D01*
X179616667Y-123082700D02*
X179583333Y-123149366D01*
X179583333Y-123149366D02*
X179550000Y-123182700D01*
X179550000Y-123182700D02*
X179483333Y-123216033D01*
X179483333Y-123216033D02*
X179416667Y-123216033D01*
X179416667Y-123216033D02*
X179350000Y-123182700D01*
X179350000Y-123182700D02*
X179316667Y-123149366D01*
X179316667Y-123149366D02*
X179283333Y-123082700D01*
X179283333Y-123082700D02*
X179250000Y-122949366D01*
X179250000Y-122949366D02*
X179250000Y-122782700D01*
X179250000Y-122782700D02*
X179283333Y-122649366D01*
X179283333Y-122649366D02*
X179316667Y-122582700D01*
X179316667Y-122582700D02*
X179350000Y-122549366D01*
X179350000Y-122549366D02*
X179416667Y-122516033D01*
X177900000Y-103016033D02*
X177900000Y-102316033D01*
X178366667Y-102316033D02*
X178500000Y-102316033D01*
X178500000Y-102316033D02*
X178566667Y-102349366D01*
X178566667Y-102349366D02*
X178633333Y-102416033D01*
X178633333Y-102416033D02*
X178666667Y-102549366D01*
X178666667Y-102549366D02*
X178666667Y-102782700D01*
X178666667Y-102782700D02*
X178633333Y-102916033D01*
X178633333Y-102916033D02*
X178566667Y-102982700D01*
X178566667Y-102982700D02*
X178500000Y-103016033D01*
X178500000Y-103016033D02*
X178366667Y-103016033D01*
X178366667Y-103016033D02*
X178300000Y-102982700D01*
X178300000Y-102982700D02*
X178233333Y-102916033D01*
X178233333Y-102916033D02*
X178200000Y-102782700D01*
X178200000Y-102782700D02*
X178200000Y-102549366D01*
X178200000Y-102549366D02*
X178233333Y-102416033D01*
X178233333Y-102416033D02*
X178300000Y-102349366D01*
X178300000Y-102349366D02*
X178366667Y-102316033D01*
X179333333Y-103016033D02*
X178933333Y-103016033D01*
X179133333Y-103016033D02*
X179133333Y-102316033D01*
X179133333Y-102316033D02*
X179066666Y-102416033D01*
X179066666Y-102416033D02*
X179000000Y-102482700D01*
X179000000Y-102482700D02*
X178933333Y-102516033D01*
X168507200Y-92433332D02*
X168554819Y-92290475D01*
X168554819Y-92290475D02*
X168554819Y-92052380D01*
X168554819Y-92052380D02*
X168507200Y-91957142D01*
X168507200Y-91957142D02*
X168459580Y-91909523D01*
X168459580Y-91909523D02*
X168364342Y-91861904D01*
X168364342Y-91861904D02*
X168269104Y-91861904D01*
X168269104Y-91861904D02*
X168173866Y-91909523D01*
X168173866Y-91909523D02*
X168126247Y-91957142D01*
X168126247Y-91957142D02*
X168078628Y-92052380D01*
X168078628Y-92052380D02*
X168031009Y-92242856D01*
X168031009Y-92242856D02*
X167983390Y-92338094D01*
X167983390Y-92338094D02*
X167935771Y-92385713D01*
X167935771Y-92385713D02*
X167840533Y-92433332D01*
X167840533Y-92433332D02*
X167745295Y-92433332D01*
X167745295Y-92433332D02*
X167650057Y-92385713D01*
X167650057Y-92385713D02*
X167602438Y-92338094D01*
X167602438Y-92338094D02*
X167554819Y-92242856D01*
X167554819Y-92242856D02*
X167554819Y-92004761D01*
X167554819Y-92004761D02*
X167602438Y-91861904D01*
X167554819Y-91528570D02*
X168554819Y-91290475D01*
X168554819Y-91290475D02*
X167840533Y-91099999D01*
X167840533Y-91099999D02*
X168554819Y-90909523D01*
X168554819Y-90909523D02*
X167554819Y-90671428D01*
X167650057Y-90338094D02*
X167602438Y-90290475D01*
X167602438Y-90290475D02*
X167554819Y-90195237D01*
X167554819Y-90195237D02*
X167554819Y-89957142D01*
X167554819Y-89957142D02*
X167602438Y-89861904D01*
X167602438Y-89861904D02*
X167650057Y-89814285D01*
X167650057Y-89814285D02*
X167745295Y-89766666D01*
X167745295Y-89766666D02*
X167840533Y-89766666D01*
X167840533Y-89766666D02*
X167983390Y-89814285D01*
X167983390Y-89814285D02*
X168554819Y-90385713D01*
X168554819Y-90385713D02*
X168554819Y-89766666D01*
X160661904Y-89854819D02*
X160328571Y-89378628D01*
X160090476Y-89854819D02*
X160090476Y-88854819D01*
X160090476Y-88854819D02*
X160471428Y-88854819D01*
X160471428Y-88854819D02*
X160566666Y-88902438D01*
X160566666Y-88902438D02*
X160614285Y-88950057D01*
X160614285Y-88950057D02*
X160661904Y-89045295D01*
X160661904Y-89045295D02*
X160661904Y-89188152D01*
X160661904Y-89188152D02*
X160614285Y-89283390D01*
X160614285Y-89283390D02*
X160566666Y-89331009D01*
X160566666Y-89331009D02*
X160471428Y-89378628D01*
X160471428Y-89378628D02*
X160090476Y-89378628D01*
X161471428Y-89807200D02*
X161376190Y-89854819D01*
X161376190Y-89854819D02*
X161185714Y-89854819D01*
X161185714Y-89854819D02*
X161090476Y-89807200D01*
X161090476Y-89807200D02*
X161042857Y-89711961D01*
X161042857Y-89711961D02*
X161042857Y-89331009D01*
X161042857Y-89331009D02*
X161090476Y-89235771D01*
X161090476Y-89235771D02*
X161185714Y-89188152D01*
X161185714Y-89188152D02*
X161376190Y-89188152D01*
X161376190Y-89188152D02*
X161471428Y-89235771D01*
X161471428Y-89235771D02*
X161519047Y-89331009D01*
X161519047Y-89331009D02*
X161519047Y-89426247D01*
X161519047Y-89426247D02*
X161042857Y-89521485D01*
X161900000Y-89807200D02*
X161995238Y-89854819D01*
X161995238Y-89854819D02*
X162185714Y-89854819D01*
X162185714Y-89854819D02*
X162280952Y-89807200D01*
X162280952Y-89807200D02*
X162328571Y-89711961D01*
X162328571Y-89711961D02*
X162328571Y-89664342D01*
X162328571Y-89664342D02*
X162280952Y-89569104D01*
X162280952Y-89569104D02*
X162185714Y-89521485D01*
X162185714Y-89521485D02*
X162042857Y-89521485D01*
X162042857Y-89521485D02*
X161947619Y-89473866D01*
X161947619Y-89473866D02*
X161900000Y-89378628D01*
X161900000Y-89378628D02*
X161900000Y-89331009D01*
X161900000Y-89331009D02*
X161947619Y-89235771D01*
X161947619Y-89235771D02*
X162042857Y-89188152D01*
X162042857Y-89188152D02*
X162185714Y-89188152D01*
X162185714Y-89188152D02*
X162280952Y-89235771D01*
X163138095Y-89807200D02*
X163042857Y-89854819D01*
X163042857Y-89854819D02*
X162852381Y-89854819D01*
X162852381Y-89854819D02*
X162757143Y-89807200D01*
X162757143Y-89807200D02*
X162709524Y-89711961D01*
X162709524Y-89711961D02*
X162709524Y-89331009D01*
X162709524Y-89331009D02*
X162757143Y-89235771D01*
X162757143Y-89235771D02*
X162852381Y-89188152D01*
X162852381Y-89188152D02*
X163042857Y-89188152D01*
X163042857Y-89188152D02*
X163138095Y-89235771D01*
X163138095Y-89235771D02*
X163185714Y-89331009D01*
X163185714Y-89331009D02*
X163185714Y-89426247D01*
X163185714Y-89426247D02*
X162709524Y-89521485D01*
X163471429Y-89188152D02*
X163852381Y-89188152D01*
X163614286Y-88854819D02*
X163614286Y-89711961D01*
X163614286Y-89711961D02*
X163661905Y-89807200D01*
X163661905Y-89807200D02*
X163757143Y-89854819D01*
X163757143Y-89854819D02*
X163852381Y-89854819D01*
X142433333Y-74654819D02*
X142100000Y-74178628D01*
X141861905Y-74654819D02*
X141861905Y-73654819D01*
X141861905Y-73654819D02*
X142242857Y-73654819D01*
X142242857Y-73654819D02*
X142338095Y-73702438D01*
X142338095Y-73702438D02*
X142385714Y-73750057D01*
X142385714Y-73750057D02*
X142433333Y-73845295D01*
X142433333Y-73845295D02*
X142433333Y-73988152D01*
X142433333Y-73988152D02*
X142385714Y-74083390D01*
X142385714Y-74083390D02*
X142338095Y-74131009D01*
X142338095Y-74131009D02*
X142242857Y-74178628D01*
X142242857Y-74178628D02*
X141861905Y-74178628D01*
X142814286Y-73750057D02*
X142861905Y-73702438D01*
X142861905Y-73702438D02*
X142957143Y-73654819D01*
X142957143Y-73654819D02*
X143195238Y-73654819D01*
X143195238Y-73654819D02*
X143290476Y-73702438D01*
X143290476Y-73702438D02*
X143338095Y-73750057D01*
X143338095Y-73750057D02*
X143385714Y-73845295D01*
X143385714Y-73845295D02*
X143385714Y-73940533D01*
X143385714Y-73940533D02*
X143338095Y-74083390D01*
X143338095Y-74083390D02*
X142766667Y-74654819D01*
X142766667Y-74654819D02*
X143385714Y-74654819D01*
X129280476Y-114274819D02*
X129280476Y-114989104D01*
X129280476Y-114989104D02*
X129232857Y-115131961D01*
X129232857Y-115131961D02*
X129137619Y-115227200D01*
X129137619Y-115227200D02*
X128994762Y-115274819D01*
X128994762Y-115274819D02*
X128899524Y-115274819D01*
X130280476Y-115274819D02*
X129709048Y-115274819D01*
X129994762Y-115274819D02*
X129994762Y-114274819D01*
X129994762Y-114274819D02*
X129899524Y-114417676D01*
X129899524Y-114417676D02*
X129804286Y-114512914D01*
X129804286Y-114512914D02*
X129709048Y-114560533D01*
X131137619Y-114274819D02*
X130947143Y-114274819D01*
X130947143Y-114274819D02*
X130851905Y-114322438D01*
X130851905Y-114322438D02*
X130804286Y-114370057D01*
X130804286Y-114370057D02*
X130709048Y-114512914D01*
X130709048Y-114512914D02*
X130661429Y-114703390D01*
X130661429Y-114703390D02*
X130661429Y-115084342D01*
X130661429Y-115084342D02*
X130709048Y-115179580D01*
X130709048Y-115179580D02*
X130756667Y-115227200D01*
X130756667Y-115227200D02*
X130851905Y-115274819D01*
X130851905Y-115274819D02*
X131042381Y-115274819D01*
X131042381Y-115274819D02*
X131137619Y-115227200D01*
X131137619Y-115227200D02*
X131185238Y-115179580D01*
X131185238Y-115179580D02*
X131232857Y-115084342D01*
X131232857Y-115084342D02*
X131232857Y-114846247D01*
X131232857Y-114846247D02*
X131185238Y-114751009D01*
X131185238Y-114751009D02*
X131137619Y-114703390D01*
X131137619Y-114703390D02*
X131042381Y-114655771D01*
X131042381Y-114655771D02*
X130851905Y-114655771D01*
X130851905Y-114655771D02*
X130756667Y-114703390D01*
X130756667Y-114703390D02*
X130709048Y-114751009D01*
X130709048Y-114751009D02*
X130661429Y-114846247D01*
X172538095Y-98254819D02*
X172538095Y-99064342D01*
X172538095Y-99064342D02*
X172585714Y-99159580D01*
X172585714Y-99159580D02*
X172633333Y-99207200D01*
X172633333Y-99207200D02*
X172728571Y-99254819D01*
X172728571Y-99254819D02*
X172919047Y-99254819D01*
X172919047Y-99254819D02*
X173014285Y-99207200D01*
X173014285Y-99207200D02*
X173061904Y-99159580D01*
X173061904Y-99159580D02*
X173109523Y-99064342D01*
X173109523Y-99064342D02*
X173109523Y-98254819D01*
X174061904Y-98254819D02*
X173585714Y-98254819D01*
X173585714Y-98254819D02*
X173538095Y-98731009D01*
X173538095Y-98731009D02*
X173585714Y-98683390D01*
X173585714Y-98683390D02*
X173680952Y-98635771D01*
X173680952Y-98635771D02*
X173919047Y-98635771D01*
X173919047Y-98635771D02*
X174014285Y-98683390D01*
X174014285Y-98683390D02*
X174061904Y-98731009D01*
X174061904Y-98731009D02*
X174109523Y-98826247D01*
X174109523Y-98826247D02*
X174109523Y-99064342D01*
X174109523Y-99064342D02*
X174061904Y-99159580D01*
X174061904Y-99159580D02*
X174014285Y-99207200D01*
X174014285Y-99207200D02*
X173919047Y-99254819D01*
X173919047Y-99254819D02*
X173680952Y-99254819D01*
X173680952Y-99254819D02*
X173585714Y-99207200D01*
X173585714Y-99207200D02*
X173538095Y-99159580D01*
X166133333Y-77754819D02*
X165800000Y-77278628D01*
X165561905Y-77754819D02*
X165561905Y-76754819D01*
X165561905Y-76754819D02*
X165942857Y-76754819D01*
X165942857Y-76754819D02*
X166038095Y-76802438D01*
X166038095Y-76802438D02*
X166085714Y-76850057D01*
X166085714Y-76850057D02*
X166133333Y-76945295D01*
X166133333Y-76945295D02*
X166133333Y-77088152D01*
X166133333Y-77088152D02*
X166085714Y-77183390D01*
X166085714Y-77183390D02*
X166038095Y-77231009D01*
X166038095Y-77231009D02*
X165942857Y-77278628D01*
X165942857Y-77278628D02*
X165561905Y-77278628D01*
X166609524Y-77754819D02*
X166800000Y-77754819D01*
X166800000Y-77754819D02*
X166895238Y-77707200D01*
X166895238Y-77707200D02*
X166942857Y-77659580D01*
X166942857Y-77659580D02*
X167038095Y-77516723D01*
X167038095Y-77516723D02*
X167085714Y-77326247D01*
X167085714Y-77326247D02*
X167085714Y-76945295D01*
X167085714Y-76945295D02*
X167038095Y-76850057D01*
X167038095Y-76850057D02*
X166990476Y-76802438D01*
X166990476Y-76802438D02*
X166895238Y-76754819D01*
X166895238Y-76754819D02*
X166704762Y-76754819D01*
X166704762Y-76754819D02*
X166609524Y-76802438D01*
X166609524Y-76802438D02*
X166561905Y-76850057D01*
X166561905Y-76850057D02*
X166514286Y-76945295D01*
X166514286Y-76945295D02*
X166514286Y-77183390D01*
X166514286Y-77183390D02*
X166561905Y-77278628D01*
X166561905Y-77278628D02*
X166609524Y-77326247D01*
X166609524Y-77326247D02*
X166704762Y-77373866D01*
X166704762Y-77373866D02*
X166895238Y-77373866D01*
X166895238Y-77373866D02*
X166990476Y-77326247D01*
X166990476Y-77326247D02*
X167038095Y-77278628D01*
X167038095Y-77278628D02*
X167085714Y-77183390D01*
X144794520Y-113939359D02*
X145299596Y-114444435D01*
X145299596Y-114444435D02*
X145366940Y-114579122D01*
X145366940Y-114579122D02*
X145366940Y-114713809D01*
X145366940Y-114713809D02*
X145299596Y-114848496D01*
X145299596Y-114848496D02*
X145232253Y-114915840D01*
X146208734Y-113939359D02*
X145804673Y-114343420D01*
X146006703Y-114141389D02*
X145299596Y-113434282D01*
X145299596Y-113434282D02*
X145333268Y-113602641D01*
X145333268Y-113602641D02*
X145333268Y-113737328D01*
X145333268Y-113737328D02*
X145299596Y-113838343D01*
X146343421Y-112861863D02*
X146814825Y-113333267D01*
X145905688Y-112760847D02*
X146242405Y-113434282D01*
X146242405Y-113434282D02*
X146680138Y-112996550D01*
X123966666Y-112054819D02*
X123966666Y-112769104D01*
X123966666Y-112769104D02*
X123919047Y-112911961D01*
X123919047Y-112911961D02*
X123823809Y-113007200D01*
X123823809Y-113007200D02*
X123680952Y-113054819D01*
X123680952Y-113054819D02*
X123585714Y-113054819D01*
X124966666Y-113054819D02*
X124395238Y-113054819D01*
X124680952Y-113054819D02*
X124680952Y-112054819D01*
X124680952Y-112054819D02*
X124585714Y-112197676D01*
X124585714Y-112197676D02*
X124490476Y-112292914D01*
X124490476Y-112292914D02*
X124395238Y-112340533D01*
X163354819Y-87542857D02*
X162878628Y-87876190D01*
X163354819Y-88114285D02*
X162354819Y-88114285D01*
X162354819Y-88114285D02*
X162354819Y-87733333D01*
X162354819Y-87733333D02*
X162402438Y-87638095D01*
X162402438Y-87638095D02*
X162450057Y-87590476D01*
X162450057Y-87590476D02*
X162545295Y-87542857D01*
X162545295Y-87542857D02*
X162688152Y-87542857D01*
X162688152Y-87542857D02*
X162783390Y-87590476D01*
X162783390Y-87590476D02*
X162831009Y-87638095D01*
X162831009Y-87638095D02*
X162878628Y-87733333D01*
X162878628Y-87733333D02*
X162878628Y-88114285D01*
X163354819Y-86590476D02*
X163354819Y-87161904D01*
X163354819Y-86876190D02*
X162354819Y-86876190D01*
X162354819Y-86876190D02*
X162497676Y-86971428D01*
X162497676Y-86971428D02*
X162592914Y-87066666D01*
X162592914Y-87066666D02*
X162640533Y-87161904D01*
X162783390Y-86019047D02*
X162735771Y-86114285D01*
X162735771Y-86114285D02*
X162688152Y-86161904D01*
X162688152Y-86161904D02*
X162592914Y-86209523D01*
X162592914Y-86209523D02*
X162545295Y-86209523D01*
X162545295Y-86209523D02*
X162450057Y-86161904D01*
X162450057Y-86161904D02*
X162402438Y-86114285D01*
X162402438Y-86114285D02*
X162354819Y-86019047D01*
X162354819Y-86019047D02*
X162354819Y-85828571D01*
X162354819Y-85828571D02*
X162402438Y-85733333D01*
X162402438Y-85733333D02*
X162450057Y-85685714D01*
X162450057Y-85685714D02*
X162545295Y-85638095D01*
X162545295Y-85638095D02*
X162592914Y-85638095D01*
X162592914Y-85638095D02*
X162688152Y-85685714D01*
X162688152Y-85685714D02*
X162735771Y-85733333D01*
X162735771Y-85733333D02*
X162783390Y-85828571D01*
X162783390Y-85828571D02*
X162783390Y-86019047D01*
X162783390Y-86019047D02*
X162831009Y-86114285D01*
X162831009Y-86114285D02*
X162878628Y-86161904D01*
X162878628Y-86161904D02*
X162973866Y-86209523D01*
X162973866Y-86209523D02*
X163164342Y-86209523D01*
X163164342Y-86209523D02*
X163259580Y-86161904D01*
X163259580Y-86161904D02*
X163307200Y-86114285D01*
X163307200Y-86114285D02*
X163354819Y-86019047D01*
X163354819Y-86019047D02*
X163354819Y-85828571D01*
X163354819Y-85828571D02*
X163307200Y-85733333D01*
X163307200Y-85733333D02*
X163259580Y-85685714D01*
X163259580Y-85685714D02*
X163164342Y-85638095D01*
X163164342Y-85638095D02*
X162973866Y-85638095D01*
X162973866Y-85638095D02*
X162878628Y-85685714D01*
X162878628Y-85685714D02*
X162831009Y-85733333D01*
X162831009Y-85733333D02*
X162783390Y-85828571D01*
X144931237Y-91202642D02*
X145436313Y-91707718D01*
X145436313Y-91707718D02*
X145503657Y-91842405D01*
X145503657Y-91842405D02*
X145503657Y-91977092D01*
X145503657Y-91977092D02*
X145436313Y-92111779D01*
X145436313Y-92111779D02*
X145368970Y-92179123D01*
X145200611Y-90933268D02*
X145672016Y-90461863D01*
X145672016Y-90461863D02*
X146076077Y-91472016D01*
X147939658Y-96002398D02*
X147703955Y-96238100D01*
X147703955Y-96238100D02*
X147208981Y-95743125D01*
X147845377Y-95578134D02*
X148010369Y-95413142D01*
X148340352Y-95601704D02*
X148104649Y-95837406D01*
X148104649Y-95837406D02*
X147609675Y-95342431D01*
X147609675Y-95342431D02*
X147845377Y-95106729D01*
X148552484Y-95389572D02*
X148057509Y-94894597D01*
X148057509Y-94894597D02*
X148175360Y-94776746D01*
X148175360Y-94776746D02*
X148269641Y-94729606D01*
X148269641Y-94729606D02*
X148363922Y-94729606D01*
X148363922Y-94729606D02*
X148434632Y-94753176D01*
X148434632Y-94753176D02*
X148552484Y-94823887D01*
X148552484Y-94823887D02*
X148623194Y-94894597D01*
X148623194Y-94894597D02*
X148693905Y-95012448D01*
X148693905Y-95012448D02*
X148717475Y-95083159D01*
X148717475Y-95083159D02*
X148717475Y-95177440D01*
X148717475Y-95177440D02*
X148670335Y-95271721D01*
X148670335Y-95271721D02*
X148552484Y-95389572D01*
X149259590Y-94682465D02*
X148764616Y-94187491D01*
X149236020Y-94658895D02*
X149212450Y-94729606D01*
X149212450Y-94729606D02*
X149118169Y-94823887D01*
X149118169Y-94823887D02*
X149047458Y-94847457D01*
X149047458Y-94847457D02*
X149000318Y-94847457D01*
X149000318Y-94847457D02*
X148929607Y-94823887D01*
X148929607Y-94823887D02*
X148788186Y-94682465D01*
X148788186Y-94682465D02*
X148764616Y-94611755D01*
X148764616Y-94611755D02*
X148764616Y-94564614D01*
X148764616Y-94564614D02*
X148788186Y-94493903D01*
X148788186Y-94493903D02*
X148882467Y-94399623D01*
X148882467Y-94399623D02*
X148953177Y-94376052D01*
X149707424Y-94234631D02*
X149448152Y-93975359D01*
X149448152Y-93975359D02*
X149377441Y-93951789D01*
X149377441Y-93951789D02*
X149306731Y-93975359D01*
X149306731Y-93975359D02*
X149212450Y-94069640D01*
X149212450Y-94069640D02*
X149188879Y-94140350D01*
X149683854Y-94211061D02*
X149660284Y-94281772D01*
X149660284Y-94281772D02*
X149542433Y-94399623D01*
X149542433Y-94399623D02*
X149471722Y-94423193D01*
X149471722Y-94423193D02*
X149401011Y-94399623D01*
X149401011Y-94399623D02*
X149353871Y-94352482D01*
X149353871Y-94352482D02*
X149330301Y-94281772D01*
X149330301Y-94281772D02*
X149353871Y-94211061D01*
X149353871Y-94211061D02*
X149471722Y-94093210D01*
X149471722Y-94093210D02*
X149495292Y-94022499D01*
X149542433Y-93739657D02*
X149730994Y-93551095D01*
X149448152Y-93503954D02*
X149872416Y-93928219D01*
X149872416Y-93928219D02*
X149943126Y-93951789D01*
X149943126Y-93951789D02*
X150013837Y-93928219D01*
X150013837Y-93928219D02*
X150060978Y-93881078D01*
X150438101Y-93503954D02*
X150178829Y-93244682D01*
X150178829Y-93244682D02*
X150108118Y-93221112D01*
X150108118Y-93221112D02*
X150037407Y-93244682D01*
X150037407Y-93244682D02*
X149943126Y-93338963D01*
X149943126Y-93338963D02*
X149919556Y-93409674D01*
X150414531Y-93480384D02*
X150390961Y-93551095D01*
X150390961Y-93551095D02*
X150273110Y-93668946D01*
X150273110Y-93668946D02*
X150202399Y-93692516D01*
X150202399Y-93692516D02*
X150131688Y-93668946D01*
X150131688Y-93668946D02*
X150084548Y-93621806D01*
X150084548Y-93621806D02*
X150060978Y-93551095D01*
X150060978Y-93551095D02*
X150084548Y-93480384D01*
X150084548Y-93480384D02*
X150202399Y-93362533D01*
X150202399Y-93362533D02*
X150225969Y-93291822D01*
X138933333Y-94559580D02*
X138885714Y-94607200D01*
X138885714Y-94607200D02*
X138742857Y-94654819D01*
X138742857Y-94654819D02*
X138647619Y-94654819D01*
X138647619Y-94654819D02*
X138504762Y-94607200D01*
X138504762Y-94607200D02*
X138409524Y-94511961D01*
X138409524Y-94511961D02*
X138361905Y-94416723D01*
X138361905Y-94416723D02*
X138314286Y-94226247D01*
X138314286Y-94226247D02*
X138314286Y-94083390D01*
X138314286Y-94083390D02*
X138361905Y-93892914D01*
X138361905Y-93892914D02*
X138409524Y-93797676D01*
X138409524Y-93797676D02*
X138504762Y-93702438D01*
X138504762Y-93702438D02*
X138647619Y-93654819D01*
X138647619Y-93654819D02*
X138742857Y-93654819D01*
X138742857Y-93654819D02*
X138885714Y-93702438D01*
X138885714Y-93702438D02*
X138933333Y-93750057D01*
X139266667Y-93654819D02*
X139885714Y-93654819D01*
X139885714Y-93654819D02*
X139552381Y-94035771D01*
X139552381Y-94035771D02*
X139695238Y-94035771D01*
X139695238Y-94035771D02*
X139790476Y-94083390D01*
X139790476Y-94083390D02*
X139838095Y-94131009D01*
X139838095Y-94131009D02*
X139885714Y-94226247D01*
X139885714Y-94226247D02*
X139885714Y-94464342D01*
X139885714Y-94464342D02*
X139838095Y-94559580D01*
X139838095Y-94559580D02*
X139790476Y-94607200D01*
X139790476Y-94607200D02*
X139695238Y-94654819D01*
X139695238Y-94654819D02*
X139409524Y-94654819D01*
X139409524Y-94654819D02*
X139314286Y-94607200D01*
X139314286Y-94607200D02*
X139266667Y-94559580D01*
X141494520Y-110539359D02*
X141999596Y-111044435D01*
X141999596Y-111044435D02*
X142066940Y-111179122D01*
X142066940Y-111179122D02*
X142066940Y-111313809D01*
X142066940Y-111313809D02*
X141999596Y-111448496D01*
X141999596Y-111448496D02*
X141932253Y-111515840D01*
X142908734Y-110539359D02*
X142504673Y-110943420D01*
X142706703Y-110741389D02*
X141999596Y-110034282D01*
X141999596Y-110034282D02*
X142033268Y-110202641D01*
X142033268Y-110202641D02*
X142033268Y-110337328D01*
X142033268Y-110337328D02*
X141999596Y-110438343D01*
X142437329Y-109596550D02*
X142875062Y-109158817D01*
X142875062Y-109158817D02*
X142908734Y-109663893D01*
X142908734Y-109663893D02*
X143009749Y-109562878D01*
X143009749Y-109562878D02*
X143110764Y-109529206D01*
X143110764Y-109529206D02*
X143178108Y-109529206D01*
X143178108Y-109529206D02*
X143279123Y-109562878D01*
X143279123Y-109562878D02*
X143447482Y-109731237D01*
X143447482Y-109731237D02*
X143481153Y-109832252D01*
X143481153Y-109832252D02*
X143481153Y-109899595D01*
X143481153Y-109899595D02*
X143447482Y-110000611D01*
X143447482Y-110000611D02*
X143245451Y-110202641D01*
X143245451Y-110202641D02*
X143144436Y-110236313D01*
X143144436Y-110236313D02*
X143077092Y-110236313D01*
X182560476Y-99674819D02*
X182560476Y-100389104D01*
X182560476Y-100389104D02*
X182512857Y-100531961D01*
X182512857Y-100531961D02*
X182417619Y-100627200D01*
X182417619Y-100627200D02*
X182274762Y-100674819D01*
X182274762Y-100674819D02*
X182179524Y-100674819D01*
X183560476Y-100674819D02*
X182989048Y-100674819D01*
X183274762Y-100674819D02*
X183274762Y-99674819D01*
X183274762Y-99674819D02*
X183179524Y-99817676D01*
X183179524Y-99817676D02*
X183084286Y-99912914D01*
X183084286Y-99912914D02*
X182989048Y-99960533D01*
X184036667Y-100674819D02*
X184227143Y-100674819D01*
X184227143Y-100674819D02*
X184322381Y-100627200D01*
X184322381Y-100627200D02*
X184370000Y-100579580D01*
X184370000Y-100579580D02*
X184465238Y-100436723D01*
X184465238Y-100436723D02*
X184512857Y-100246247D01*
X184512857Y-100246247D02*
X184512857Y-99865295D01*
X184512857Y-99865295D02*
X184465238Y-99770057D01*
X184465238Y-99770057D02*
X184417619Y-99722438D01*
X184417619Y-99722438D02*
X184322381Y-99674819D01*
X184322381Y-99674819D02*
X184131905Y-99674819D01*
X184131905Y-99674819D02*
X184036667Y-99722438D01*
X184036667Y-99722438D02*
X183989048Y-99770057D01*
X183989048Y-99770057D02*
X183941429Y-99865295D01*
X183941429Y-99865295D02*
X183941429Y-100103390D01*
X183941429Y-100103390D02*
X183989048Y-100198628D01*
X183989048Y-100198628D02*
X184036667Y-100246247D01*
X184036667Y-100246247D02*
X184131905Y-100293866D01*
X184131905Y-100293866D02*
X184322381Y-100293866D01*
X184322381Y-100293866D02*
X184417619Y-100246247D01*
X184417619Y-100246247D02*
X184465238Y-100198628D01*
X184465238Y-100198628D02*
X184512857Y-100103390D01*
X147186765Y-104188679D02*
X147691841Y-104693755D01*
X147691841Y-104693755D02*
X147759185Y-104828442D01*
X147759185Y-104828442D02*
X147759185Y-104963129D01*
X147759185Y-104963129D02*
X147691841Y-105097816D01*
X147691841Y-105097816D02*
X147624498Y-105165160D01*
X147557154Y-103952976D02*
X147557154Y-103885633D01*
X147557154Y-103885633D02*
X147590826Y-103784618D01*
X147590826Y-103784618D02*
X147759185Y-103616259D01*
X147759185Y-103616259D02*
X147860200Y-103582587D01*
X147860200Y-103582587D02*
X147927544Y-103582587D01*
X147927544Y-103582587D02*
X148028559Y-103616259D01*
X148028559Y-103616259D02*
X148095902Y-103683602D01*
X148095902Y-103683602D02*
X148163246Y-103818289D01*
X148163246Y-103818289D02*
X148163246Y-104626411D01*
X148163246Y-104626411D02*
X148600979Y-104188679D01*
X151001287Y-105410474D02*
X150765585Y-105646177D01*
X150765585Y-105646177D02*
X150270610Y-105151202D01*
X150907007Y-104986210D02*
X151071998Y-104821218D01*
X151401981Y-105009780D02*
X151166279Y-105245482D01*
X151166279Y-105245482D02*
X150671304Y-104750508D01*
X150671304Y-104750508D02*
X150907007Y-104514805D01*
X151614113Y-104797648D02*
X151119138Y-104302674D01*
X151119138Y-104302674D02*
X151236990Y-104184823D01*
X151236990Y-104184823D02*
X151331271Y-104137682D01*
X151331271Y-104137682D02*
X151425551Y-104137682D01*
X151425551Y-104137682D02*
X151496262Y-104161252D01*
X151496262Y-104161252D02*
X151614113Y-104231963D01*
X151614113Y-104231963D02*
X151684824Y-104302674D01*
X151684824Y-104302674D02*
X151755535Y-104420525D01*
X151755535Y-104420525D02*
X151779105Y-104491235D01*
X151779105Y-104491235D02*
X151779105Y-104585516D01*
X151779105Y-104585516D02*
X151731964Y-104679797D01*
X151731964Y-104679797D02*
X151614113Y-104797648D01*
X151731964Y-104019831D02*
X152179799Y-104231963D01*
X152179799Y-104231963D02*
X151967667Y-103784129D01*
X152698343Y-103713418D02*
X152203369Y-103218443D01*
X152674773Y-103689848D02*
X152651203Y-103760559D01*
X152651203Y-103760559D02*
X152556922Y-103854840D01*
X152556922Y-103854840D02*
X152486211Y-103878410D01*
X152486211Y-103878410D02*
X152439071Y-103878410D01*
X152439071Y-103878410D02*
X152368360Y-103854840D01*
X152368360Y-103854840D02*
X152226939Y-103713418D01*
X152226939Y-103713418D02*
X152203369Y-103642708D01*
X152203369Y-103642708D02*
X152203369Y-103595567D01*
X152203369Y-103595567D02*
X152226939Y-103524856D01*
X152226939Y-103524856D02*
X152321220Y-103430576D01*
X152321220Y-103430576D02*
X152391930Y-103407005D01*
X153146177Y-103265584D02*
X152651203Y-102770609D01*
X153122607Y-103242014D02*
X153099037Y-103312725D01*
X153099037Y-103312725D02*
X153004756Y-103407006D01*
X153004756Y-103407006D02*
X152934045Y-103430576D01*
X152934045Y-103430576D02*
X152886905Y-103430576D01*
X152886905Y-103430576D02*
X152816194Y-103407006D01*
X152816194Y-103407006D02*
X152674773Y-103265584D01*
X152674773Y-103265584D02*
X152651203Y-103194873D01*
X152651203Y-103194873D02*
X152651203Y-103147733D01*
X152651203Y-103147733D02*
X152674773Y-103077022D01*
X152674773Y-103077022D02*
X152769054Y-102982741D01*
X152769054Y-102982741D02*
X152839765Y-102959171D01*
X144233333Y-80759580D02*
X144185714Y-80807200D01*
X144185714Y-80807200D02*
X144042857Y-80854819D01*
X144042857Y-80854819D02*
X143947619Y-80854819D01*
X143947619Y-80854819D02*
X143804762Y-80807200D01*
X143804762Y-80807200D02*
X143709524Y-80711961D01*
X143709524Y-80711961D02*
X143661905Y-80616723D01*
X143661905Y-80616723D02*
X143614286Y-80426247D01*
X143614286Y-80426247D02*
X143614286Y-80283390D01*
X143614286Y-80283390D02*
X143661905Y-80092914D01*
X143661905Y-80092914D02*
X143709524Y-79997676D01*
X143709524Y-79997676D02*
X143804762Y-79902438D01*
X143804762Y-79902438D02*
X143947619Y-79854819D01*
X143947619Y-79854819D02*
X144042857Y-79854819D01*
X144042857Y-79854819D02*
X144185714Y-79902438D01*
X144185714Y-79902438D02*
X144233333Y-79950057D01*
X145185714Y-80854819D02*
X144614286Y-80854819D01*
X144900000Y-80854819D02*
X144900000Y-79854819D01*
X144900000Y-79854819D02*
X144804762Y-79997676D01*
X144804762Y-79997676D02*
X144709524Y-80092914D01*
X144709524Y-80092914D02*
X144614286Y-80140533D01*
X161378796Y-107450201D02*
X161883872Y-107955277D01*
X161883872Y-107955277D02*
X161951216Y-108089964D01*
X161951216Y-108089964D02*
X161951216Y-108224651D01*
X161951216Y-108224651D02*
X161883872Y-108359338D01*
X161883872Y-108359338D02*
X161816529Y-108426682D01*
X162254262Y-107046140D02*
X162725666Y-107517544D01*
X161816529Y-106945124D02*
X162153246Y-107618559D01*
X162153246Y-107618559D02*
X162590979Y-107180827D01*
X157918959Y-104963155D02*
X157683257Y-105198858D01*
X157683257Y-105198858D02*
X157188282Y-104703883D01*
X157824679Y-104538891D02*
X157989670Y-104373899D01*
X158319653Y-104562461D02*
X158083951Y-104798163D01*
X158083951Y-104798163D02*
X157588976Y-104303189D01*
X157588976Y-104303189D02*
X157824679Y-104067486D01*
X158531785Y-104350329D02*
X158036810Y-103855355D01*
X158036810Y-103855355D02*
X158154662Y-103737504D01*
X158154662Y-103737504D02*
X158248943Y-103690363D01*
X158248943Y-103690363D02*
X158343223Y-103690363D01*
X158343223Y-103690363D02*
X158413934Y-103713933D01*
X158413934Y-103713933D02*
X158531785Y-103784644D01*
X158531785Y-103784644D02*
X158602496Y-103855355D01*
X158602496Y-103855355D02*
X158673207Y-103973206D01*
X158673207Y-103973206D02*
X158696777Y-104043916D01*
X158696777Y-104043916D02*
X158696777Y-104138197D01*
X158696777Y-104138197D02*
X158649636Y-104232478D01*
X158649636Y-104232478D02*
X158531785Y-104350329D01*
X158649636Y-103572512D02*
X159097471Y-103784644D01*
X159097471Y-103784644D02*
X158885339Y-103336810D01*
X159356743Y-103478231D02*
X159427454Y-103454661D01*
X159427454Y-103454661D02*
X159521734Y-103360380D01*
X159521734Y-103360380D02*
X159545305Y-103289669D01*
X159545305Y-103289669D02*
X159521734Y-103218959D01*
X159521734Y-103218959D02*
X159498164Y-103195389D01*
X159498164Y-103195389D02*
X159427454Y-103171818D01*
X159427454Y-103171818D02*
X159356743Y-103195389D01*
X159356743Y-103195389D02*
X159286032Y-103266099D01*
X159286032Y-103266099D02*
X159215322Y-103289669D01*
X159215322Y-103289669D02*
X159144611Y-103266099D01*
X159144611Y-103266099D02*
X159121041Y-103242529D01*
X159121041Y-103242529D02*
X159097470Y-103171818D01*
X159097470Y-103171818D02*
X159121041Y-103101108D01*
X159121041Y-103101108D02*
X159191751Y-103030397D01*
X159191751Y-103030397D02*
X159262462Y-103006827D01*
X159757437Y-103077537D02*
X159828148Y-103053967D01*
X159828148Y-103053967D02*
X159922429Y-102959686D01*
X159922429Y-102959686D02*
X159945999Y-102888975D01*
X159945999Y-102888975D02*
X159922429Y-102818265D01*
X159922429Y-102818265D02*
X159898858Y-102794694D01*
X159898858Y-102794694D02*
X159828148Y-102771124D01*
X159828148Y-102771124D02*
X159757437Y-102794694D01*
X159757437Y-102794694D02*
X159686726Y-102865405D01*
X159686726Y-102865405D02*
X159616016Y-102888975D01*
X159616016Y-102888975D02*
X159545305Y-102865405D01*
X159545305Y-102865405D02*
X159521735Y-102841835D01*
X159521735Y-102841835D02*
X159498164Y-102771124D01*
X159498164Y-102771124D02*
X159521735Y-102700414D01*
X159521735Y-102700414D02*
X159592445Y-102629703D01*
X159592445Y-102629703D02*
X159663156Y-102606133D01*
X124690476Y-114274819D02*
X124690476Y-114989104D01*
X124690476Y-114989104D02*
X124642857Y-115131961D01*
X124642857Y-115131961D02*
X124547619Y-115227200D01*
X124547619Y-115227200D02*
X124404762Y-115274819D01*
X124404762Y-115274819D02*
X124309524Y-115274819D01*
X125690476Y-115274819D02*
X125119048Y-115274819D01*
X125404762Y-115274819D02*
X125404762Y-114274819D01*
X125404762Y-114274819D02*
X125309524Y-114417676D01*
X125309524Y-114417676D02*
X125214286Y-114512914D01*
X125214286Y-114512914D02*
X125119048Y-114560533D01*
X126595238Y-114274819D02*
X126119048Y-114274819D01*
X126119048Y-114274819D02*
X126071429Y-114751009D01*
X126071429Y-114751009D02*
X126119048Y-114703390D01*
X126119048Y-114703390D02*
X126214286Y-114655771D01*
X126214286Y-114655771D02*
X126452381Y-114655771D01*
X126452381Y-114655771D02*
X126547619Y-114703390D01*
X126547619Y-114703390D02*
X126595238Y-114751009D01*
X126595238Y-114751009D02*
X126642857Y-114846247D01*
X126642857Y-114846247D02*
X126642857Y-115084342D01*
X126642857Y-115084342D02*
X126595238Y-115179580D01*
X126595238Y-115179580D02*
X126547619Y-115227200D01*
X126547619Y-115227200D02*
X126452381Y-115274819D01*
X126452381Y-115274819D02*
X126214286Y-115274819D01*
X126214286Y-115274819D02*
X126119048Y-115227200D01*
X126119048Y-115227200D02*
X126071429Y-115179580D01*
X156057142Y-93154819D02*
X155723809Y-92678628D01*
X155485714Y-93154819D02*
X155485714Y-92154819D01*
X155485714Y-92154819D02*
X155866666Y-92154819D01*
X155866666Y-92154819D02*
X155961904Y-92202438D01*
X155961904Y-92202438D02*
X156009523Y-92250057D01*
X156009523Y-92250057D02*
X156057142Y-92345295D01*
X156057142Y-92345295D02*
X156057142Y-92488152D01*
X156057142Y-92488152D02*
X156009523Y-92583390D01*
X156009523Y-92583390D02*
X155961904Y-92631009D01*
X155961904Y-92631009D02*
X155866666Y-92678628D01*
X155866666Y-92678628D02*
X155485714Y-92678628D01*
X157009523Y-93154819D02*
X156438095Y-93154819D01*
X156723809Y-93154819D02*
X156723809Y-92154819D01*
X156723809Y-92154819D02*
X156628571Y-92297676D01*
X156628571Y-92297676D02*
X156533333Y-92392914D01*
X156533333Y-92392914D02*
X156438095Y-92440533D01*
X157628571Y-92154819D02*
X157723809Y-92154819D01*
X157723809Y-92154819D02*
X157819047Y-92202438D01*
X157819047Y-92202438D02*
X157866666Y-92250057D01*
X157866666Y-92250057D02*
X157914285Y-92345295D01*
X157914285Y-92345295D02*
X157961904Y-92535771D01*
X157961904Y-92535771D02*
X157961904Y-92773866D01*
X157961904Y-92773866D02*
X157914285Y-92964342D01*
X157914285Y-92964342D02*
X157866666Y-93059580D01*
X157866666Y-93059580D02*
X157819047Y-93107200D01*
X157819047Y-93107200D02*
X157723809Y-93154819D01*
X157723809Y-93154819D02*
X157628571Y-93154819D01*
X157628571Y-93154819D02*
X157533333Y-93107200D01*
X157533333Y-93107200D02*
X157485714Y-93059580D01*
X157485714Y-93059580D02*
X157438095Y-92964342D01*
X157438095Y-92964342D02*
X157390476Y-92773866D01*
X157390476Y-92773866D02*
X157390476Y-92535771D01*
X157390476Y-92535771D02*
X157438095Y-92345295D01*
X157438095Y-92345295D02*
X157485714Y-92250057D01*
X157485714Y-92250057D02*
X157533333Y-92202438D01*
X157533333Y-92202438D02*
X157628571Y-92154819D01*
X161254819Y-87542857D02*
X160778628Y-87876190D01*
X161254819Y-88114285D02*
X160254819Y-88114285D01*
X160254819Y-88114285D02*
X160254819Y-87733333D01*
X160254819Y-87733333D02*
X160302438Y-87638095D01*
X160302438Y-87638095D02*
X160350057Y-87590476D01*
X160350057Y-87590476D02*
X160445295Y-87542857D01*
X160445295Y-87542857D02*
X160588152Y-87542857D01*
X160588152Y-87542857D02*
X160683390Y-87590476D01*
X160683390Y-87590476D02*
X160731009Y-87638095D01*
X160731009Y-87638095D02*
X160778628Y-87733333D01*
X160778628Y-87733333D02*
X160778628Y-88114285D01*
X161254819Y-86590476D02*
X161254819Y-87161904D01*
X161254819Y-86876190D02*
X160254819Y-86876190D01*
X160254819Y-86876190D02*
X160397676Y-86971428D01*
X160397676Y-86971428D02*
X160492914Y-87066666D01*
X160492914Y-87066666D02*
X160540533Y-87161904D01*
X160254819Y-85685714D02*
X160254819Y-86161904D01*
X160254819Y-86161904D02*
X160731009Y-86209523D01*
X160731009Y-86209523D02*
X160683390Y-86161904D01*
X160683390Y-86161904D02*
X160635771Y-86066666D01*
X160635771Y-86066666D02*
X160635771Y-85828571D01*
X160635771Y-85828571D02*
X160683390Y-85733333D01*
X160683390Y-85733333D02*
X160731009Y-85685714D01*
X160731009Y-85685714D02*
X160826247Y-85638095D01*
X160826247Y-85638095D02*
X161064342Y-85638095D01*
X161064342Y-85638095D02*
X161159580Y-85685714D01*
X161159580Y-85685714D02*
X161207200Y-85733333D01*
X161207200Y-85733333D02*
X161254819Y-85828571D01*
X161254819Y-85828571D02*
X161254819Y-86066666D01*
X161254819Y-86066666D02*
X161207200Y-86161904D01*
X161207200Y-86161904D02*
X161159580Y-86209523D01*
X163878796Y-110050201D02*
X164383872Y-110555277D01*
X164383872Y-110555277D02*
X164451216Y-110689964D01*
X164451216Y-110689964D02*
X164451216Y-110824651D01*
X164451216Y-110824651D02*
X164383872Y-110959338D01*
X164383872Y-110959338D02*
X164316529Y-111026682D01*
X164619575Y-109915514D02*
X164518559Y-109949185D01*
X164518559Y-109949185D02*
X164451216Y-109949185D01*
X164451216Y-109949185D02*
X164350201Y-109915514D01*
X164350201Y-109915514D02*
X164316529Y-109881842D01*
X164316529Y-109881842D02*
X164282857Y-109780827D01*
X164282857Y-109780827D02*
X164282857Y-109713483D01*
X164282857Y-109713483D02*
X164316529Y-109612468D01*
X164316529Y-109612468D02*
X164451216Y-109477781D01*
X164451216Y-109477781D02*
X164552231Y-109444109D01*
X164552231Y-109444109D02*
X164619575Y-109444109D01*
X164619575Y-109444109D02*
X164720590Y-109477781D01*
X164720590Y-109477781D02*
X164754262Y-109511453D01*
X164754262Y-109511453D02*
X164787933Y-109612468D01*
X164787933Y-109612468D02*
X164787933Y-109679811D01*
X164787933Y-109679811D02*
X164754262Y-109780827D01*
X164754262Y-109780827D02*
X164619575Y-109915514D01*
X164619575Y-109915514D02*
X164585903Y-110016529D01*
X164585903Y-110016529D02*
X164585903Y-110083872D01*
X164585903Y-110083872D02*
X164619575Y-110184888D01*
X164619575Y-110184888D02*
X164754262Y-110319575D01*
X164754262Y-110319575D02*
X164855277Y-110353246D01*
X164855277Y-110353246D02*
X164922620Y-110353246D01*
X164922620Y-110353246D02*
X165023636Y-110319575D01*
X165023636Y-110319575D02*
X165158323Y-110184888D01*
X165158323Y-110184888D02*
X165191994Y-110083872D01*
X165191994Y-110083872D02*
X165191994Y-110016529D01*
X165191994Y-110016529D02*
X165158323Y-109915514D01*
X165158323Y-109915514D02*
X165023636Y-109780827D01*
X165023636Y-109780827D02*
X164922620Y-109747155D01*
X164922620Y-109747155D02*
X164855277Y-109747155D01*
X164855277Y-109747155D02*
X164754262Y-109780827D01*
X167027872Y-115014183D02*
X166792170Y-115249886D01*
X166792170Y-115249886D02*
X166297195Y-114754911D01*
X166933592Y-114589919D02*
X167098583Y-114424927D01*
X167428566Y-114613489D02*
X167192864Y-114849191D01*
X167192864Y-114849191D02*
X166697889Y-114354217D01*
X166697889Y-114354217D02*
X166933592Y-114118514D01*
X167640698Y-114401357D02*
X167145723Y-113906383D01*
X167145723Y-113906383D02*
X167263575Y-113788532D01*
X167263575Y-113788532D02*
X167357855Y-113741391D01*
X167357855Y-113741391D02*
X167452136Y-113741391D01*
X167452136Y-113741391D02*
X167522847Y-113764961D01*
X167522847Y-113764961D02*
X167640698Y-113835672D01*
X167640698Y-113835672D02*
X167711409Y-113906383D01*
X167711409Y-113906383D02*
X167782120Y-114024234D01*
X167782120Y-114024234D02*
X167805690Y-114094944D01*
X167805690Y-114094944D02*
X167805690Y-114189225D01*
X167805690Y-114189225D02*
X167758549Y-114283506D01*
X167758549Y-114283506D02*
X167640698Y-114401357D01*
X168394945Y-113647110D02*
X168112103Y-113929953D01*
X168253524Y-113788532D02*
X167758549Y-113293557D01*
X167758549Y-113293557D02*
X167782120Y-113411408D01*
X167782120Y-113411408D02*
X167782120Y-113505689D01*
X167782120Y-113505689D02*
X167758549Y-113576400D01*
X168677788Y-113364267D02*
X168607078Y-113387837D01*
X168607078Y-113387837D02*
X168559937Y-113387837D01*
X168559937Y-113387837D02*
X168489227Y-113364267D01*
X168489227Y-113364267D02*
X168347805Y-113222846D01*
X168347805Y-113222846D02*
X168324235Y-113152135D01*
X168324235Y-113152135D02*
X168324235Y-113104995D01*
X168324235Y-113104995D02*
X168347805Y-113034284D01*
X168347805Y-113034284D02*
X168418516Y-112963573D01*
X168418516Y-112963573D02*
X168489227Y-112940003D01*
X168489227Y-112940003D02*
X168536367Y-112940003D01*
X168536367Y-112940003D02*
X168607078Y-112963573D01*
X168607078Y-112963573D02*
X168748499Y-113104995D01*
X168748499Y-113104995D02*
X168772069Y-113175705D01*
X168772069Y-113175705D02*
X168772069Y-113222846D01*
X168772069Y-113222846D02*
X168748499Y-113293557D01*
X168748499Y-113293557D02*
X168677788Y-113364267D01*
X168937061Y-112445029D02*
X169267044Y-112775012D01*
X168724929Y-112657161D02*
X168984201Y-112916433D01*
X168984201Y-112916433D02*
X169054912Y-112940003D01*
X169054912Y-112940003D02*
X169125622Y-112916433D01*
X169125622Y-112916433D02*
X169196333Y-112845723D01*
X169196333Y-112845723D02*
X169219903Y-112775012D01*
X169219903Y-112775012D02*
X169219903Y-112727871D01*
X169102052Y-112280037D02*
X169290614Y-112091476D01*
X169007771Y-112044335D02*
X169432035Y-112468599D01*
X169432035Y-112468599D02*
X169502746Y-112492169D01*
X169502746Y-112492169D02*
X169573456Y-112468599D01*
X169573456Y-112468599D02*
X169620597Y-112421459D01*
X148633333Y-89659580D02*
X148585714Y-89707200D01*
X148585714Y-89707200D02*
X148442857Y-89754819D01*
X148442857Y-89754819D02*
X148347619Y-89754819D01*
X148347619Y-89754819D02*
X148204762Y-89707200D01*
X148204762Y-89707200D02*
X148109524Y-89611961D01*
X148109524Y-89611961D02*
X148061905Y-89516723D01*
X148061905Y-89516723D02*
X148014286Y-89326247D01*
X148014286Y-89326247D02*
X148014286Y-89183390D01*
X148014286Y-89183390D02*
X148061905Y-88992914D01*
X148061905Y-88992914D02*
X148109524Y-88897676D01*
X148109524Y-88897676D02*
X148204762Y-88802438D01*
X148204762Y-88802438D02*
X148347619Y-88754819D01*
X148347619Y-88754819D02*
X148442857Y-88754819D01*
X148442857Y-88754819D02*
X148585714Y-88802438D01*
X148585714Y-88802438D02*
X148633333Y-88850057D01*
X149204762Y-89183390D02*
X149109524Y-89135771D01*
X149109524Y-89135771D02*
X149061905Y-89088152D01*
X149061905Y-89088152D02*
X149014286Y-88992914D01*
X149014286Y-88992914D02*
X149014286Y-88945295D01*
X149014286Y-88945295D02*
X149061905Y-88850057D01*
X149061905Y-88850057D02*
X149109524Y-88802438D01*
X149109524Y-88802438D02*
X149204762Y-88754819D01*
X149204762Y-88754819D02*
X149395238Y-88754819D01*
X149395238Y-88754819D02*
X149490476Y-88802438D01*
X149490476Y-88802438D02*
X149538095Y-88850057D01*
X149538095Y-88850057D02*
X149585714Y-88945295D01*
X149585714Y-88945295D02*
X149585714Y-88992914D01*
X149585714Y-88992914D02*
X149538095Y-89088152D01*
X149538095Y-89088152D02*
X149490476Y-89135771D01*
X149490476Y-89135771D02*
X149395238Y-89183390D01*
X149395238Y-89183390D02*
X149204762Y-89183390D01*
X149204762Y-89183390D02*
X149109524Y-89231009D01*
X149109524Y-89231009D02*
X149061905Y-89278628D01*
X149061905Y-89278628D02*
X149014286Y-89373866D01*
X149014286Y-89373866D02*
X149014286Y-89564342D01*
X149014286Y-89564342D02*
X149061905Y-89659580D01*
X149061905Y-89659580D02*
X149109524Y-89707200D01*
X149109524Y-89707200D02*
X149204762Y-89754819D01*
X149204762Y-89754819D02*
X149395238Y-89754819D01*
X149395238Y-89754819D02*
X149490476Y-89707200D01*
X149490476Y-89707200D02*
X149538095Y-89659580D01*
X149538095Y-89659580D02*
X149585714Y-89564342D01*
X149585714Y-89564342D02*
X149585714Y-89373866D01*
X149585714Y-89373866D02*
X149538095Y-89278628D01*
X149538095Y-89278628D02*
X149490476Y-89231009D01*
X149490476Y-89231009D02*
X149395238Y-89183390D01*
X134770833Y-81059580D02*
X134723214Y-81107200D01*
X134723214Y-81107200D02*
X134580357Y-81154819D01*
X134580357Y-81154819D02*
X134485119Y-81154819D01*
X134485119Y-81154819D02*
X134342262Y-81107200D01*
X134342262Y-81107200D02*
X134247024Y-81011961D01*
X134247024Y-81011961D02*
X134199405Y-80916723D01*
X134199405Y-80916723D02*
X134151786Y-80726247D01*
X134151786Y-80726247D02*
X134151786Y-80583390D01*
X134151786Y-80583390D02*
X134199405Y-80392914D01*
X134199405Y-80392914D02*
X134247024Y-80297676D01*
X134247024Y-80297676D02*
X134342262Y-80202438D01*
X134342262Y-80202438D02*
X134485119Y-80154819D01*
X134485119Y-80154819D02*
X134580357Y-80154819D01*
X134580357Y-80154819D02*
X134723214Y-80202438D01*
X134723214Y-80202438D02*
X134770833Y-80250057D01*
X135247024Y-81154819D02*
X135437500Y-81154819D01*
X135437500Y-81154819D02*
X135532738Y-81107200D01*
X135532738Y-81107200D02*
X135580357Y-81059580D01*
X135580357Y-81059580D02*
X135675595Y-80916723D01*
X135675595Y-80916723D02*
X135723214Y-80726247D01*
X135723214Y-80726247D02*
X135723214Y-80345295D01*
X135723214Y-80345295D02*
X135675595Y-80250057D01*
X135675595Y-80250057D02*
X135627976Y-80202438D01*
X135627976Y-80202438D02*
X135532738Y-80154819D01*
X135532738Y-80154819D02*
X135342262Y-80154819D01*
X135342262Y-80154819D02*
X135247024Y-80202438D01*
X135247024Y-80202438D02*
X135199405Y-80250057D01*
X135199405Y-80250057D02*
X135151786Y-80345295D01*
X135151786Y-80345295D02*
X135151786Y-80583390D01*
X135151786Y-80583390D02*
X135199405Y-80678628D01*
X135199405Y-80678628D02*
X135247024Y-80726247D01*
X135247024Y-80726247D02*
X135342262Y-80773866D01*
X135342262Y-80773866D02*
X135532738Y-80773866D01*
X135532738Y-80773866D02*
X135627976Y-80726247D01*
X135627976Y-80726247D02*
X135675595Y-80678628D01*
X135675595Y-80678628D02*
X135723214Y-80583390D01*
X154735293Y-101607917D02*
X155240369Y-102112993D01*
X155240369Y-102112993D02*
X155307713Y-102247680D01*
X155307713Y-102247680D02*
X155307713Y-102382367D01*
X155307713Y-102382367D02*
X155240369Y-102517054D01*
X155240369Y-102517054D02*
X155173026Y-102584398D01*
X155004667Y-101338543D02*
X155442400Y-100900810D01*
X155442400Y-100900810D02*
X155476072Y-101405886D01*
X155476072Y-101405886D02*
X155577087Y-101304871D01*
X155577087Y-101304871D02*
X155678102Y-101271199D01*
X155678102Y-101271199D02*
X155745446Y-101271199D01*
X155745446Y-101271199D02*
X155846461Y-101304871D01*
X155846461Y-101304871D02*
X156014820Y-101473230D01*
X156014820Y-101473230D02*
X156048491Y-101574245D01*
X156048491Y-101574245D02*
X156048491Y-101641588D01*
X156048491Y-101641588D02*
X156014820Y-101742604D01*
X156014820Y-101742604D02*
X155812789Y-101944634D01*
X155812789Y-101944634D02*
X155711774Y-101978306D01*
X155711774Y-101978306D02*
X155644430Y-101978306D01*
X157121937Y-96218875D02*
X156886234Y-95983173D01*
X156886234Y-95983173D02*
X157381209Y-95488198D01*
X157546201Y-96124595D02*
X157711193Y-96289586D01*
X157522631Y-96619569D02*
X157286929Y-96383867D01*
X157286929Y-96383867D02*
X157781903Y-95888892D01*
X157781903Y-95888892D02*
X158017606Y-96124595D01*
X157734763Y-96831701D02*
X158229737Y-96336726D01*
X158229737Y-96336726D02*
X158347588Y-96454578D01*
X158347588Y-96454578D02*
X158394729Y-96548859D01*
X158394729Y-96548859D02*
X158394729Y-96643139D01*
X158394729Y-96643139D02*
X158371159Y-96713850D01*
X158371159Y-96713850D02*
X158300448Y-96831701D01*
X158300448Y-96831701D02*
X158229737Y-96902412D01*
X158229737Y-96902412D02*
X158111886Y-96973123D01*
X158111886Y-96973123D02*
X158041176Y-96996693D01*
X158041176Y-96996693D02*
X157946895Y-96996693D01*
X157946895Y-96996693D02*
X157852614Y-96949552D01*
X157852614Y-96949552D02*
X157734763Y-96831701D01*
X158512580Y-96949552D02*
X158300448Y-97397387D01*
X158300448Y-97397387D02*
X158748282Y-97185255D01*
X158818993Y-97915931D02*
X159313968Y-97420957D01*
X158842563Y-97892361D02*
X158771852Y-97868791D01*
X158771852Y-97868791D02*
X158677571Y-97774510D01*
X158677571Y-97774510D02*
X158654001Y-97703799D01*
X158654001Y-97703799D02*
X158654001Y-97656659D01*
X158654001Y-97656659D02*
X158677571Y-97585948D01*
X158677571Y-97585948D02*
X158818993Y-97444527D01*
X158818993Y-97444527D02*
X158889703Y-97420957D01*
X158889703Y-97420957D02*
X158936844Y-97420957D01*
X158936844Y-97420957D02*
X159007555Y-97444527D01*
X159007555Y-97444527D02*
X159101835Y-97538808D01*
X159101835Y-97538808D02*
X159125406Y-97609518D01*
X159266827Y-98363765D02*
X159761802Y-97868791D01*
X159290397Y-98340195D02*
X159219686Y-98316625D01*
X159219686Y-98316625D02*
X159125405Y-98222344D01*
X159125405Y-98222344D02*
X159101835Y-98151633D01*
X159101835Y-98151633D02*
X159101835Y-98104493D01*
X159101835Y-98104493D02*
X159125405Y-98033782D01*
X159125405Y-98033782D02*
X159266827Y-97892361D01*
X159266827Y-97892361D02*
X159337538Y-97868791D01*
X159337538Y-97868791D02*
X159384678Y-97868791D01*
X159384678Y-97868791D02*
X159455389Y-97892361D01*
X159455389Y-97892361D02*
X159549670Y-97986642D01*
X159549670Y-97986642D02*
X159573240Y-98057353D01*
X134294642Y-76159580D02*
X134247023Y-76207200D01*
X134247023Y-76207200D02*
X134104166Y-76254819D01*
X134104166Y-76254819D02*
X134008928Y-76254819D01*
X134008928Y-76254819D02*
X133866071Y-76207200D01*
X133866071Y-76207200D02*
X133770833Y-76111961D01*
X133770833Y-76111961D02*
X133723214Y-76016723D01*
X133723214Y-76016723D02*
X133675595Y-75826247D01*
X133675595Y-75826247D02*
X133675595Y-75683390D01*
X133675595Y-75683390D02*
X133723214Y-75492914D01*
X133723214Y-75492914D02*
X133770833Y-75397676D01*
X133770833Y-75397676D02*
X133866071Y-75302438D01*
X133866071Y-75302438D02*
X134008928Y-75254819D01*
X134008928Y-75254819D02*
X134104166Y-75254819D01*
X134104166Y-75254819D02*
X134247023Y-75302438D01*
X134247023Y-75302438D02*
X134294642Y-75350057D01*
X135247023Y-76254819D02*
X134675595Y-76254819D01*
X134961309Y-76254819D02*
X134961309Y-75254819D01*
X134961309Y-75254819D02*
X134866071Y-75397676D01*
X134866071Y-75397676D02*
X134770833Y-75492914D01*
X134770833Y-75492914D02*
X134675595Y-75540533D01*
X136199404Y-76254819D02*
X135627976Y-76254819D01*
X135913690Y-76254819D02*
X135913690Y-75254819D01*
X135913690Y-75254819D02*
X135818452Y-75397676D01*
X135818452Y-75397676D02*
X135723214Y-75492914D01*
X135723214Y-75492914D02*
X135627976Y-75540533D01*
X166557142Y-128954819D02*
X166223809Y-128478628D01*
X165985714Y-128954819D02*
X165985714Y-127954819D01*
X165985714Y-127954819D02*
X166366666Y-127954819D01*
X166366666Y-127954819D02*
X166461904Y-128002438D01*
X166461904Y-128002438D02*
X166509523Y-128050057D01*
X166509523Y-128050057D02*
X166557142Y-128145295D01*
X166557142Y-128145295D02*
X166557142Y-128288152D01*
X166557142Y-128288152D02*
X166509523Y-128383390D01*
X166509523Y-128383390D02*
X166461904Y-128431009D01*
X166461904Y-128431009D02*
X166366666Y-128478628D01*
X166366666Y-128478628D02*
X165985714Y-128478628D01*
X167509523Y-128954819D02*
X166938095Y-128954819D01*
X167223809Y-128954819D02*
X167223809Y-127954819D01*
X167223809Y-127954819D02*
X167128571Y-128097676D01*
X167128571Y-128097676D02*
X167033333Y-128192914D01*
X167033333Y-128192914D02*
X166938095Y-128240533D01*
X167890476Y-128050057D02*
X167938095Y-128002438D01*
X167938095Y-128002438D02*
X168033333Y-127954819D01*
X168033333Y-127954819D02*
X168271428Y-127954819D01*
X168271428Y-127954819D02*
X168366666Y-128002438D01*
X168366666Y-128002438D02*
X168414285Y-128050057D01*
X168414285Y-128050057D02*
X168461904Y-128145295D01*
X168461904Y-128145295D02*
X168461904Y-128240533D01*
X168461904Y-128240533D02*
X168414285Y-128383390D01*
X168414285Y-128383390D02*
X167842857Y-128954819D01*
X167842857Y-128954819D02*
X168461904Y-128954819D01*
X122157142Y-100859580D02*
X122109523Y-100907200D01*
X122109523Y-100907200D02*
X121966666Y-100954819D01*
X121966666Y-100954819D02*
X121871428Y-100954819D01*
X121871428Y-100954819D02*
X121728571Y-100907200D01*
X121728571Y-100907200D02*
X121633333Y-100811961D01*
X121633333Y-100811961D02*
X121585714Y-100716723D01*
X121585714Y-100716723D02*
X121538095Y-100526247D01*
X121538095Y-100526247D02*
X121538095Y-100383390D01*
X121538095Y-100383390D02*
X121585714Y-100192914D01*
X121585714Y-100192914D02*
X121633333Y-100097676D01*
X121633333Y-100097676D02*
X121728571Y-100002438D01*
X121728571Y-100002438D02*
X121871428Y-99954819D01*
X121871428Y-99954819D02*
X121966666Y-99954819D01*
X121966666Y-99954819D02*
X122109523Y-100002438D01*
X122109523Y-100002438D02*
X122157142Y-100050057D01*
X123109523Y-100954819D02*
X122538095Y-100954819D01*
X122823809Y-100954819D02*
X122823809Y-99954819D01*
X122823809Y-99954819D02*
X122728571Y-100097676D01*
X122728571Y-100097676D02*
X122633333Y-100192914D01*
X122633333Y-100192914D02*
X122538095Y-100240533D01*
X123728571Y-99954819D02*
X123823809Y-99954819D01*
X123823809Y-99954819D02*
X123919047Y-100002438D01*
X123919047Y-100002438D02*
X123966666Y-100050057D01*
X123966666Y-100050057D02*
X124014285Y-100145295D01*
X124014285Y-100145295D02*
X124061904Y-100335771D01*
X124061904Y-100335771D02*
X124061904Y-100573866D01*
X124061904Y-100573866D02*
X124014285Y-100764342D01*
X124014285Y-100764342D02*
X123966666Y-100859580D01*
X123966666Y-100859580D02*
X123919047Y-100907200D01*
X123919047Y-100907200D02*
X123823809Y-100954819D01*
X123823809Y-100954819D02*
X123728571Y-100954819D01*
X123728571Y-100954819D02*
X123633333Y-100907200D01*
X123633333Y-100907200D02*
X123585714Y-100859580D01*
X123585714Y-100859580D02*
X123538095Y-100764342D01*
X123538095Y-100764342D02*
X123490476Y-100573866D01*
X123490476Y-100573866D02*
X123490476Y-100335771D01*
X123490476Y-100335771D02*
X123538095Y-100145295D01*
X123538095Y-100145295D02*
X123585714Y-100050057D01*
X123585714Y-100050057D02*
X123633333Y-100002438D01*
X123633333Y-100002438D02*
X123728571Y-99954819D01*
X173317200Y-105983332D02*
X173364819Y-105840475D01*
X173364819Y-105840475D02*
X173364819Y-105602380D01*
X173364819Y-105602380D02*
X173317200Y-105507142D01*
X173317200Y-105507142D02*
X173269580Y-105459523D01*
X173269580Y-105459523D02*
X173174342Y-105411904D01*
X173174342Y-105411904D02*
X173079104Y-105411904D01*
X173079104Y-105411904D02*
X172983866Y-105459523D01*
X172983866Y-105459523D02*
X172936247Y-105507142D01*
X172936247Y-105507142D02*
X172888628Y-105602380D01*
X172888628Y-105602380D02*
X172841009Y-105792856D01*
X172841009Y-105792856D02*
X172793390Y-105888094D01*
X172793390Y-105888094D02*
X172745771Y-105935713D01*
X172745771Y-105935713D02*
X172650533Y-105983332D01*
X172650533Y-105983332D02*
X172555295Y-105983332D01*
X172555295Y-105983332D02*
X172460057Y-105935713D01*
X172460057Y-105935713D02*
X172412438Y-105888094D01*
X172412438Y-105888094D02*
X172364819Y-105792856D01*
X172364819Y-105792856D02*
X172364819Y-105554761D01*
X172364819Y-105554761D02*
X172412438Y-105411904D01*
X172364819Y-105078570D02*
X173364819Y-104840475D01*
X173364819Y-104840475D02*
X172650533Y-104649999D01*
X172650533Y-104649999D02*
X173364819Y-104459523D01*
X173364819Y-104459523D02*
X172364819Y-104221428D01*
X172698152Y-103411904D02*
X173364819Y-103411904D01*
X172317200Y-103649999D02*
X173031485Y-103888094D01*
X173031485Y-103888094D02*
X173031485Y-103269047D01*
X166621009Y-108292857D02*
X166668628Y-108150000D01*
X166668628Y-108150000D02*
X166716247Y-108102381D01*
X166716247Y-108102381D02*
X166811485Y-108054762D01*
X166811485Y-108054762D02*
X166954342Y-108054762D01*
X166954342Y-108054762D02*
X167049580Y-108102381D01*
X167049580Y-108102381D02*
X167097200Y-108150000D01*
X167097200Y-108150000D02*
X167144819Y-108245238D01*
X167144819Y-108245238D02*
X167144819Y-108626190D01*
X167144819Y-108626190D02*
X166144819Y-108626190D01*
X166144819Y-108626190D02*
X166144819Y-108292857D01*
X166144819Y-108292857D02*
X166192438Y-108197619D01*
X166192438Y-108197619D02*
X166240057Y-108150000D01*
X166240057Y-108150000D02*
X166335295Y-108102381D01*
X166335295Y-108102381D02*
X166430533Y-108102381D01*
X166430533Y-108102381D02*
X166525771Y-108150000D01*
X166525771Y-108150000D02*
X166573390Y-108197619D01*
X166573390Y-108197619D02*
X166621009Y-108292857D01*
X166621009Y-108292857D02*
X166621009Y-108626190D01*
X167144819Y-107483333D02*
X167097200Y-107578571D01*
X167097200Y-107578571D02*
X167049580Y-107626190D01*
X167049580Y-107626190D02*
X166954342Y-107673809D01*
X166954342Y-107673809D02*
X166668628Y-107673809D01*
X166668628Y-107673809D02*
X166573390Y-107626190D01*
X166573390Y-107626190D02*
X166525771Y-107578571D01*
X166525771Y-107578571D02*
X166478152Y-107483333D01*
X166478152Y-107483333D02*
X166478152Y-107340476D01*
X166478152Y-107340476D02*
X166525771Y-107245238D01*
X166525771Y-107245238D02*
X166573390Y-107197619D01*
X166573390Y-107197619D02*
X166668628Y-107150000D01*
X166668628Y-107150000D02*
X166954342Y-107150000D01*
X166954342Y-107150000D02*
X167049580Y-107197619D01*
X167049580Y-107197619D02*
X167097200Y-107245238D01*
X167097200Y-107245238D02*
X167144819Y-107340476D01*
X167144819Y-107340476D02*
X167144819Y-107483333D01*
X167144819Y-106578571D02*
X167097200Y-106673809D01*
X167097200Y-106673809D02*
X167049580Y-106721428D01*
X167049580Y-106721428D02*
X166954342Y-106769047D01*
X166954342Y-106769047D02*
X166668628Y-106769047D01*
X166668628Y-106769047D02*
X166573390Y-106721428D01*
X166573390Y-106721428D02*
X166525771Y-106673809D01*
X166525771Y-106673809D02*
X166478152Y-106578571D01*
X166478152Y-106578571D02*
X166478152Y-106435714D01*
X166478152Y-106435714D02*
X166525771Y-106340476D01*
X166525771Y-106340476D02*
X166573390Y-106292857D01*
X166573390Y-106292857D02*
X166668628Y-106245238D01*
X166668628Y-106245238D02*
X166954342Y-106245238D01*
X166954342Y-106245238D02*
X167049580Y-106292857D01*
X167049580Y-106292857D02*
X167097200Y-106340476D01*
X167097200Y-106340476D02*
X167144819Y-106435714D01*
X167144819Y-106435714D02*
X167144819Y-106578571D01*
X166478152Y-105959523D02*
X166478152Y-105578571D01*
X166144819Y-105816666D02*
X167001961Y-105816666D01*
X167001961Y-105816666D02*
X167097200Y-105769047D01*
X167097200Y-105769047D02*
X167144819Y-105673809D01*
X167144819Y-105673809D02*
X167144819Y-105578571D01*
X166097200Y-104530952D02*
X167382914Y-105388094D01*
X166621009Y-103864285D02*
X166621009Y-104197618D01*
X167144819Y-104197618D02*
X166144819Y-104197618D01*
X166144819Y-104197618D02*
X166144819Y-103721428D01*
X167144819Y-103197618D02*
X167097200Y-103292856D01*
X167097200Y-103292856D02*
X167001961Y-103340475D01*
X167001961Y-103340475D02*
X166144819Y-103340475D01*
X167144819Y-102388094D02*
X166621009Y-102388094D01*
X166621009Y-102388094D02*
X166525771Y-102435713D01*
X166525771Y-102435713D02*
X166478152Y-102530951D01*
X166478152Y-102530951D02*
X166478152Y-102721427D01*
X166478152Y-102721427D02*
X166525771Y-102816665D01*
X167097200Y-102388094D02*
X167144819Y-102483332D01*
X167144819Y-102483332D02*
X167144819Y-102721427D01*
X167144819Y-102721427D02*
X167097200Y-102816665D01*
X167097200Y-102816665D02*
X167001961Y-102864284D01*
X167001961Y-102864284D02*
X166906723Y-102864284D01*
X166906723Y-102864284D02*
X166811485Y-102816665D01*
X166811485Y-102816665D02*
X166763866Y-102721427D01*
X166763866Y-102721427D02*
X166763866Y-102483332D01*
X166763866Y-102483332D02*
X166716247Y-102388094D01*
X167097200Y-101959522D02*
X167144819Y-101864284D01*
X167144819Y-101864284D02*
X167144819Y-101673808D01*
X167144819Y-101673808D02*
X167097200Y-101578570D01*
X167097200Y-101578570D02*
X167001961Y-101530951D01*
X167001961Y-101530951D02*
X166954342Y-101530951D01*
X166954342Y-101530951D02*
X166859104Y-101578570D01*
X166859104Y-101578570D02*
X166811485Y-101673808D01*
X166811485Y-101673808D02*
X166811485Y-101816665D01*
X166811485Y-101816665D02*
X166763866Y-101911903D01*
X166763866Y-101911903D02*
X166668628Y-101959522D01*
X166668628Y-101959522D02*
X166621009Y-101959522D01*
X166621009Y-101959522D02*
X166525771Y-101911903D01*
X166525771Y-101911903D02*
X166478152Y-101816665D01*
X166478152Y-101816665D02*
X166478152Y-101673808D01*
X166478152Y-101673808D02*
X166525771Y-101578570D01*
X167144819Y-101102379D02*
X166144819Y-101102379D01*
X167144819Y-100673808D02*
X166621009Y-100673808D01*
X166621009Y-100673808D02*
X166525771Y-100721427D01*
X166525771Y-100721427D02*
X166478152Y-100816665D01*
X166478152Y-100816665D02*
X166478152Y-100959522D01*
X166478152Y-100959522D02*
X166525771Y-101054760D01*
X166525771Y-101054760D02*
X166573390Y-101102379D01*
X131033333Y-92759580D02*
X130985714Y-92807200D01*
X130985714Y-92807200D02*
X130842857Y-92854819D01*
X130842857Y-92854819D02*
X130747619Y-92854819D01*
X130747619Y-92854819D02*
X130604762Y-92807200D01*
X130604762Y-92807200D02*
X130509524Y-92711961D01*
X130509524Y-92711961D02*
X130461905Y-92616723D01*
X130461905Y-92616723D02*
X130414286Y-92426247D01*
X130414286Y-92426247D02*
X130414286Y-92283390D01*
X130414286Y-92283390D02*
X130461905Y-92092914D01*
X130461905Y-92092914D02*
X130509524Y-91997676D01*
X130509524Y-91997676D02*
X130604762Y-91902438D01*
X130604762Y-91902438D02*
X130747619Y-91854819D01*
X130747619Y-91854819D02*
X130842857Y-91854819D01*
X130842857Y-91854819D02*
X130985714Y-91902438D01*
X130985714Y-91902438D02*
X131033333Y-91950057D01*
X131938095Y-91854819D02*
X131461905Y-91854819D01*
X131461905Y-91854819D02*
X131414286Y-92331009D01*
X131414286Y-92331009D02*
X131461905Y-92283390D01*
X131461905Y-92283390D02*
X131557143Y-92235771D01*
X131557143Y-92235771D02*
X131795238Y-92235771D01*
X131795238Y-92235771D02*
X131890476Y-92283390D01*
X131890476Y-92283390D02*
X131938095Y-92331009D01*
X131938095Y-92331009D02*
X131985714Y-92426247D01*
X131985714Y-92426247D02*
X131985714Y-92664342D01*
X131985714Y-92664342D02*
X131938095Y-92759580D01*
X131938095Y-92759580D02*
X131890476Y-92807200D01*
X131890476Y-92807200D02*
X131795238Y-92854819D01*
X131795238Y-92854819D02*
X131557143Y-92854819D01*
X131557143Y-92854819D02*
X131461905Y-92807200D01*
X131461905Y-92807200D02*
X131414286Y-92759580D01*
X159842079Y-95286918D02*
X160347155Y-95791994D01*
X160347155Y-95791994D02*
X160414499Y-95926681D01*
X160414499Y-95926681D02*
X160414499Y-96061368D01*
X160414499Y-96061368D02*
X160347155Y-96196055D01*
X160347155Y-96196055D02*
X160279812Y-96263399D01*
X161256293Y-95286918D02*
X160852232Y-95690979D01*
X161054262Y-95488948D02*
X160347155Y-94781841D01*
X160347155Y-94781841D02*
X160380827Y-94950200D01*
X160380827Y-94950200D02*
X160380827Y-95084887D01*
X160380827Y-95084887D02*
X160347155Y-95185902D01*
X161929728Y-94613483D02*
X161525667Y-95017544D01*
X161727697Y-94815513D02*
X161020590Y-94108406D01*
X161020590Y-94108406D02*
X161054262Y-94276765D01*
X161054262Y-94276765D02*
X161054262Y-94411452D01*
X161054262Y-94411452D02*
X161020590Y-94512467D01*
X159227801Y-93919137D02*
X158992098Y-94154839D01*
X158992098Y-94154839D02*
X158497124Y-93659864D01*
X159133520Y-93494873D02*
X159298512Y-93329881D01*
X159628495Y-93518443D02*
X159392793Y-93754145D01*
X159392793Y-93754145D02*
X158897818Y-93259170D01*
X158897818Y-93259170D02*
X159133520Y-93023468D01*
X159840627Y-93306311D02*
X159345652Y-92811336D01*
X159345652Y-92811336D02*
X159463503Y-92693485D01*
X159463503Y-92693485D02*
X159557784Y-92646345D01*
X159557784Y-92646345D02*
X159652065Y-92646345D01*
X159652065Y-92646345D02*
X159722775Y-92669915D01*
X159722775Y-92669915D02*
X159840627Y-92740626D01*
X159840627Y-92740626D02*
X159911337Y-92811336D01*
X159911337Y-92811336D02*
X159982048Y-92929187D01*
X159982048Y-92929187D02*
X160005618Y-92999898D01*
X160005618Y-92999898D02*
X160005618Y-93094179D01*
X160005618Y-93094179D02*
X159958478Y-93188460D01*
X159958478Y-93188460D02*
X159840627Y-93306311D01*
X159864197Y-92387072D02*
X159864197Y-92339932D01*
X159864197Y-92339932D02*
X159887767Y-92269221D01*
X159887767Y-92269221D02*
X160005618Y-92151370D01*
X160005618Y-92151370D02*
X160076329Y-92127800D01*
X160076329Y-92127800D02*
X160123469Y-92127800D01*
X160123469Y-92127800D02*
X160194180Y-92151370D01*
X160194180Y-92151370D02*
X160241320Y-92198510D01*
X160241320Y-92198510D02*
X160288461Y-92292791D01*
X160288461Y-92292791D02*
X160288461Y-92858477D01*
X160288461Y-92858477D02*
X160594874Y-92552064D01*
X160807006Y-92339932D02*
X160477023Y-92009948D01*
X160312031Y-91844957D02*
X160312031Y-91892097D01*
X160312031Y-91892097D02*
X160359172Y-91892097D01*
X160359172Y-91892097D02*
X160359172Y-91844957D01*
X160359172Y-91844957D02*
X160312031Y-91844957D01*
X160312031Y-91844957D02*
X160359172Y-91892097D01*
X160712725Y-91774246D02*
X161042708Y-92104230D01*
X160759865Y-91821387D02*
X160759865Y-91774246D01*
X160759865Y-91774246D02*
X160783436Y-91703536D01*
X160783436Y-91703536D02*
X160854146Y-91632825D01*
X160854146Y-91632825D02*
X160924857Y-91609255D01*
X160924857Y-91609255D02*
X160995568Y-91632825D01*
X160995568Y-91632825D02*
X161254840Y-91892097D01*
X145069786Y-97894745D02*
X145574862Y-98399821D01*
X145574862Y-98399821D02*
X145642206Y-98534508D01*
X145642206Y-98534508D02*
X145642206Y-98669195D01*
X145642206Y-98669195D02*
X145574862Y-98803882D01*
X145574862Y-98803882D02*
X145507519Y-98871226D01*
X145709549Y-97254981D02*
X145574862Y-97389668D01*
X145574862Y-97389668D02*
X145541191Y-97490684D01*
X145541191Y-97490684D02*
X145541191Y-97558027D01*
X145541191Y-97558027D02*
X145574862Y-97726386D01*
X145574862Y-97726386D02*
X145675878Y-97894745D01*
X145675878Y-97894745D02*
X145945252Y-98164119D01*
X145945252Y-98164119D02*
X146046267Y-98197790D01*
X146046267Y-98197790D02*
X146113610Y-98197790D01*
X146113610Y-98197790D02*
X146214626Y-98164119D01*
X146214626Y-98164119D02*
X146349313Y-98029432D01*
X146349313Y-98029432D02*
X146382984Y-97928416D01*
X146382984Y-97928416D02*
X146382984Y-97861073D01*
X146382984Y-97861073D02*
X146349313Y-97760058D01*
X146349313Y-97760058D02*
X146180954Y-97591699D01*
X146180954Y-97591699D02*
X146079939Y-97558027D01*
X146079939Y-97558027D02*
X146012595Y-97558027D01*
X146012595Y-97558027D02*
X145911580Y-97591699D01*
X145911580Y-97591699D02*
X145776893Y-97726386D01*
X145776893Y-97726386D02*
X145743221Y-97827401D01*
X145743221Y-97827401D02*
X145743221Y-97894745D01*
X145743221Y-97894745D02*
X145776893Y-97995760D01*
X141434819Y-101059166D02*
X141434819Y-101535356D01*
X141434819Y-101535356D02*
X140434819Y-101535356D01*
X141434819Y-100202023D02*
X141434819Y-100773451D01*
X141434819Y-100487737D02*
X140434819Y-100487737D01*
X140434819Y-100487737D02*
X140577676Y-100582975D01*
X140577676Y-100582975D02*
X140672914Y-100678213D01*
X140672914Y-100678213D02*
X140720533Y-100773451D01*
X126833333Y-93659580D02*
X126785714Y-93707200D01*
X126785714Y-93707200D02*
X126642857Y-93754819D01*
X126642857Y-93754819D02*
X126547619Y-93754819D01*
X126547619Y-93754819D02*
X126404762Y-93707200D01*
X126404762Y-93707200D02*
X126309524Y-93611961D01*
X126309524Y-93611961D02*
X126261905Y-93516723D01*
X126261905Y-93516723D02*
X126214286Y-93326247D01*
X126214286Y-93326247D02*
X126214286Y-93183390D01*
X126214286Y-93183390D02*
X126261905Y-92992914D01*
X126261905Y-92992914D02*
X126309524Y-92897676D01*
X126309524Y-92897676D02*
X126404762Y-92802438D01*
X126404762Y-92802438D02*
X126547619Y-92754819D01*
X126547619Y-92754819D02*
X126642857Y-92754819D01*
X126642857Y-92754819D02*
X126785714Y-92802438D01*
X126785714Y-92802438D02*
X126833333Y-92850057D01*
X127690476Y-92754819D02*
X127500000Y-92754819D01*
X127500000Y-92754819D02*
X127404762Y-92802438D01*
X127404762Y-92802438D02*
X127357143Y-92850057D01*
X127357143Y-92850057D02*
X127261905Y-92992914D01*
X127261905Y-92992914D02*
X127214286Y-93183390D01*
X127214286Y-93183390D02*
X127214286Y-93564342D01*
X127214286Y-93564342D02*
X127261905Y-93659580D01*
X127261905Y-93659580D02*
X127309524Y-93707200D01*
X127309524Y-93707200D02*
X127404762Y-93754819D01*
X127404762Y-93754819D02*
X127595238Y-93754819D01*
X127595238Y-93754819D02*
X127690476Y-93707200D01*
X127690476Y-93707200D02*
X127738095Y-93659580D01*
X127738095Y-93659580D02*
X127785714Y-93564342D01*
X127785714Y-93564342D02*
X127785714Y-93326247D01*
X127785714Y-93326247D02*
X127738095Y-93231009D01*
X127738095Y-93231009D02*
X127690476Y-93183390D01*
X127690476Y-93183390D02*
X127595238Y-93135771D01*
X127595238Y-93135771D02*
X127404762Y-93135771D01*
X127404762Y-93135771D02*
X127309524Y-93183390D01*
X127309524Y-93183390D02*
X127261905Y-93231009D01*
X127261905Y-93231009D02*
X127214286Y-93326247D01*
X147238095Y-82754819D02*
X147238095Y-83564342D01*
X147238095Y-83564342D02*
X147285714Y-83659580D01*
X147285714Y-83659580D02*
X147333333Y-83707200D01*
X147333333Y-83707200D02*
X147428571Y-83754819D01*
X147428571Y-83754819D02*
X147619047Y-83754819D01*
X147619047Y-83754819D02*
X147714285Y-83707200D01*
X147714285Y-83707200D02*
X147761904Y-83659580D01*
X147761904Y-83659580D02*
X147809523Y-83564342D01*
X147809523Y-83564342D02*
X147809523Y-82754819D01*
X148238095Y-82850057D02*
X148285714Y-82802438D01*
X148285714Y-82802438D02*
X148380952Y-82754819D01*
X148380952Y-82754819D02*
X148619047Y-82754819D01*
X148619047Y-82754819D02*
X148714285Y-82802438D01*
X148714285Y-82802438D02*
X148761904Y-82850057D01*
X148761904Y-82850057D02*
X148809523Y-82945295D01*
X148809523Y-82945295D02*
X148809523Y-83040533D01*
X148809523Y-83040533D02*
X148761904Y-83183390D01*
X148761904Y-83183390D02*
X148190476Y-83754819D01*
X148190476Y-83754819D02*
X148809523Y-83754819D01*
X133870476Y-114274819D02*
X133870476Y-114989104D01*
X133870476Y-114989104D02*
X133822857Y-115131961D01*
X133822857Y-115131961D02*
X133727619Y-115227200D01*
X133727619Y-115227200D02*
X133584762Y-115274819D01*
X133584762Y-115274819D02*
X133489524Y-115274819D01*
X134299048Y-114370057D02*
X134346667Y-114322438D01*
X134346667Y-114322438D02*
X134441905Y-114274819D01*
X134441905Y-114274819D02*
X134680000Y-114274819D01*
X134680000Y-114274819D02*
X134775238Y-114322438D01*
X134775238Y-114322438D02*
X134822857Y-114370057D01*
X134822857Y-114370057D02*
X134870476Y-114465295D01*
X134870476Y-114465295D02*
X134870476Y-114560533D01*
X134870476Y-114560533D02*
X134822857Y-114703390D01*
X134822857Y-114703390D02*
X134251429Y-115274819D01*
X134251429Y-115274819D02*
X134870476Y-115274819D01*
X135489524Y-114274819D02*
X135584762Y-114274819D01*
X135584762Y-114274819D02*
X135680000Y-114322438D01*
X135680000Y-114322438D02*
X135727619Y-114370057D01*
X135727619Y-114370057D02*
X135775238Y-114465295D01*
X135775238Y-114465295D02*
X135822857Y-114655771D01*
X135822857Y-114655771D02*
X135822857Y-114893866D01*
X135822857Y-114893866D02*
X135775238Y-115084342D01*
X135775238Y-115084342D02*
X135727619Y-115179580D01*
X135727619Y-115179580D02*
X135680000Y-115227200D01*
X135680000Y-115227200D02*
X135584762Y-115274819D01*
X135584762Y-115274819D02*
X135489524Y-115274819D01*
X135489524Y-115274819D02*
X135394286Y-115227200D01*
X135394286Y-115227200D02*
X135346667Y-115179580D01*
X135346667Y-115179580D02*
X135299048Y-115084342D01*
X135299048Y-115084342D02*
X135251429Y-114893866D01*
X135251429Y-114893866D02*
X135251429Y-114655771D01*
X135251429Y-114655771D02*
X135299048Y-114465295D01*
X135299048Y-114465295D02*
X135346667Y-114370057D01*
X135346667Y-114370057D02*
X135394286Y-114322438D01*
X135394286Y-114322438D02*
X135489524Y-114274819D01*
X134770833Y-85959580D02*
X134723214Y-86007200D01*
X134723214Y-86007200D02*
X134580357Y-86054819D01*
X134580357Y-86054819D02*
X134485119Y-86054819D01*
X134485119Y-86054819D02*
X134342262Y-86007200D01*
X134342262Y-86007200D02*
X134247024Y-85911961D01*
X134247024Y-85911961D02*
X134199405Y-85816723D01*
X134199405Y-85816723D02*
X134151786Y-85626247D01*
X134151786Y-85626247D02*
X134151786Y-85483390D01*
X134151786Y-85483390D02*
X134199405Y-85292914D01*
X134199405Y-85292914D02*
X134247024Y-85197676D01*
X134247024Y-85197676D02*
X134342262Y-85102438D01*
X134342262Y-85102438D02*
X134485119Y-85054819D01*
X134485119Y-85054819D02*
X134580357Y-85054819D01*
X134580357Y-85054819D02*
X134723214Y-85102438D01*
X134723214Y-85102438D02*
X134770833Y-85150057D01*
X135104167Y-85054819D02*
X135770833Y-85054819D01*
X135770833Y-85054819D02*
X135342262Y-86054819D01*
X123333333Y-98254819D02*
X123000000Y-97778628D01*
X122761905Y-98254819D02*
X122761905Y-97254819D01*
X122761905Y-97254819D02*
X123142857Y-97254819D01*
X123142857Y-97254819D02*
X123238095Y-97302438D01*
X123238095Y-97302438D02*
X123285714Y-97350057D01*
X123285714Y-97350057D02*
X123333333Y-97445295D01*
X123333333Y-97445295D02*
X123333333Y-97588152D01*
X123333333Y-97588152D02*
X123285714Y-97683390D01*
X123285714Y-97683390D02*
X123238095Y-97731009D01*
X123238095Y-97731009D02*
X123142857Y-97778628D01*
X123142857Y-97778628D02*
X122761905Y-97778628D01*
X123904762Y-97683390D02*
X123809524Y-97635771D01*
X123809524Y-97635771D02*
X123761905Y-97588152D01*
X123761905Y-97588152D02*
X123714286Y-97492914D01*
X123714286Y-97492914D02*
X123714286Y-97445295D01*
X123714286Y-97445295D02*
X123761905Y-97350057D01*
X123761905Y-97350057D02*
X123809524Y-97302438D01*
X123809524Y-97302438D02*
X123904762Y-97254819D01*
X123904762Y-97254819D02*
X124095238Y-97254819D01*
X124095238Y-97254819D02*
X124190476Y-97302438D01*
X124190476Y-97302438D02*
X124238095Y-97350057D01*
X124238095Y-97350057D02*
X124285714Y-97445295D01*
X124285714Y-97445295D02*
X124285714Y-97492914D01*
X124285714Y-97492914D02*
X124238095Y-97588152D01*
X124238095Y-97588152D02*
X124190476Y-97635771D01*
X124190476Y-97635771D02*
X124095238Y-97683390D01*
X124095238Y-97683390D02*
X123904762Y-97683390D01*
X123904762Y-97683390D02*
X123809524Y-97731009D01*
X123809524Y-97731009D02*
X123761905Y-97778628D01*
X123761905Y-97778628D02*
X123714286Y-97873866D01*
X123714286Y-97873866D02*
X123714286Y-98064342D01*
X123714286Y-98064342D02*
X123761905Y-98159580D01*
X123761905Y-98159580D02*
X123809524Y-98207200D01*
X123809524Y-98207200D02*
X123904762Y-98254819D01*
X123904762Y-98254819D02*
X124095238Y-98254819D01*
X124095238Y-98254819D02*
X124190476Y-98207200D01*
X124190476Y-98207200D02*
X124238095Y-98159580D01*
X124238095Y-98159580D02*
X124285714Y-98064342D01*
X124285714Y-98064342D02*
X124285714Y-97873866D01*
X124285714Y-97873866D02*
X124238095Y-97778628D01*
X124238095Y-97778628D02*
X124190476Y-97731009D01*
X124190476Y-97731009D02*
X124095238Y-97683390D01*
X125323095Y-78254819D02*
X125323095Y-79064342D01*
X125323095Y-79064342D02*
X125370714Y-79159580D01*
X125370714Y-79159580D02*
X125418333Y-79207200D01*
X125418333Y-79207200D02*
X125513571Y-79254819D01*
X125513571Y-79254819D02*
X125704047Y-79254819D01*
X125704047Y-79254819D02*
X125799285Y-79207200D01*
X125799285Y-79207200D02*
X125846904Y-79159580D01*
X125846904Y-79159580D02*
X125894523Y-79064342D01*
X125894523Y-79064342D02*
X125894523Y-78254819D01*
X126894523Y-79254819D02*
X126323095Y-79254819D01*
X126608809Y-79254819D02*
X126608809Y-78254819D01*
X126608809Y-78254819D02*
X126513571Y-78397676D01*
X126513571Y-78397676D02*
X126418333Y-78492914D01*
X126418333Y-78492914D02*
X126323095Y-78540533D01*
X152433333Y-82559580D02*
X152385714Y-82607200D01*
X152385714Y-82607200D02*
X152242857Y-82654819D01*
X152242857Y-82654819D02*
X152147619Y-82654819D01*
X152147619Y-82654819D02*
X152004762Y-82607200D01*
X152004762Y-82607200D02*
X151909524Y-82511961D01*
X151909524Y-82511961D02*
X151861905Y-82416723D01*
X151861905Y-82416723D02*
X151814286Y-82226247D01*
X151814286Y-82226247D02*
X151814286Y-82083390D01*
X151814286Y-82083390D02*
X151861905Y-81892914D01*
X151861905Y-81892914D02*
X151909524Y-81797676D01*
X151909524Y-81797676D02*
X152004762Y-81702438D01*
X152004762Y-81702438D02*
X152147619Y-81654819D01*
X152147619Y-81654819D02*
X152242857Y-81654819D01*
X152242857Y-81654819D02*
X152385714Y-81702438D01*
X152385714Y-81702438D02*
X152433333Y-81750057D01*
X152814286Y-81750057D02*
X152861905Y-81702438D01*
X152861905Y-81702438D02*
X152957143Y-81654819D01*
X152957143Y-81654819D02*
X153195238Y-81654819D01*
X153195238Y-81654819D02*
X153290476Y-81702438D01*
X153290476Y-81702438D02*
X153338095Y-81750057D01*
X153338095Y-81750057D02*
X153385714Y-81845295D01*
X153385714Y-81845295D02*
X153385714Y-81940533D01*
X153385714Y-81940533D02*
X153338095Y-82083390D01*
X153338095Y-82083390D02*
X152766667Y-82654819D01*
X152766667Y-82654819D02*
X153385714Y-82654819D01*
X159778796Y-114050201D02*
X160283872Y-114555277D01*
X160283872Y-114555277D02*
X160351216Y-114689964D01*
X160351216Y-114689964D02*
X160351216Y-114824651D01*
X160351216Y-114824651D02*
X160283872Y-114959338D01*
X160283872Y-114959338D02*
X160216529Y-115026682D01*
X160856292Y-114386918D02*
X160990979Y-114252231D01*
X160990979Y-114252231D02*
X161024651Y-114151216D01*
X161024651Y-114151216D02*
X161024651Y-114083872D01*
X161024651Y-114083872D02*
X160990979Y-113915514D01*
X160990979Y-113915514D02*
X160889964Y-113747155D01*
X160889964Y-113747155D02*
X160620590Y-113477781D01*
X160620590Y-113477781D02*
X160519575Y-113444109D01*
X160519575Y-113444109D02*
X160452231Y-113444109D01*
X160452231Y-113444109D02*
X160351216Y-113477781D01*
X160351216Y-113477781D02*
X160216529Y-113612468D01*
X160216529Y-113612468D02*
X160182857Y-113713483D01*
X160182857Y-113713483D02*
X160182857Y-113780827D01*
X160182857Y-113780827D02*
X160216529Y-113881842D01*
X160216529Y-113881842D02*
X160384888Y-114050201D01*
X160384888Y-114050201D02*
X160485903Y-114083872D01*
X160485903Y-114083872D02*
X160553246Y-114083872D01*
X160553246Y-114083872D02*
X160654262Y-114050201D01*
X160654262Y-114050201D02*
X160788949Y-113915514D01*
X160788949Y-113915514D02*
X160822620Y-113814498D01*
X160822620Y-113814498D02*
X160822620Y-113747155D01*
X160822620Y-113747155D02*
X160788949Y-113646140D01*
X140133333Y-74654819D02*
X139800000Y-74178628D01*
X139561905Y-74654819D02*
X139561905Y-73654819D01*
X139561905Y-73654819D02*
X139942857Y-73654819D01*
X139942857Y-73654819D02*
X140038095Y-73702438D01*
X140038095Y-73702438D02*
X140085714Y-73750057D01*
X140085714Y-73750057D02*
X140133333Y-73845295D01*
X140133333Y-73845295D02*
X140133333Y-73988152D01*
X140133333Y-73988152D02*
X140085714Y-74083390D01*
X140085714Y-74083390D02*
X140038095Y-74131009D01*
X140038095Y-74131009D02*
X139942857Y-74178628D01*
X139942857Y-74178628D02*
X139561905Y-74178628D01*
X141085714Y-74654819D02*
X140514286Y-74654819D01*
X140800000Y-74654819D02*
X140800000Y-73654819D01*
X140800000Y-73654819D02*
X140704762Y-73797676D01*
X140704762Y-73797676D02*
X140609524Y-73892914D01*
X140609524Y-73892914D02*
X140514286Y-73940533D01*
X166942079Y-98686918D02*
X167447155Y-99191994D01*
X167447155Y-99191994D02*
X167514499Y-99326681D01*
X167514499Y-99326681D02*
X167514499Y-99461368D01*
X167514499Y-99461368D02*
X167447155Y-99596055D01*
X167447155Y-99596055D02*
X167379812Y-99663399D01*
X168356293Y-98686918D02*
X167952232Y-99090979D01*
X168154262Y-98888948D02*
X167447155Y-98181841D01*
X167447155Y-98181841D02*
X167480827Y-98350200D01*
X167480827Y-98350200D02*
X167480827Y-98484887D01*
X167480827Y-98484887D02*
X167447155Y-98585902D01*
X168086919Y-97542078D02*
X168154262Y-97474735D01*
X168154262Y-97474735D02*
X168255277Y-97441063D01*
X168255277Y-97441063D02*
X168322621Y-97441063D01*
X168322621Y-97441063D02*
X168423636Y-97474735D01*
X168423636Y-97474735D02*
X168591995Y-97575750D01*
X168591995Y-97575750D02*
X168760354Y-97744109D01*
X168760354Y-97744109D02*
X168861369Y-97912467D01*
X168861369Y-97912467D02*
X168895041Y-98013483D01*
X168895041Y-98013483D02*
X168895041Y-98080826D01*
X168895041Y-98080826D02*
X168861369Y-98181841D01*
X168861369Y-98181841D02*
X168794025Y-98249185D01*
X168794025Y-98249185D02*
X168693010Y-98282857D01*
X168693010Y-98282857D02*
X168625667Y-98282857D01*
X168625667Y-98282857D02*
X168524651Y-98249185D01*
X168524651Y-98249185D02*
X168356293Y-98148170D01*
X168356293Y-98148170D02*
X168187934Y-97979811D01*
X168187934Y-97979811D02*
X168086919Y-97811452D01*
X168086919Y-97811452D02*
X168053247Y-97710437D01*
X168053247Y-97710437D02*
X168053247Y-97643093D01*
X168053247Y-97643093D02*
X168086919Y-97542078D01*
X170857142Y-127954819D02*
X170523809Y-127478628D01*
X170285714Y-127954819D02*
X170285714Y-126954819D01*
X170285714Y-126954819D02*
X170666666Y-126954819D01*
X170666666Y-126954819D02*
X170761904Y-127002438D01*
X170761904Y-127002438D02*
X170809523Y-127050057D01*
X170809523Y-127050057D02*
X170857142Y-127145295D01*
X170857142Y-127145295D02*
X170857142Y-127288152D01*
X170857142Y-127288152D02*
X170809523Y-127383390D01*
X170809523Y-127383390D02*
X170761904Y-127431009D01*
X170761904Y-127431009D02*
X170666666Y-127478628D01*
X170666666Y-127478628D02*
X170285714Y-127478628D01*
X171809523Y-127954819D02*
X171238095Y-127954819D01*
X171523809Y-127954819D02*
X171523809Y-126954819D01*
X171523809Y-126954819D02*
X171428571Y-127097676D01*
X171428571Y-127097676D02*
X171333333Y-127192914D01*
X171333333Y-127192914D02*
X171238095Y-127240533D01*
X172142857Y-126954819D02*
X172761904Y-126954819D01*
X172761904Y-126954819D02*
X172428571Y-127335771D01*
X172428571Y-127335771D02*
X172571428Y-127335771D01*
X172571428Y-127335771D02*
X172666666Y-127383390D01*
X172666666Y-127383390D02*
X172714285Y-127431009D01*
X172714285Y-127431009D02*
X172761904Y-127526247D01*
X172761904Y-127526247D02*
X172761904Y-127764342D01*
X172761904Y-127764342D02*
X172714285Y-127859580D01*
X172714285Y-127859580D02*
X172666666Y-127907200D01*
X172666666Y-127907200D02*
X172571428Y-127954819D01*
X172571428Y-127954819D02*
X172285714Y-127954819D01*
X172285714Y-127954819D02*
X172190476Y-127907200D01*
X172190476Y-127907200D02*
X172142857Y-127859580D01*
X155378796Y-110500201D02*
X155883872Y-111005277D01*
X155883872Y-111005277D02*
X155951216Y-111139964D01*
X155951216Y-111139964D02*
X155951216Y-111274651D01*
X155951216Y-111274651D02*
X155883872Y-111409338D01*
X155883872Y-111409338D02*
X155816529Y-111476682D01*
X156052231Y-109826766D02*
X155715514Y-110163483D01*
X155715514Y-110163483D02*
X156018559Y-110533872D01*
X156018559Y-110533872D02*
X156018559Y-110466529D01*
X156018559Y-110466529D02*
X156052231Y-110365514D01*
X156052231Y-110365514D02*
X156220590Y-110197155D01*
X156220590Y-110197155D02*
X156321605Y-110163483D01*
X156321605Y-110163483D02*
X156388949Y-110163483D01*
X156388949Y-110163483D02*
X156489964Y-110197155D01*
X156489964Y-110197155D02*
X156658323Y-110365514D01*
X156658323Y-110365514D02*
X156691994Y-110466529D01*
X156691994Y-110466529D02*
X156691994Y-110533872D01*
X156691994Y-110533872D02*
X156658323Y-110634888D01*
X156658323Y-110634888D02*
X156489964Y-110803246D01*
X156489964Y-110803246D02*
X156388949Y-110836918D01*
X156388949Y-110836918D02*
X156321605Y-110836918D01*
X151169077Y-110816015D02*
X150933374Y-110580313D01*
X150933374Y-110580313D02*
X151428349Y-110085338D01*
X151593341Y-110721735D02*
X151758333Y-110886726D01*
X151569771Y-111216709D02*
X151334069Y-110981007D01*
X151334069Y-110981007D02*
X151829043Y-110486032D01*
X151829043Y-110486032D02*
X152064746Y-110721735D01*
X151781903Y-111428841D02*
X152276877Y-110933866D01*
X152276877Y-110933866D02*
X152394728Y-111051718D01*
X152394728Y-111051718D02*
X152441869Y-111145999D01*
X152441869Y-111145999D02*
X152441869Y-111240279D01*
X152441869Y-111240279D02*
X152418299Y-111310990D01*
X152418299Y-111310990D02*
X152347588Y-111428841D01*
X152347588Y-111428841D02*
X152276877Y-111499552D01*
X152276877Y-111499552D02*
X152159026Y-111570263D01*
X152159026Y-111570263D02*
X152088316Y-111593833D01*
X152088316Y-111593833D02*
X151994035Y-111593833D01*
X151994035Y-111593833D02*
X151899754Y-111546692D01*
X151899754Y-111546692D02*
X151781903Y-111428841D01*
X152559720Y-111546692D02*
X152347588Y-111994527D01*
X152347588Y-111994527D02*
X152795422Y-111782395D01*
X152654001Y-112253799D02*
X152677571Y-112324510D01*
X152677571Y-112324510D02*
X152771852Y-112418790D01*
X152771852Y-112418790D02*
X152842563Y-112442361D01*
X152842563Y-112442361D02*
X152913273Y-112418790D01*
X152913273Y-112418790D02*
X152936843Y-112395220D01*
X152936843Y-112395220D02*
X152960414Y-112324510D01*
X152960414Y-112324510D02*
X152936843Y-112253799D01*
X152936843Y-112253799D02*
X152866133Y-112183088D01*
X152866133Y-112183088D02*
X152842563Y-112112378D01*
X152842563Y-112112378D02*
X152866133Y-112041667D01*
X152866133Y-112041667D02*
X152889703Y-112018097D01*
X152889703Y-112018097D02*
X152960414Y-111994526D01*
X152960414Y-111994526D02*
X153031124Y-112018097D01*
X153031124Y-112018097D02*
X153101835Y-112088807D01*
X153101835Y-112088807D02*
X153125405Y-112159518D01*
X153054695Y-112654493D02*
X153078265Y-112725204D01*
X153078265Y-112725204D02*
X153172546Y-112819485D01*
X153172546Y-112819485D02*
X153243257Y-112843055D01*
X153243257Y-112843055D02*
X153313967Y-112819485D01*
X153313967Y-112819485D02*
X153337538Y-112795914D01*
X153337538Y-112795914D02*
X153361108Y-112725204D01*
X153361108Y-112725204D02*
X153337538Y-112654493D01*
X153337538Y-112654493D02*
X153266827Y-112583782D01*
X153266827Y-112583782D02*
X153243257Y-112513072D01*
X153243257Y-112513072D02*
X153266827Y-112442361D01*
X153266827Y-112442361D02*
X153290397Y-112418791D01*
X153290397Y-112418791D02*
X153361108Y-112395220D01*
X153361108Y-112395220D02*
X153431818Y-112418791D01*
X153431818Y-112418791D02*
X153502529Y-112489501D01*
X153502529Y-112489501D02*
X153526099Y-112560212D01*
X127733333Y-96454819D02*
X127400000Y-95978628D01*
X127161905Y-96454819D02*
X127161905Y-95454819D01*
X127161905Y-95454819D02*
X127542857Y-95454819D01*
X127542857Y-95454819D02*
X127638095Y-95502438D01*
X127638095Y-95502438D02*
X127685714Y-95550057D01*
X127685714Y-95550057D02*
X127733333Y-95645295D01*
X127733333Y-95645295D02*
X127733333Y-95788152D01*
X127733333Y-95788152D02*
X127685714Y-95883390D01*
X127685714Y-95883390D02*
X127638095Y-95931009D01*
X127638095Y-95931009D02*
X127542857Y-95978628D01*
X127542857Y-95978628D02*
X127161905Y-95978628D01*
X128066667Y-95454819D02*
X128733333Y-95454819D01*
X128733333Y-95454819D02*
X128304762Y-96454819D01*
D11*
%TO.C,SW2*%
X164250000Y-89355000D02*
X164250000Y-87972000D01*
X164250000Y-89355000D02*
X165633000Y-89355000D01*
X164490000Y-82295000D02*
X165800000Y-82295000D01*
X164490000Y-89115000D02*
X164490000Y-82295000D01*
X164490000Y-89115000D02*
X165800000Y-89115000D01*
X165965000Y-83895000D02*
X165965000Y-87515000D01*
X165965000Y-86308333D02*
X167235000Y-86308333D01*
X165965000Y-87515000D02*
X167235000Y-87515000D01*
X166085000Y-87515000D02*
X166085000Y-86308333D01*
X166205000Y-87515000D02*
X166205000Y-86308333D01*
X166325000Y-87515000D02*
X166325000Y-86308333D01*
X166445000Y-87515000D02*
X166445000Y-86308333D01*
X166565000Y-87515000D02*
X166565000Y-86308333D01*
X166685000Y-87515000D02*
X166685000Y-86308333D01*
X166805000Y-87515000D02*
X166805000Y-86308333D01*
X166925000Y-87515000D02*
X166925000Y-86308333D01*
X167045000Y-87515000D02*
X167045000Y-86308333D01*
X167165000Y-87515000D02*
X167165000Y-86308333D01*
X167235000Y-83895000D02*
X165965000Y-83895000D01*
X167235000Y-87515000D02*
X167235000Y-83895000D01*
X167400000Y-82295000D02*
X168710000Y-82295000D01*
X167400000Y-89115000D02*
X168710000Y-89115000D01*
X168710000Y-89115000D02*
X168710000Y-82295000D01*
%TO.C,R2*%
X139565000Y-76672936D02*
X139565000Y-77127064D01*
X141035000Y-76672936D02*
X141035000Y-77127064D01*
%TO.C,J18*%
X165070000Y-70930000D02*
X166400000Y-70930000D01*
X165070000Y-72260000D02*
X165070000Y-70930000D01*
X165070000Y-73530000D02*
X165070000Y-76130000D01*
X165070000Y-73530000D02*
X167730000Y-73530000D01*
X165070000Y-76130000D02*
X167730000Y-76130000D01*
X167730000Y-73530000D02*
X167730000Y-76130000D01*
%TO.C,J16*%
X128710000Y-115820000D02*
X130090000Y-115820000D01*
X128710000Y-117200000D02*
X128710000Y-115820000D01*
X128710000Y-118470000D02*
X128710000Y-126200000D01*
X128710000Y-118470000D02*
X131470000Y-118470000D01*
X128710000Y-126200000D02*
X131470000Y-126200000D01*
X131470000Y-118470000D02*
X131470000Y-126200000D01*
%TO.C,U5*%
X170300000Y-71440000D02*
X170300000Y-77640000D01*
X170300000Y-71440000D02*
X188700000Y-71440000D01*
X170300000Y-96290000D02*
X170300000Y-97290000D01*
X170300000Y-97290000D02*
X171800000Y-97290000D01*
X188700000Y-71440000D02*
X188700000Y-77640000D01*
X188700000Y-97290000D02*
X187200000Y-97290000D01*
X188700000Y-97290000D02*
X188700000Y-96290000D01*
X170300000Y-78315000D02*
X169800000Y-78315000D01*
X170300000Y-77815000D01*
X170300000Y-78315000D01*
G36*
X170300000Y-78315000D02*
G01*
X169800000Y-78315000D01*
X170300000Y-77815000D01*
X170300000Y-78315000D01*
G37*
%TO.C,R9*%
X166427064Y-78065000D02*
X165972936Y-78065000D01*
X166427064Y-79535000D02*
X165972936Y-79535000D01*
%TO.C,J14*%
X145278680Y-115400000D02*
X147400000Y-113278680D01*
D12*
X147400000Y-113278680D02*
X149521320Y-115400000D01*
D11*
X147400000Y-117521320D02*
X145278680Y-115400000D01*
X147400000Y-117521320D02*
X149521320Y-115400000D01*
%TO.C,J1*%
X123070000Y-106070000D02*
X124400000Y-106070000D01*
X123070000Y-107400000D02*
X123070000Y-106070000D01*
X123070000Y-108670000D02*
X123070000Y-111270000D01*
X123070000Y-108670000D02*
X125730000Y-108670000D01*
X123070000Y-111270000D02*
X125730000Y-111270000D01*
X125730000Y-108670000D02*
X125730000Y-111270000D01*
%TO.C,R18*%
X162165000Y-83172936D02*
X162165000Y-83627064D01*
X163635000Y-83172936D02*
X163635000Y-83627064D01*
%TO.C,J7*%
X145078680Y-93000000D02*
X147200000Y-90878680D01*
D12*
X147200000Y-90878680D02*
X149321320Y-93000000D01*
D11*
X147200000Y-95121320D02*
X145078680Y-93000000D01*
X147200000Y-95121320D02*
X149321320Y-93000000D01*
%TO.C,C3*%
X138465000Y-91698752D02*
X138465000Y-91176248D01*
X139935000Y-91698752D02*
X139935000Y-91176248D01*
%TO.C,J13*%
X141978680Y-112000000D02*
X144100000Y-109878680D01*
D12*
X144100000Y-109878680D02*
X146221320Y-112000000D01*
D11*
X144100000Y-114121320D02*
X141978680Y-112000000D01*
X144100000Y-114121320D02*
X146221320Y-112000000D01*
%TO.C,J19*%
X180720000Y-101220000D02*
X182100000Y-101220000D01*
X180720000Y-102600000D02*
X180720000Y-101220000D01*
X180720000Y-103870000D02*
X180720000Y-137000000D01*
X180720000Y-103870000D02*
X183370000Y-103870000D01*
X180720000Y-137000000D02*
X186020000Y-137000000D01*
X183370000Y-101220000D02*
X186020000Y-101220000D01*
X183370000Y-103870000D02*
X183370000Y-101220000D01*
X186020000Y-101220000D02*
X186020000Y-137000000D01*
%TO.C,J2*%
X147878680Y-102500000D02*
X150000000Y-100378680D01*
D12*
X150000000Y-100378680D02*
X152121320Y-102500000D01*
D11*
X150000000Y-104621320D02*
X147878680Y-102500000D01*
X150000000Y-104621320D02*
X152121320Y-102500000D01*
%TO.C,C1*%
X141101248Y-79565000D02*
X141623752Y-79565000D01*
X141101248Y-81035000D02*
X141623752Y-81035000D01*
%TO.C,J4*%
X158178680Y-105600000D02*
X160300000Y-103478680D01*
D12*
X160300000Y-103478680D02*
X162421320Y-105600000D01*
D11*
X160300000Y-107721320D02*
X158178680Y-105600000D01*
X160300000Y-107721320D02*
X162421320Y-105600000D01*
%TO.C,J15*%
X124120000Y-115820000D02*
X125500000Y-115820000D01*
X124120000Y-117200000D02*
X124120000Y-115820000D01*
X124120000Y-118470000D02*
X124120000Y-126200000D01*
X124120000Y-118470000D02*
X126880000Y-118470000D01*
X124120000Y-126200000D02*
X126880000Y-126200000D01*
X126880000Y-118470000D02*
X126880000Y-126200000D01*
%TO.C,R10*%
X153627064Y-92265000D02*
X153172936Y-92265000D01*
X153627064Y-93735000D02*
X153172936Y-93735000D01*
%TO.C,R15*%
X160065000Y-83627064D02*
X160065000Y-83172936D01*
X161535000Y-83627064D02*
X161535000Y-83172936D01*
%TO.C,J8*%
X164178680Y-112000000D02*
X166300000Y-109878680D01*
D12*
X166300000Y-109878680D02*
X168421320Y-112000000D01*
D11*
X166300000Y-114121320D02*
X164178680Y-112000000D01*
X166300000Y-114121320D02*
X168421320Y-112000000D01*
%TO.C,C8*%
X147965000Y-86238748D02*
X147965000Y-86761252D01*
X149435000Y-86238748D02*
X149435000Y-86761252D01*
%TO.C,C9*%
X134226248Y-81640000D02*
X135648752Y-81640000D01*
X134226248Y-84360000D02*
X135648752Y-84360000D01*
%TO.C,J3*%
X154578680Y-99000000D02*
X156700000Y-96878680D01*
D12*
X156700000Y-96878680D02*
X158821320Y-99000000D01*
D11*
X156700000Y-101121320D02*
X154578680Y-99000000D01*
X156700000Y-101121320D02*
X158821320Y-99000000D01*
%TO.C,C11*%
X134226248Y-76740000D02*
X135648752Y-76740000D01*
X134226248Y-79460000D02*
X135648752Y-79460000D01*
%TO.C,R12*%
X167627064Y-129565000D02*
X167172936Y-129565000D01*
X167627064Y-131035000D02*
X167172936Y-131035000D01*
%TO.C,C10*%
X125773752Y-101440000D02*
X124351248Y-101440000D01*
X125773752Y-104160000D02*
X124351248Y-104160000D01*
%TO.C,SW4*%
X167690000Y-101240000D02*
X167690000Y-108060000D01*
X169000000Y-101240000D02*
X167690000Y-101240000D01*
X169000000Y-108060000D02*
X167690000Y-108060000D01*
X169165000Y-102840000D02*
X169165000Y-106460000D01*
X169165000Y-106460000D02*
X170435000Y-106460000D01*
X169235000Y-102840000D02*
X169235000Y-104046667D01*
X169355000Y-102840000D02*
X169355000Y-104046667D01*
X169475000Y-102840000D02*
X169475000Y-104046667D01*
X169595000Y-102840000D02*
X169595000Y-104046667D01*
X169715000Y-102840000D02*
X169715000Y-104046667D01*
X169835000Y-102840000D02*
X169835000Y-104046667D01*
X169955000Y-102840000D02*
X169955000Y-104046667D01*
X170075000Y-102840000D02*
X170075000Y-104046667D01*
X170195000Y-102840000D02*
X170195000Y-104046667D01*
X170315000Y-102840000D02*
X170315000Y-104046667D01*
X170435000Y-102840000D02*
X169165000Y-102840000D01*
X170435000Y-104046667D02*
X169165000Y-104046667D01*
X170435000Y-106460000D02*
X170435000Y-102840000D01*
X171910000Y-101240000D02*
X170600000Y-101240000D01*
X171910000Y-101240000D02*
X171910000Y-108060000D01*
X171910000Y-108060000D02*
X170600000Y-108060000D01*
X172150000Y-101000000D02*
X170767000Y-101000000D01*
X172150000Y-101000000D02*
X172150000Y-102383000D01*
%TO.C,C5*%
X134251248Y-90440000D02*
X135673752Y-90440000D01*
X134251248Y-93160000D02*
X135673752Y-93160000D01*
%TO.C,J11*%
X160978680Y-93000000D02*
X163100000Y-90878680D01*
D12*
X163100000Y-90878680D02*
X165221320Y-93000000D01*
D11*
X163100000Y-95121320D02*
X160978680Y-93000000D01*
X163100000Y-95121320D02*
X165221320Y-93000000D01*
%TO.C,J6*%
X141978680Y-96100000D02*
X144100000Y-93978680D01*
D12*
X144100000Y-93978680D02*
X146221320Y-96100000D01*
D11*
X144100000Y-98221320D02*
X141978680Y-96100000D01*
X144100000Y-98221320D02*
X146221320Y-96100000D01*
%TO.C,L1*%
X129720000Y-95712500D02*
X129720000Y-106072500D01*
X129720000Y-106072500D02*
X132125000Y-106072500D01*
X132125000Y-95712500D02*
X129720000Y-95712500D01*
X137675000Y-95712500D02*
X140080000Y-95712500D01*
X140080000Y-95712500D02*
X140080000Y-106072500D01*
X140080000Y-106072500D02*
X137675000Y-106072500D01*
%TO.C,C6*%
X122940000Y-94673752D02*
X122940000Y-93251248D01*
X125660000Y-94673752D02*
X125660000Y-93251248D01*
%TO.C,U2*%
X140650000Y-81890000D02*
X144410000Y-81890000D01*
X140650000Y-88710000D02*
X144410000Y-88710000D01*
X144410000Y-81890000D02*
X144410000Y-83150000D01*
X144410000Y-88710000D02*
X144410000Y-87450000D01*
X139370000Y-81990000D02*
X139130000Y-81660000D01*
X139610000Y-81660000D01*
X139370000Y-81990000D01*
G36*
X139370000Y-81990000D02*
G01*
X139130000Y-81660000D01*
X139610000Y-81660000D01*
X139370000Y-81990000D01*
G37*
%TO.C,J20*%
X133300000Y-115820000D02*
X134680000Y-115820000D01*
X133300000Y-117200000D02*
X133300000Y-115820000D01*
X133300000Y-118470000D02*
X133300000Y-126200000D01*
X133300000Y-118470000D02*
X136060000Y-118470000D01*
X133300000Y-126200000D02*
X136060000Y-126200000D01*
X136060000Y-118470000D02*
X136060000Y-126200000D01*
%TO.C,C7*%
X134226248Y-86540000D02*
X135648752Y-86540000D01*
X134226248Y-89260000D02*
X135648752Y-89260000D01*
%TO.C,R8*%
X124865000Y-98827064D02*
X124865000Y-98372936D01*
X126335000Y-98827064D02*
X126335000Y-98372936D01*
%TO.C,U1*%
X122855000Y-85470000D02*
X122855000Y-83185000D01*
X122855000Y-85470000D02*
X122855000Y-87755000D01*
X131855000Y-85470000D02*
X131855000Y-83185000D01*
X131855000Y-85470000D02*
X131855000Y-87755000D01*
X129260000Y-79635000D02*
X129020000Y-79305000D01*
X129500000Y-79305000D01*
X129260000Y-79635000D01*
G36*
X129260000Y-79635000D02*
G01*
X129020000Y-79305000D01*
X129500000Y-79305000D01*
X129260000Y-79635000D01*
G37*
%TO.C,C2*%
X152501248Y-79465000D02*
X153023752Y-79465000D01*
X152501248Y-80935000D02*
X153023752Y-80935000D01*
%TO.C,J9*%
X160978680Y-115200000D02*
X163100000Y-113078680D01*
D12*
X163100000Y-113078680D02*
X165221320Y-115200000D01*
D11*
X163100000Y-117321320D02*
X160978680Y-115200000D01*
X163100000Y-117321320D02*
X165221320Y-115200000D01*
%TO.C,R1*%
X141865000Y-77127064D02*
X141865000Y-76672936D01*
X143335000Y-77127064D02*
X143335000Y-76672936D01*
%TO.C,J10*%
X164178680Y-96200000D02*
X166300000Y-94078680D01*
D12*
X166300000Y-94078680D02*
X168421320Y-96200000D01*
D11*
X166300000Y-98321320D02*
X164178680Y-96200000D01*
X166300000Y-98321320D02*
X168421320Y-96200000D01*
%TO.C,R13*%
X170865000Y-129872936D02*
X170865000Y-130327064D01*
X172335000Y-129872936D02*
X172335000Y-130327064D01*
%TO.C,J5*%
X151478680Y-109200000D02*
X153600000Y-107078680D01*
D12*
X153600000Y-107078680D02*
X155721320Y-109200000D01*
D11*
X153600000Y-111321320D02*
X151478680Y-109200000D01*
X153600000Y-111321320D02*
X155721320Y-109200000D01*
%TO.C,R7*%
X127165000Y-98827064D02*
X127165000Y-98372936D01*
X128635000Y-98827064D02*
X128635000Y-98372936D01*
%TD*%
M02*
