%TF.GenerationSoftware,KiCad,Pcbnew,9.0.6*%
%TF.CreationDate,2026-02-15T00:21:57+01:00*%
%TF.ProjectId,TannenbasisV4,54616e6e-656e-4626-9173-697356342e6b,0.1*%
%TF.SameCoordinates,Original*%
%TF.FileFunction,Legend,Bot*%
%TF.FilePolarity,Positive*%
%FSLAX46Y46*%
G04 Gerber Fmt 4.6, Leading zero omitted, Abs format (unit mm)*
G04 Created by KiCad (PCBNEW 9.0.6) date 2026-02-15 00:21:57*
%MOMM*%
%LPD*%
G01*
G04 APERTURE LIST*
%ADD10C,0.150000*%
%ADD11C,0.100000*%
%ADD12C,0.120000*%
G04 APERTURE END LIST*
D10*
X178899999Y-134282700D02*
X178799999Y-134316033D01*
X178799999Y-134316033D02*
X178633333Y-134316033D01*
X178633333Y-134316033D02*
X178566666Y-134282700D01*
X178566666Y-134282700D02*
X178533333Y-134249366D01*
X178533333Y-134249366D02*
X178499999Y-134182700D01*
X178499999Y-134182700D02*
X178499999Y-134116033D01*
X178499999Y-134116033D02*
X178533333Y-134049366D01*
X178533333Y-134049366D02*
X178566666Y-134016033D01*
X178566666Y-134016033D02*
X178633333Y-133982700D01*
X178633333Y-133982700D02*
X178766666Y-133949366D01*
X178766666Y-133949366D02*
X178833333Y-133916033D01*
X178833333Y-133916033D02*
X178866666Y-133882700D01*
X178866666Y-133882700D02*
X178899999Y-133816033D01*
X178899999Y-133816033D02*
X178899999Y-133749366D01*
X178899999Y-133749366D02*
X178866666Y-133682700D01*
X178866666Y-133682700D02*
X178833333Y-133649366D01*
X178833333Y-133649366D02*
X178766666Y-133616033D01*
X178766666Y-133616033D02*
X178599999Y-133616033D01*
X178599999Y-133616033D02*
X178499999Y-133649366D01*
X178299999Y-133849366D02*
X178033332Y-133849366D01*
X178199999Y-133616033D02*
X178199999Y-134216033D01*
X178199999Y-134216033D02*
X178166666Y-134282700D01*
X178166666Y-134282700D02*
X178099999Y-134316033D01*
X178099999Y-134316033D02*
X178033332Y-134316033D01*
X177499999Y-134316033D02*
X177499999Y-133949366D01*
X177499999Y-133949366D02*
X177533332Y-133882700D01*
X177533332Y-133882700D02*
X177599999Y-133849366D01*
X177599999Y-133849366D02*
X177733332Y-133849366D01*
X177733332Y-133849366D02*
X177799999Y-133882700D01*
X177499999Y-134282700D02*
X177566666Y-134316033D01*
X177566666Y-134316033D02*
X177733332Y-134316033D01*
X177733332Y-134316033D02*
X177799999Y-134282700D01*
X177799999Y-134282700D02*
X177833332Y-134216033D01*
X177833332Y-134216033D02*
X177833332Y-134149366D01*
X177833332Y-134149366D02*
X177799999Y-134082700D01*
X177799999Y-134082700D02*
X177733332Y-134049366D01*
X177733332Y-134049366D02*
X177566666Y-134049366D01*
X177566666Y-134049366D02*
X177499999Y-134016033D01*
X177266666Y-133849366D02*
X176999999Y-133849366D01*
X177166666Y-133616033D02*
X177166666Y-134216033D01*
X177166666Y-134216033D02*
X177133333Y-134282700D01*
X177133333Y-134282700D02*
X177066666Y-134316033D01*
X177066666Y-134316033D02*
X176999999Y-134316033D01*
X176466666Y-133849366D02*
X176466666Y-134316033D01*
X176766666Y-133849366D02*
X176766666Y-134216033D01*
X176766666Y-134216033D02*
X176733333Y-134282700D01*
X176733333Y-134282700D02*
X176666666Y-134316033D01*
X176666666Y-134316033D02*
X176566666Y-134316033D01*
X176566666Y-134316033D02*
X176499999Y-134282700D01*
X176499999Y-134282700D02*
X176466666Y-134249366D01*
X176166666Y-134282700D02*
X176100000Y-134316033D01*
X176100000Y-134316033D02*
X175966666Y-134316033D01*
X175966666Y-134316033D02*
X175900000Y-134282700D01*
X175900000Y-134282700D02*
X175866666Y-134216033D01*
X175866666Y-134216033D02*
X175866666Y-134182700D01*
X175866666Y-134182700D02*
X175900000Y-134116033D01*
X175900000Y-134116033D02*
X175966666Y-134082700D01*
X175966666Y-134082700D02*
X176066666Y-134082700D01*
X176066666Y-134082700D02*
X176133333Y-134049366D01*
X176133333Y-134049366D02*
X176166666Y-133982700D01*
X176166666Y-133982700D02*
X176166666Y-133949366D01*
X176166666Y-133949366D02*
X176133333Y-133882700D01*
X176133333Y-133882700D02*
X176066666Y-133849366D01*
X176066666Y-133849366D02*
X175966666Y-133849366D01*
X175966666Y-133849366D02*
X175900000Y-133882700D01*
X175066666Y-133582700D02*
X175666666Y-134482700D01*
X174833333Y-134316033D02*
X174833333Y-133616033D01*
X174100000Y-134316033D02*
X174333333Y-133982700D01*
X174500000Y-134316033D02*
X174500000Y-133616033D01*
X174500000Y-133616033D02*
X174233333Y-133616033D01*
X174233333Y-133616033D02*
X174166667Y-133649366D01*
X174166667Y-133649366D02*
X174133333Y-133682700D01*
X174133333Y-133682700D02*
X174100000Y-133749366D01*
X174100000Y-133749366D02*
X174100000Y-133849366D01*
X174100000Y-133849366D02*
X174133333Y-133916033D01*
X174133333Y-133916033D02*
X174166667Y-133949366D01*
X174166667Y-133949366D02*
X174233333Y-133982700D01*
X174233333Y-133982700D02*
X174500000Y-133982700D01*
X189183333Y-118116033D02*
X189183333Y-117416033D01*
X188716667Y-117416033D02*
X188583333Y-117416033D01*
X188583333Y-117416033D02*
X188516667Y-117449366D01*
X188516667Y-117449366D02*
X188450000Y-117516033D01*
X188450000Y-117516033D02*
X188416667Y-117649366D01*
X188416667Y-117649366D02*
X188416667Y-117882700D01*
X188416667Y-117882700D02*
X188450000Y-118016033D01*
X188450000Y-118016033D02*
X188516667Y-118082700D01*
X188516667Y-118082700D02*
X188583333Y-118116033D01*
X188583333Y-118116033D02*
X188716667Y-118116033D01*
X188716667Y-118116033D02*
X188783333Y-118082700D01*
X188783333Y-118082700D02*
X188850000Y-118016033D01*
X188850000Y-118016033D02*
X188883333Y-117882700D01*
X188883333Y-117882700D02*
X188883333Y-117649366D01*
X188883333Y-117649366D02*
X188850000Y-117516033D01*
X188850000Y-117516033D02*
X188783333Y-117449366D01*
X188783333Y-117449366D02*
X188716667Y-117416033D01*
X187816667Y-117649366D02*
X187816667Y-118116033D01*
X187983334Y-117382700D02*
X188150000Y-117882700D01*
X188150000Y-117882700D02*
X187716667Y-117882700D01*
X187483333Y-117482700D02*
X187450000Y-117449366D01*
X187450000Y-117449366D02*
X187383333Y-117416033D01*
X187383333Y-117416033D02*
X187216667Y-117416033D01*
X187216667Y-117416033D02*
X187150000Y-117449366D01*
X187150000Y-117449366D02*
X187116667Y-117482700D01*
X187116667Y-117482700D02*
X187083333Y-117549366D01*
X187083333Y-117549366D02*
X187083333Y-117616033D01*
X187083333Y-117616033D02*
X187116667Y-117716033D01*
X187116667Y-117716033D02*
X187516667Y-118116033D01*
X187516667Y-118116033D02*
X187083333Y-118116033D01*
X188599999Y-135249366D02*
X188666666Y-135216033D01*
X188666666Y-135216033D02*
X188766666Y-135216033D01*
X188766666Y-135216033D02*
X188866666Y-135249366D01*
X188866666Y-135249366D02*
X188933333Y-135316033D01*
X188933333Y-135316033D02*
X188966666Y-135382700D01*
X188966666Y-135382700D02*
X188999999Y-135516033D01*
X188999999Y-135516033D02*
X188999999Y-135616033D01*
X188999999Y-135616033D02*
X188966666Y-135749366D01*
X188966666Y-135749366D02*
X188933333Y-135816033D01*
X188933333Y-135816033D02*
X188866666Y-135882700D01*
X188866666Y-135882700D02*
X188766666Y-135916033D01*
X188766666Y-135916033D02*
X188699999Y-135916033D01*
X188699999Y-135916033D02*
X188599999Y-135882700D01*
X188599999Y-135882700D02*
X188566666Y-135849366D01*
X188566666Y-135849366D02*
X188566666Y-135616033D01*
X188566666Y-135616033D02*
X188699999Y-135616033D01*
X188266666Y-135449366D02*
X188266666Y-135916033D01*
X188266666Y-135516033D02*
X188233333Y-135482700D01*
X188233333Y-135482700D02*
X188166666Y-135449366D01*
X188166666Y-135449366D02*
X188066666Y-135449366D01*
X188066666Y-135449366D02*
X187999999Y-135482700D01*
X187999999Y-135482700D02*
X187966666Y-135549366D01*
X187966666Y-135549366D02*
X187966666Y-135916033D01*
X187333333Y-135916033D02*
X187333333Y-135216033D01*
X187333333Y-135882700D02*
X187400000Y-135916033D01*
X187400000Y-135916033D02*
X187533333Y-135916033D01*
X187533333Y-135916033D02*
X187600000Y-135882700D01*
X187600000Y-135882700D02*
X187633333Y-135849366D01*
X187633333Y-135849366D02*
X187666666Y-135782700D01*
X187666666Y-135782700D02*
X187666666Y-135582700D01*
X187666666Y-135582700D02*
X187633333Y-135516033D01*
X187633333Y-135516033D02*
X187600000Y-135482700D01*
X187600000Y-135482700D02*
X187533333Y-135449366D01*
X187533333Y-135449366D02*
X187400000Y-135449366D01*
X187400000Y-135449366D02*
X187333333Y-135482700D01*
X131466666Y-127516033D02*
X131466666Y-126816033D01*
X131166666Y-126649366D02*
X131100000Y-126616033D01*
X131100000Y-126616033D02*
X131000000Y-126616033D01*
X131000000Y-126616033D02*
X130933333Y-126649366D01*
X130933333Y-126649366D02*
X130900000Y-126716033D01*
X130900000Y-126716033D02*
X130900000Y-126782700D01*
X130900000Y-126782700D02*
X130933333Y-126849366D01*
X130933333Y-126849366D02*
X131166666Y-127082700D01*
X131166666Y-127082700D02*
X130900000Y-127082700D01*
X130200000Y-127449366D02*
X130233333Y-127482700D01*
X130233333Y-127482700D02*
X130333333Y-127516033D01*
X130333333Y-127516033D02*
X130400000Y-127516033D01*
X130400000Y-127516033D02*
X130500000Y-127482700D01*
X130500000Y-127482700D02*
X130566667Y-127416033D01*
X130566667Y-127416033D02*
X130600000Y-127349366D01*
X130600000Y-127349366D02*
X130633333Y-127216033D01*
X130633333Y-127216033D02*
X130633333Y-127116033D01*
X130633333Y-127116033D02*
X130600000Y-126982700D01*
X130600000Y-126982700D02*
X130566667Y-126916033D01*
X130566667Y-126916033D02*
X130500000Y-126849366D01*
X130500000Y-126849366D02*
X130400000Y-126816033D01*
X130400000Y-126816033D02*
X130333333Y-126816033D01*
X130333333Y-126816033D02*
X130233333Y-126849366D01*
X130233333Y-126849366D02*
X130200000Y-126882700D01*
X129900000Y-127249366D02*
X129366667Y-127249366D01*
X129033333Y-127516033D02*
X129033333Y-126816033D01*
X129033333Y-127082700D02*
X128966666Y-127049366D01*
X128966666Y-127049366D02*
X128833333Y-127049366D01*
X128833333Y-127049366D02*
X128766666Y-127082700D01*
X128766666Y-127082700D02*
X128733333Y-127116033D01*
X128733333Y-127116033D02*
X128700000Y-127182700D01*
X128700000Y-127182700D02*
X128700000Y-127382700D01*
X128700000Y-127382700D02*
X128733333Y-127449366D01*
X128733333Y-127449366D02*
X128766666Y-127482700D01*
X128766666Y-127482700D02*
X128833333Y-127516033D01*
X128833333Y-127516033D02*
X128966666Y-127516033D01*
X128966666Y-127516033D02*
X129033333Y-127482700D01*
D11*
X153125534Y-95155291D02*
X152586786Y-95694039D01*
X152250068Y-96030756D02*
X151711320Y-96569504D01*
X151172572Y-96704191D02*
X150835855Y-97444970D01*
X150835855Y-97444970D02*
X151576633Y-97108252D01*
D10*
X179533333Y-115516033D02*
X179533333Y-114816033D01*
X179066667Y-114816033D02*
X178933333Y-114816033D01*
X178933333Y-114816033D02*
X178866667Y-114849366D01*
X178866667Y-114849366D02*
X178800000Y-114916033D01*
X178800000Y-114916033D02*
X178766667Y-115049366D01*
X178766667Y-115049366D02*
X178766667Y-115282700D01*
X178766667Y-115282700D02*
X178800000Y-115416033D01*
X178800000Y-115416033D02*
X178866667Y-115482700D01*
X178866667Y-115482700D02*
X178933333Y-115516033D01*
X178933333Y-115516033D02*
X179066667Y-115516033D01*
X179066667Y-115516033D02*
X179133333Y-115482700D01*
X179133333Y-115482700D02*
X179200000Y-115416033D01*
X179200000Y-115416033D02*
X179233333Y-115282700D01*
X179233333Y-115282700D02*
X179233333Y-115049366D01*
X179233333Y-115049366D02*
X179200000Y-114916033D01*
X179200000Y-114916033D02*
X179133333Y-114849366D01*
X179133333Y-114849366D02*
X179066667Y-114816033D01*
X178100000Y-115516033D02*
X178500000Y-115516033D01*
X178300000Y-115516033D02*
X178300000Y-114816033D01*
X178300000Y-114816033D02*
X178366667Y-114916033D01*
X178366667Y-114916033D02*
X178433334Y-114982700D01*
X178433334Y-114982700D02*
X178500000Y-115016033D01*
X177833333Y-114882700D02*
X177800000Y-114849366D01*
X177800000Y-114849366D02*
X177733333Y-114816033D01*
X177733333Y-114816033D02*
X177566667Y-114816033D01*
X177566667Y-114816033D02*
X177500000Y-114849366D01*
X177500000Y-114849366D02*
X177466667Y-114882700D01*
X177466667Y-114882700D02*
X177433333Y-114949366D01*
X177433333Y-114949366D02*
X177433333Y-115016033D01*
X177433333Y-115016033D02*
X177466667Y-115116033D01*
X177466667Y-115116033D02*
X177866667Y-115516033D01*
X177866667Y-115516033D02*
X177433333Y-115516033D01*
X189133333Y-103016033D02*
X189133333Y-102316033D01*
X188666667Y-102316033D02*
X188533333Y-102316033D01*
X188533333Y-102316033D02*
X188466667Y-102349366D01*
X188466667Y-102349366D02*
X188400000Y-102416033D01*
X188400000Y-102416033D02*
X188366667Y-102549366D01*
X188366667Y-102549366D02*
X188366667Y-102782700D01*
X188366667Y-102782700D02*
X188400000Y-102916033D01*
X188400000Y-102916033D02*
X188466667Y-102982700D01*
X188466667Y-102982700D02*
X188533333Y-103016033D01*
X188533333Y-103016033D02*
X188666667Y-103016033D01*
X188666667Y-103016033D02*
X188733333Y-102982700D01*
X188733333Y-102982700D02*
X188800000Y-102916033D01*
X188800000Y-102916033D02*
X188833333Y-102782700D01*
X188833333Y-102782700D02*
X188833333Y-102549366D01*
X188833333Y-102549366D02*
X188800000Y-102416033D01*
X188800000Y-102416033D02*
X188733333Y-102349366D01*
X188733333Y-102349366D02*
X188666667Y-102316033D01*
X188133334Y-102316033D02*
X187700000Y-102316033D01*
X187700000Y-102316033D02*
X187933334Y-102582700D01*
X187933334Y-102582700D02*
X187833334Y-102582700D01*
X187833334Y-102582700D02*
X187766667Y-102616033D01*
X187766667Y-102616033D02*
X187733334Y-102649366D01*
X187733334Y-102649366D02*
X187700000Y-102716033D01*
X187700000Y-102716033D02*
X187700000Y-102882700D01*
X187700000Y-102882700D02*
X187733334Y-102949366D01*
X187733334Y-102949366D02*
X187766667Y-102982700D01*
X187766667Y-102982700D02*
X187833334Y-103016033D01*
X187833334Y-103016033D02*
X188033334Y-103016033D01*
X188033334Y-103016033D02*
X188100000Y-102982700D01*
X188100000Y-102982700D02*
X188133334Y-102949366D01*
X187066667Y-102316033D02*
X187400000Y-102316033D01*
X187400000Y-102316033D02*
X187433333Y-102649366D01*
X187433333Y-102649366D02*
X187400000Y-102616033D01*
X187400000Y-102616033D02*
X187333333Y-102582700D01*
X187333333Y-102582700D02*
X187166667Y-102582700D01*
X187166667Y-102582700D02*
X187100000Y-102616033D01*
X187100000Y-102616033D02*
X187066667Y-102649366D01*
X187066667Y-102649366D02*
X187033333Y-102716033D01*
X187033333Y-102716033D02*
X187033333Y-102882700D01*
X187033333Y-102882700D02*
X187066667Y-102949366D01*
X187066667Y-102949366D02*
X187100000Y-102982700D01*
X187100000Y-102982700D02*
X187166667Y-103016033D01*
X187166667Y-103016033D02*
X187333333Y-103016033D01*
X187333333Y-103016033D02*
X187400000Y-102982700D01*
X187400000Y-102982700D02*
X187433333Y-102949366D01*
X179199999Y-107916033D02*
X179199999Y-107216033D01*
X178733333Y-107216033D02*
X178599999Y-107216033D01*
X178599999Y-107216033D02*
X178533333Y-107249366D01*
X178533333Y-107249366D02*
X178466666Y-107316033D01*
X178466666Y-107316033D02*
X178433333Y-107449366D01*
X178433333Y-107449366D02*
X178433333Y-107682700D01*
X178433333Y-107682700D02*
X178466666Y-107816033D01*
X178466666Y-107816033D02*
X178533333Y-107882700D01*
X178533333Y-107882700D02*
X178599999Y-107916033D01*
X178599999Y-107916033D02*
X178733333Y-107916033D01*
X178733333Y-107916033D02*
X178799999Y-107882700D01*
X178799999Y-107882700D02*
X178866666Y-107816033D01*
X178866666Y-107816033D02*
X178899999Y-107682700D01*
X178899999Y-107682700D02*
X178899999Y-107449366D01*
X178899999Y-107449366D02*
X178866666Y-107316033D01*
X178866666Y-107316033D02*
X178799999Y-107249366D01*
X178799999Y-107249366D02*
X178733333Y-107216033D01*
X177833333Y-107216033D02*
X177966666Y-107216033D01*
X177966666Y-107216033D02*
X178033333Y-107249366D01*
X178033333Y-107249366D02*
X178066666Y-107282700D01*
X178066666Y-107282700D02*
X178133333Y-107382700D01*
X178133333Y-107382700D02*
X178166666Y-107516033D01*
X178166666Y-107516033D02*
X178166666Y-107782700D01*
X178166666Y-107782700D02*
X178133333Y-107849366D01*
X178133333Y-107849366D02*
X178100000Y-107882700D01*
X178100000Y-107882700D02*
X178033333Y-107916033D01*
X178033333Y-107916033D02*
X177900000Y-107916033D01*
X177900000Y-107916033D02*
X177833333Y-107882700D01*
X177833333Y-107882700D02*
X177800000Y-107849366D01*
X177800000Y-107849366D02*
X177766666Y-107782700D01*
X177766666Y-107782700D02*
X177766666Y-107616033D01*
X177766666Y-107616033D02*
X177800000Y-107549366D01*
X177800000Y-107549366D02*
X177833333Y-107516033D01*
X177833333Y-107516033D02*
X177900000Y-107482700D01*
X177900000Y-107482700D02*
X178033333Y-107482700D01*
X178033333Y-107482700D02*
X178100000Y-107516033D01*
X178100000Y-107516033D02*
X178133333Y-107549366D01*
X178133333Y-107549366D02*
X178166666Y-107616033D01*
X189183333Y-105416033D02*
X189183333Y-104716033D01*
X188716667Y-104716033D02*
X188583333Y-104716033D01*
X188583333Y-104716033D02*
X188516667Y-104749366D01*
X188516667Y-104749366D02*
X188450000Y-104816033D01*
X188450000Y-104816033D02*
X188416667Y-104949366D01*
X188416667Y-104949366D02*
X188416667Y-105182700D01*
X188416667Y-105182700D02*
X188450000Y-105316033D01*
X188450000Y-105316033D02*
X188516667Y-105382700D01*
X188516667Y-105382700D02*
X188583333Y-105416033D01*
X188583333Y-105416033D02*
X188716667Y-105416033D01*
X188716667Y-105416033D02*
X188783333Y-105382700D01*
X188783333Y-105382700D02*
X188850000Y-105316033D01*
X188850000Y-105316033D02*
X188883333Y-105182700D01*
X188883333Y-105182700D02*
X188883333Y-104949366D01*
X188883333Y-104949366D02*
X188850000Y-104816033D01*
X188850000Y-104816033D02*
X188783333Y-104749366D01*
X188783333Y-104749366D02*
X188716667Y-104716033D01*
X188183334Y-104716033D02*
X187750000Y-104716033D01*
X187750000Y-104716033D02*
X187983334Y-104982700D01*
X187983334Y-104982700D02*
X187883334Y-104982700D01*
X187883334Y-104982700D02*
X187816667Y-105016033D01*
X187816667Y-105016033D02*
X187783334Y-105049366D01*
X187783334Y-105049366D02*
X187750000Y-105116033D01*
X187750000Y-105116033D02*
X187750000Y-105282700D01*
X187750000Y-105282700D02*
X187783334Y-105349366D01*
X187783334Y-105349366D02*
X187816667Y-105382700D01*
X187816667Y-105382700D02*
X187883334Y-105416033D01*
X187883334Y-105416033D02*
X188083334Y-105416033D01*
X188083334Y-105416033D02*
X188150000Y-105382700D01*
X188150000Y-105382700D02*
X188183334Y-105349366D01*
X187150000Y-104716033D02*
X187283333Y-104716033D01*
X187283333Y-104716033D02*
X187350000Y-104749366D01*
X187350000Y-104749366D02*
X187383333Y-104782700D01*
X187383333Y-104782700D02*
X187450000Y-104882700D01*
X187450000Y-104882700D02*
X187483333Y-105016033D01*
X187483333Y-105016033D02*
X187483333Y-105282700D01*
X187483333Y-105282700D02*
X187450000Y-105349366D01*
X187450000Y-105349366D02*
X187416667Y-105382700D01*
X187416667Y-105382700D02*
X187350000Y-105416033D01*
X187350000Y-105416033D02*
X187216667Y-105416033D01*
X187216667Y-105416033D02*
X187150000Y-105382700D01*
X187150000Y-105382700D02*
X187116667Y-105349366D01*
X187116667Y-105349366D02*
X187083333Y-105282700D01*
X187083333Y-105282700D02*
X187083333Y-105116033D01*
X187083333Y-105116033D02*
X187116667Y-105049366D01*
X187116667Y-105049366D02*
X187150000Y-105016033D01*
X187150000Y-105016033D02*
X187216667Y-104982700D01*
X187216667Y-104982700D02*
X187350000Y-104982700D01*
X187350000Y-104982700D02*
X187416667Y-105016033D01*
X187416667Y-105016033D02*
X187450000Y-105049366D01*
X187450000Y-105049366D02*
X187483333Y-105116033D01*
X179533333Y-130716033D02*
X179533333Y-130016033D01*
X179066667Y-130016033D02*
X178933333Y-130016033D01*
X178933333Y-130016033D02*
X178866667Y-130049366D01*
X178866667Y-130049366D02*
X178800000Y-130116033D01*
X178800000Y-130116033D02*
X178766667Y-130249366D01*
X178766667Y-130249366D02*
X178766667Y-130482700D01*
X178766667Y-130482700D02*
X178800000Y-130616033D01*
X178800000Y-130616033D02*
X178866667Y-130682700D01*
X178866667Y-130682700D02*
X178933333Y-130716033D01*
X178933333Y-130716033D02*
X179066667Y-130716033D01*
X179066667Y-130716033D02*
X179133333Y-130682700D01*
X179133333Y-130682700D02*
X179200000Y-130616033D01*
X179200000Y-130616033D02*
X179233333Y-130482700D01*
X179233333Y-130482700D02*
X179233333Y-130249366D01*
X179233333Y-130249366D02*
X179200000Y-130116033D01*
X179200000Y-130116033D02*
X179133333Y-130049366D01*
X179133333Y-130049366D02*
X179066667Y-130016033D01*
X178100000Y-130716033D02*
X178500000Y-130716033D01*
X178300000Y-130716033D02*
X178300000Y-130016033D01*
X178300000Y-130016033D02*
X178366667Y-130116033D01*
X178366667Y-130116033D02*
X178433334Y-130182700D01*
X178433334Y-130182700D02*
X178500000Y-130216033D01*
X177700000Y-130316033D02*
X177766667Y-130282700D01*
X177766667Y-130282700D02*
X177800000Y-130249366D01*
X177800000Y-130249366D02*
X177833333Y-130182700D01*
X177833333Y-130182700D02*
X177833333Y-130149366D01*
X177833333Y-130149366D02*
X177800000Y-130082700D01*
X177800000Y-130082700D02*
X177766667Y-130049366D01*
X177766667Y-130049366D02*
X177700000Y-130016033D01*
X177700000Y-130016033D02*
X177566667Y-130016033D01*
X177566667Y-130016033D02*
X177500000Y-130049366D01*
X177500000Y-130049366D02*
X177466667Y-130082700D01*
X177466667Y-130082700D02*
X177433333Y-130149366D01*
X177433333Y-130149366D02*
X177433333Y-130182700D01*
X177433333Y-130182700D02*
X177466667Y-130249366D01*
X177466667Y-130249366D02*
X177500000Y-130282700D01*
X177500000Y-130282700D02*
X177566667Y-130316033D01*
X177566667Y-130316033D02*
X177700000Y-130316033D01*
X177700000Y-130316033D02*
X177766667Y-130349366D01*
X177766667Y-130349366D02*
X177800000Y-130382700D01*
X177800000Y-130382700D02*
X177833333Y-130449366D01*
X177833333Y-130449366D02*
X177833333Y-130582700D01*
X177833333Y-130582700D02*
X177800000Y-130649366D01*
X177800000Y-130649366D02*
X177766667Y-130682700D01*
X177766667Y-130682700D02*
X177700000Y-130716033D01*
X177700000Y-130716033D02*
X177566667Y-130716033D01*
X177566667Y-130716033D02*
X177500000Y-130682700D01*
X177500000Y-130682700D02*
X177466667Y-130649366D01*
X177466667Y-130649366D02*
X177433333Y-130582700D01*
X177433333Y-130582700D02*
X177433333Y-130449366D01*
X177433333Y-130449366D02*
X177466667Y-130382700D01*
X177466667Y-130382700D02*
X177500000Y-130349366D01*
X177500000Y-130349366D02*
X177566667Y-130316033D01*
X136049999Y-127516033D02*
X136049999Y-126816033D01*
X135749999Y-126649366D02*
X135683333Y-126616033D01*
X135683333Y-126616033D02*
X135583333Y-126616033D01*
X135583333Y-126616033D02*
X135516666Y-126649366D01*
X135516666Y-126649366D02*
X135483333Y-126716033D01*
X135483333Y-126716033D02*
X135483333Y-126782700D01*
X135483333Y-126782700D02*
X135516666Y-126849366D01*
X135516666Y-126849366D02*
X135749999Y-127082700D01*
X135749999Y-127082700D02*
X135483333Y-127082700D01*
X134783333Y-127449366D02*
X134816666Y-127482700D01*
X134816666Y-127482700D02*
X134916666Y-127516033D01*
X134916666Y-127516033D02*
X134983333Y-127516033D01*
X134983333Y-127516033D02*
X135083333Y-127482700D01*
X135083333Y-127482700D02*
X135150000Y-127416033D01*
X135150000Y-127416033D02*
X135183333Y-127349366D01*
X135183333Y-127349366D02*
X135216666Y-127216033D01*
X135216666Y-127216033D02*
X135216666Y-127116033D01*
X135216666Y-127116033D02*
X135183333Y-126982700D01*
X135183333Y-126982700D02*
X135150000Y-126916033D01*
X135150000Y-126916033D02*
X135083333Y-126849366D01*
X135083333Y-126849366D02*
X134983333Y-126816033D01*
X134983333Y-126816033D02*
X134916666Y-126816033D01*
X134916666Y-126816033D02*
X134816666Y-126849366D01*
X134816666Y-126849366D02*
X134783333Y-126882700D01*
X134483333Y-127249366D02*
X133950000Y-127249366D01*
X133316666Y-127482700D02*
X133383333Y-127516033D01*
X133383333Y-127516033D02*
X133516666Y-127516033D01*
X133516666Y-127516033D02*
X133583333Y-127482700D01*
X133583333Y-127482700D02*
X133616666Y-127449366D01*
X133616666Y-127449366D02*
X133649999Y-127382700D01*
X133649999Y-127382700D02*
X133649999Y-127182700D01*
X133649999Y-127182700D02*
X133616666Y-127116033D01*
X133616666Y-127116033D02*
X133583333Y-127082700D01*
X133583333Y-127082700D02*
X133516666Y-127049366D01*
X133516666Y-127049366D02*
X133383333Y-127049366D01*
X133383333Y-127049366D02*
X133316666Y-127082700D01*
X189183333Y-125816033D02*
X189183333Y-125116033D01*
X188716667Y-125116033D02*
X188583333Y-125116033D01*
X188583333Y-125116033D02*
X188516667Y-125149366D01*
X188516667Y-125149366D02*
X188450000Y-125216033D01*
X188450000Y-125216033D02*
X188416667Y-125349366D01*
X188416667Y-125349366D02*
X188416667Y-125582700D01*
X188416667Y-125582700D02*
X188450000Y-125716033D01*
X188450000Y-125716033D02*
X188516667Y-125782700D01*
X188516667Y-125782700D02*
X188583333Y-125816033D01*
X188583333Y-125816033D02*
X188716667Y-125816033D01*
X188716667Y-125816033D02*
X188783333Y-125782700D01*
X188783333Y-125782700D02*
X188850000Y-125716033D01*
X188850000Y-125716033D02*
X188883333Y-125582700D01*
X188883333Y-125582700D02*
X188883333Y-125349366D01*
X188883333Y-125349366D02*
X188850000Y-125216033D01*
X188850000Y-125216033D02*
X188783333Y-125149366D01*
X188783333Y-125149366D02*
X188716667Y-125116033D01*
X187816667Y-125349366D02*
X187816667Y-125816033D01*
X187983334Y-125082700D02*
X188150000Y-125582700D01*
X188150000Y-125582700D02*
X187716667Y-125582700D01*
X187116667Y-125116033D02*
X187450000Y-125116033D01*
X187450000Y-125116033D02*
X187483333Y-125449366D01*
X187483333Y-125449366D02*
X187450000Y-125416033D01*
X187450000Y-125416033D02*
X187383333Y-125382700D01*
X187383333Y-125382700D02*
X187216667Y-125382700D01*
X187216667Y-125382700D02*
X187150000Y-125416033D01*
X187150000Y-125416033D02*
X187116667Y-125449366D01*
X187116667Y-125449366D02*
X187083333Y-125516033D01*
X187083333Y-125516033D02*
X187083333Y-125682700D01*
X187083333Y-125682700D02*
X187116667Y-125749366D01*
X187116667Y-125749366D02*
X187150000Y-125782700D01*
X187150000Y-125782700D02*
X187216667Y-125816033D01*
X187216667Y-125816033D02*
X187383333Y-125816033D01*
X187383333Y-125816033D02*
X187450000Y-125782700D01*
X187450000Y-125782700D02*
X187483333Y-125749366D01*
X179666666Y-122416033D02*
X179266666Y-122416033D01*
X179466666Y-123116033D02*
X179466666Y-122416033D01*
X179100000Y-123116033D02*
X178733333Y-122649366D01*
X179100000Y-122649366D02*
X178733333Y-123116033D01*
X178466666Y-123116033D02*
X178466666Y-122416033D01*
X178466666Y-122416033D02*
X178299999Y-122416033D01*
X178299999Y-122416033D02*
X178199999Y-122449366D01*
X178199999Y-122449366D02*
X178133333Y-122516033D01*
X178133333Y-122516033D02*
X178099999Y-122582700D01*
X178099999Y-122582700D02*
X178066666Y-122716033D01*
X178066666Y-122716033D02*
X178066666Y-122816033D01*
X178066666Y-122816033D02*
X178099999Y-122949366D01*
X178099999Y-122949366D02*
X178133333Y-123016033D01*
X178133333Y-123016033D02*
X178199999Y-123082700D01*
X178199999Y-123082700D02*
X178299999Y-123116033D01*
X178299999Y-123116033D02*
X178466666Y-123116033D01*
X177633333Y-122416033D02*
X177566666Y-122416033D01*
X177566666Y-122416033D02*
X177499999Y-122449366D01*
X177499999Y-122449366D02*
X177466666Y-122482700D01*
X177466666Y-122482700D02*
X177433333Y-122549366D01*
X177433333Y-122549366D02*
X177399999Y-122682700D01*
X177399999Y-122682700D02*
X177399999Y-122849366D01*
X177399999Y-122849366D02*
X177433333Y-122982700D01*
X177433333Y-122982700D02*
X177466666Y-123049366D01*
X177466666Y-123049366D02*
X177499999Y-123082700D01*
X177499999Y-123082700D02*
X177566666Y-123116033D01*
X177566666Y-123116033D02*
X177633333Y-123116033D01*
X177633333Y-123116033D02*
X177699999Y-123082700D01*
X177699999Y-123082700D02*
X177733333Y-123049366D01*
X177733333Y-123049366D02*
X177766666Y-122982700D01*
X177766666Y-122982700D02*
X177799999Y-122849366D01*
X177799999Y-122849366D02*
X177799999Y-122682700D01*
X177799999Y-122682700D02*
X177766666Y-122549366D01*
X177766666Y-122549366D02*
X177733333Y-122482700D01*
X177733333Y-122482700D02*
X177699999Y-122449366D01*
X177699999Y-122449366D02*
X177633333Y-122416033D01*
X179199999Y-110416033D02*
X179199999Y-109716033D01*
X178733333Y-109716033D02*
X178599999Y-109716033D01*
X178599999Y-109716033D02*
X178533333Y-109749366D01*
X178533333Y-109749366D02*
X178466666Y-109816033D01*
X178466666Y-109816033D02*
X178433333Y-109949366D01*
X178433333Y-109949366D02*
X178433333Y-110182700D01*
X178433333Y-110182700D02*
X178466666Y-110316033D01*
X178466666Y-110316033D02*
X178533333Y-110382700D01*
X178533333Y-110382700D02*
X178599999Y-110416033D01*
X178599999Y-110416033D02*
X178733333Y-110416033D01*
X178733333Y-110416033D02*
X178799999Y-110382700D01*
X178799999Y-110382700D02*
X178866666Y-110316033D01*
X178866666Y-110316033D02*
X178899999Y-110182700D01*
X178899999Y-110182700D02*
X178899999Y-109949366D01*
X178899999Y-109949366D02*
X178866666Y-109816033D01*
X178866666Y-109816033D02*
X178799999Y-109749366D01*
X178799999Y-109749366D02*
X178733333Y-109716033D01*
X178200000Y-109716033D02*
X177733333Y-109716033D01*
X177733333Y-109716033D02*
X178033333Y-110416033D01*
X179250000Y-125716033D02*
X179483333Y-125382700D01*
X179650000Y-125716033D02*
X179650000Y-125016033D01*
X179650000Y-125016033D02*
X179383333Y-125016033D01*
X179383333Y-125016033D02*
X179316667Y-125049366D01*
X179316667Y-125049366D02*
X179283333Y-125082700D01*
X179283333Y-125082700D02*
X179250000Y-125149366D01*
X179250000Y-125149366D02*
X179250000Y-125249366D01*
X179250000Y-125249366D02*
X179283333Y-125316033D01*
X179283333Y-125316033D02*
X179316667Y-125349366D01*
X179316667Y-125349366D02*
X179383333Y-125382700D01*
X179383333Y-125382700D02*
X179650000Y-125382700D01*
X179016667Y-125716033D02*
X178650000Y-125249366D01*
X179016667Y-125249366D02*
X178650000Y-125716033D01*
X178383333Y-125716033D02*
X178383333Y-125016033D01*
X178383333Y-125016033D02*
X178216666Y-125016033D01*
X178216666Y-125016033D02*
X178116666Y-125049366D01*
X178116666Y-125049366D02*
X178050000Y-125116033D01*
X178050000Y-125116033D02*
X178016666Y-125182700D01*
X178016666Y-125182700D02*
X177983333Y-125316033D01*
X177983333Y-125316033D02*
X177983333Y-125416033D01*
X177983333Y-125416033D02*
X178016666Y-125549366D01*
X178016666Y-125549366D02*
X178050000Y-125616033D01*
X178050000Y-125616033D02*
X178116666Y-125682700D01*
X178116666Y-125682700D02*
X178216666Y-125716033D01*
X178216666Y-125716033D02*
X178383333Y-125716033D01*
X177550000Y-125016033D02*
X177483333Y-125016033D01*
X177483333Y-125016033D02*
X177416666Y-125049366D01*
X177416666Y-125049366D02*
X177383333Y-125082700D01*
X177383333Y-125082700D02*
X177350000Y-125149366D01*
X177350000Y-125149366D02*
X177316666Y-125282700D01*
X177316666Y-125282700D02*
X177316666Y-125449366D01*
X177316666Y-125449366D02*
X177350000Y-125582700D01*
X177350000Y-125582700D02*
X177383333Y-125649366D01*
X177383333Y-125649366D02*
X177416666Y-125682700D01*
X177416666Y-125682700D02*
X177483333Y-125716033D01*
X177483333Y-125716033D02*
X177550000Y-125716033D01*
X177550000Y-125716033D02*
X177616666Y-125682700D01*
X177616666Y-125682700D02*
X177650000Y-125649366D01*
X177650000Y-125649366D02*
X177683333Y-125582700D01*
X177683333Y-125582700D02*
X177716666Y-125449366D01*
X177716666Y-125449366D02*
X177716666Y-125282700D01*
X177716666Y-125282700D02*
X177683333Y-125149366D01*
X177683333Y-125149366D02*
X177650000Y-125082700D01*
X177650000Y-125082700D02*
X177616666Y-125049366D01*
X177616666Y-125049366D02*
X177550000Y-125016033D01*
X179199999Y-105316033D02*
X179199999Y-104616033D01*
X178733333Y-104616033D02*
X178599999Y-104616033D01*
X178599999Y-104616033D02*
X178533333Y-104649366D01*
X178533333Y-104649366D02*
X178466666Y-104716033D01*
X178466666Y-104716033D02*
X178433333Y-104849366D01*
X178433333Y-104849366D02*
X178433333Y-105082700D01*
X178433333Y-105082700D02*
X178466666Y-105216033D01*
X178466666Y-105216033D02*
X178533333Y-105282700D01*
X178533333Y-105282700D02*
X178599999Y-105316033D01*
X178599999Y-105316033D02*
X178733333Y-105316033D01*
X178733333Y-105316033D02*
X178799999Y-105282700D01*
X178799999Y-105282700D02*
X178866666Y-105216033D01*
X178866666Y-105216033D02*
X178899999Y-105082700D01*
X178899999Y-105082700D02*
X178899999Y-104849366D01*
X178899999Y-104849366D02*
X178866666Y-104716033D01*
X178866666Y-104716033D02*
X178799999Y-104649366D01*
X178799999Y-104649366D02*
X178733333Y-104616033D01*
X178200000Y-104616033D02*
X177766666Y-104616033D01*
X177766666Y-104616033D02*
X178000000Y-104882700D01*
X178000000Y-104882700D02*
X177900000Y-104882700D01*
X177900000Y-104882700D02*
X177833333Y-104916033D01*
X177833333Y-104916033D02*
X177800000Y-104949366D01*
X177800000Y-104949366D02*
X177766666Y-105016033D01*
X177766666Y-105016033D02*
X177766666Y-105182700D01*
X177766666Y-105182700D02*
X177800000Y-105249366D01*
X177800000Y-105249366D02*
X177833333Y-105282700D01*
X177833333Y-105282700D02*
X177900000Y-105316033D01*
X177900000Y-105316033D02*
X178100000Y-105316033D01*
X178100000Y-105316033D02*
X178166666Y-105282700D01*
X178166666Y-105282700D02*
X178200000Y-105249366D01*
X179900000Y-132749366D02*
X179366667Y-132749366D01*
X179633333Y-133016033D02*
X179633333Y-132482700D01*
X178700000Y-132316033D02*
X179033333Y-132316033D01*
X179033333Y-132316033D02*
X179066666Y-132649366D01*
X179066666Y-132649366D02*
X179033333Y-132616033D01*
X179033333Y-132616033D02*
X178966666Y-132582700D01*
X178966666Y-132582700D02*
X178800000Y-132582700D01*
X178800000Y-132582700D02*
X178733333Y-132616033D01*
X178733333Y-132616033D02*
X178700000Y-132649366D01*
X178700000Y-132649366D02*
X178666666Y-132716033D01*
X178666666Y-132716033D02*
X178666666Y-132882700D01*
X178666666Y-132882700D02*
X178700000Y-132949366D01*
X178700000Y-132949366D02*
X178733333Y-132982700D01*
X178733333Y-132982700D02*
X178800000Y-133016033D01*
X178800000Y-133016033D02*
X178966666Y-133016033D01*
X178966666Y-133016033D02*
X179033333Y-132982700D01*
X179033333Y-132982700D02*
X179066666Y-132949366D01*
X178466666Y-132316033D02*
X178233333Y-133016033D01*
X178233333Y-133016033D02*
X177999999Y-132316033D01*
X189016667Y-130116033D02*
X188583333Y-130116033D01*
X188583333Y-130116033D02*
X188816667Y-130382700D01*
X188816667Y-130382700D02*
X188716667Y-130382700D01*
X188716667Y-130382700D02*
X188650000Y-130416033D01*
X188650000Y-130416033D02*
X188616667Y-130449366D01*
X188616667Y-130449366D02*
X188583333Y-130516033D01*
X188583333Y-130516033D02*
X188583333Y-130682700D01*
X188583333Y-130682700D02*
X188616667Y-130749366D01*
X188616667Y-130749366D02*
X188650000Y-130782700D01*
X188650000Y-130782700D02*
X188716667Y-130816033D01*
X188716667Y-130816033D02*
X188916667Y-130816033D01*
X188916667Y-130816033D02*
X188983333Y-130782700D01*
X188983333Y-130782700D02*
X189016667Y-130749366D01*
X188383333Y-130116033D02*
X188150000Y-130816033D01*
X188150000Y-130816033D02*
X187916666Y-130116033D01*
X187750000Y-130116033D02*
X187316666Y-130116033D01*
X187316666Y-130116033D02*
X187550000Y-130382700D01*
X187550000Y-130382700D02*
X187450000Y-130382700D01*
X187450000Y-130382700D02*
X187383333Y-130416033D01*
X187383333Y-130416033D02*
X187350000Y-130449366D01*
X187350000Y-130449366D02*
X187316666Y-130516033D01*
X187316666Y-130516033D02*
X187316666Y-130682700D01*
X187316666Y-130682700D02*
X187350000Y-130749366D01*
X187350000Y-130749366D02*
X187383333Y-130782700D01*
X187383333Y-130782700D02*
X187450000Y-130816033D01*
X187450000Y-130816033D02*
X187650000Y-130816033D01*
X187650000Y-130816033D02*
X187716666Y-130782700D01*
X187716666Y-130782700D02*
X187750000Y-130749366D01*
X179533333Y-120616033D02*
X179533333Y-119916033D01*
X179066667Y-119916033D02*
X178933333Y-119916033D01*
X178933333Y-119916033D02*
X178866667Y-119949366D01*
X178866667Y-119949366D02*
X178800000Y-120016033D01*
X178800000Y-120016033D02*
X178766667Y-120149366D01*
X178766667Y-120149366D02*
X178766667Y-120382700D01*
X178766667Y-120382700D02*
X178800000Y-120516033D01*
X178800000Y-120516033D02*
X178866667Y-120582700D01*
X178866667Y-120582700D02*
X178933333Y-120616033D01*
X178933333Y-120616033D02*
X179066667Y-120616033D01*
X179066667Y-120616033D02*
X179133333Y-120582700D01*
X179133333Y-120582700D02*
X179200000Y-120516033D01*
X179200000Y-120516033D02*
X179233333Y-120382700D01*
X179233333Y-120382700D02*
X179233333Y-120149366D01*
X179233333Y-120149366D02*
X179200000Y-120016033D01*
X179200000Y-120016033D02*
X179133333Y-119949366D01*
X179133333Y-119949366D02*
X179066667Y-119916033D01*
X178100000Y-120616033D02*
X178500000Y-120616033D01*
X178300000Y-120616033D02*
X178300000Y-119916033D01*
X178300000Y-119916033D02*
X178366667Y-120016033D01*
X178366667Y-120016033D02*
X178433334Y-120082700D01*
X178433334Y-120082700D02*
X178500000Y-120116033D01*
X177500000Y-120149366D02*
X177500000Y-120616033D01*
X177666667Y-119882700D02*
X177833333Y-120382700D01*
X177833333Y-120382700D02*
X177400000Y-120382700D01*
X189183333Y-123216033D02*
X189183333Y-122516033D01*
X188716667Y-122516033D02*
X188583333Y-122516033D01*
X188583333Y-122516033D02*
X188516667Y-122549366D01*
X188516667Y-122549366D02*
X188450000Y-122616033D01*
X188450000Y-122616033D02*
X188416667Y-122749366D01*
X188416667Y-122749366D02*
X188416667Y-122982700D01*
X188416667Y-122982700D02*
X188450000Y-123116033D01*
X188450000Y-123116033D02*
X188516667Y-123182700D01*
X188516667Y-123182700D02*
X188583333Y-123216033D01*
X188583333Y-123216033D02*
X188716667Y-123216033D01*
X188716667Y-123216033D02*
X188783333Y-123182700D01*
X188783333Y-123182700D02*
X188850000Y-123116033D01*
X188850000Y-123116033D02*
X188883333Y-122982700D01*
X188883333Y-122982700D02*
X188883333Y-122749366D01*
X188883333Y-122749366D02*
X188850000Y-122616033D01*
X188850000Y-122616033D02*
X188783333Y-122549366D01*
X188783333Y-122549366D02*
X188716667Y-122516033D01*
X187816667Y-122749366D02*
X187816667Y-123216033D01*
X187983334Y-122482700D02*
X188150000Y-122982700D01*
X188150000Y-122982700D02*
X187716667Y-122982700D01*
X187150000Y-122749366D02*
X187150000Y-123216033D01*
X187316667Y-122482700D02*
X187483333Y-122982700D01*
X187483333Y-122982700D02*
X187050000Y-122982700D01*
X189183333Y-128316033D02*
X189183333Y-127616033D01*
X188716667Y-127616033D02*
X188583333Y-127616033D01*
X188583333Y-127616033D02*
X188516667Y-127649366D01*
X188516667Y-127649366D02*
X188450000Y-127716033D01*
X188450000Y-127716033D02*
X188416667Y-127849366D01*
X188416667Y-127849366D02*
X188416667Y-128082700D01*
X188416667Y-128082700D02*
X188450000Y-128216033D01*
X188450000Y-128216033D02*
X188516667Y-128282700D01*
X188516667Y-128282700D02*
X188583333Y-128316033D01*
X188583333Y-128316033D02*
X188716667Y-128316033D01*
X188716667Y-128316033D02*
X188783333Y-128282700D01*
X188783333Y-128282700D02*
X188850000Y-128216033D01*
X188850000Y-128216033D02*
X188883333Y-128082700D01*
X188883333Y-128082700D02*
X188883333Y-127849366D01*
X188883333Y-127849366D02*
X188850000Y-127716033D01*
X188850000Y-127716033D02*
X188783333Y-127649366D01*
X188783333Y-127649366D02*
X188716667Y-127616033D01*
X187816667Y-127849366D02*
X187816667Y-128316033D01*
X187983334Y-127582700D02*
X188150000Y-128082700D01*
X188150000Y-128082700D02*
X187716667Y-128082700D01*
X187150000Y-127616033D02*
X187283333Y-127616033D01*
X187283333Y-127616033D02*
X187350000Y-127649366D01*
X187350000Y-127649366D02*
X187383333Y-127682700D01*
X187383333Y-127682700D02*
X187450000Y-127782700D01*
X187450000Y-127782700D02*
X187483333Y-127916033D01*
X187483333Y-127916033D02*
X187483333Y-128182700D01*
X187483333Y-128182700D02*
X187450000Y-128249366D01*
X187450000Y-128249366D02*
X187416667Y-128282700D01*
X187416667Y-128282700D02*
X187350000Y-128316033D01*
X187350000Y-128316033D02*
X187216667Y-128316033D01*
X187216667Y-128316033D02*
X187150000Y-128282700D01*
X187150000Y-128282700D02*
X187116667Y-128249366D01*
X187116667Y-128249366D02*
X187083333Y-128182700D01*
X187083333Y-128182700D02*
X187083333Y-128016033D01*
X187083333Y-128016033D02*
X187116667Y-127949366D01*
X187116667Y-127949366D02*
X187150000Y-127916033D01*
X187150000Y-127916033D02*
X187216667Y-127882700D01*
X187216667Y-127882700D02*
X187350000Y-127882700D01*
X187350000Y-127882700D02*
X187416667Y-127916033D01*
X187416667Y-127916033D02*
X187450000Y-127949366D01*
X187450000Y-127949366D02*
X187483333Y-128016033D01*
X189666666Y-132716033D02*
X189666666Y-133282700D01*
X189666666Y-133282700D02*
X189633333Y-133349366D01*
X189633333Y-133349366D02*
X189599999Y-133382700D01*
X189599999Y-133382700D02*
X189533333Y-133416033D01*
X189533333Y-133416033D02*
X189399999Y-133416033D01*
X189399999Y-133416033D02*
X189333333Y-133382700D01*
X189333333Y-133382700D02*
X189299999Y-133349366D01*
X189299999Y-133349366D02*
X189266666Y-133282700D01*
X189266666Y-133282700D02*
X189266666Y-132716033D01*
X188966666Y-133382700D02*
X188866666Y-133416033D01*
X188866666Y-133416033D02*
X188700000Y-133416033D01*
X188700000Y-133416033D02*
X188633333Y-133382700D01*
X188633333Y-133382700D02*
X188600000Y-133349366D01*
X188600000Y-133349366D02*
X188566666Y-133282700D01*
X188566666Y-133282700D02*
X188566666Y-133216033D01*
X188566666Y-133216033D02*
X188600000Y-133149366D01*
X188600000Y-133149366D02*
X188633333Y-133116033D01*
X188633333Y-133116033D02*
X188700000Y-133082700D01*
X188700000Y-133082700D02*
X188833333Y-133049366D01*
X188833333Y-133049366D02*
X188900000Y-133016033D01*
X188900000Y-133016033D02*
X188933333Y-132982700D01*
X188933333Y-132982700D02*
X188966666Y-132916033D01*
X188966666Y-132916033D02*
X188966666Y-132849366D01*
X188966666Y-132849366D02*
X188933333Y-132782700D01*
X188933333Y-132782700D02*
X188900000Y-132749366D01*
X188900000Y-132749366D02*
X188833333Y-132716033D01*
X188833333Y-132716033D02*
X188666666Y-132716033D01*
X188666666Y-132716033D02*
X188566666Y-132749366D01*
X188033333Y-133049366D02*
X187933333Y-133082700D01*
X187933333Y-133082700D02*
X187899999Y-133116033D01*
X187899999Y-133116033D02*
X187866666Y-133182700D01*
X187866666Y-133182700D02*
X187866666Y-133282700D01*
X187866666Y-133282700D02*
X187899999Y-133349366D01*
X187899999Y-133349366D02*
X187933333Y-133382700D01*
X187933333Y-133382700D02*
X187999999Y-133416033D01*
X187999999Y-133416033D02*
X188266666Y-133416033D01*
X188266666Y-133416033D02*
X188266666Y-132716033D01*
X188266666Y-132716033D02*
X188033333Y-132716033D01*
X188033333Y-132716033D02*
X187966666Y-132749366D01*
X187966666Y-132749366D02*
X187933333Y-132782700D01*
X187933333Y-132782700D02*
X187899999Y-132849366D01*
X187899999Y-132849366D02*
X187899999Y-132916033D01*
X187899999Y-132916033D02*
X187933333Y-132982700D01*
X187933333Y-132982700D02*
X187966666Y-133016033D01*
X187966666Y-133016033D02*
X188033333Y-133049366D01*
X188033333Y-133049366D02*
X188266666Y-133049366D01*
X187233333Y-132716033D02*
X187566666Y-132716033D01*
X187566666Y-132716033D02*
X187599999Y-133049366D01*
X187599999Y-133049366D02*
X187566666Y-133016033D01*
X187566666Y-133016033D02*
X187499999Y-132982700D01*
X187499999Y-132982700D02*
X187333333Y-132982700D01*
X187333333Y-132982700D02*
X187266666Y-133016033D01*
X187266666Y-133016033D02*
X187233333Y-133049366D01*
X187233333Y-133049366D02*
X187199999Y-133116033D01*
X187199999Y-133116033D02*
X187199999Y-133282700D01*
X187199999Y-133282700D02*
X187233333Y-133349366D01*
X187233333Y-133349366D02*
X187266666Y-133382700D01*
X187266666Y-133382700D02*
X187333333Y-133416033D01*
X187333333Y-133416033D02*
X187499999Y-133416033D01*
X187499999Y-133416033D02*
X187566666Y-133382700D01*
X187566666Y-133382700D02*
X187599999Y-133349366D01*
X186999999Y-132716033D02*
X186766666Y-133416033D01*
X186766666Y-133416033D02*
X186533332Y-132716033D01*
X179149999Y-102916033D02*
X179149999Y-102216033D01*
X178683333Y-102216033D02*
X178549999Y-102216033D01*
X178549999Y-102216033D02*
X178483333Y-102249366D01*
X178483333Y-102249366D02*
X178416666Y-102316033D01*
X178416666Y-102316033D02*
X178383333Y-102449366D01*
X178383333Y-102449366D02*
X178383333Y-102682700D01*
X178383333Y-102682700D02*
X178416666Y-102816033D01*
X178416666Y-102816033D02*
X178483333Y-102882700D01*
X178483333Y-102882700D02*
X178549999Y-102916033D01*
X178549999Y-102916033D02*
X178683333Y-102916033D01*
X178683333Y-102916033D02*
X178749999Y-102882700D01*
X178749999Y-102882700D02*
X178816666Y-102816033D01*
X178816666Y-102816033D02*
X178849999Y-102682700D01*
X178849999Y-102682700D02*
X178849999Y-102449366D01*
X178849999Y-102449366D02*
X178816666Y-102316033D01*
X178816666Y-102316033D02*
X178749999Y-102249366D01*
X178749999Y-102249366D02*
X178683333Y-102216033D01*
X177716666Y-102916033D02*
X178116666Y-102916033D01*
X177916666Y-102916033D02*
X177916666Y-102216033D01*
X177916666Y-102216033D02*
X177983333Y-102316033D01*
X177983333Y-102316033D02*
X178050000Y-102382700D01*
X178050000Y-102382700D02*
X178116666Y-102416033D01*
X182549999Y-137249366D02*
X182616666Y-137216033D01*
X182616666Y-137216033D02*
X182716666Y-137216033D01*
X182716666Y-137216033D02*
X182816666Y-137249366D01*
X182816666Y-137249366D02*
X182883333Y-137316033D01*
X182883333Y-137316033D02*
X182916666Y-137382700D01*
X182916666Y-137382700D02*
X182949999Y-137516033D01*
X182949999Y-137516033D02*
X182949999Y-137616033D01*
X182949999Y-137616033D02*
X182916666Y-137749366D01*
X182916666Y-137749366D02*
X182883333Y-137816033D01*
X182883333Y-137816033D02*
X182816666Y-137882700D01*
X182816666Y-137882700D02*
X182716666Y-137916033D01*
X182716666Y-137916033D02*
X182649999Y-137916033D01*
X182649999Y-137916033D02*
X182549999Y-137882700D01*
X182549999Y-137882700D02*
X182516666Y-137849366D01*
X182516666Y-137849366D02*
X182516666Y-137616033D01*
X182516666Y-137616033D02*
X182649999Y-137616033D01*
X182216666Y-137449366D02*
X182216666Y-137916033D01*
X182216666Y-137516033D02*
X182183333Y-137482700D01*
X182183333Y-137482700D02*
X182116666Y-137449366D01*
X182116666Y-137449366D02*
X182016666Y-137449366D01*
X182016666Y-137449366D02*
X181949999Y-137482700D01*
X181949999Y-137482700D02*
X181916666Y-137549366D01*
X181916666Y-137549366D02*
X181916666Y-137916033D01*
X181283333Y-137916033D02*
X181283333Y-137216033D01*
X181283333Y-137882700D02*
X181350000Y-137916033D01*
X181350000Y-137916033D02*
X181483333Y-137916033D01*
X181483333Y-137916033D02*
X181550000Y-137882700D01*
X181550000Y-137882700D02*
X181583333Y-137849366D01*
X181583333Y-137849366D02*
X181616666Y-137782700D01*
X181616666Y-137782700D02*
X181616666Y-137582700D01*
X181616666Y-137582700D02*
X181583333Y-137516033D01*
X181583333Y-137516033D02*
X181550000Y-137482700D01*
X181550000Y-137482700D02*
X181483333Y-137449366D01*
X181483333Y-137449366D02*
X181350000Y-137449366D01*
X181350000Y-137449366D02*
X181283333Y-137482700D01*
X126866666Y-127516033D02*
X126866666Y-126816033D01*
X126566666Y-126649366D02*
X126500000Y-126616033D01*
X126500000Y-126616033D02*
X126400000Y-126616033D01*
X126400000Y-126616033D02*
X126333333Y-126649366D01*
X126333333Y-126649366D02*
X126300000Y-126716033D01*
X126300000Y-126716033D02*
X126300000Y-126782700D01*
X126300000Y-126782700D02*
X126333333Y-126849366D01*
X126333333Y-126849366D02*
X126566666Y-127082700D01*
X126566666Y-127082700D02*
X126300000Y-127082700D01*
X125600000Y-127449366D02*
X125633333Y-127482700D01*
X125633333Y-127482700D02*
X125733333Y-127516033D01*
X125733333Y-127516033D02*
X125800000Y-127516033D01*
X125800000Y-127516033D02*
X125900000Y-127482700D01*
X125900000Y-127482700D02*
X125966667Y-127416033D01*
X125966667Y-127416033D02*
X126000000Y-127349366D01*
X126000000Y-127349366D02*
X126033333Y-127216033D01*
X126033333Y-127216033D02*
X126033333Y-127116033D01*
X126033333Y-127116033D02*
X126000000Y-126982700D01*
X126000000Y-126982700D02*
X125966667Y-126916033D01*
X125966667Y-126916033D02*
X125900000Y-126849366D01*
X125900000Y-126849366D02*
X125800000Y-126816033D01*
X125800000Y-126816033D02*
X125733333Y-126816033D01*
X125733333Y-126816033D02*
X125633333Y-126849366D01*
X125633333Y-126849366D02*
X125600000Y-126882700D01*
X125300000Y-127249366D02*
X124766667Y-127249366D01*
X124133333Y-127516033D02*
X124133333Y-127149366D01*
X124133333Y-127149366D02*
X124166666Y-127082700D01*
X124166666Y-127082700D02*
X124233333Y-127049366D01*
X124233333Y-127049366D02*
X124366666Y-127049366D01*
X124366666Y-127049366D02*
X124433333Y-127082700D01*
X124133333Y-127482700D02*
X124200000Y-127516033D01*
X124200000Y-127516033D02*
X124366666Y-127516033D01*
X124366666Y-127516033D02*
X124433333Y-127482700D01*
X124433333Y-127482700D02*
X124466666Y-127416033D01*
X124466666Y-127416033D02*
X124466666Y-127349366D01*
X124466666Y-127349366D02*
X124433333Y-127282700D01*
X124433333Y-127282700D02*
X124366666Y-127249366D01*
X124366666Y-127249366D02*
X124200000Y-127249366D01*
X124200000Y-127249366D02*
X124133333Y-127216033D01*
X189183333Y-120716033D02*
X189183333Y-120016033D01*
X188716667Y-120016033D02*
X188583333Y-120016033D01*
X188583333Y-120016033D02*
X188516667Y-120049366D01*
X188516667Y-120049366D02*
X188450000Y-120116033D01*
X188450000Y-120116033D02*
X188416667Y-120249366D01*
X188416667Y-120249366D02*
X188416667Y-120482700D01*
X188416667Y-120482700D02*
X188450000Y-120616033D01*
X188450000Y-120616033D02*
X188516667Y-120682700D01*
X188516667Y-120682700D02*
X188583333Y-120716033D01*
X188583333Y-120716033D02*
X188716667Y-120716033D01*
X188716667Y-120716033D02*
X188783333Y-120682700D01*
X188783333Y-120682700D02*
X188850000Y-120616033D01*
X188850000Y-120616033D02*
X188883333Y-120482700D01*
X188883333Y-120482700D02*
X188883333Y-120249366D01*
X188883333Y-120249366D02*
X188850000Y-120116033D01*
X188850000Y-120116033D02*
X188783333Y-120049366D01*
X188783333Y-120049366D02*
X188716667Y-120016033D01*
X187816667Y-120249366D02*
X187816667Y-120716033D01*
X187983334Y-119982700D02*
X188150000Y-120482700D01*
X188150000Y-120482700D02*
X187716667Y-120482700D01*
X187516667Y-120016033D02*
X187083333Y-120016033D01*
X187083333Y-120016033D02*
X187316667Y-120282700D01*
X187316667Y-120282700D02*
X187216667Y-120282700D01*
X187216667Y-120282700D02*
X187150000Y-120316033D01*
X187150000Y-120316033D02*
X187116667Y-120349366D01*
X187116667Y-120349366D02*
X187083333Y-120416033D01*
X187083333Y-120416033D02*
X187083333Y-120582700D01*
X187083333Y-120582700D02*
X187116667Y-120649366D01*
X187116667Y-120649366D02*
X187150000Y-120682700D01*
X187150000Y-120682700D02*
X187216667Y-120716033D01*
X187216667Y-120716033D02*
X187416667Y-120716033D01*
X187416667Y-120716033D02*
X187483333Y-120682700D01*
X187483333Y-120682700D02*
X187516667Y-120649366D01*
X189183333Y-108016033D02*
X189183333Y-107316033D01*
X188716667Y-107316033D02*
X188583333Y-107316033D01*
X188583333Y-107316033D02*
X188516667Y-107349366D01*
X188516667Y-107349366D02*
X188450000Y-107416033D01*
X188450000Y-107416033D02*
X188416667Y-107549366D01*
X188416667Y-107549366D02*
X188416667Y-107782700D01*
X188416667Y-107782700D02*
X188450000Y-107916033D01*
X188450000Y-107916033D02*
X188516667Y-107982700D01*
X188516667Y-107982700D02*
X188583333Y-108016033D01*
X188583333Y-108016033D02*
X188716667Y-108016033D01*
X188716667Y-108016033D02*
X188783333Y-107982700D01*
X188783333Y-107982700D02*
X188850000Y-107916033D01*
X188850000Y-107916033D02*
X188883333Y-107782700D01*
X188883333Y-107782700D02*
X188883333Y-107549366D01*
X188883333Y-107549366D02*
X188850000Y-107416033D01*
X188850000Y-107416033D02*
X188783333Y-107349366D01*
X188783333Y-107349366D02*
X188716667Y-107316033D01*
X188183334Y-107316033D02*
X187750000Y-107316033D01*
X187750000Y-107316033D02*
X187983334Y-107582700D01*
X187983334Y-107582700D02*
X187883334Y-107582700D01*
X187883334Y-107582700D02*
X187816667Y-107616033D01*
X187816667Y-107616033D02*
X187783334Y-107649366D01*
X187783334Y-107649366D02*
X187750000Y-107716033D01*
X187750000Y-107716033D02*
X187750000Y-107882700D01*
X187750000Y-107882700D02*
X187783334Y-107949366D01*
X187783334Y-107949366D02*
X187816667Y-107982700D01*
X187816667Y-107982700D02*
X187883334Y-108016033D01*
X187883334Y-108016033D02*
X188083334Y-108016033D01*
X188083334Y-108016033D02*
X188150000Y-107982700D01*
X188150000Y-107982700D02*
X188183334Y-107949366D01*
X187516667Y-107316033D02*
X187050000Y-107316033D01*
X187050000Y-107316033D02*
X187350000Y-108016033D01*
X189183333Y-113016033D02*
X189183333Y-112316033D01*
X188716667Y-112316033D02*
X188583333Y-112316033D01*
X188583333Y-112316033D02*
X188516667Y-112349366D01*
X188516667Y-112349366D02*
X188450000Y-112416033D01*
X188450000Y-112416033D02*
X188416667Y-112549366D01*
X188416667Y-112549366D02*
X188416667Y-112782700D01*
X188416667Y-112782700D02*
X188450000Y-112916033D01*
X188450000Y-112916033D02*
X188516667Y-112982700D01*
X188516667Y-112982700D02*
X188583333Y-113016033D01*
X188583333Y-113016033D02*
X188716667Y-113016033D01*
X188716667Y-113016033D02*
X188783333Y-112982700D01*
X188783333Y-112982700D02*
X188850000Y-112916033D01*
X188850000Y-112916033D02*
X188883333Y-112782700D01*
X188883333Y-112782700D02*
X188883333Y-112549366D01*
X188883333Y-112549366D02*
X188850000Y-112416033D01*
X188850000Y-112416033D02*
X188783333Y-112349366D01*
X188783333Y-112349366D02*
X188716667Y-112316033D01*
X187816667Y-112549366D02*
X187816667Y-113016033D01*
X187983334Y-112282700D02*
X188150000Y-112782700D01*
X188150000Y-112782700D02*
X187716667Y-112782700D01*
X187316667Y-112316033D02*
X187250000Y-112316033D01*
X187250000Y-112316033D02*
X187183333Y-112349366D01*
X187183333Y-112349366D02*
X187150000Y-112382700D01*
X187150000Y-112382700D02*
X187116667Y-112449366D01*
X187116667Y-112449366D02*
X187083333Y-112582700D01*
X187083333Y-112582700D02*
X187083333Y-112749366D01*
X187083333Y-112749366D02*
X187116667Y-112882700D01*
X187116667Y-112882700D02*
X187150000Y-112949366D01*
X187150000Y-112949366D02*
X187183333Y-112982700D01*
X187183333Y-112982700D02*
X187250000Y-113016033D01*
X187250000Y-113016033D02*
X187316667Y-113016033D01*
X187316667Y-113016033D02*
X187383333Y-112982700D01*
X187383333Y-112982700D02*
X187416667Y-112949366D01*
X187416667Y-112949366D02*
X187450000Y-112882700D01*
X187450000Y-112882700D02*
X187483333Y-112749366D01*
X187483333Y-112749366D02*
X187483333Y-112582700D01*
X187483333Y-112582700D02*
X187450000Y-112449366D01*
X187450000Y-112449366D02*
X187416667Y-112382700D01*
X187416667Y-112382700D02*
X187383333Y-112349366D01*
X187383333Y-112349366D02*
X187316667Y-112316033D01*
X179533333Y-118016033D02*
X179533333Y-117316033D01*
X179066667Y-117316033D02*
X178933333Y-117316033D01*
X178933333Y-117316033D02*
X178866667Y-117349366D01*
X178866667Y-117349366D02*
X178800000Y-117416033D01*
X178800000Y-117416033D02*
X178766667Y-117549366D01*
X178766667Y-117549366D02*
X178766667Y-117782700D01*
X178766667Y-117782700D02*
X178800000Y-117916033D01*
X178800000Y-117916033D02*
X178866667Y-117982700D01*
X178866667Y-117982700D02*
X178933333Y-118016033D01*
X178933333Y-118016033D02*
X179066667Y-118016033D01*
X179066667Y-118016033D02*
X179133333Y-117982700D01*
X179133333Y-117982700D02*
X179200000Y-117916033D01*
X179200000Y-117916033D02*
X179233333Y-117782700D01*
X179233333Y-117782700D02*
X179233333Y-117549366D01*
X179233333Y-117549366D02*
X179200000Y-117416033D01*
X179200000Y-117416033D02*
X179133333Y-117349366D01*
X179133333Y-117349366D02*
X179066667Y-117316033D01*
X178100000Y-118016033D02*
X178500000Y-118016033D01*
X178300000Y-118016033D02*
X178300000Y-117316033D01*
X178300000Y-117316033D02*
X178366667Y-117416033D01*
X178366667Y-117416033D02*
X178433334Y-117482700D01*
X178433334Y-117482700D02*
X178500000Y-117516033D01*
X177866667Y-117316033D02*
X177433333Y-117316033D01*
X177433333Y-117316033D02*
X177666667Y-117582700D01*
X177666667Y-117582700D02*
X177566667Y-117582700D01*
X177566667Y-117582700D02*
X177500000Y-117616033D01*
X177500000Y-117616033D02*
X177466667Y-117649366D01*
X177466667Y-117649366D02*
X177433333Y-117716033D01*
X177433333Y-117716033D02*
X177433333Y-117882700D01*
X177433333Y-117882700D02*
X177466667Y-117949366D01*
X177466667Y-117949366D02*
X177500000Y-117982700D01*
X177500000Y-117982700D02*
X177566667Y-118016033D01*
X177566667Y-118016033D02*
X177766667Y-118016033D01*
X177766667Y-118016033D02*
X177833333Y-117982700D01*
X177833333Y-117982700D02*
X177866667Y-117949366D01*
X179533333Y-112916033D02*
X179533333Y-112216033D01*
X179066667Y-112216033D02*
X178933333Y-112216033D01*
X178933333Y-112216033D02*
X178866667Y-112249366D01*
X178866667Y-112249366D02*
X178800000Y-112316033D01*
X178800000Y-112316033D02*
X178766667Y-112449366D01*
X178766667Y-112449366D02*
X178766667Y-112682700D01*
X178766667Y-112682700D02*
X178800000Y-112816033D01*
X178800000Y-112816033D02*
X178866667Y-112882700D01*
X178866667Y-112882700D02*
X178933333Y-112916033D01*
X178933333Y-112916033D02*
X179066667Y-112916033D01*
X179066667Y-112916033D02*
X179133333Y-112882700D01*
X179133333Y-112882700D02*
X179200000Y-112816033D01*
X179200000Y-112816033D02*
X179233333Y-112682700D01*
X179233333Y-112682700D02*
X179233333Y-112449366D01*
X179233333Y-112449366D02*
X179200000Y-112316033D01*
X179200000Y-112316033D02*
X179133333Y-112249366D01*
X179133333Y-112249366D02*
X179066667Y-112216033D01*
X178100000Y-112916033D02*
X178500000Y-112916033D01*
X178300000Y-112916033D02*
X178300000Y-112216033D01*
X178300000Y-112216033D02*
X178366667Y-112316033D01*
X178366667Y-112316033D02*
X178433334Y-112382700D01*
X178433334Y-112382700D02*
X178500000Y-112416033D01*
X177433333Y-112916033D02*
X177833333Y-112916033D01*
X177633333Y-112916033D02*
X177633333Y-112216033D01*
X177633333Y-112216033D02*
X177700000Y-112316033D01*
X177700000Y-112316033D02*
X177766667Y-112382700D01*
X177766667Y-112382700D02*
X177833333Y-112416033D01*
X189183333Y-110516033D02*
X189183333Y-109816033D01*
X188716667Y-109816033D02*
X188583333Y-109816033D01*
X188583333Y-109816033D02*
X188516667Y-109849366D01*
X188516667Y-109849366D02*
X188450000Y-109916033D01*
X188450000Y-109916033D02*
X188416667Y-110049366D01*
X188416667Y-110049366D02*
X188416667Y-110282700D01*
X188416667Y-110282700D02*
X188450000Y-110416033D01*
X188450000Y-110416033D02*
X188516667Y-110482700D01*
X188516667Y-110482700D02*
X188583333Y-110516033D01*
X188583333Y-110516033D02*
X188716667Y-110516033D01*
X188716667Y-110516033D02*
X188783333Y-110482700D01*
X188783333Y-110482700D02*
X188850000Y-110416033D01*
X188850000Y-110416033D02*
X188883333Y-110282700D01*
X188883333Y-110282700D02*
X188883333Y-110049366D01*
X188883333Y-110049366D02*
X188850000Y-109916033D01*
X188850000Y-109916033D02*
X188783333Y-109849366D01*
X188783333Y-109849366D02*
X188716667Y-109816033D01*
X188183334Y-109816033D02*
X187750000Y-109816033D01*
X187750000Y-109816033D02*
X187983334Y-110082700D01*
X187983334Y-110082700D02*
X187883334Y-110082700D01*
X187883334Y-110082700D02*
X187816667Y-110116033D01*
X187816667Y-110116033D02*
X187783334Y-110149366D01*
X187783334Y-110149366D02*
X187750000Y-110216033D01*
X187750000Y-110216033D02*
X187750000Y-110382700D01*
X187750000Y-110382700D02*
X187783334Y-110449366D01*
X187783334Y-110449366D02*
X187816667Y-110482700D01*
X187816667Y-110482700D02*
X187883334Y-110516033D01*
X187883334Y-110516033D02*
X188083334Y-110516033D01*
X188083334Y-110516033D02*
X188150000Y-110482700D01*
X188150000Y-110482700D02*
X188183334Y-110449366D01*
X187416667Y-110516033D02*
X187283333Y-110516033D01*
X187283333Y-110516033D02*
X187216667Y-110482700D01*
X187216667Y-110482700D02*
X187183333Y-110449366D01*
X187183333Y-110449366D02*
X187116667Y-110349366D01*
X187116667Y-110349366D02*
X187083333Y-110216033D01*
X187083333Y-110216033D02*
X187083333Y-109949366D01*
X187083333Y-109949366D02*
X187116667Y-109882700D01*
X187116667Y-109882700D02*
X187150000Y-109849366D01*
X187150000Y-109849366D02*
X187216667Y-109816033D01*
X187216667Y-109816033D02*
X187350000Y-109816033D01*
X187350000Y-109816033D02*
X187416667Y-109849366D01*
X187416667Y-109849366D02*
X187450000Y-109882700D01*
X187450000Y-109882700D02*
X187483333Y-109949366D01*
X187483333Y-109949366D02*
X187483333Y-110116033D01*
X187483333Y-110116033D02*
X187450000Y-110182700D01*
X187450000Y-110182700D02*
X187416667Y-110216033D01*
X187416667Y-110216033D02*
X187350000Y-110249366D01*
X187350000Y-110249366D02*
X187216667Y-110249366D01*
X187216667Y-110249366D02*
X187150000Y-110216033D01*
X187150000Y-110216033D02*
X187116667Y-110182700D01*
X187116667Y-110182700D02*
X187083333Y-110116033D01*
X189183333Y-115616033D02*
X189183333Y-114916033D01*
X188716667Y-114916033D02*
X188583333Y-114916033D01*
X188583333Y-114916033D02*
X188516667Y-114949366D01*
X188516667Y-114949366D02*
X188450000Y-115016033D01*
X188450000Y-115016033D02*
X188416667Y-115149366D01*
X188416667Y-115149366D02*
X188416667Y-115382700D01*
X188416667Y-115382700D02*
X188450000Y-115516033D01*
X188450000Y-115516033D02*
X188516667Y-115582700D01*
X188516667Y-115582700D02*
X188583333Y-115616033D01*
X188583333Y-115616033D02*
X188716667Y-115616033D01*
X188716667Y-115616033D02*
X188783333Y-115582700D01*
X188783333Y-115582700D02*
X188850000Y-115516033D01*
X188850000Y-115516033D02*
X188883333Y-115382700D01*
X188883333Y-115382700D02*
X188883333Y-115149366D01*
X188883333Y-115149366D02*
X188850000Y-115016033D01*
X188850000Y-115016033D02*
X188783333Y-114949366D01*
X188783333Y-114949366D02*
X188716667Y-114916033D01*
X187816667Y-115149366D02*
X187816667Y-115616033D01*
X187983334Y-114882700D02*
X188150000Y-115382700D01*
X188150000Y-115382700D02*
X187716667Y-115382700D01*
X187083333Y-115616033D02*
X187483333Y-115616033D01*
X187283333Y-115616033D02*
X187283333Y-114916033D01*
X187283333Y-114916033D02*
X187350000Y-115016033D01*
X187350000Y-115016033D02*
X187416667Y-115082700D01*
X187416667Y-115082700D02*
X187483333Y-115116033D01*
X179533333Y-128216033D02*
X179533333Y-127516033D01*
X179066667Y-127516033D02*
X178933333Y-127516033D01*
X178933333Y-127516033D02*
X178866667Y-127549366D01*
X178866667Y-127549366D02*
X178800000Y-127616033D01*
X178800000Y-127616033D02*
X178766667Y-127749366D01*
X178766667Y-127749366D02*
X178766667Y-127982700D01*
X178766667Y-127982700D02*
X178800000Y-128116033D01*
X178800000Y-128116033D02*
X178866667Y-128182700D01*
X178866667Y-128182700D02*
X178933333Y-128216033D01*
X178933333Y-128216033D02*
X179066667Y-128216033D01*
X179066667Y-128216033D02*
X179133333Y-128182700D01*
X179133333Y-128182700D02*
X179200000Y-128116033D01*
X179200000Y-128116033D02*
X179233333Y-127982700D01*
X179233333Y-127982700D02*
X179233333Y-127749366D01*
X179233333Y-127749366D02*
X179200000Y-127616033D01*
X179200000Y-127616033D02*
X179133333Y-127549366D01*
X179133333Y-127549366D02*
X179066667Y-127516033D01*
X178100000Y-128216033D02*
X178500000Y-128216033D01*
X178300000Y-128216033D02*
X178300000Y-127516033D01*
X178300000Y-127516033D02*
X178366667Y-127616033D01*
X178366667Y-127616033D02*
X178433334Y-127682700D01*
X178433334Y-127682700D02*
X178500000Y-127716033D01*
X177866667Y-127516033D02*
X177400000Y-127516033D01*
X177400000Y-127516033D02*
X177700000Y-128216033D01*
X167309523Y-77054819D02*
X167309523Y-77769104D01*
X167309523Y-77769104D02*
X167357142Y-77911961D01*
X167357142Y-77911961D02*
X167452380Y-78007200D01*
X167452380Y-78007200D02*
X167595237Y-78054819D01*
X167595237Y-78054819D02*
X167690475Y-78054819D01*
X166309523Y-78054819D02*
X166880951Y-78054819D01*
X166595237Y-78054819D02*
X166595237Y-77054819D01*
X166595237Y-77054819D02*
X166690475Y-77197676D01*
X166690475Y-77197676D02*
X166785713Y-77292914D01*
X166785713Y-77292914D02*
X166880951Y-77340533D01*
X165738094Y-77483390D02*
X165833332Y-77435771D01*
X165833332Y-77435771D02*
X165880951Y-77388152D01*
X165880951Y-77388152D02*
X165928570Y-77292914D01*
X165928570Y-77292914D02*
X165928570Y-77245295D01*
X165928570Y-77245295D02*
X165880951Y-77150057D01*
X165880951Y-77150057D02*
X165833332Y-77102438D01*
X165833332Y-77102438D02*
X165738094Y-77054819D01*
X165738094Y-77054819D02*
X165547618Y-77054819D01*
X165547618Y-77054819D02*
X165452380Y-77102438D01*
X165452380Y-77102438D02*
X165404761Y-77150057D01*
X165404761Y-77150057D02*
X165357142Y-77245295D01*
X165357142Y-77245295D02*
X165357142Y-77292914D01*
X165357142Y-77292914D02*
X165404761Y-77388152D01*
X165404761Y-77388152D02*
X165452380Y-77435771D01*
X165452380Y-77435771D02*
X165547618Y-77483390D01*
X165547618Y-77483390D02*
X165738094Y-77483390D01*
X165738094Y-77483390D02*
X165833332Y-77531009D01*
X165833332Y-77531009D02*
X165880951Y-77578628D01*
X165880951Y-77578628D02*
X165928570Y-77673866D01*
X165928570Y-77673866D02*
X165928570Y-77864342D01*
X165928570Y-77864342D02*
X165880951Y-77959580D01*
X165880951Y-77959580D02*
X165833332Y-78007200D01*
X165833332Y-78007200D02*
X165738094Y-78054819D01*
X165738094Y-78054819D02*
X165547618Y-78054819D01*
X165547618Y-78054819D02*
X165452380Y-78007200D01*
X165452380Y-78007200D02*
X165404761Y-77959580D01*
X165404761Y-77959580D02*
X165357142Y-77864342D01*
X165357142Y-77864342D02*
X165357142Y-77673866D01*
X165357142Y-77673866D02*
X165404761Y-77578628D01*
X165404761Y-77578628D02*
X165452380Y-77531009D01*
X165452380Y-77531009D02*
X165547618Y-77483390D01*
X170990476Y-74454819D02*
X171466666Y-74454819D01*
X171466666Y-74454819D02*
X171466666Y-73454819D01*
X170657142Y-74454819D02*
X170657142Y-73454819D01*
X170657142Y-73454819D02*
X170419047Y-73454819D01*
X170419047Y-73454819D02*
X170276190Y-73502438D01*
X170276190Y-73502438D02*
X170180952Y-73597676D01*
X170180952Y-73597676D02*
X170133333Y-73692914D01*
X170133333Y-73692914D02*
X170085714Y-73883390D01*
X170085714Y-73883390D02*
X170085714Y-74026247D01*
X170085714Y-74026247D02*
X170133333Y-74216723D01*
X170133333Y-74216723D02*
X170180952Y-74311961D01*
X170180952Y-74311961D02*
X170276190Y-74407200D01*
X170276190Y-74407200D02*
X170419047Y-74454819D01*
X170419047Y-74454819D02*
X170657142Y-74454819D01*
X169085714Y-74454819D02*
X169419047Y-73978628D01*
X169657142Y-74454819D02*
X169657142Y-73454819D01*
X169657142Y-73454819D02*
X169276190Y-73454819D01*
X169276190Y-73454819D02*
X169180952Y-73502438D01*
X169180952Y-73502438D02*
X169133333Y-73550057D01*
X169133333Y-73550057D02*
X169085714Y-73645295D01*
X169085714Y-73645295D02*
X169085714Y-73788152D01*
X169085714Y-73788152D02*
X169133333Y-73883390D01*
X169133333Y-73883390D02*
X169180952Y-73931009D01*
X169180952Y-73931009D02*
X169276190Y-73978628D01*
X169276190Y-73978628D02*
X169657142Y-73978628D01*
X141795238Y-129750057D02*
X141890476Y-129702438D01*
X141890476Y-129702438D02*
X141985714Y-129607200D01*
X141985714Y-129607200D02*
X142128571Y-129464342D01*
X142128571Y-129464342D02*
X142223809Y-129416723D01*
X142223809Y-129416723D02*
X142319047Y-129416723D01*
X142271428Y-129654819D02*
X142366666Y-129607200D01*
X142366666Y-129607200D02*
X142461904Y-129511961D01*
X142461904Y-129511961D02*
X142509523Y-129321485D01*
X142509523Y-129321485D02*
X142509523Y-128988152D01*
X142509523Y-128988152D02*
X142461904Y-128797676D01*
X142461904Y-128797676D02*
X142366666Y-128702438D01*
X142366666Y-128702438D02*
X142271428Y-128654819D01*
X142271428Y-128654819D02*
X142080952Y-128654819D01*
X142080952Y-128654819D02*
X141985714Y-128702438D01*
X141985714Y-128702438D02*
X141890476Y-128797676D01*
X141890476Y-128797676D02*
X141842857Y-128988152D01*
X141842857Y-128988152D02*
X141842857Y-129321485D01*
X141842857Y-129321485D02*
X141890476Y-129511961D01*
X141890476Y-129511961D02*
X141985714Y-129607200D01*
X141985714Y-129607200D02*
X142080952Y-129654819D01*
X142080952Y-129654819D02*
X142271428Y-129654819D01*
X140890476Y-129654819D02*
X141461904Y-129654819D01*
X141176190Y-129654819D02*
X141176190Y-128654819D01*
X141176190Y-128654819D02*
X141271428Y-128797676D01*
X141271428Y-128797676D02*
X141366666Y-128892914D01*
X141366666Y-128892914D02*
X141461904Y-128940533D01*
X133366666Y-131854819D02*
X133699999Y-131378628D01*
X133938094Y-131854819D02*
X133938094Y-130854819D01*
X133938094Y-130854819D02*
X133557142Y-130854819D01*
X133557142Y-130854819D02*
X133461904Y-130902438D01*
X133461904Y-130902438D02*
X133414285Y-130950057D01*
X133414285Y-130950057D02*
X133366666Y-131045295D01*
X133366666Y-131045295D02*
X133366666Y-131188152D01*
X133366666Y-131188152D02*
X133414285Y-131283390D01*
X133414285Y-131283390D02*
X133461904Y-131331009D01*
X133461904Y-131331009D02*
X133557142Y-131378628D01*
X133557142Y-131378628D02*
X133938094Y-131378628D01*
X132509523Y-130854819D02*
X132699999Y-130854819D01*
X132699999Y-130854819D02*
X132795237Y-130902438D01*
X132795237Y-130902438D02*
X132842856Y-130950057D01*
X132842856Y-130950057D02*
X132938094Y-131092914D01*
X132938094Y-131092914D02*
X132985713Y-131283390D01*
X132985713Y-131283390D02*
X132985713Y-131664342D01*
X132985713Y-131664342D02*
X132938094Y-131759580D01*
X132938094Y-131759580D02*
X132890475Y-131807200D01*
X132890475Y-131807200D02*
X132795237Y-131854819D01*
X132795237Y-131854819D02*
X132604761Y-131854819D01*
X132604761Y-131854819D02*
X132509523Y-131807200D01*
X132509523Y-131807200D02*
X132461904Y-131759580D01*
X132461904Y-131759580D02*
X132414285Y-131664342D01*
X132414285Y-131664342D02*
X132414285Y-131426247D01*
X132414285Y-131426247D02*
X132461904Y-131331009D01*
X132461904Y-131331009D02*
X132509523Y-131283390D01*
X132509523Y-131283390D02*
X132604761Y-131235771D01*
X132604761Y-131235771D02*
X132795237Y-131235771D01*
X132795237Y-131235771D02*
X132890475Y-131283390D01*
X132890475Y-131283390D02*
X132938094Y-131331009D01*
X132938094Y-131331009D02*
X132985713Y-131426247D01*
X147816666Y-86754819D02*
X148149999Y-86278628D01*
X148388094Y-86754819D02*
X148388094Y-85754819D01*
X148388094Y-85754819D02*
X148007142Y-85754819D01*
X148007142Y-85754819D02*
X147911904Y-85802438D01*
X147911904Y-85802438D02*
X147864285Y-85850057D01*
X147864285Y-85850057D02*
X147816666Y-85945295D01*
X147816666Y-85945295D02*
X147816666Y-86088152D01*
X147816666Y-86088152D02*
X147864285Y-86183390D01*
X147864285Y-86183390D02*
X147911904Y-86231009D01*
X147911904Y-86231009D02*
X148007142Y-86278628D01*
X148007142Y-86278628D02*
X148388094Y-86278628D01*
X146959523Y-86088152D02*
X146959523Y-86754819D01*
X147197618Y-85707200D02*
X147435713Y-86421485D01*
X147435713Y-86421485D02*
X146816666Y-86421485D01*
X154042857Y-127354819D02*
X154376190Y-126878628D01*
X154614285Y-127354819D02*
X154614285Y-126354819D01*
X154614285Y-126354819D02*
X154233333Y-126354819D01*
X154233333Y-126354819D02*
X154138095Y-126402438D01*
X154138095Y-126402438D02*
X154090476Y-126450057D01*
X154090476Y-126450057D02*
X154042857Y-126545295D01*
X154042857Y-126545295D02*
X154042857Y-126688152D01*
X154042857Y-126688152D02*
X154090476Y-126783390D01*
X154090476Y-126783390D02*
X154138095Y-126831009D01*
X154138095Y-126831009D02*
X154233333Y-126878628D01*
X154233333Y-126878628D02*
X154614285Y-126878628D01*
X153090476Y-127354819D02*
X153661904Y-127354819D01*
X153376190Y-127354819D02*
X153376190Y-126354819D01*
X153376190Y-126354819D02*
X153471428Y-126497676D01*
X153471428Y-126497676D02*
X153566666Y-126592914D01*
X153566666Y-126592914D02*
X153661904Y-126640533D01*
X152614285Y-127354819D02*
X152423809Y-127354819D01*
X152423809Y-127354819D02*
X152328571Y-127307200D01*
X152328571Y-127307200D02*
X152280952Y-127259580D01*
X152280952Y-127259580D02*
X152185714Y-127116723D01*
X152185714Y-127116723D02*
X152138095Y-126926247D01*
X152138095Y-126926247D02*
X152138095Y-126545295D01*
X152138095Y-126545295D02*
X152185714Y-126450057D01*
X152185714Y-126450057D02*
X152233333Y-126402438D01*
X152233333Y-126402438D02*
X152328571Y-126354819D01*
X152328571Y-126354819D02*
X152519047Y-126354819D01*
X152519047Y-126354819D02*
X152614285Y-126402438D01*
X152614285Y-126402438D02*
X152661904Y-126450057D01*
X152661904Y-126450057D02*
X152709523Y-126545295D01*
X152709523Y-126545295D02*
X152709523Y-126783390D01*
X152709523Y-126783390D02*
X152661904Y-126878628D01*
X152661904Y-126878628D02*
X152614285Y-126926247D01*
X152614285Y-126926247D02*
X152519047Y-126973866D01*
X152519047Y-126973866D02*
X152328571Y-126973866D01*
X152328571Y-126973866D02*
X152233333Y-126926247D01*
X152233333Y-126926247D02*
X152185714Y-126878628D01*
X152185714Y-126878628D02*
X152138095Y-126783390D01*
X145666666Y-86704819D02*
X145999999Y-86228628D01*
X146238094Y-86704819D02*
X146238094Y-85704819D01*
X146238094Y-85704819D02*
X145857142Y-85704819D01*
X145857142Y-85704819D02*
X145761904Y-85752438D01*
X145761904Y-85752438D02*
X145714285Y-85800057D01*
X145714285Y-85800057D02*
X145666666Y-85895295D01*
X145666666Y-85895295D02*
X145666666Y-86038152D01*
X145666666Y-86038152D02*
X145714285Y-86133390D01*
X145714285Y-86133390D02*
X145761904Y-86181009D01*
X145761904Y-86181009D02*
X145857142Y-86228628D01*
X145857142Y-86228628D02*
X146238094Y-86228628D01*
X145333332Y-85704819D02*
X144714285Y-85704819D01*
X144714285Y-85704819D02*
X145047618Y-86085771D01*
X145047618Y-86085771D02*
X144904761Y-86085771D01*
X144904761Y-86085771D02*
X144809523Y-86133390D01*
X144809523Y-86133390D02*
X144761904Y-86181009D01*
X144761904Y-86181009D02*
X144714285Y-86276247D01*
X144714285Y-86276247D02*
X144714285Y-86514342D01*
X144714285Y-86514342D02*
X144761904Y-86609580D01*
X144761904Y-86609580D02*
X144809523Y-86657200D01*
X144809523Y-86657200D02*
X144904761Y-86704819D01*
X144904761Y-86704819D02*
X145190475Y-86704819D01*
X145190475Y-86704819D02*
X145285713Y-86657200D01*
X145285713Y-86657200D02*
X145333332Y-86609580D01*
X138833332Y-138807200D02*
X138690475Y-138854819D01*
X138690475Y-138854819D02*
X138452380Y-138854819D01*
X138452380Y-138854819D02*
X138357142Y-138807200D01*
X138357142Y-138807200D02*
X138309523Y-138759580D01*
X138309523Y-138759580D02*
X138261904Y-138664342D01*
X138261904Y-138664342D02*
X138261904Y-138569104D01*
X138261904Y-138569104D02*
X138309523Y-138473866D01*
X138309523Y-138473866D02*
X138357142Y-138426247D01*
X138357142Y-138426247D02*
X138452380Y-138378628D01*
X138452380Y-138378628D02*
X138642856Y-138331009D01*
X138642856Y-138331009D02*
X138738094Y-138283390D01*
X138738094Y-138283390D02*
X138785713Y-138235771D01*
X138785713Y-138235771D02*
X138833332Y-138140533D01*
X138833332Y-138140533D02*
X138833332Y-138045295D01*
X138833332Y-138045295D02*
X138785713Y-137950057D01*
X138785713Y-137950057D02*
X138738094Y-137902438D01*
X138738094Y-137902438D02*
X138642856Y-137854819D01*
X138642856Y-137854819D02*
X138404761Y-137854819D01*
X138404761Y-137854819D02*
X138261904Y-137902438D01*
X137928570Y-137854819D02*
X137690475Y-138854819D01*
X137690475Y-138854819D02*
X137499999Y-138140533D01*
X137499999Y-138140533D02*
X137309523Y-138854819D01*
X137309523Y-138854819D02*
X137071428Y-137854819D01*
X136166666Y-138854819D02*
X136738094Y-138854819D01*
X136452380Y-138854819D02*
X136452380Y-137854819D01*
X136452380Y-137854819D02*
X136547618Y-137997676D01*
X136547618Y-137997676D02*
X136642856Y-138092914D01*
X136642856Y-138092914D02*
X136738094Y-138140533D01*
X144716666Y-132516033D02*
X144583332Y-132516033D01*
X144583332Y-132516033D02*
X144516666Y-132549366D01*
X144516666Y-132549366D02*
X144449999Y-132616033D01*
X144449999Y-132616033D02*
X144416666Y-132749366D01*
X144416666Y-132749366D02*
X144416666Y-132982700D01*
X144416666Y-132982700D02*
X144449999Y-133116033D01*
X144449999Y-133116033D02*
X144516666Y-133182700D01*
X144516666Y-133182700D02*
X144583332Y-133216033D01*
X144583332Y-133216033D02*
X144716666Y-133216033D01*
X144716666Y-133216033D02*
X144783332Y-133182700D01*
X144783332Y-133182700D02*
X144849999Y-133116033D01*
X144849999Y-133116033D02*
X144883332Y-132982700D01*
X144883332Y-132982700D02*
X144883332Y-132749366D01*
X144883332Y-132749366D02*
X144849999Y-132616033D01*
X144849999Y-132616033D02*
X144783332Y-132549366D01*
X144783332Y-132549366D02*
X144716666Y-132516033D01*
X144116666Y-132749366D02*
X144116666Y-133216033D01*
X144116666Y-132816033D02*
X144083333Y-132782700D01*
X144083333Y-132782700D02*
X144016666Y-132749366D01*
X144016666Y-132749366D02*
X143916666Y-132749366D01*
X143916666Y-132749366D02*
X143849999Y-132782700D01*
X143849999Y-132782700D02*
X143816666Y-132849366D01*
X143816666Y-132849366D02*
X143816666Y-133216033D01*
X142983333Y-132482700D02*
X143583333Y-133382700D01*
X142616667Y-132516033D02*
X142483333Y-132516033D01*
X142483333Y-132516033D02*
X142416667Y-132549366D01*
X142416667Y-132549366D02*
X142350000Y-132616033D01*
X142350000Y-132616033D02*
X142316667Y-132749366D01*
X142316667Y-132749366D02*
X142316667Y-132982700D01*
X142316667Y-132982700D02*
X142350000Y-133116033D01*
X142350000Y-133116033D02*
X142416667Y-133182700D01*
X142416667Y-133182700D02*
X142483333Y-133216033D01*
X142483333Y-133216033D02*
X142616667Y-133216033D01*
X142616667Y-133216033D02*
X142683333Y-133182700D01*
X142683333Y-133182700D02*
X142750000Y-133116033D01*
X142750000Y-133116033D02*
X142783333Y-132982700D01*
X142783333Y-132982700D02*
X142783333Y-132749366D01*
X142783333Y-132749366D02*
X142750000Y-132616033D01*
X142750000Y-132616033D02*
X142683333Y-132549366D01*
X142683333Y-132549366D02*
X142616667Y-132516033D01*
X142116667Y-132749366D02*
X141850000Y-132749366D01*
X142016667Y-133216033D02*
X142016667Y-132616033D01*
X142016667Y-132616033D02*
X141983334Y-132549366D01*
X141983334Y-132549366D02*
X141916667Y-132516033D01*
X141916667Y-132516033D02*
X141850000Y-132516033D01*
X141716667Y-132749366D02*
X141450000Y-132749366D01*
X141616667Y-133216033D02*
X141616667Y-132616033D01*
X141616667Y-132616033D02*
X141583334Y-132549366D01*
X141583334Y-132549366D02*
X141516667Y-132516033D01*
X141516667Y-132516033D02*
X141450000Y-132516033D01*
X130942857Y-131659580D02*
X130990476Y-131707200D01*
X130990476Y-131707200D02*
X131133333Y-131754819D01*
X131133333Y-131754819D02*
X131228571Y-131754819D01*
X131228571Y-131754819D02*
X131371428Y-131707200D01*
X131371428Y-131707200D02*
X131466666Y-131611961D01*
X131466666Y-131611961D02*
X131514285Y-131516723D01*
X131514285Y-131516723D02*
X131561904Y-131326247D01*
X131561904Y-131326247D02*
X131561904Y-131183390D01*
X131561904Y-131183390D02*
X131514285Y-130992914D01*
X131514285Y-130992914D02*
X131466666Y-130897676D01*
X131466666Y-130897676D02*
X131371428Y-130802438D01*
X131371428Y-130802438D02*
X131228571Y-130754819D01*
X131228571Y-130754819D02*
X131133333Y-130754819D01*
X131133333Y-130754819D02*
X130990476Y-130802438D01*
X130990476Y-130802438D02*
X130942857Y-130850057D01*
X129990476Y-131754819D02*
X130561904Y-131754819D01*
X130276190Y-131754819D02*
X130276190Y-130754819D01*
X130276190Y-130754819D02*
X130371428Y-130897676D01*
X130371428Y-130897676D02*
X130466666Y-130992914D01*
X130466666Y-130992914D02*
X130561904Y-131040533D01*
X129133333Y-131088152D02*
X129133333Y-131754819D01*
X129371428Y-130707200D02*
X129609523Y-131421485D01*
X129609523Y-131421485D02*
X128990476Y-131421485D01*
X149366666Y-127354819D02*
X149699999Y-126878628D01*
X149938094Y-127354819D02*
X149938094Y-126354819D01*
X149938094Y-126354819D02*
X149557142Y-126354819D01*
X149557142Y-126354819D02*
X149461904Y-126402438D01*
X149461904Y-126402438D02*
X149414285Y-126450057D01*
X149414285Y-126450057D02*
X149366666Y-126545295D01*
X149366666Y-126545295D02*
X149366666Y-126688152D01*
X149366666Y-126688152D02*
X149414285Y-126783390D01*
X149414285Y-126783390D02*
X149461904Y-126831009D01*
X149461904Y-126831009D02*
X149557142Y-126878628D01*
X149557142Y-126878628D02*
X149938094Y-126878628D01*
X148461904Y-126354819D02*
X148938094Y-126354819D01*
X148938094Y-126354819D02*
X148985713Y-126831009D01*
X148985713Y-126831009D02*
X148938094Y-126783390D01*
X148938094Y-126783390D02*
X148842856Y-126735771D01*
X148842856Y-126735771D02*
X148604761Y-126735771D01*
X148604761Y-126735771D02*
X148509523Y-126783390D01*
X148509523Y-126783390D02*
X148461904Y-126831009D01*
X148461904Y-126831009D02*
X148414285Y-126926247D01*
X148414285Y-126926247D02*
X148414285Y-127164342D01*
X148414285Y-127164342D02*
X148461904Y-127259580D01*
X148461904Y-127259580D02*
X148509523Y-127307200D01*
X148509523Y-127307200D02*
X148604761Y-127354819D01*
X148604761Y-127354819D02*
X148842856Y-127354819D01*
X148842856Y-127354819D02*
X148938094Y-127307200D01*
X148938094Y-127307200D02*
X148985713Y-127259580D01*
X171661904Y-131354819D02*
X171661904Y-132164342D01*
X171661904Y-132164342D02*
X171614285Y-132259580D01*
X171614285Y-132259580D02*
X171566666Y-132307200D01*
X171566666Y-132307200D02*
X171471428Y-132354819D01*
X171471428Y-132354819D02*
X171280952Y-132354819D01*
X171280952Y-132354819D02*
X171185714Y-132307200D01*
X171185714Y-132307200D02*
X171138095Y-132259580D01*
X171138095Y-132259580D02*
X171090476Y-132164342D01*
X171090476Y-132164342D02*
X171090476Y-131354819D01*
X170185714Y-131688152D02*
X170185714Y-132354819D01*
X170423809Y-131307200D02*
X170661904Y-132021485D01*
X170661904Y-132021485D02*
X170042857Y-132021485D01*
X171150000Y-138516033D02*
X170916667Y-139216033D01*
X170916667Y-139216033D02*
X170683333Y-138516033D01*
X170483333Y-139182700D02*
X170383333Y-139216033D01*
X170383333Y-139216033D02*
X170216667Y-139216033D01*
X170216667Y-139216033D02*
X170150000Y-139182700D01*
X170150000Y-139182700D02*
X170116667Y-139149366D01*
X170116667Y-139149366D02*
X170083333Y-139082700D01*
X170083333Y-139082700D02*
X170083333Y-139016033D01*
X170083333Y-139016033D02*
X170116667Y-138949366D01*
X170116667Y-138949366D02*
X170150000Y-138916033D01*
X170150000Y-138916033D02*
X170216667Y-138882700D01*
X170216667Y-138882700D02*
X170350000Y-138849366D01*
X170350000Y-138849366D02*
X170416667Y-138816033D01*
X170416667Y-138816033D02*
X170450000Y-138782700D01*
X170450000Y-138782700D02*
X170483333Y-138716033D01*
X170483333Y-138716033D02*
X170483333Y-138649366D01*
X170483333Y-138649366D02*
X170450000Y-138582700D01*
X170450000Y-138582700D02*
X170416667Y-138549366D01*
X170416667Y-138549366D02*
X170350000Y-138516033D01*
X170350000Y-138516033D02*
X170183333Y-138516033D01*
X170183333Y-138516033D02*
X170083333Y-138549366D01*
X169416666Y-139216033D02*
X169816666Y-139216033D01*
X169616666Y-139216033D02*
X169616666Y-138516033D01*
X169616666Y-138516033D02*
X169683333Y-138616033D01*
X169683333Y-138616033D02*
X169750000Y-138682700D01*
X169750000Y-138682700D02*
X169816666Y-138716033D01*
X169016666Y-138816033D02*
X169083333Y-138782700D01*
X169083333Y-138782700D02*
X169116666Y-138749366D01*
X169116666Y-138749366D02*
X169149999Y-138682700D01*
X169149999Y-138682700D02*
X169149999Y-138649366D01*
X169149999Y-138649366D02*
X169116666Y-138582700D01*
X169116666Y-138582700D02*
X169083333Y-138549366D01*
X169083333Y-138549366D02*
X169016666Y-138516033D01*
X169016666Y-138516033D02*
X168883333Y-138516033D01*
X168883333Y-138516033D02*
X168816666Y-138549366D01*
X168816666Y-138549366D02*
X168783333Y-138582700D01*
X168783333Y-138582700D02*
X168749999Y-138649366D01*
X168749999Y-138649366D02*
X168749999Y-138682700D01*
X168749999Y-138682700D02*
X168783333Y-138749366D01*
X168783333Y-138749366D02*
X168816666Y-138782700D01*
X168816666Y-138782700D02*
X168883333Y-138816033D01*
X168883333Y-138816033D02*
X169016666Y-138816033D01*
X169016666Y-138816033D02*
X169083333Y-138849366D01*
X169083333Y-138849366D02*
X169116666Y-138882700D01*
X169116666Y-138882700D02*
X169149999Y-138949366D01*
X169149999Y-138949366D02*
X169149999Y-139082700D01*
X169149999Y-139082700D02*
X169116666Y-139149366D01*
X169116666Y-139149366D02*
X169083333Y-139182700D01*
X169083333Y-139182700D02*
X169016666Y-139216033D01*
X169016666Y-139216033D02*
X168883333Y-139216033D01*
X168883333Y-139216033D02*
X168816666Y-139182700D01*
X168816666Y-139182700D02*
X168783333Y-139149366D01*
X168783333Y-139149366D02*
X168749999Y-139082700D01*
X168749999Y-139082700D02*
X168749999Y-138949366D01*
X168749999Y-138949366D02*
X168783333Y-138882700D01*
X168783333Y-138882700D02*
X168816666Y-138849366D01*
X168816666Y-138849366D02*
X168883333Y-138816033D01*
X168516666Y-138516033D02*
X168083332Y-138516033D01*
X168083332Y-138516033D02*
X168316666Y-138782700D01*
X168316666Y-138782700D02*
X168216666Y-138782700D01*
X168216666Y-138782700D02*
X168149999Y-138816033D01*
X168149999Y-138816033D02*
X168116666Y-138849366D01*
X168116666Y-138849366D02*
X168083332Y-138916033D01*
X168083332Y-138916033D02*
X168083332Y-139082700D01*
X168083332Y-139082700D02*
X168116666Y-139149366D01*
X168116666Y-139149366D02*
X168149999Y-139182700D01*
X168149999Y-139182700D02*
X168216666Y-139216033D01*
X168216666Y-139216033D02*
X168416666Y-139216033D01*
X168416666Y-139216033D02*
X168483332Y-139182700D01*
X168483332Y-139182700D02*
X168516666Y-139149366D01*
X167683332Y-138816033D02*
X167749999Y-138782700D01*
X167749999Y-138782700D02*
X167783332Y-138749366D01*
X167783332Y-138749366D02*
X167816665Y-138682700D01*
X167816665Y-138682700D02*
X167816665Y-138649366D01*
X167816665Y-138649366D02*
X167783332Y-138582700D01*
X167783332Y-138582700D02*
X167749999Y-138549366D01*
X167749999Y-138549366D02*
X167683332Y-138516033D01*
X167683332Y-138516033D02*
X167549999Y-138516033D01*
X167549999Y-138516033D02*
X167483332Y-138549366D01*
X167483332Y-138549366D02*
X167449999Y-138582700D01*
X167449999Y-138582700D02*
X167416665Y-138649366D01*
X167416665Y-138649366D02*
X167416665Y-138682700D01*
X167416665Y-138682700D02*
X167449999Y-138749366D01*
X167449999Y-138749366D02*
X167483332Y-138782700D01*
X167483332Y-138782700D02*
X167549999Y-138816033D01*
X167549999Y-138816033D02*
X167683332Y-138816033D01*
X167683332Y-138816033D02*
X167749999Y-138849366D01*
X167749999Y-138849366D02*
X167783332Y-138882700D01*
X167783332Y-138882700D02*
X167816665Y-138949366D01*
X167816665Y-138949366D02*
X167816665Y-139082700D01*
X167816665Y-139082700D02*
X167783332Y-139149366D01*
X167783332Y-139149366D02*
X167749999Y-139182700D01*
X167749999Y-139182700D02*
X167683332Y-139216033D01*
X167683332Y-139216033D02*
X167549999Y-139216033D01*
X167549999Y-139216033D02*
X167483332Y-139182700D01*
X167483332Y-139182700D02*
X167449999Y-139149366D01*
X167449999Y-139149366D02*
X167416665Y-139082700D01*
X167416665Y-139082700D02*
X167416665Y-138949366D01*
X167416665Y-138949366D02*
X167449999Y-138882700D01*
X167449999Y-138882700D02*
X167483332Y-138849366D01*
X167483332Y-138849366D02*
X167549999Y-138816033D01*
X166883332Y-138849366D02*
X166783332Y-138882700D01*
X166783332Y-138882700D02*
X166749998Y-138916033D01*
X166749998Y-138916033D02*
X166716665Y-138982700D01*
X166716665Y-138982700D02*
X166716665Y-139082700D01*
X166716665Y-139082700D02*
X166749998Y-139149366D01*
X166749998Y-139149366D02*
X166783332Y-139182700D01*
X166783332Y-139182700D02*
X166849998Y-139216033D01*
X166849998Y-139216033D02*
X167116665Y-139216033D01*
X167116665Y-139216033D02*
X167116665Y-138516033D01*
X167116665Y-138516033D02*
X166883332Y-138516033D01*
X166883332Y-138516033D02*
X166816665Y-138549366D01*
X166816665Y-138549366D02*
X166783332Y-138582700D01*
X166783332Y-138582700D02*
X166749998Y-138649366D01*
X166749998Y-138649366D02*
X166749998Y-138716033D01*
X166749998Y-138716033D02*
X166783332Y-138782700D01*
X166783332Y-138782700D02*
X166816665Y-138816033D01*
X166816665Y-138816033D02*
X166883332Y-138849366D01*
X166883332Y-138849366D02*
X167116665Y-138849366D01*
X135788094Y-71954819D02*
X135788094Y-70954819D01*
X135788094Y-70954819D02*
X135549999Y-70954819D01*
X135549999Y-70954819D02*
X135407142Y-71002438D01*
X135407142Y-71002438D02*
X135311904Y-71097676D01*
X135311904Y-71097676D02*
X135264285Y-71192914D01*
X135264285Y-71192914D02*
X135216666Y-71383390D01*
X135216666Y-71383390D02*
X135216666Y-71526247D01*
X135216666Y-71526247D02*
X135264285Y-71716723D01*
X135264285Y-71716723D02*
X135311904Y-71811961D01*
X135311904Y-71811961D02*
X135407142Y-71907200D01*
X135407142Y-71907200D02*
X135549999Y-71954819D01*
X135549999Y-71954819D02*
X135788094Y-71954819D01*
X134264285Y-71954819D02*
X134835713Y-71954819D01*
X134549999Y-71954819D02*
X134549999Y-70954819D01*
X134549999Y-70954819D02*
X134645237Y-71097676D01*
X134645237Y-71097676D02*
X134740475Y-71192914D01*
X134740475Y-71192914D02*
X134835713Y-71240533D01*
X136783332Y-78350057D02*
X136735713Y-78302438D01*
X136735713Y-78302438D02*
X136640475Y-78254819D01*
X136640475Y-78254819D02*
X136402380Y-78254819D01*
X136402380Y-78254819D02*
X136307142Y-78302438D01*
X136307142Y-78302438D02*
X136259523Y-78350057D01*
X136259523Y-78350057D02*
X136211904Y-78445295D01*
X136211904Y-78445295D02*
X136211904Y-78540533D01*
X136211904Y-78540533D02*
X136259523Y-78683390D01*
X136259523Y-78683390D02*
X136830951Y-79254819D01*
X136830951Y-79254819D02*
X136211904Y-79254819D01*
X135307142Y-78254819D02*
X135783332Y-78254819D01*
X135783332Y-78254819D02*
X135830951Y-78731009D01*
X135830951Y-78731009D02*
X135783332Y-78683390D01*
X135783332Y-78683390D02*
X135688094Y-78635771D01*
X135688094Y-78635771D02*
X135449999Y-78635771D01*
X135449999Y-78635771D02*
X135354761Y-78683390D01*
X135354761Y-78683390D02*
X135307142Y-78731009D01*
X135307142Y-78731009D02*
X135259523Y-78826247D01*
X135259523Y-78826247D02*
X135259523Y-79064342D01*
X135259523Y-79064342D02*
X135307142Y-79159580D01*
X135307142Y-79159580D02*
X135354761Y-79207200D01*
X135354761Y-79207200D02*
X135449999Y-79254819D01*
X135449999Y-79254819D02*
X135688094Y-79254819D01*
X135688094Y-79254819D02*
X135783332Y-79207200D01*
X135783332Y-79207200D02*
X135830951Y-79159580D01*
X134878570Y-79254819D02*
X134116666Y-78254819D01*
X134735713Y-78254819D02*
X134640475Y-78302438D01*
X134640475Y-78302438D02*
X134592856Y-78397676D01*
X134592856Y-78397676D02*
X134640475Y-78492914D01*
X134640475Y-78492914D02*
X134735713Y-78540533D01*
X134735713Y-78540533D02*
X134830951Y-78492914D01*
X134830951Y-78492914D02*
X134878570Y-78397676D01*
X134878570Y-78397676D02*
X134830951Y-78302438D01*
X134830951Y-78302438D02*
X134735713Y-78254819D01*
X134164285Y-79207200D02*
X134116666Y-79111961D01*
X134116666Y-79111961D02*
X134164285Y-79016723D01*
X134164285Y-79016723D02*
X134259523Y-78969104D01*
X134259523Y-78969104D02*
X134354761Y-79016723D01*
X134354761Y-79016723D02*
X134402380Y-79111961D01*
X134402380Y-79111961D02*
X134354761Y-79207200D01*
X134354761Y-79207200D02*
X134259523Y-79254819D01*
X134259523Y-79254819D02*
X134164285Y-79207200D01*
X182742857Y-79154819D02*
X183076190Y-78678628D01*
X183314285Y-79154819D02*
X183314285Y-78154819D01*
X183314285Y-78154819D02*
X182933333Y-78154819D01*
X182933333Y-78154819D02*
X182838095Y-78202438D01*
X182838095Y-78202438D02*
X182790476Y-78250057D01*
X182790476Y-78250057D02*
X182742857Y-78345295D01*
X182742857Y-78345295D02*
X182742857Y-78488152D01*
X182742857Y-78488152D02*
X182790476Y-78583390D01*
X182790476Y-78583390D02*
X182838095Y-78631009D01*
X182838095Y-78631009D02*
X182933333Y-78678628D01*
X182933333Y-78678628D02*
X183314285Y-78678628D01*
X181790476Y-79154819D02*
X182361904Y-79154819D01*
X182076190Y-79154819D02*
X182076190Y-78154819D01*
X182076190Y-78154819D02*
X182171428Y-78297676D01*
X182171428Y-78297676D02*
X182266666Y-78392914D01*
X182266666Y-78392914D02*
X182361904Y-78440533D01*
X181457142Y-78154819D02*
X180790476Y-78154819D01*
X180790476Y-78154819D02*
X181219047Y-79154819D01*
X155366666Y-89859580D02*
X155414285Y-89907200D01*
X155414285Y-89907200D02*
X155557142Y-89954819D01*
X155557142Y-89954819D02*
X155652380Y-89954819D01*
X155652380Y-89954819D02*
X155795237Y-89907200D01*
X155795237Y-89907200D02*
X155890475Y-89811961D01*
X155890475Y-89811961D02*
X155938094Y-89716723D01*
X155938094Y-89716723D02*
X155985713Y-89526247D01*
X155985713Y-89526247D02*
X155985713Y-89383390D01*
X155985713Y-89383390D02*
X155938094Y-89192914D01*
X155938094Y-89192914D02*
X155890475Y-89097676D01*
X155890475Y-89097676D02*
X155795237Y-89002438D01*
X155795237Y-89002438D02*
X155652380Y-88954819D01*
X155652380Y-88954819D02*
X155557142Y-88954819D01*
X155557142Y-88954819D02*
X155414285Y-89002438D01*
X155414285Y-89002438D02*
X155366666Y-89050057D01*
X154509523Y-89288152D02*
X154509523Y-89954819D01*
X154747618Y-88907200D02*
X154985713Y-89621485D01*
X154985713Y-89621485D02*
X154366666Y-89621485D01*
X149888094Y-81204819D02*
X149888094Y-80204819D01*
X149888094Y-80204819D02*
X149507142Y-80204819D01*
X149507142Y-80204819D02*
X149411904Y-80252438D01*
X149411904Y-80252438D02*
X149364285Y-80300057D01*
X149364285Y-80300057D02*
X149316666Y-80395295D01*
X149316666Y-80395295D02*
X149316666Y-80538152D01*
X149316666Y-80538152D02*
X149364285Y-80633390D01*
X149364285Y-80633390D02*
X149411904Y-80681009D01*
X149411904Y-80681009D02*
X149507142Y-80728628D01*
X149507142Y-80728628D02*
X149888094Y-80728628D01*
X148935713Y-80300057D02*
X148888094Y-80252438D01*
X148888094Y-80252438D02*
X148792856Y-80204819D01*
X148792856Y-80204819D02*
X148554761Y-80204819D01*
X148554761Y-80204819D02*
X148459523Y-80252438D01*
X148459523Y-80252438D02*
X148411904Y-80300057D01*
X148411904Y-80300057D02*
X148364285Y-80395295D01*
X148364285Y-80395295D02*
X148364285Y-80490533D01*
X148364285Y-80490533D02*
X148411904Y-80633390D01*
X148411904Y-80633390D02*
X148983332Y-81204819D01*
X148983332Y-81204819D02*
X148364285Y-81204819D01*
X132338094Y-71942319D02*
X132338094Y-70942319D01*
X132338094Y-70942319D02*
X132099999Y-70942319D01*
X132099999Y-70942319D02*
X131957142Y-70989938D01*
X131957142Y-70989938D02*
X131861904Y-71085176D01*
X131861904Y-71085176D02*
X131814285Y-71180414D01*
X131814285Y-71180414D02*
X131766666Y-71370890D01*
X131766666Y-71370890D02*
X131766666Y-71513747D01*
X131766666Y-71513747D02*
X131814285Y-71704223D01*
X131814285Y-71704223D02*
X131861904Y-71799461D01*
X131861904Y-71799461D02*
X131957142Y-71894700D01*
X131957142Y-71894700D02*
X132099999Y-71942319D01*
X132099999Y-71942319D02*
X132338094Y-71942319D01*
X131385713Y-71037557D02*
X131338094Y-70989938D01*
X131338094Y-70989938D02*
X131242856Y-70942319D01*
X131242856Y-70942319D02*
X131004761Y-70942319D01*
X131004761Y-70942319D02*
X130909523Y-70989938D01*
X130909523Y-70989938D02*
X130861904Y-71037557D01*
X130861904Y-71037557D02*
X130814285Y-71132795D01*
X130814285Y-71132795D02*
X130814285Y-71228033D01*
X130814285Y-71228033D02*
X130861904Y-71370890D01*
X130861904Y-71370890D02*
X131433332Y-71942319D01*
X131433332Y-71942319D02*
X130814285Y-71942319D01*
X132309523Y-78279819D02*
X132785713Y-78279819D01*
X132785713Y-78279819D02*
X132833332Y-78756009D01*
X132833332Y-78756009D02*
X132785713Y-78708390D01*
X132785713Y-78708390D02*
X132690475Y-78660771D01*
X132690475Y-78660771D02*
X132452380Y-78660771D01*
X132452380Y-78660771D02*
X132357142Y-78708390D01*
X132357142Y-78708390D02*
X132309523Y-78756009D01*
X132309523Y-78756009D02*
X132261904Y-78851247D01*
X132261904Y-78851247D02*
X132261904Y-79089342D01*
X132261904Y-79089342D02*
X132309523Y-79184580D01*
X132309523Y-79184580D02*
X132357142Y-79232200D01*
X132357142Y-79232200D02*
X132452380Y-79279819D01*
X132452380Y-79279819D02*
X132690475Y-79279819D01*
X132690475Y-79279819D02*
X132785713Y-79232200D01*
X132785713Y-79232200D02*
X132833332Y-79184580D01*
X131642856Y-78279819D02*
X131547618Y-78279819D01*
X131547618Y-78279819D02*
X131452380Y-78327438D01*
X131452380Y-78327438D02*
X131404761Y-78375057D01*
X131404761Y-78375057D02*
X131357142Y-78470295D01*
X131357142Y-78470295D02*
X131309523Y-78660771D01*
X131309523Y-78660771D02*
X131309523Y-78898866D01*
X131309523Y-78898866D02*
X131357142Y-79089342D01*
X131357142Y-79089342D02*
X131404761Y-79184580D01*
X131404761Y-79184580D02*
X131452380Y-79232200D01*
X131452380Y-79232200D02*
X131547618Y-79279819D01*
X131547618Y-79279819D02*
X131642856Y-79279819D01*
X131642856Y-79279819D02*
X131738094Y-79232200D01*
X131738094Y-79232200D02*
X131785713Y-79184580D01*
X131785713Y-79184580D02*
X131833332Y-79089342D01*
X131833332Y-79089342D02*
X131880951Y-78898866D01*
X131880951Y-78898866D02*
X131880951Y-78660771D01*
X131880951Y-78660771D02*
X131833332Y-78470295D01*
X131833332Y-78470295D02*
X131785713Y-78375057D01*
X131785713Y-78375057D02*
X131738094Y-78327438D01*
X131738094Y-78327438D02*
X131642856Y-78279819D01*
X130928570Y-79279819D02*
X130166666Y-78279819D01*
X130785713Y-78279819D02*
X130690475Y-78327438D01*
X130690475Y-78327438D02*
X130642856Y-78422676D01*
X130642856Y-78422676D02*
X130690475Y-78517914D01*
X130690475Y-78517914D02*
X130785713Y-78565533D01*
X130785713Y-78565533D02*
X130880951Y-78517914D01*
X130880951Y-78517914D02*
X130928570Y-78422676D01*
X130928570Y-78422676D02*
X130880951Y-78327438D01*
X130880951Y-78327438D02*
X130785713Y-78279819D01*
X130214285Y-79232200D02*
X130166666Y-79136961D01*
X130166666Y-79136961D02*
X130214285Y-79041723D01*
X130214285Y-79041723D02*
X130309523Y-78994104D01*
X130309523Y-78994104D02*
X130404761Y-79041723D01*
X130404761Y-79041723D02*
X130452380Y-79136961D01*
X130452380Y-79136961D02*
X130404761Y-79232200D01*
X130404761Y-79232200D02*
X130309523Y-79279819D01*
X130309523Y-79279819D02*
X130214285Y-79232200D01*
X163533332Y-138807200D02*
X163390475Y-138854819D01*
X163390475Y-138854819D02*
X163152380Y-138854819D01*
X163152380Y-138854819D02*
X163057142Y-138807200D01*
X163057142Y-138807200D02*
X163009523Y-138759580D01*
X163009523Y-138759580D02*
X162961904Y-138664342D01*
X162961904Y-138664342D02*
X162961904Y-138569104D01*
X162961904Y-138569104D02*
X163009523Y-138473866D01*
X163009523Y-138473866D02*
X163057142Y-138426247D01*
X163057142Y-138426247D02*
X163152380Y-138378628D01*
X163152380Y-138378628D02*
X163342856Y-138331009D01*
X163342856Y-138331009D02*
X163438094Y-138283390D01*
X163438094Y-138283390D02*
X163485713Y-138235771D01*
X163485713Y-138235771D02*
X163533332Y-138140533D01*
X163533332Y-138140533D02*
X163533332Y-138045295D01*
X163533332Y-138045295D02*
X163485713Y-137950057D01*
X163485713Y-137950057D02*
X163438094Y-137902438D01*
X163438094Y-137902438D02*
X163342856Y-137854819D01*
X163342856Y-137854819D02*
X163104761Y-137854819D01*
X163104761Y-137854819D02*
X162961904Y-137902438D01*
X162628570Y-137854819D02*
X162390475Y-138854819D01*
X162390475Y-138854819D02*
X162199999Y-138140533D01*
X162199999Y-138140533D02*
X162009523Y-138854819D01*
X162009523Y-138854819D02*
X161771428Y-137854819D01*
X161485713Y-137854819D02*
X160866666Y-137854819D01*
X160866666Y-137854819D02*
X161199999Y-138235771D01*
X161199999Y-138235771D02*
X161057142Y-138235771D01*
X161057142Y-138235771D02*
X160961904Y-138283390D01*
X160961904Y-138283390D02*
X160914285Y-138331009D01*
X160914285Y-138331009D02*
X160866666Y-138426247D01*
X160866666Y-138426247D02*
X160866666Y-138664342D01*
X160866666Y-138664342D02*
X160914285Y-138759580D01*
X160914285Y-138759580D02*
X160961904Y-138807200D01*
X160961904Y-138807200D02*
X161057142Y-138854819D01*
X161057142Y-138854819D02*
X161342856Y-138854819D01*
X161342856Y-138854819D02*
X161438094Y-138807200D01*
X161438094Y-138807200D02*
X161485713Y-138759580D01*
X159733332Y-133116033D02*
X159733332Y-132649366D01*
X159733332Y-132716033D02*
X159699999Y-132682700D01*
X159699999Y-132682700D02*
X159633332Y-132649366D01*
X159633332Y-132649366D02*
X159533332Y-132649366D01*
X159533332Y-132649366D02*
X159466665Y-132682700D01*
X159466665Y-132682700D02*
X159433332Y-132749366D01*
X159433332Y-132749366D02*
X159433332Y-133116033D01*
X159433332Y-132749366D02*
X159399999Y-132682700D01*
X159399999Y-132682700D02*
X159333332Y-132649366D01*
X159333332Y-132649366D02*
X159233332Y-132649366D01*
X159233332Y-132649366D02*
X159166665Y-132682700D01*
X159166665Y-132682700D02*
X159133332Y-132749366D01*
X159133332Y-132749366D02*
X159133332Y-133116033D01*
X158699999Y-133116033D02*
X158766666Y-133082700D01*
X158766666Y-133082700D02*
X158799999Y-133049366D01*
X158799999Y-133049366D02*
X158833332Y-132982700D01*
X158833332Y-132982700D02*
X158833332Y-132782700D01*
X158833332Y-132782700D02*
X158799999Y-132716033D01*
X158799999Y-132716033D02*
X158766666Y-132682700D01*
X158766666Y-132682700D02*
X158699999Y-132649366D01*
X158699999Y-132649366D02*
X158599999Y-132649366D01*
X158599999Y-132649366D02*
X158533332Y-132682700D01*
X158533332Y-132682700D02*
X158499999Y-132716033D01*
X158499999Y-132716033D02*
X158466666Y-132782700D01*
X158466666Y-132782700D02*
X158466666Y-132982700D01*
X158466666Y-132982700D02*
X158499999Y-133049366D01*
X158499999Y-133049366D02*
X158533332Y-133082700D01*
X158533332Y-133082700D02*
X158599999Y-133116033D01*
X158599999Y-133116033D02*
X158699999Y-133116033D01*
X157866666Y-133116033D02*
X157866666Y-132416033D01*
X157866666Y-133082700D02*
X157933333Y-133116033D01*
X157933333Y-133116033D02*
X158066666Y-133116033D01*
X158066666Y-133116033D02*
X158133333Y-133082700D01*
X158133333Y-133082700D02*
X158166666Y-133049366D01*
X158166666Y-133049366D02*
X158199999Y-132982700D01*
X158199999Y-132982700D02*
X158199999Y-132782700D01*
X158199999Y-132782700D02*
X158166666Y-132716033D01*
X158166666Y-132716033D02*
X158133333Y-132682700D01*
X158133333Y-132682700D02*
X158066666Y-132649366D01*
X158066666Y-132649366D02*
X157933333Y-132649366D01*
X157933333Y-132649366D02*
X157866666Y-132682700D01*
X157266666Y-133082700D02*
X157333333Y-133116033D01*
X157333333Y-133116033D02*
X157466666Y-133116033D01*
X157466666Y-133116033D02*
X157533333Y-133082700D01*
X157533333Y-133082700D02*
X157566666Y-133016033D01*
X157566666Y-133016033D02*
X157566666Y-132749366D01*
X157566666Y-132749366D02*
X157533333Y-132682700D01*
X157533333Y-132682700D02*
X157466666Y-132649366D01*
X157466666Y-132649366D02*
X157333333Y-132649366D01*
X157333333Y-132649366D02*
X157266666Y-132682700D01*
X157266666Y-132682700D02*
X157233333Y-132749366D01*
X157233333Y-132749366D02*
X157233333Y-132816033D01*
X157233333Y-132816033D02*
X157566666Y-132882700D01*
X156433333Y-132382700D02*
X157033333Y-133282700D01*
X156100000Y-133116033D02*
X156166667Y-133082700D01*
X156166667Y-133082700D02*
X156200000Y-133016033D01*
X156200000Y-133016033D02*
X156200000Y-132416033D01*
X155566666Y-133082700D02*
X155633333Y-133116033D01*
X155633333Y-133116033D02*
X155766666Y-133116033D01*
X155766666Y-133116033D02*
X155833333Y-133082700D01*
X155833333Y-133082700D02*
X155866666Y-133016033D01*
X155866666Y-133016033D02*
X155866666Y-132749366D01*
X155866666Y-132749366D02*
X155833333Y-132682700D01*
X155833333Y-132682700D02*
X155766666Y-132649366D01*
X155766666Y-132649366D02*
X155633333Y-132649366D01*
X155633333Y-132649366D02*
X155566666Y-132682700D01*
X155566666Y-132682700D02*
X155533333Y-132749366D01*
X155533333Y-132749366D02*
X155533333Y-132816033D01*
X155533333Y-132816033D02*
X155866666Y-132882700D01*
X154933333Y-133116033D02*
X154933333Y-132749366D01*
X154933333Y-132749366D02*
X154966666Y-132682700D01*
X154966666Y-132682700D02*
X155033333Y-132649366D01*
X155033333Y-132649366D02*
X155166666Y-132649366D01*
X155166666Y-132649366D02*
X155233333Y-132682700D01*
X154933333Y-133082700D02*
X155000000Y-133116033D01*
X155000000Y-133116033D02*
X155166666Y-133116033D01*
X155166666Y-133116033D02*
X155233333Y-133082700D01*
X155233333Y-133082700D02*
X155266666Y-133016033D01*
X155266666Y-133016033D02*
X155266666Y-132949366D01*
X155266666Y-132949366D02*
X155233333Y-132882700D01*
X155233333Y-132882700D02*
X155166666Y-132849366D01*
X155166666Y-132849366D02*
X155000000Y-132849366D01*
X155000000Y-132849366D02*
X154933333Y-132816033D01*
X154600000Y-133116033D02*
X154600000Y-132649366D01*
X154600000Y-132782700D02*
X154566667Y-132716033D01*
X154566667Y-132716033D02*
X154533333Y-132682700D01*
X154533333Y-132682700D02*
X154466667Y-132649366D01*
X154466667Y-132649366D02*
X154400000Y-132649366D01*
X154166667Y-132649366D02*
X154166667Y-133116033D01*
X154166667Y-132716033D02*
X154133334Y-132682700D01*
X154133334Y-132682700D02*
X154066667Y-132649366D01*
X154066667Y-132649366D02*
X153966667Y-132649366D01*
X153966667Y-132649366D02*
X153900000Y-132682700D01*
X153900000Y-132682700D02*
X153866667Y-132749366D01*
X153866667Y-132749366D02*
X153866667Y-133116033D01*
X124738094Y-71879819D02*
X124738094Y-70879819D01*
X124738094Y-70879819D02*
X124499999Y-70879819D01*
X124499999Y-70879819D02*
X124357142Y-70927438D01*
X124357142Y-70927438D02*
X124261904Y-71022676D01*
X124261904Y-71022676D02*
X124214285Y-71117914D01*
X124214285Y-71117914D02*
X124166666Y-71308390D01*
X124166666Y-71308390D02*
X124166666Y-71451247D01*
X124166666Y-71451247D02*
X124214285Y-71641723D01*
X124214285Y-71641723D02*
X124261904Y-71736961D01*
X124261904Y-71736961D02*
X124357142Y-71832200D01*
X124357142Y-71832200D02*
X124499999Y-71879819D01*
X124499999Y-71879819D02*
X124738094Y-71879819D01*
X123309523Y-71213152D02*
X123309523Y-71879819D01*
X123547618Y-70832200D02*
X123785713Y-71546485D01*
X123785713Y-71546485D02*
X123166666Y-71546485D01*
X124788095Y-79304819D02*
X125359523Y-79304819D01*
X125073809Y-79304819D02*
X125073809Y-78304819D01*
X125073809Y-78304819D02*
X125169047Y-78447676D01*
X125169047Y-78447676D02*
X125264285Y-78542914D01*
X125264285Y-78542914D02*
X125359523Y-78590533D01*
X124169047Y-78304819D02*
X124073809Y-78304819D01*
X124073809Y-78304819D02*
X123978571Y-78352438D01*
X123978571Y-78352438D02*
X123930952Y-78400057D01*
X123930952Y-78400057D02*
X123883333Y-78495295D01*
X123883333Y-78495295D02*
X123835714Y-78685771D01*
X123835714Y-78685771D02*
X123835714Y-78923866D01*
X123835714Y-78923866D02*
X123883333Y-79114342D01*
X123883333Y-79114342D02*
X123930952Y-79209580D01*
X123930952Y-79209580D02*
X123978571Y-79257200D01*
X123978571Y-79257200D02*
X124073809Y-79304819D01*
X124073809Y-79304819D02*
X124169047Y-79304819D01*
X124169047Y-79304819D02*
X124264285Y-79257200D01*
X124264285Y-79257200D02*
X124311904Y-79209580D01*
X124311904Y-79209580D02*
X124359523Y-79114342D01*
X124359523Y-79114342D02*
X124407142Y-78923866D01*
X124407142Y-78923866D02*
X124407142Y-78685771D01*
X124407142Y-78685771D02*
X124359523Y-78495295D01*
X124359523Y-78495295D02*
X124311904Y-78400057D01*
X124311904Y-78400057D02*
X124264285Y-78352438D01*
X124264285Y-78352438D02*
X124169047Y-78304819D01*
X123216666Y-78304819D02*
X123121428Y-78304819D01*
X123121428Y-78304819D02*
X123026190Y-78352438D01*
X123026190Y-78352438D02*
X122978571Y-78400057D01*
X122978571Y-78400057D02*
X122930952Y-78495295D01*
X122930952Y-78495295D02*
X122883333Y-78685771D01*
X122883333Y-78685771D02*
X122883333Y-78923866D01*
X122883333Y-78923866D02*
X122930952Y-79114342D01*
X122930952Y-79114342D02*
X122978571Y-79209580D01*
X122978571Y-79209580D02*
X123026190Y-79257200D01*
X123026190Y-79257200D02*
X123121428Y-79304819D01*
X123121428Y-79304819D02*
X123216666Y-79304819D01*
X123216666Y-79304819D02*
X123311904Y-79257200D01*
X123311904Y-79257200D02*
X123359523Y-79209580D01*
X123359523Y-79209580D02*
X123407142Y-79114342D01*
X123407142Y-79114342D02*
X123454761Y-78923866D01*
X123454761Y-78923866D02*
X123454761Y-78685771D01*
X123454761Y-78685771D02*
X123407142Y-78495295D01*
X123407142Y-78495295D02*
X123359523Y-78400057D01*
X123359523Y-78400057D02*
X123311904Y-78352438D01*
X123311904Y-78352438D02*
X123216666Y-78304819D01*
X122502380Y-79304819D02*
X121740476Y-78304819D01*
X122359523Y-78304819D02*
X122264285Y-78352438D01*
X122264285Y-78352438D02*
X122216666Y-78447676D01*
X122216666Y-78447676D02*
X122264285Y-78542914D01*
X122264285Y-78542914D02*
X122359523Y-78590533D01*
X122359523Y-78590533D02*
X122454761Y-78542914D01*
X122454761Y-78542914D02*
X122502380Y-78447676D01*
X122502380Y-78447676D02*
X122454761Y-78352438D01*
X122454761Y-78352438D02*
X122359523Y-78304819D01*
X121788095Y-79257200D02*
X121740476Y-79161961D01*
X121740476Y-79161961D02*
X121788095Y-79066723D01*
X121788095Y-79066723D02*
X121883333Y-79019104D01*
X121883333Y-79019104D02*
X121978571Y-79066723D01*
X121978571Y-79066723D02*
X122026190Y-79161961D01*
X122026190Y-79161961D02*
X121978571Y-79257200D01*
X121978571Y-79257200D02*
X121883333Y-79304819D01*
X121883333Y-79304819D02*
X121788095Y-79257200D01*
X177538094Y-139554819D02*
X177538094Y-138554819D01*
X177538094Y-138554819D02*
X177299999Y-138554819D01*
X177299999Y-138554819D02*
X177157142Y-138602438D01*
X177157142Y-138602438D02*
X177061904Y-138697676D01*
X177061904Y-138697676D02*
X177014285Y-138792914D01*
X177014285Y-138792914D02*
X176966666Y-138983390D01*
X176966666Y-138983390D02*
X176966666Y-139126247D01*
X176966666Y-139126247D02*
X177014285Y-139316723D01*
X177014285Y-139316723D02*
X177061904Y-139411961D01*
X177061904Y-139411961D02*
X177157142Y-139507200D01*
X177157142Y-139507200D02*
X177299999Y-139554819D01*
X177299999Y-139554819D02*
X177538094Y-139554819D01*
X176109523Y-138554819D02*
X176299999Y-138554819D01*
X176299999Y-138554819D02*
X176395237Y-138602438D01*
X176395237Y-138602438D02*
X176442856Y-138650057D01*
X176442856Y-138650057D02*
X176538094Y-138792914D01*
X176538094Y-138792914D02*
X176585713Y-138983390D01*
X176585713Y-138983390D02*
X176585713Y-139364342D01*
X176585713Y-139364342D02*
X176538094Y-139459580D01*
X176538094Y-139459580D02*
X176490475Y-139507200D01*
X176490475Y-139507200D02*
X176395237Y-139554819D01*
X176395237Y-139554819D02*
X176204761Y-139554819D01*
X176204761Y-139554819D02*
X176109523Y-139507200D01*
X176109523Y-139507200D02*
X176061904Y-139459580D01*
X176061904Y-139459580D02*
X176014285Y-139364342D01*
X176014285Y-139364342D02*
X176014285Y-139126247D01*
X176014285Y-139126247D02*
X176061904Y-139031009D01*
X176061904Y-139031009D02*
X176109523Y-138983390D01*
X176109523Y-138983390D02*
X176204761Y-138935771D01*
X176204761Y-138935771D02*
X176395237Y-138935771D01*
X176395237Y-138935771D02*
X176490475Y-138983390D01*
X176490475Y-138983390D02*
X176538094Y-139031009D01*
X176538094Y-139031009D02*
X176585713Y-139126247D01*
X128638094Y-71929819D02*
X128638094Y-70929819D01*
X128638094Y-70929819D02*
X128399999Y-70929819D01*
X128399999Y-70929819D02*
X128257142Y-70977438D01*
X128257142Y-70977438D02*
X128161904Y-71072676D01*
X128161904Y-71072676D02*
X128114285Y-71167914D01*
X128114285Y-71167914D02*
X128066666Y-71358390D01*
X128066666Y-71358390D02*
X128066666Y-71501247D01*
X128066666Y-71501247D02*
X128114285Y-71691723D01*
X128114285Y-71691723D02*
X128161904Y-71786961D01*
X128161904Y-71786961D02*
X128257142Y-71882200D01*
X128257142Y-71882200D02*
X128399999Y-71929819D01*
X128399999Y-71929819D02*
X128638094Y-71929819D01*
X127733332Y-70929819D02*
X127114285Y-70929819D01*
X127114285Y-70929819D02*
X127447618Y-71310771D01*
X127447618Y-71310771D02*
X127304761Y-71310771D01*
X127304761Y-71310771D02*
X127209523Y-71358390D01*
X127209523Y-71358390D02*
X127161904Y-71406009D01*
X127161904Y-71406009D02*
X127114285Y-71501247D01*
X127114285Y-71501247D02*
X127114285Y-71739342D01*
X127114285Y-71739342D02*
X127161904Y-71834580D01*
X127161904Y-71834580D02*
X127209523Y-71882200D01*
X127209523Y-71882200D02*
X127304761Y-71929819D01*
X127304761Y-71929819D02*
X127590475Y-71929819D01*
X127590475Y-71929819D02*
X127685713Y-71882200D01*
X127685713Y-71882200D02*
X127733332Y-71834580D01*
X129143451Y-78267319D02*
X128476785Y-78267319D01*
X128476785Y-78267319D02*
X128905356Y-79267319D01*
X127619642Y-78267319D02*
X128095832Y-78267319D01*
X128095832Y-78267319D02*
X128143451Y-78743509D01*
X128143451Y-78743509D02*
X128095832Y-78695890D01*
X128095832Y-78695890D02*
X128000594Y-78648271D01*
X128000594Y-78648271D02*
X127762499Y-78648271D01*
X127762499Y-78648271D02*
X127667261Y-78695890D01*
X127667261Y-78695890D02*
X127619642Y-78743509D01*
X127619642Y-78743509D02*
X127572023Y-78838747D01*
X127572023Y-78838747D02*
X127572023Y-79076842D01*
X127572023Y-79076842D02*
X127619642Y-79172080D01*
X127619642Y-79172080D02*
X127667261Y-79219700D01*
X127667261Y-79219700D02*
X127762499Y-79267319D01*
X127762499Y-79267319D02*
X128000594Y-79267319D01*
X128000594Y-79267319D02*
X128095832Y-79219700D01*
X128095832Y-79219700D02*
X128143451Y-79172080D01*
X127191070Y-79267319D02*
X126429166Y-78267319D01*
X127048213Y-78267319D02*
X126952975Y-78314938D01*
X126952975Y-78314938D02*
X126905356Y-78410176D01*
X126905356Y-78410176D02*
X126952975Y-78505414D01*
X126952975Y-78505414D02*
X127048213Y-78553033D01*
X127048213Y-78553033D02*
X127143451Y-78505414D01*
X127143451Y-78505414D02*
X127191070Y-78410176D01*
X127191070Y-78410176D02*
X127143451Y-78314938D01*
X127143451Y-78314938D02*
X127048213Y-78267319D01*
X126476785Y-79219700D02*
X126429166Y-79124461D01*
X126429166Y-79124461D02*
X126476785Y-79029223D01*
X126476785Y-79029223D02*
X126572023Y-78981604D01*
X126572023Y-78981604D02*
X126667261Y-79029223D01*
X126667261Y-79029223D02*
X126714880Y-79124461D01*
X126714880Y-79124461D02*
X126667261Y-79219700D01*
X126667261Y-79219700D02*
X126572023Y-79267319D01*
X126572023Y-79267319D02*
X126476785Y-79219700D01*
X165099404Y-89454819D02*
X165099404Y-90264342D01*
X165099404Y-90264342D02*
X165051785Y-90359580D01*
X165051785Y-90359580D02*
X165004166Y-90407200D01*
X165004166Y-90407200D02*
X164908928Y-90454819D01*
X164908928Y-90454819D02*
X164718452Y-90454819D01*
X164718452Y-90454819D02*
X164623214Y-90407200D01*
X164623214Y-90407200D02*
X164575595Y-90359580D01*
X164575595Y-90359580D02*
X164527976Y-90264342D01*
X164527976Y-90264342D02*
X164527976Y-89454819D01*
X164147023Y-89454819D02*
X163527976Y-89454819D01*
X163527976Y-89454819D02*
X163861309Y-89835771D01*
X163861309Y-89835771D02*
X163718452Y-89835771D01*
X163718452Y-89835771D02*
X163623214Y-89883390D01*
X163623214Y-89883390D02*
X163575595Y-89931009D01*
X163575595Y-89931009D02*
X163527976Y-90026247D01*
X163527976Y-90026247D02*
X163527976Y-90264342D01*
X163527976Y-90264342D02*
X163575595Y-90359580D01*
X163575595Y-90359580D02*
X163623214Y-90407200D01*
X163623214Y-90407200D02*
X163718452Y-90454819D01*
X163718452Y-90454819D02*
X164004166Y-90454819D01*
X164004166Y-90454819D02*
X164099404Y-90407200D01*
X164099404Y-90407200D02*
X164147023Y-90359580D01*
X144492857Y-123354819D02*
X144826190Y-122878628D01*
X145064285Y-123354819D02*
X145064285Y-122354819D01*
X145064285Y-122354819D02*
X144683333Y-122354819D01*
X144683333Y-122354819D02*
X144588095Y-122402438D01*
X144588095Y-122402438D02*
X144540476Y-122450057D01*
X144540476Y-122450057D02*
X144492857Y-122545295D01*
X144492857Y-122545295D02*
X144492857Y-122688152D01*
X144492857Y-122688152D02*
X144540476Y-122783390D01*
X144540476Y-122783390D02*
X144588095Y-122831009D01*
X144588095Y-122831009D02*
X144683333Y-122878628D01*
X144683333Y-122878628D02*
X145064285Y-122878628D01*
X143540476Y-123354819D02*
X144111904Y-123354819D01*
X143826190Y-123354819D02*
X143826190Y-122354819D01*
X143826190Y-122354819D02*
X143921428Y-122497676D01*
X143921428Y-122497676D02*
X144016666Y-122592914D01*
X144016666Y-122592914D02*
X144111904Y-122640533D01*
X142683333Y-122688152D02*
X142683333Y-123354819D01*
X142921428Y-122307200D02*
X143159523Y-123021485D01*
X143159523Y-123021485D02*
X142540476Y-123021485D01*
X178242857Y-79104819D02*
X178576190Y-78628628D01*
X178814285Y-79104819D02*
X178814285Y-78104819D01*
X178814285Y-78104819D02*
X178433333Y-78104819D01*
X178433333Y-78104819D02*
X178338095Y-78152438D01*
X178338095Y-78152438D02*
X178290476Y-78200057D01*
X178290476Y-78200057D02*
X178242857Y-78295295D01*
X178242857Y-78295295D02*
X178242857Y-78438152D01*
X178242857Y-78438152D02*
X178290476Y-78533390D01*
X178290476Y-78533390D02*
X178338095Y-78581009D01*
X178338095Y-78581009D02*
X178433333Y-78628628D01*
X178433333Y-78628628D02*
X178814285Y-78628628D01*
X177290476Y-79104819D02*
X177861904Y-79104819D01*
X177576190Y-79104819D02*
X177576190Y-78104819D01*
X177576190Y-78104819D02*
X177671428Y-78247676D01*
X177671428Y-78247676D02*
X177766666Y-78342914D01*
X177766666Y-78342914D02*
X177861904Y-78390533D01*
X176433333Y-78104819D02*
X176623809Y-78104819D01*
X176623809Y-78104819D02*
X176719047Y-78152438D01*
X176719047Y-78152438D02*
X176766666Y-78200057D01*
X176766666Y-78200057D02*
X176861904Y-78342914D01*
X176861904Y-78342914D02*
X176909523Y-78533390D01*
X176909523Y-78533390D02*
X176909523Y-78914342D01*
X176909523Y-78914342D02*
X176861904Y-79009580D01*
X176861904Y-79009580D02*
X176814285Y-79057200D01*
X176814285Y-79057200D02*
X176719047Y-79104819D01*
X176719047Y-79104819D02*
X176528571Y-79104819D01*
X176528571Y-79104819D02*
X176433333Y-79057200D01*
X176433333Y-79057200D02*
X176385714Y-79009580D01*
X176385714Y-79009580D02*
X176338095Y-78914342D01*
X176338095Y-78914342D02*
X176338095Y-78676247D01*
X176338095Y-78676247D02*
X176385714Y-78581009D01*
X176385714Y-78581009D02*
X176433333Y-78533390D01*
X176433333Y-78533390D02*
X176528571Y-78485771D01*
X176528571Y-78485771D02*
X176719047Y-78485771D01*
X176719047Y-78485771D02*
X176814285Y-78533390D01*
X176814285Y-78533390D02*
X176861904Y-78581009D01*
X176861904Y-78581009D02*
X176909523Y-78676247D01*
X183805357Y-85079580D02*
X183852976Y-85127200D01*
X183852976Y-85127200D02*
X183995833Y-85174819D01*
X183995833Y-85174819D02*
X184091071Y-85174819D01*
X184091071Y-85174819D02*
X184233928Y-85127200D01*
X184233928Y-85127200D02*
X184329166Y-85031961D01*
X184329166Y-85031961D02*
X184376785Y-84936723D01*
X184376785Y-84936723D02*
X184424404Y-84746247D01*
X184424404Y-84746247D02*
X184424404Y-84603390D01*
X184424404Y-84603390D02*
X184376785Y-84412914D01*
X184376785Y-84412914D02*
X184329166Y-84317676D01*
X184329166Y-84317676D02*
X184233928Y-84222438D01*
X184233928Y-84222438D02*
X184091071Y-84174819D01*
X184091071Y-84174819D02*
X183995833Y-84174819D01*
X183995833Y-84174819D02*
X183852976Y-84222438D01*
X183852976Y-84222438D02*
X183805357Y-84270057D01*
X182852976Y-85174819D02*
X183424404Y-85174819D01*
X183138690Y-85174819D02*
X183138690Y-84174819D01*
X183138690Y-84174819D02*
X183233928Y-84317676D01*
X183233928Y-84317676D02*
X183329166Y-84412914D01*
X183329166Y-84412914D02*
X183424404Y-84460533D01*
X182519642Y-84174819D02*
X181900595Y-84174819D01*
X181900595Y-84174819D02*
X182233928Y-84555771D01*
X182233928Y-84555771D02*
X182091071Y-84555771D01*
X182091071Y-84555771D02*
X181995833Y-84603390D01*
X181995833Y-84603390D02*
X181948214Y-84651009D01*
X181948214Y-84651009D02*
X181900595Y-84746247D01*
X181900595Y-84746247D02*
X181900595Y-84984342D01*
X181900595Y-84984342D02*
X181948214Y-85079580D01*
X181948214Y-85079580D02*
X181995833Y-85127200D01*
X181995833Y-85127200D02*
X182091071Y-85174819D01*
X182091071Y-85174819D02*
X182376785Y-85174819D01*
X182376785Y-85174819D02*
X182472023Y-85127200D01*
X182472023Y-85127200D02*
X182519642Y-85079580D01*
X160009523Y-81484819D02*
X160009523Y-82199104D01*
X160009523Y-82199104D02*
X160057142Y-82341961D01*
X160057142Y-82341961D02*
X160152380Y-82437200D01*
X160152380Y-82437200D02*
X160295237Y-82484819D01*
X160295237Y-82484819D02*
X160390475Y-82484819D01*
X159009523Y-82484819D02*
X159580951Y-82484819D01*
X159295237Y-82484819D02*
X159295237Y-81484819D01*
X159295237Y-81484819D02*
X159390475Y-81627676D01*
X159390475Y-81627676D02*
X159485713Y-81722914D01*
X159485713Y-81722914D02*
X159580951Y-81770533D01*
X158628570Y-81580057D02*
X158580951Y-81532438D01*
X158580951Y-81532438D02*
X158485713Y-81484819D01*
X158485713Y-81484819D02*
X158247618Y-81484819D01*
X158247618Y-81484819D02*
X158152380Y-81532438D01*
X158152380Y-81532438D02*
X158104761Y-81580057D01*
X158104761Y-81580057D02*
X158057142Y-81675295D01*
X158057142Y-81675295D02*
X158057142Y-81770533D01*
X158057142Y-81770533D02*
X158104761Y-81913390D01*
X158104761Y-81913390D02*
X158676189Y-82484819D01*
X158676189Y-82484819D02*
X158057142Y-82484819D01*
X167142857Y-119659580D02*
X167190476Y-119707200D01*
X167190476Y-119707200D02*
X167333333Y-119754819D01*
X167333333Y-119754819D02*
X167428571Y-119754819D01*
X167428571Y-119754819D02*
X167571428Y-119707200D01*
X167571428Y-119707200D02*
X167666666Y-119611961D01*
X167666666Y-119611961D02*
X167714285Y-119516723D01*
X167714285Y-119516723D02*
X167761904Y-119326247D01*
X167761904Y-119326247D02*
X167761904Y-119183390D01*
X167761904Y-119183390D02*
X167714285Y-118992914D01*
X167714285Y-118992914D02*
X167666666Y-118897676D01*
X167666666Y-118897676D02*
X167571428Y-118802438D01*
X167571428Y-118802438D02*
X167428571Y-118754819D01*
X167428571Y-118754819D02*
X167333333Y-118754819D01*
X167333333Y-118754819D02*
X167190476Y-118802438D01*
X167190476Y-118802438D02*
X167142857Y-118850057D01*
X166190476Y-119754819D02*
X166761904Y-119754819D01*
X166476190Y-119754819D02*
X166476190Y-118754819D01*
X166476190Y-118754819D02*
X166571428Y-118897676D01*
X166571428Y-118897676D02*
X166666666Y-118992914D01*
X166666666Y-118992914D02*
X166761904Y-119040533D01*
X165809523Y-118850057D02*
X165761904Y-118802438D01*
X165761904Y-118802438D02*
X165666666Y-118754819D01*
X165666666Y-118754819D02*
X165428571Y-118754819D01*
X165428571Y-118754819D02*
X165333333Y-118802438D01*
X165333333Y-118802438D02*
X165285714Y-118850057D01*
X165285714Y-118850057D02*
X165238095Y-118945295D01*
X165238095Y-118945295D02*
X165238095Y-119040533D01*
X165238095Y-119040533D02*
X165285714Y-119183390D01*
X165285714Y-119183390D02*
X165857142Y-119754819D01*
X165857142Y-119754819D02*
X165238095Y-119754819D01*
X173854819Y-129507142D02*
X173378628Y-129173809D01*
X173854819Y-128935714D02*
X172854819Y-128935714D01*
X172854819Y-128935714D02*
X172854819Y-129316666D01*
X172854819Y-129316666D02*
X172902438Y-129411904D01*
X172902438Y-129411904D02*
X172950057Y-129459523D01*
X172950057Y-129459523D02*
X173045295Y-129507142D01*
X173045295Y-129507142D02*
X173188152Y-129507142D01*
X173188152Y-129507142D02*
X173283390Y-129459523D01*
X173283390Y-129459523D02*
X173331009Y-129411904D01*
X173331009Y-129411904D02*
X173378628Y-129316666D01*
X173378628Y-129316666D02*
X173378628Y-128935714D01*
X173854819Y-130459523D02*
X173854819Y-129888095D01*
X173854819Y-130173809D02*
X172854819Y-130173809D01*
X172854819Y-130173809D02*
X172997676Y-130078571D01*
X172997676Y-130078571D02*
X173092914Y-129983333D01*
X173092914Y-129983333D02*
X173140533Y-129888095D01*
X173854819Y-131411904D02*
X173854819Y-130840476D01*
X173854819Y-131126190D02*
X172854819Y-131126190D01*
X172854819Y-131126190D02*
X172997676Y-131030952D01*
X172997676Y-131030952D02*
X173092914Y-130935714D01*
X173092914Y-130935714D02*
X173140533Y-130840476D01*
D12*
%TO.C,Q1*%
X138100000Y-128877500D02*
X138750000Y-128877500D01*
X138100000Y-131997500D02*
X138750000Y-131997500D01*
X139400000Y-128877500D02*
X138750000Y-128877500D01*
X139400000Y-131997500D02*
X138750000Y-131997500D01*
X139912500Y-128927500D02*
X139672500Y-128597500D01*
X140152500Y-128597500D01*
X139912500Y-128927500D01*
G36*
X139912500Y-128927500D02*
G01*
X139672500Y-128597500D01*
X140152500Y-128597500D01*
X139912500Y-128927500D01*
G37*
%TO.C,R6*%
X132465000Y-133772936D02*
X132465000Y-134227064D01*
X133935000Y-133772936D02*
X133935000Y-134227064D01*
%TO.C,R4*%
X146965000Y-83727064D02*
X146965000Y-83272936D01*
X148435000Y-83727064D02*
X148435000Y-83272936D01*
%TO.C,R19*%
X153727064Y-127965000D02*
X153272936Y-127965000D01*
X153727064Y-129435000D02*
X153272936Y-129435000D01*
%TO.C,R3*%
X144965000Y-83727064D02*
X144965000Y-83272936D01*
X146435000Y-83727064D02*
X146435000Y-83272936D01*
%TO.C,SW1*%
X139455000Y-137267000D02*
X139455000Y-138650000D01*
X139695000Y-134190000D02*
X139695000Y-135500000D01*
X139695000Y-137100000D02*
X139695000Y-138410000D01*
X140838000Y-138650000D02*
X139455000Y-138650000D01*
X141295000Y-135665000D02*
X141295000Y-136935000D01*
X141295000Y-136935000D02*
X144915000Y-136935000D01*
X142501667Y-135665000D02*
X142501667Y-136935000D01*
X142501667Y-135735000D02*
X141295000Y-135735000D01*
X142501667Y-135855000D02*
X141295000Y-135855000D01*
X142501667Y-135975000D02*
X141295000Y-135975000D01*
X142501667Y-136095000D02*
X141295000Y-136095000D01*
X142501667Y-136215000D02*
X141295000Y-136215000D01*
X142501667Y-136335000D02*
X141295000Y-136335000D01*
X142501667Y-136455000D02*
X141295000Y-136455000D01*
X142501667Y-136575000D02*
X141295000Y-136575000D01*
X142501667Y-136695000D02*
X141295000Y-136695000D01*
X142501667Y-136815000D02*
X141295000Y-136815000D01*
X144915000Y-135665000D02*
X141295000Y-135665000D01*
X144915000Y-136935000D02*
X144915000Y-135665000D01*
X146515000Y-134190000D02*
X139695000Y-134190000D01*
X146515000Y-134190000D02*
X146515000Y-135500000D01*
X146515000Y-137100000D02*
X146515000Y-138410000D01*
X146515000Y-138410000D02*
X139695000Y-138410000D01*
%TO.C,C14*%
X129465000Y-133738748D02*
X129465000Y-134261252D01*
X130935000Y-133738748D02*
X130935000Y-134261252D01*
%TO.C,R5*%
X149427064Y-127965000D02*
X148972936Y-127965000D01*
X149427064Y-129435000D02*
X148972936Y-129435000D01*
%TO.C,U4*%
X165840000Y-135285000D02*
X165840000Y-136485000D01*
X166300000Y-136485000D02*
X165840000Y-136485000D01*
X169000000Y-132825000D02*
X165920000Y-132825000D01*
X171720000Y-136485000D02*
X171500000Y-136485000D01*
X171500000Y-136485000D02*
G75*
G02*
X166300000Y-136485000I-2600000J1100000D01*
G01*
%TO.C,D1*%
X133615000Y-72452500D02*
X133615000Y-76512500D01*
X136785000Y-72452500D02*
X133615000Y-72452500D01*
X136785000Y-76512500D02*
X136785000Y-72452500D01*
%TO.C,R17*%
X182427064Y-79565000D02*
X181972936Y-79565000D01*
X182427064Y-81035000D02*
X181972936Y-81035000D01*
%TO.C,C4*%
X150161000Y-83579759D02*
X150161000Y-82949759D01*
X150476000Y-83264759D02*
X149846000Y-83264759D01*
X150960000Y-86690000D02*
X148778000Y-86690000D01*
X150960000Y-86730000D02*
X148782000Y-86730000D01*
X150960000Y-86770000D02*
X148785000Y-86770000D01*
X150960000Y-86810000D02*
X148789000Y-86810000D01*
X150960000Y-86850000D02*
X148794000Y-86850000D01*
X150960000Y-86890000D02*
X148799000Y-86890000D01*
X150960000Y-86930000D02*
X148805000Y-86930000D01*
X150960000Y-86970000D02*
X148811000Y-86970000D01*
X150960000Y-87010000D02*
X148818000Y-87010000D01*
X150960000Y-87050000D02*
X148825000Y-87050000D01*
X150960000Y-87090000D02*
X148833000Y-87090000D01*
X150960000Y-87130000D02*
X148841000Y-87130000D01*
X150960000Y-87171000D02*
X148850000Y-87171000D01*
X150960000Y-87211000D02*
X148859000Y-87211000D01*
X150960000Y-87251000D02*
X148869000Y-87251000D01*
X150960000Y-87291000D02*
X148879000Y-87291000D01*
X150960000Y-87331000D02*
X148890000Y-87331000D01*
X150960000Y-87371000D02*
X148902000Y-87371000D01*
X150960000Y-87411000D02*
X148914000Y-87411000D01*
X150960000Y-87451000D02*
X148926000Y-87451000D01*
X150960000Y-87491000D02*
X148939000Y-87491000D01*
X150960000Y-87531000D02*
X148953000Y-87531000D01*
X150960000Y-87571000D02*
X148967000Y-87571000D01*
X150960000Y-87611000D02*
X148982000Y-87611000D01*
X150960000Y-87651000D02*
X148998000Y-87651000D01*
X150960000Y-87691000D02*
X149014000Y-87691000D01*
X150960000Y-87731000D02*
X149030000Y-87731000D01*
X150960000Y-87771000D02*
X149048000Y-87771000D01*
X150960000Y-87811000D02*
X149066000Y-87811000D01*
X150960000Y-87851000D02*
X149084000Y-87851000D01*
X150960000Y-87891000D02*
X149104000Y-87891000D01*
X150960000Y-87931000D02*
X149124000Y-87931000D01*
X150960000Y-87971000D02*
X149144000Y-87971000D01*
X150960000Y-88011000D02*
X149166000Y-88011000D01*
X150960000Y-88051000D02*
X149188000Y-88051000D01*
X150960000Y-88091000D02*
X149210000Y-88091000D01*
X150960000Y-88131000D02*
X149234000Y-88131000D01*
X150960000Y-88171000D02*
X149258000Y-88171000D01*
X150960000Y-88211000D02*
X149284000Y-88211000D01*
X150960000Y-88251000D02*
X149310000Y-88251000D01*
X150960000Y-88291000D02*
X149336000Y-88291000D01*
X150960000Y-88331000D02*
X149364000Y-88331000D01*
X150960000Y-88371000D02*
X149393000Y-88371000D01*
X150960000Y-88411000D02*
X149422000Y-88411000D01*
X150960000Y-88451000D02*
X149452000Y-88451000D01*
X150960000Y-88491000D02*
X149484000Y-88491000D01*
X150960000Y-88531000D02*
X149516000Y-88531000D01*
X150960000Y-88571000D02*
X149550000Y-88571000D01*
X150960000Y-88611000D02*
X149584000Y-88611000D01*
X150960000Y-88651000D02*
X149620000Y-88651000D01*
X150960000Y-88691000D02*
X149657000Y-88691000D01*
X150960000Y-88731000D02*
X149695000Y-88731000D01*
X152402000Y-89691000D02*
X151598000Y-89691000D01*
X152633000Y-89651000D02*
X151367000Y-89651000D01*
X152802000Y-89611000D02*
X151198000Y-89611000D01*
X152940000Y-89571000D02*
X151060000Y-89571000D01*
X153059000Y-89531000D02*
X150941000Y-89531000D01*
X153165000Y-89491000D02*
X150835000Y-89491000D01*
X153262000Y-89451000D02*
X150738000Y-89451000D01*
X153350000Y-89411000D02*
X150650000Y-89411000D01*
X153432000Y-89371000D02*
X150568000Y-89371000D01*
X153509000Y-89331000D02*
X150491000Y-89331000D01*
X153581000Y-89291000D02*
X150419000Y-89291000D01*
X153650000Y-89251000D02*
X150350000Y-89251000D01*
X153714000Y-89211000D02*
X150286000Y-89211000D01*
X153776000Y-89171000D02*
X150224000Y-89171000D01*
X153834000Y-89131000D02*
X150166000Y-89131000D01*
X153890000Y-89091000D02*
X150110000Y-89091000D01*
X153944000Y-89051000D02*
X150056000Y-89051000D01*
X153995000Y-89011000D02*
X150005000Y-89011000D01*
X154044000Y-88971000D02*
X149956000Y-88971000D01*
X154092000Y-88931000D02*
X149908000Y-88931000D01*
X154137000Y-88891000D02*
X149863000Y-88891000D01*
X154182000Y-88851000D02*
X149818000Y-88851000D01*
X154224000Y-88811000D02*
X149776000Y-88811000D01*
X154265000Y-88771000D02*
X149735000Y-88771000D01*
X154305000Y-88731000D02*
X153040000Y-88731000D01*
X154343000Y-88691000D02*
X153040000Y-88691000D01*
X154380000Y-88651000D02*
X153040000Y-88651000D01*
X154416000Y-88611000D02*
X153040000Y-88611000D01*
X154450000Y-88571000D02*
X153040000Y-88571000D01*
X154484000Y-88531000D02*
X153040000Y-88531000D01*
X154516000Y-88491000D02*
X153040000Y-88491000D01*
X154548000Y-88451000D02*
X153040000Y-88451000D01*
X154578000Y-88411000D02*
X153040000Y-88411000D01*
X154607000Y-88371000D02*
X153040000Y-88371000D01*
X154636000Y-88331000D02*
X153040000Y-88331000D01*
X154664000Y-88291000D02*
X153040000Y-88291000D01*
X154690000Y-88251000D02*
X153040000Y-88251000D01*
X154716000Y-88211000D02*
X153040000Y-88211000D01*
X154742000Y-88171000D02*
X153040000Y-88171000D01*
X154766000Y-88131000D02*
X153040000Y-88131000D01*
X154790000Y-88091000D02*
X153040000Y-88091000D01*
X154812000Y-88051000D02*
X153040000Y-88051000D01*
X154834000Y-88011000D02*
X153040000Y-88011000D01*
X154856000Y-87971000D02*
X153040000Y-87971000D01*
X154876000Y-87931000D02*
X153040000Y-87931000D01*
X154896000Y-87891000D02*
X153040000Y-87891000D01*
X154916000Y-87851000D02*
X153040000Y-87851000D01*
X154934000Y-87811000D02*
X153040000Y-87811000D01*
X154952000Y-87771000D02*
X153040000Y-87771000D01*
X154970000Y-87731000D02*
X153040000Y-87731000D01*
X154986000Y-87691000D02*
X153040000Y-87691000D01*
X155002000Y-87651000D02*
X153040000Y-87651000D01*
X155018000Y-87611000D02*
X153040000Y-87611000D01*
X155033000Y-87571000D02*
X153040000Y-87571000D01*
X155047000Y-87531000D02*
X153040000Y-87531000D01*
X155061000Y-87491000D02*
X153040000Y-87491000D01*
X155074000Y-87451000D02*
X153040000Y-87451000D01*
X155086000Y-87411000D02*
X153040000Y-87411000D01*
X155098000Y-87371000D02*
X153040000Y-87371000D01*
X155110000Y-87331000D02*
X153040000Y-87331000D01*
X155121000Y-87291000D02*
X153040000Y-87291000D01*
X155131000Y-87251000D02*
X153040000Y-87251000D01*
X155141000Y-87211000D02*
X153040000Y-87211000D01*
X155150000Y-87171000D02*
X153040000Y-87171000D01*
X155159000Y-87130000D02*
X153040000Y-87130000D01*
X155167000Y-87090000D02*
X153040000Y-87090000D01*
X155175000Y-87050000D02*
X153040000Y-87050000D01*
X155182000Y-87010000D02*
X153040000Y-87010000D01*
X155189000Y-86970000D02*
X153040000Y-86970000D01*
X155195000Y-86930000D02*
X153040000Y-86930000D01*
X155201000Y-86890000D02*
X153040000Y-86890000D01*
X155206000Y-86850000D02*
X153040000Y-86850000D01*
X155211000Y-86810000D02*
X153040000Y-86810000D01*
X155215000Y-86770000D02*
X153040000Y-86770000D01*
X155218000Y-86730000D02*
X153040000Y-86730000D01*
X155222000Y-86690000D02*
X153040000Y-86690000D01*
X155224000Y-86650000D02*
X148776000Y-86650000D01*
X155227000Y-86610000D02*
X148773000Y-86610000D01*
X155228000Y-86570000D02*
X148772000Y-86570000D01*
X155230000Y-86450000D02*
X148770000Y-86450000D01*
X155230000Y-86490000D02*
X148770000Y-86490000D01*
X155230000Y-86530000D02*
X148770000Y-86530000D01*
X155270000Y-86450000D02*
G75*
G02*
X148730000Y-86450000I-3270000J0D01*
G01*
X148730000Y-86450000D02*
G75*
G02*
X155270000Y-86450000I3270000J0D01*
G01*
%TO.C,P2*%
X144650000Y-70390000D02*
X144650000Y-72095000D01*
X144650000Y-76025000D02*
X144650000Y-74105000D01*
X153810000Y-70390000D02*
X144650000Y-70390000D01*
X153810000Y-72095000D02*
X153810000Y-70390000D01*
X153810000Y-74105000D02*
X153810000Y-76025000D01*
%TO.C,D2*%
X129915000Y-73312500D02*
X129915000Y-77372500D01*
X129915000Y-77372500D02*
X133085000Y-77372500D01*
X133085000Y-77372500D02*
X133085000Y-73312500D01*
%TO.C,SW3*%
X153490000Y-134190000D02*
X160310000Y-134190000D01*
X153490000Y-135500000D02*
X153490000Y-134190000D01*
X153490000Y-138410000D02*
X153490000Y-137100000D01*
X153490000Y-138410000D02*
X160310000Y-138410000D01*
X155090000Y-135665000D02*
X155090000Y-136935000D01*
X155090000Y-136935000D02*
X158710000Y-136935000D01*
X157503333Y-135785000D02*
X158710000Y-135785000D01*
X157503333Y-135905000D02*
X158710000Y-135905000D01*
X157503333Y-136025000D02*
X158710000Y-136025000D01*
X157503333Y-136145000D02*
X158710000Y-136145000D01*
X157503333Y-136265000D02*
X158710000Y-136265000D01*
X157503333Y-136385000D02*
X158710000Y-136385000D01*
X157503333Y-136505000D02*
X158710000Y-136505000D01*
X157503333Y-136625000D02*
X158710000Y-136625000D01*
X157503333Y-136745000D02*
X158710000Y-136745000D01*
X157503333Y-136865000D02*
X158710000Y-136865000D01*
X157503333Y-136935000D02*
X157503333Y-135665000D01*
X158710000Y-135665000D02*
X155090000Y-135665000D01*
X158710000Y-136935000D02*
X158710000Y-135665000D01*
X159167000Y-133950000D02*
X160550000Y-133950000D01*
X160310000Y-135500000D02*
X160310000Y-134190000D01*
X160310000Y-138410000D02*
X160310000Y-137100000D01*
X160550000Y-135333000D02*
X160550000Y-133950000D01*
%TO.C,D4*%
X122415000Y-73337500D02*
X122415000Y-77397500D01*
X122415000Y-77397500D02*
X125585000Y-77397500D01*
X125585000Y-77397500D02*
X125585000Y-73337500D01*
%TO.C,D6*%
X175200000Y-137885000D02*
X179260000Y-137885000D01*
X179260000Y-134715000D02*
X175200000Y-134715000D01*
X179260000Y-137885000D02*
X179260000Y-134715000D01*
%TO.C,D3*%
X126177500Y-72477500D02*
X126177500Y-76537500D01*
X129347500Y-72477500D02*
X126177500Y-72477500D01*
X129347500Y-76537500D02*
X129347500Y-72477500D01*
%TO.C,U3*%
X163427500Y-86040000D02*
X163427500Y-86090000D01*
X163427500Y-89110000D02*
X163427500Y-89160000D01*
X163427500Y-89160000D02*
X165247500Y-89160000D01*
X165247500Y-86040000D02*
X163427500Y-86040000D01*
X165247500Y-86090000D02*
X165247500Y-86040000D01*
X165247500Y-89160000D02*
X165247500Y-89110000D01*
X163127500Y-89440000D02*
X162647500Y-89440000D01*
X162887500Y-89110000D01*
X163127500Y-89440000D01*
G36*
X163127500Y-89440000D02*
G01*
X162647500Y-89440000D01*
X162887500Y-89110000D01*
X163127500Y-89440000D01*
G37*
%TO.C,R14*%
X143115000Y-125372936D02*
X143115000Y-125827064D01*
X144585000Y-125372936D02*
X144585000Y-125827064D01*
%TO.C,R16*%
X177372936Y-79565000D02*
X177827064Y-79565000D01*
X177372936Y-81035000D02*
X177827064Y-81035000D01*
%TO.C,C13*%
X183423752Y-85665000D02*
X182901248Y-85665000D01*
X183423752Y-87135000D02*
X182901248Y-87135000D01*
D10*
%TO.C,J12*%
X155050000Y-70300000D02*
X163350000Y-70300000D01*
X155050000Y-70775000D02*
X155050000Y-70300000D01*
X155050000Y-80455000D02*
X155050000Y-80930000D01*
X155050000Y-80930000D02*
X163350000Y-80930000D01*
X156900000Y-81230000D02*
X158900000Y-81230000D01*
X163350000Y-70300000D02*
X163350000Y-70775000D01*
X163350000Y-80930000D02*
X163350000Y-80455000D01*
D12*
%TO.C,C12*%
X163070000Y-123570000D02*
X169530000Y-123570000D01*
X163070000Y-123610000D02*
X169530000Y-123610000D01*
X163070000Y-123650000D02*
X169530000Y-123650000D01*
X163072000Y-123530000D02*
X169528000Y-123530000D01*
X163073000Y-123490000D02*
X169527000Y-123490000D01*
X163076000Y-123450000D02*
X169524000Y-123450000D01*
X163078000Y-123410000D02*
X165260000Y-123410000D01*
X163082000Y-123370000D02*
X165260000Y-123370000D01*
X163085000Y-123330000D02*
X165260000Y-123330000D01*
X163089000Y-123290000D02*
X165260000Y-123290000D01*
X163094000Y-123250000D02*
X165260000Y-123250000D01*
X163099000Y-123210000D02*
X165260000Y-123210000D01*
X163105000Y-123170000D02*
X165260000Y-123170000D01*
X163111000Y-123130000D02*
X165260000Y-123130000D01*
X163118000Y-123090000D02*
X165260000Y-123090000D01*
X163125000Y-123050000D02*
X165260000Y-123050000D01*
X163133000Y-123010000D02*
X165260000Y-123010000D01*
X163141000Y-122970000D02*
X165260000Y-122970000D01*
X163150000Y-122929000D02*
X165260000Y-122929000D01*
X163159000Y-122889000D02*
X165260000Y-122889000D01*
X163169000Y-122849000D02*
X165260000Y-122849000D01*
X163179000Y-122809000D02*
X165260000Y-122809000D01*
X163190000Y-122769000D02*
X165260000Y-122769000D01*
X163202000Y-122729000D02*
X165260000Y-122729000D01*
X163214000Y-122689000D02*
X165260000Y-122689000D01*
X163226000Y-122649000D02*
X165260000Y-122649000D01*
X163239000Y-122609000D02*
X165260000Y-122609000D01*
X163253000Y-122569000D02*
X165260000Y-122569000D01*
X163267000Y-122529000D02*
X165260000Y-122529000D01*
X163282000Y-122489000D02*
X165260000Y-122489000D01*
X163298000Y-122449000D02*
X165260000Y-122449000D01*
X163314000Y-122409000D02*
X165260000Y-122409000D01*
X163330000Y-122369000D02*
X165260000Y-122369000D01*
X163348000Y-122329000D02*
X165260000Y-122329000D01*
X163366000Y-122289000D02*
X165260000Y-122289000D01*
X163384000Y-122249000D02*
X165260000Y-122249000D01*
X163404000Y-122209000D02*
X165260000Y-122209000D01*
X163424000Y-122169000D02*
X165260000Y-122169000D01*
X163444000Y-122129000D02*
X165260000Y-122129000D01*
X163466000Y-122089000D02*
X165260000Y-122089000D01*
X163488000Y-122049000D02*
X165260000Y-122049000D01*
X163510000Y-122009000D02*
X165260000Y-122009000D01*
X163534000Y-121969000D02*
X165260000Y-121969000D01*
X163558000Y-121929000D02*
X165260000Y-121929000D01*
X163584000Y-121889000D02*
X165260000Y-121889000D01*
X163610000Y-121849000D02*
X165260000Y-121849000D01*
X163636000Y-121809000D02*
X165260000Y-121809000D01*
X163664000Y-121769000D02*
X165260000Y-121769000D01*
X163693000Y-121729000D02*
X165260000Y-121729000D01*
X163722000Y-121689000D02*
X165260000Y-121689000D01*
X163752000Y-121649000D02*
X165260000Y-121649000D01*
X163784000Y-121609000D02*
X165260000Y-121609000D01*
X163816000Y-121569000D02*
X165260000Y-121569000D01*
X163850000Y-121529000D02*
X165260000Y-121529000D01*
X163884000Y-121489000D02*
X165260000Y-121489000D01*
X163920000Y-121449000D02*
X165260000Y-121449000D01*
X163957000Y-121409000D02*
X165260000Y-121409000D01*
X163995000Y-121369000D02*
X165260000Y-121369000D01*
X164035000Y-121329000D02*
X168565000Y-121329000D01*
X164076000Y-121289000D02*
X168524000Y-121289000D01*
X164118000Y-121249000D02*
X168482000Y-121249000D01*
X164163000Y-121209000D02*
X168437000Y-121209000D01*
X164208000Y-121169000D02*
X168392000Y-121169000D01*
X164256000Y-121129000D02*
X168344000Y-121129000D01*
X164305000Y-121089000D02*
X168295000Y-121089000D01*
X164356000Y-121049000D02*
X168244000Y-121049000D01*
X164410000Y-121009000D02*
X168190000Y-121009000D01*
X164466000Y-120969000D02*
X168134000Y-120969000D01*
X164524000Y-120929000D02*
X168076000Y-120929000D01*
X164586000Y-120889000D02*
X168014000Y-120889000D01*
X164650000Y-120849000D02*
X167950000Y-120849000D01*
X164719000Y-120809000D02*
X167881000Y-120809000D01*
X164791000Y-120769000D02*
X167809000Y-120769000D01*
X164868000Y-120729000D02*
X167732000Y-120729000D01*
X164950000Y-120689000D02*
X167650000Y-120689000D01*
X165038000Y-120649000D02*
X167562000Y-120649000D01*
X165135000Y-120609000D02*
X167465000Y-120609000D01*
X165241000Y-120569000D02*
X167359000Y-120569000D01*
X165360000Y-120529000D02*
X167240000Y-120529000D01*
X165498000Y-120489000D02*
X167102000Y-120489000D01*
X165667000Y-120449000D02*
X166933000Y-120449000D01*
X165898000Y-120409000D02*
X166702000Y-120409000D01*
X167340000Y-121369000D02*
X168605000Y-121369000D01*
X167340000Y-121409000D02*
X168643000Y-121409000D01*
X167340000Y-121449000D02*
X168680000Y-121449000D01*
X167340000Y-121489000D02*
X168716000Y-121489000D01*
X167340000Y-121529000D02*
X168750000Y-121529000D01*
X167340000Y-121569000D02*
X168784000Y-121569000D01*
X167340000Y-121609000D02*
X168816000Y-121609000D01*
X167340000Y-121649000D02*
X168848000Y-121649000D01*
X167340000Y-121689000D02*
X168878000Y-121689000D01*
X167340000Y-121729000D02*
X168907000Y-121729000D01*
X167340000Y-121769000D02*
X168936000Y-121769000D01*
X167340000Y-121809000D02*
X168964000Y-121809000D01*
X167340000Y-121849000D02*
X168990000Y-121849000D01*
X167340000Y-121889000D02*
X169016000Y-121889000D01*
X167340000Y-121929000D02*
X169042000Y-121929000D01*
X167340000Y-121969000D02*
X169066000Y-121969000D01*
X167340000Y-122009000D02*
X169090000Y-122009000D01*
X167340000Y-122049000D02*
X169112000Y-122049000D01*
X167340000Y-122089000D02*
X169134000Y-122089000D01*
X167340000Y-122129000D02*
X169156000Y-122129000D01*
X167340000Y-122169000D02*
X169176000Y-122169000D01*
X167340000Y-122209000D02*
X169196000Y-122209000D01*
X167340000Y-122249000D02*
X169216000Y-122249000D01*
X167340000Y-122289000D02*
X169234000Y-122289000D01*
X167340000Y-122329000D02*
X169252000Y-122329000D01*
X167340000Y-122369000D02*
X169270000Y-122369000D01*
X167340000Y-122409000D02*
X169286000Y-122409000D01*
X167340000Y-122449000D02*
X169302000Y-122449000D01*
X167340000Y-122489000D02*
X169318000Y-122489000D01*
X167340000Y-122529000D02*
X169333000Y-122529000D01*
X167340000Y-122569000D02*
X169347000Y-122569000D01*
X167340000Y-122609000D02*
X169361000Y-122609000D01*
X167340000Y-122649000D02*
X169374000Y-122649000D01*
X167340000Y-122689000D02*
X169386000Y-122689000D01*
X167340000Y-122729000D02*
X169398000Y-122729000D01*
X167340000Y-122769000D02*
X169410000Y-122769000D01*
X167340000Y-122809000D02*
X169421000Y-122809000D01*
X167340000Y-122849000D02*
X169431000Y-122849000D01*
X167340000Y-122889000D02*
X169441000Y-122889000D01*
X167340000Y-122929000D02*
X169450000Y-122929000D01*
X167340000Y-122970000D02*
X169459000Y-122970000D01*
X167340000Y-123010000D02*
X169467000Y-123010000D01*
X167340000Y-123050000D02*
X169475000Y-123050000D01*
X167340000Y-123090000D02*
X169482000Y-123090000D01*
X167340000Y-123130000D02*
X169489000Y-123130000D01*
X167340000Y-123170000D02*
X169495000Y-123170000D01*
X167340000Y-123210000D02*
X169501000Y-123210000D01*
X167340000Y-123250000D02*
X169506000Y-123250000D01*
X167340000Y-123290000D02*
X169511000Y-123290000D01*
X167340000Y-123330000D02*
X169515000Y-123330000D01*
X167340000Y-123370000D02*
X169518000Y-123370000D01*
X167340000Y-123410000D02*
X169522000Y-123410000D01*
X167824000Y-126835241D02*
X168454000Y-126835241D01*
X168139000Y-126520241D02*
X168139000Y-127150241D01*
X169570000Y-123650000D02*
G75*
G02*
X163030000Y-123650000I-3270000J0D01*
G01*
X163030000Y-123650000D02*
G75*
G02*
X169570000Y-123650000I3270000J0D01*
G01*
%TO.C,R11*%
X174465000Y-130277064D02*
X174465000Y-129822936D01*
X175935000Y-130277064D02*
X175935000Y-129822936D01*
%TD*%
M02*
