%TF.GenerationSoftware,KiCad,Pcbnew,9.0.6*%
%TF.CreationDate,2026-02-15T00:21:57+01:00*%
%TF.ProjectId,TannenbasisV4,54616e6e-656e-4626-9173-697356342e6b,0.1*%
%TF.SameCoordinates,Original*%
%TF.FileFunction,Paste,Bot*%
%TF.FilePolarity,Positive*%
%FSLAX46Y46*%
G04 Gerber Fmt 4.6, Leading zero omitted, Abs format (unit mm)*
G04 Created by KiCad (PCBNEW 9.0.6) date 2026-02-15 00:21:57*
%MOMM*%
%LPD*%
G01*
G04 APERTURE LIST*
G04 Aperture macros list*
%AMRoundRect*
0 Rectangle with rounded corners*
0 $1 Rounding radius*
0 $2 $3 $4 $5 $6 $7 $8 $9 X,Y pos of 4 corners*
0 Add a 4 corners polygon primitive as box body*
4,1,4,$2,$3,$4,$5,$6,$7,$8,$9,$2,$3,0*
0 Add four circle primitives for the rounded corners*
1,1,$1+$1,$2,$3*
1,1,$1+$1,$4,$5*
1,1,$1+$1,$6,$7*
1,1,$1+$1,$8,$9*
0 Add four rect primitives between the rounded corners*
20,1,$1+$1,$2,$3,$4,$5,0*
20,1,$1+$1,$4,$5,$6,$7,0*
20,1,$1+$1,$6,$7,$8,$9,0*
20,1,$1+$1,$8,$9,$2,$3,0*%
G04 Aperture macros list end*
%ADD10RoundRect,0.150000X0.587500X0.150000X-0.587500X0.150000X-0.587500X-0.150000X0.587500X-0.150000X0*%
%ADD11RoundRect,0.250000X0.450000X-0.350000X0.450000X0.350000X-0.450000X0.350000X-0.450000X-0.350000X0*%
%ADD12RoundRect,0.250000X-0.450000X0.350000X-0.450000X-0.350000X0.450000X-0.350000X0.450000X0.350000X0*%
%ADD13RoundRect,0.250000X-0.350000X-0.450000X0.350000X-0.450000X0.350000X0.450000X-0.350000X0.450000X0*%
%ADD14R,2.440000X1.120000*%
%ADD15RoundRect,0.250000X0.475000X-0.337500X0.475000X0.337500X-0.475000X0.337500X-0.475000X-0.337500X0*%
%ADD16RoundRect,0.250001X-1.074999X0.462499X-1.074999X-0.462499X1.074999X-0.462499X1.074999X0.462499X0*%
%ADD17R,0.600000X1.895000*%
%ADD18R,0.300000X1.895000*%
%ADD19RoundRect,0.250001X1.074999X-0.462499X1.074999X0.462499X-1.074999X0.462499X-1.074999X-0.462499X0*%
%ADD20RoundRect,0.250001X0.462499X1.074999X-0.462499X1.074999X-0.462499X-1.074999X0.462499X-1.074999X0*%
%ADD21RoundRect,0.150000X-0.512500X-0.150000X0.512500X-0.150000X0.512500X0.150000X-0.512500X0.150000X0*%
%ADD22RoundRect,0.250000X0.350000X0.450000X-0.350000X0.450000X-0.350000X-0.450000X0.350000X-0.450000X0*%
%ADD23RoundRect,0.250000X0.337500X0.475000X-0.337500X0.475000X-0.337500X-0.475000X0.337500X-0.475000X0*%
G04 APERTURE END LIST*
D10*
%TO.C,Q1*%
X139687500Y-129487500D03*
X139687500Y-131387500D03*
X137812500Y-130437500D03*
%TD*%
D11*
%TO.C,R6*%
X133200000Y-135000000D03*
X133200000Y-133000000D03*
%TD*%
D12*
%TO.C,R4*%
X147700000Y-82500000D03*
X147700000Y-84500000D03*
%TD*%
D13*
%TO.C,R19*%
X152500000Y-128700000D03*
X154500000Y-128700000D03*
%TD*%
D12*
%TO.C,R3*%
X145700000Y-82500000D03*
X145700000Y-84500000D03*
%TD*%
D14*
%TO.C,SW1*%
X138800000Y-136300000D03*
X147410000Y-136300000D03*
%TD*%
D15*
%TO.C,C14*%
X130200000Y-135037500D03*
X130200000Y-132962500D03*
%TD*%
D13*
%TO.C,R5*%
X148200000Y-128700000D03*
X150200000Y-128700000D03*
%TD*%
D16*
%TO.C,D1*%
X135200000Y-73425000D03*
X135200000Y-76400000D03*
%TD*%
D13*
%TO.C,R17*%
X181200000Y-80300000D03*
X183200000Y-80300000D03*
%TD*%
D17*
%TO.C,P2*%
X146030000Y-78227500D03*
X146830000Y-78227500D03*
D18*
X147980000Y-78227500D03*
X148980000Y-78227500D03*
X149480000Y-78227500D03*
X150480000Y-78227500D03*
D17*
X151630000Y-78227500D03*
X152430000Y-78227500D03*
X152430000Y-78227500D03*
X151630000Y-78227500D03*
D18*
X150980000Y-78227500D03*
X149980000Y-78227500D03*
X148480000Y-78227500D03*
X147480000Y-78227500D03*
D17*
X146830000Y-78227500D03*
X146030000Y-78227500D03*
%TD*%
D19*
%TO.C,D2*%
X131500000Y-76400000D03*
X131500000Y-73425000D03*
%TD*%
D14*
%TO.C,SW3*%
X161205000Y-136300000D03*
X152595000Y-136300000D03*
%TD*%
D19*
%TO.C,D4*%
X124000000Y-76425000D03*
X124000000Y-73450000D03*
%TD*%
D20*
%TO.C,D6*%
X178287500Y-136300000D03*
X175312500Y-136300000D03*
%TD*%
D16*
%TO.C,D3*%
X127762500Y-73450000D03*
X127762500Y-76425000D03*
%TD*%
D21*
%TO.C,U3*%
X163200000Y-88550000D03*
X163200000Y-87600000D03*
X163200000Y-86650000D03*
X165475000Y-86650000D03*
X165475000Y-87600000D03*
X165475000Y-88550000D03*
%TD*%
D11*
%TO.C,R14*%
X143850000Y-126600000D03*
X143850000Y-124600000D03*
%TD*%
D22*
%TO.C,R16*%
X178600000Y-80300000D03*
X176600000Y-80300000D03*
%TD*%
D23*
%TO.C,C13*%
X184200000Y-86400000D03*
X182125000Y-86400000D03*
%TD*%
D12*
%TO.C,R11*%
X175200000Y-129050000D03*
X175200000Y-131050000D03*
%TD*%
M02*
