M48
; DRILL file {KiCad 9.0.6} date 2026-02-15T00:22:05+0100
; FORMAT={-:-/ absolute / metric / decimal}
; #@! TF.CreationDate,2026-02-15T00:22:05+01:00
; #@! TF.GenerationSoftware,Kicad,Pcbnew,9.0.6
; #@! TF.FileFunction,Plated,1,2,PTH
FMAT,2
METRIC
; #@! TA.AperFunction,Plated,PTH,ComponentDrill
T1C0.200
; #@! TA.AperFunction,Plated,PTH,ViaDrill
T2C0.300
; #@! TA.AperFunction,Plated,PTH,ComponentDrill
T3C0.350
; #@! TA.AperFunction,Plated,PTH,ComponentDrill
T4C0.440
; #@! TA.AperFunction,Plated,PTH,ViaDrill
T5C0.500
; #@! TA.AperFunction,Plated,PTH,ComponentDrill
T6C0.510
; #@! TA.AperFunction,Plated,PTH,ComponentDrill
T7C0.600
; #@! TA.AperFunction,Plated,PTH,ComponentDrill
T8C0.800
; #@! TA.AperFunction,Plated,PTH,ComponentDrill
T9C0.900
; #@! TA.AperFunction,Plated,PTH,ComponentDrill
T10C1.000
%
G90
G05
T1
X176.6Y-86.1
X176.6Y-87.5
X177.3Y-85.4
X177.3Y-86.8
X177.3Y-88.2
X178.0Y-86.1
X178.0Y-87.5
X178.7Y-85.4
X178.7Y-86.8
X178.7Y-88.2
X179.4Y-86.1
X179.4Y-87.5
T2
X121.7Y-74.2
X124.2Y-89.6
X126.75Y-79.1
X129.4Y-78.5
X150.4Y-76.45
X150.7Y-74.95
X159.4Y-130.75
X161.65Y-86.55
X165.2Y-102.25
X167.6Y-93.1
X167.85Y-101.05
X168.1Y-87.1
X168.5Y-82.9
X168.65Y-94.05
X168.9Y-132.1
X172.55Y-93.1
X172.8Y-90.5
X172.8Y-125.9
X173.7Y-95.3
X173.75Y-90.65
X173.8Y-98.75
X173.8Y-121.65
X174.35Y-85.43
X174.5Y-93.6
X175.0Y-86.75
X175.25Y-107.7
X175.75Y-123.9
X176.1Y-110.2
X176.5Y-133.3
X176.9Y-91.75
X177.55Y-99.1
X177.55Y-112.7
X178.25Y-122.85
X178.95Y-99.1
X178.95Y-115.3
X178.95Y-117.85
X178.95Y-120.4
X179.85Y-98.95
X180.25Y-82.9
X180.5Y-99.6
X181.05Y-92.85
X182.65Y-100.35
X182.7Y-94.8
X183.95Y-99.15
X184.6Y-94.35
X185.3Y-81.6
X185.35Y-93.05
X185.75Y-89.3
X185.8Y-91.8
X186.0Y-80.4
X186.05Y-88.05
X186.85Y-84.15
X186.9Y-85.45
X186.9Y-86.7
X188.551Y-97.15
T4
X157.65Y-79.55
X158.45Y-78.35
X159.25Y-79.55
X160.05Y-78.35
X160.85Y-79.55
T5
X131.0Y-93.1
X142.4Y-82.4
X145.75Y-107.65
X146.8Y-79.8
X150.8Y-81.4
X150.9Y-121.9
X151.85Y-112.75
X154.5Y-125.5
X155.05Y-106.0
X155.2Y-116.45
X158.3Y-120.0
X158.5Y-85.1
X162.1Y-126.2
X172.2Y-103.6
T6
X126.105Y-84.42
X126.105Y-86.52
X127.355Y-84.42
X127.355Y-86.52
X128.625Y-84.42
X128.625Y-86.52
T8
X152.0Y-85.2
X152.0Y-87.7
X166.3Y-122.4
X166.3Y-124.9
T9
X166.46Y-134.185
X169.0Y-134.185
X171.54Y-134.185
T10
X124.4Y-107.4
X124.4Y-109.94
X125.5Y-117.2
X125.5Y-119.74
X125.5Y-122.28
X125.5Y-124.82
X130.09Y-117.2
X130.09Y-119.74
X130.09Y-122.28
X130.09Y-124.82
X134.68Y-117.2
X134.68Y-119.74
X134.68Y-122.28
X134.68Y-124.82
X144.1Y-96.1
X144.1Y-112.0
X147.2Y-93.0
X147.4Y-115.4
X150.0Y-102.5
X153.6Y-109.2
X156.7Y-99.0
X160.3Y-105.6
X163.1Y-93.0
X163.1Y-115.2
X166.3Y-96.2
X166.3Y-112.0
X166.4Y-72.26
X166.4Y-74.8
X182.1Y-102.6
X182.1Y-105.14
X182.1Y-107.68
X182.1Y-110.22
X182.1Y-112.76
X182.1Y-115.3
X182.1Y-117.84
X182.1Y-120.38
X182.1Y-122.92
X182.1Y-125.46
X182.1Y-128.0
X182.1Y-130.54
X182.1Y-133.08
X182.1Y-135.62
X184.64Y-102.6
X184.64Y-105.14
X184.64Y-107.68
X184.64Y-110.22
X184.64Y-112.76
X184.64Y-115.3
X184.64Y-117.84
X184.64Y-120.38
X184.64Y-122.92
X184.64Y-125.46
X184.64Y-128.0
X184.64Y-130.54
X184.64Y-133.08
X184.64Y-135.62
T3
G00X155.55Y-73.35
M15
G01X155.55Y-74.35
M16
G05
G00X155.55Y-78.1
M15
G01X155.55Y-79.1
M16
G05
G00X162.95Y-73.35
M15
G01X162.95Y-74.35
M16
G05
G00X162.95Y-79.1
M15
G01X162.95Y-78.1
M16
G05
T7
G00X144.91Y-72.7
M15
G01X144.91Y-73.5
M16
G05
G00X144.91Y-76.75
M15
G01X144.91Y-77.85
M16
G05
G00X153.55Y-72.7
M15
G01X153.55Y-73.5
M16
G05
G00X153.55Y-76.75
M15
G01X153.55Y-77.85
M16
G05
M30
