%TF.GenerationSoftware,KiCad,Pcbnew,9.0.6*%
%TF.CreationDate,2026-02-15T00:21:57+01:00*%
%TF.ProjectId,TannenbasisV4,54616e6e-656e-4626-9173-697356342e6b,0.1*%
%TF.SameCoordinates,Original*%
%TF.FileFunction,Profile,NP*%
%FSLAX46Y46*%
G04 Gerber Fmt 4.6, Leading zero omitted, Abs format (unit mm)*
G04 Created by KiCad (PCBNEW 9.0.6) date 2026-02-15 00:21:57*
%MOMM*%
%LPD*%
G01*
G04 APERTURE LIST*
%TA.AperFunction,Profile*%
%ADD10C,0.050000*%
%TD*%
G04 APERTURE END LIST*
D10*
X151500000Y-101450000D02*
X147200000Y-97250000D01*
X158850000Y-106750000D02*
X157800000Y-107800000D01*
X147200000Y-110950000D02*
X151500000Y-106700000D01*
X152500000Y-100350000D02*
X151500000Y-101450000D01*
X120000000Y-140000000D02*
X120000000Y-70000000D01*
X162050000Y-112050000D02*
X163150000Y-110950000D01*
X190000000Y-140000000D02*
X120000000Y-140000000D01*
X147200000Y-97250000D02*
X148300000Y-96150000D01*
X157800000Y-100400000D02*
X162050000Y-96150000D01*
X151500000Y-106700000D02*
X152550000Y-107750000D01*
X163150000Y-110950000D02*
X158850000Y-106750000D01*
X162050000Y-96150000D02*
X163100000Y-97200000D01*
X148300000Y-96150000D02*
X152500000Y-100350000D01*
X190000000Y-70000000D02*
X190000000Y-140000000D01*
X158900000Y-101450000D02*
X157800000Y-100400000D01*
X163100000Y-97200000D02*
X158900000Y-101450000D01*
X120000000Y-70000000D02*
X190000000Y-70000000D01*
X157800000Y-107800000D02*
X162050000Y-112050000D01*
X152550000Y-107750000D02*
X148300000Y-112000000D01*
X148300000Y-112000000D02*
X147200000Y-110950000D01*
M02*
